<?xml version="1.0" encoding="utf-8" standalone="no"?>
<!DOCTYPE svg PUBLIC "-//W3C//DTD SVG 1.1//EN"
  "http://www.w3.org/Graphics/SVG/1.1/DTD/svg11.dtd">
<svg xmlns:xlink="http://www.w3.org/1999/xlink" width="867.526015pt" height="576.11625pt" viewBox="0 0 867.526015 576.11625" xmlns="http://www.w3.org/2000/svg" version="1.1">
 <metadata>
  <rdf:RDF xmlns:dc="http://purl.org/dc/elements/1.1/" xmlns:cc="http://creativecommons.org/ns#" xmlns:rdf="http://www.w3.org/1999/02/22-rdf-syntax-ns#">
   <cc:Work>
    <dc:type rdf:resource="http://purl.org/dc/dcmitype/StillImage"/>
    <dc:date>2026-04-14T22:46:14.572092</dc:date>
    <dc:format>image/svg+xml</dc:format>
    <dc:creator>
     <cc:Agent>
      <dc:title>Matplotlib v3.10.8, https://matplotlib.org/</dc:title>
     </cc:Agent>
    </dc:creator>
   </cc:Work>
  </rdf:RDF>
 </metadata>
 <defs>
  <style type="text/css">*{stroke-linejoin: round; stroke-linecap: butt}</style>
 </defs>
 <g id="figure_1">
  <g id="patch_1">
   <path d="M 0 576.11625 
L 867.526015 576.11625 
L 867.526015 -0 
L 0 -0 
z
" style="fill: #fffdf8"/>
  </g>
  <g id="axes_1">
   <g id="patch_2">
    <path d="M 55.605625 270.166154 
L 750.837625 270.166154 
L 750.837625 76.32 
L 55.605625 76.32 
z
" style="fill: #fffdf8"/>
   </g>
   <g id="FillBetweenPolyCollection_1">
    <defs>
     <path id="m6145e143f7" d="M 87.20708 -320.101399 
L 87.20708 -334.904596 
L 95.634134 -333.251791 
L 104.061189 -330.28661 
L 112.488243 -328.358357 
L 120.915298 -327.324849 
L 129.342352 -327.251633 
L 137.769407 -326.979017 
L 146.196461 -328.166067 
L 154.623516 -332.78052 
L 163.05057 -331.79559 
L 171.477625 -335.930802 
L 179.90468 -336.185027 
L 188.331734 -351.87085 
L 196.758789 -353.309811 
L 205.185843 -369.922321 
L 213.612898 -380.319081 
L 222.039952 -396.132243 
L 230.467007 -409.902178 
L 238.894061 -424.600329 
L 247.321116 -431.676257 
L 255.74817 -439.484639 
L 264.175225 -435.767482 
L 272.60228 -433.081757 
L 281.029334 -435.503136 
L 289.456389 -419.525764 
L 297.883443 -414.403419 
L 306.310498 -406.79441 
L 314.737552 -389.923452 
L 323.164607 -386.141577 
L 331.591661 -387.049352 
L 340.018716 -376.705781 
L 348.44577 -370.904514 
L 356.872825 -367.411917 
L 365.29988 -362.606756 
L 373.726934 -357.586752 
L 382.153989 -360.14386 
L 390.581043 -356.892925 
L 399.008098 -352.57927 
L 407.435152 -349.271069 
L 415.862207 -353.12028 
L 424.289261 -348.835137 
L 432.716316 -346.038619 
L 441.14337 -342.279851 
L 449.570425 -337.902547 
L 457.99748 -335.807874 
L 466.424534 -332.309924 
L 474.851589 -329.567416 
L 483.278643 -327.300014 
L 491.705698 -326.800823 
L 500.132752 -327.764353 
L 508.559807 -329.109911 
L 516.986861 -326.233961 
L 525.413916 -329.733104 
L 533.84097 -328.599615 
L 542.268025 -328.871686 
L 550.69508 -331.147853 
L 559.122134 -328.417859 
L 567.549189 -329.453056 
L 575.976243 -335.273429 
L 584.403298 -334.204436 
L 592.830352 -337.169069 
L 601.257407 -344.520872 
L 609.684461 -355.471852 
L 618.111516 -367.260264 
L 626.53857 -360.495454 
L 634.965625 -359.896322 
L 643.39268 -379.793001 
L 651.819734 -399.566923 
L 660.246789 -408.781669 
L 668.673843 -417.304584 
L 677.100898 -438.853617 
L 685.527952 -449.146398 
L 693.955007 -454.733849 
L 702.382061 -467.44158 
L 710.809116 -462.225674 
L 719.23617 -448.251285 
L 719.23617 -434.532423 
L 719.23617 -434.532423 
L 710.809116 -404.780357 
L 702.382061 -443.686905 
L 693.955007 -442.924031 
L 685.527952 -421.563574 
L 677.100898 -418.51208 
L 668.673843 -403.25461 
L 660.246789 -380.368405 
L 651.819734 -372.73967 
L 643.39268 -357.4822 
L 634.965625 -355.19358 
L 626.53857 -364.348062 
L 618.111516 -357.4822 
L 609.684461 -346.039098 
L 601.257407 -333.070249 
L 592.830352 -328.493008 
L 584.403298 -326.204387 
L 575.976243 -320.101399 
L 567.549189 -325.441514 
L 559.122134 -317.812779 
L 550.69508 -317.049905 
L 542.268025 -315.524158 
L 533.84097 -318.575652 
L 525.413916 -320.101399 
L 516.986861 -320.864273 
L 508.559807 -319.338526 
L 500.132752 -319.338526 
L 491.705698 -314.761285 
L 483.278643 -315.524158 
L 474.851589 -324.67864 
L 466.424534 -318.575652 
L 457.99748 -326.967261 
L 449.570425 -329.255881 
L 441.14337 -331.544502 
L 432.716316 -324.67864 
L 424.289261 -326.204387 
L 415.862207 -338.410363 
L 407.435152 -335.358869 
L 399.008098 -336.884616 
L 390.581043 -334.595996 
L 382.153989 -339.93611 
L 373.726934 -340.698984 
L 365.29988 -336.884616 
L 356.872825 -352.142086 
L 348.44577 -344.513351 
L 340.018716 -371.213923 
L 331.591661 -362.059441 
L 323.164607 -359.007947 
L 314.737552 -371.213923 
L 306.310498 -362.059441 
L 297.883443 -400.203116 
L 289.456389 -403.25461 
L 281.029334 -393.337254 
L 272.60228 -382.657026 
L 264.175225 -416.223459 
L 255.74817 -376.554038 
L 247.321116 -399.440242 
L 238.894061 -391.811507 
L 230.467007 -378.079785 
L 222.039952 -360.533694 
L 213.612898 -364.348062 
L 205.185843 -349.853466 
L 196.758789 -351.379212 
L 188.331734 -336.121743 
L 179.90468 -342.987604 
L 171.477625 -332.307375 
L 163.05057 -326.967261 
L 154.623516 -335.358869 
L 146.196461 -320.101399 
L 137.769407 -319.338526 
L 129.342352 -318.575652 
L 120.915298 -319.338526 
L 112.488243 -323.152893 
L 104.061189 -315.524158 
L 95.634134 -318.575652 
L 87.20708 -320.101399 
z
" style="stroke: #d28b79; stroke-opacity: 0.18"/>
    </defs>
    <g clip-path="url(#pd15d48e9c6)">
     <use xlink:href="#m6145e143f7" x="0" y="576.11625" style="fill: #d28b79; fill-opacity: 0.18; stroke: #d28b79; stroke-opacity: 0.18"/>
    </g>
   </g>
   <g id="matplotlib.axis_1">
    <g id="xtick_1">
     <g id="line2d_1">
      <path d="M 60.722051 270.166154 
L 60.722051 76.32 
" clip-path="url(#pd15d48e9c6)" style="fill: none; stroke: #e7dfd1; stroke-opacity: 0.75; stroke-width: 0.8; stroke-linecap: square"/>
     </g>
     <g id="line2d_2">
      <defs>
       <path id="me9d0d5c549" d="M 0 0 
L 0 3.5 
" style="stroke: #1f2937; stroke-width: 0.8"/>
      </defs>
      <g>
       <use xlink:href="#me9d0d5c549" x="60.722051" y="270.166154" style="fill: #1f2937; stroke: #1f2937; stroke-width: 0.8"/>
      </g>
     </g>
     <g id="text_1">
      <!-- 2023-01 -->
      <g style="fill: #1f2937" transform="translate(39.830645 284.764591) scale(0.1 -0.1)">
       <defs>
        <path id="DejaVuSans-32" d="M 1228 531 
L 3431 531 
L 3431 0 
L 469 0 
L 469 531 
Q 828 903 1448 1529 
Q 2069 2156 2228 2338 
Q 2531 2678 2651 2914 
Q 2772 3150 2772 3378 
Q 2772 3750 2511 3984 
Q 2250 4219 1831 4219 
Q 1534 4219 1204 4116 
Q 875 4013 500 3803 
L 500 4441 
Q 881 4594 1212 4672 
Q 1544 4750 1819 4750 
Q 2544 4750 2975 4387 
Q 3406 4025 3406 3419 
Q 3406 3131 3298 2873 
Q 3191 2616 2906 2266 
Q 2828 2175 2409 1742 
Q 1991 1309 1228 531 
z
" transform="scale(0.015625)"/>
        <path id="DejaVuSans-30" d="M 2034 4250 
Q 1547 4250 1301 3770 
Q 1056 3291 1056 2328 
Q 1056 1369 1301 889 
Q 1547 409 2034 409 
Q 2525 409 2770 889 
Q 3016 1369 3016 2328 
Q 3016 3291 2770 3770 
Q 2525 4250 2034 4250 
z
M 2034 4750 
Q 2819 4750 3233 4129 
Q 3647 3509 3647 2328 
Q 3647 1150 3233 529 
Q 2819 -91 2034 -91 
Q 1250 -91 836 529 
Q 422 1150 422 2328 
Q 422 3509 836 4129 
Q 1250 4750 2034 4750 
z
" transform="scale(0.015625)"/>
        <path id="DejaVuSans-33" d="M 2597 2516 
Q 3050 2419 3304 2112 
Q 3559 1806 3559 1356 
Q 3559 666 3084 287 
Q 2609 -91 1734 -91 
Q 1441 -91 1130 -33 
Q 819 25 488 141 
L 488 750 
Q 750 597 1062 519 
Q 1375 441 1716 441 
Q 2309 441 2620 675 
Q 2931 909 2931 1356 
Q 2931 1769 2642 2001 
Q 2353 2234 1838 2234 
L 1294 2234 
L 1294 2753 
L 1863 2753 
Q 2328 2753 2575 2939 
Q 2822 3125 2822 3475 
Q 2822 3834 2567 4026 
Q 2313 4219 1838 4219 
Q 1578 4219 1281 4162 
Q 984 4106 628 3988 
L 628 4550 
Q 988 4650 1302 4700 
Q 1616 4750 1894 4750 
Q 2613 4750 3031 4423 
Q 3450 4097 3450 3541 
Q 3450 3153 3228 2886 
Q 3006 2619 2597 2516 
z
" transform="scale(0.015625)"/>
        <path id="DejaVuSans-2d" d="M 313 2009 
L 1997 2009 
L 1997 1497 
L 313 1497 
L 313 2009 
z
" transform="scale(0.015625)"/>
        <path id="DejaVuSans-31" d="M 794 531 
L 1825 531 
L 1825 4091 
L 703 3866 
L 703 4441 
L 1819 4666 
L 2450 4666 
L 2450 531 
L 3481 531 
L 3481 0 
L 794 0 
L 794 531 
z
" transform="scale(0.015625)"/>
       </defs>
       <use xlink:href="#DejaVuSans-32"/>
       <use xlink:href="#DejaVuSans-30" transform="translate(63.623047 0)"/>
       <use xlink:href="#DejaVuSans-32" transform="translate(127.246094 0)"/>
       <use xlink:href="#DejaVuSans-33" transform="translate(190.869141 0)"/>
       <use xlink:href="#DejaVuSans-2d" transform="translate(254.492188 0)"/>
       <use xlink:href="#DejaVuSans-30" transform="translate(290.576172 0)"/>
       <use xlink:href="#DejaVuSans-31" transform="translate(354.199219 0)"/>
      </g>
     </g>
    </g>
    <g id="xtick_2">
     <g id="line2d_3">
      <path d="M 131.750082 270.166154 
L 131.750082 76.32 
" clip-path="url(#pd15d48e9c6)" style="fill: none; stroke: #e7dfd1; stroke-opacity: 0.75; stroke-width: 0.8; stroke-linecap: square"/>
     </g>
     <g id="line2d_4">
      <g>
       <use xlink:href="#me9d0d5c549" x="131.750082" y="270.166154" style="fill: #1f2937; stroke: #1f2937; stroke-width: 0.8"/>
      </g>
     </g>
     <g id="text_2">
      <!-- 2023-03 -->
      <g style="fill: #1f2937" transform="translate(110.858676 284.764591) scale(0.1 -0.1)">
       <use xlink:href="#DejaVuSans-32"/>
       <use xlink:href="#DejaVuSans-30" transform="translate(63.623047 0)"/>
       <use xlink:href="#DejaVuSans-32" transform="translate(127.246094 0)"/>
       <use xlink:href="#DejaVuSans-33" transform="translate(190.869141 0)"/>
       <use xlink:href="#DejaVuSans-2d" transform="translate(254.492188 0)"/>
       <use xlink:href="#DejaVuSans-30" transform="translate(290.576172 0)"/>
       <use xlink:href="#DejaVuSans-33" transform="translate(354.199219 0)"/>
      </g>
     </g>
    </g>
    <g id="xtick_3">
     <g id="line2d_5">
      <path d="M 205.185843 270.166154 
L 205.185843 76.32 
" clip-path="url(#pd15d48e9c6)" style="fill: none; stroke: #e7dfd1; stroke-opacity: 0.75; stroke-width: 0.8; stroke-linecap: square"/>
     </g>
     <g id="line2d_6">
      <g>
       <use xlink:href="#me9d0d5c549" x="205.185843" y="270.166154" style="fill: #1f2937; stroke: #1f2937; stroke-width: 0.8"/>
      </g>
     </g>
     <g id="text_3">
      <!-- 2023-05 -->
      <g style="fill: #1f2937" transform="translate(184.294437 284.764591) scale(0.1 -0.1)">
       <defs>
        <path id="DejaVuSans-35" d="M 691 4666 
L 3169 4666 
L 3169 4134 
L 1269 4134 
L 1269 2991 
Q 1406 3038 1543 3061 
Q 1681 3084 1819 3084 
Q 2600 3084 3056 2656 
Q 3513 2228 3513 1497 
Q 3513 744 3044 326 
Q 2575 -91 1722 -91 
Q 1428 -91 1123 -41 
Q 819 9 494 109 
L 494 744 
Q 775 591 1075 516 
Q 1375 441 1709 441 
Q 2250 441 2565 725 
Q 2881 1009 2881 1497 
Q 2881 1984 2565 2268 
Q 2250 2553 1709 2553 
Q 1456 2553 1204 2497 
Q 953 2441 691 2322 
L 691 4666 
z
" transform="scale(0.015625)"/>
       </defs>
       <use xlink:href="#DejaVuSans-32"/>
       <use xlink:href="#DejaVuSans-30" transform="translate(63.623047 0)"/>
       <use xlink:href="#DejaVuSans-32" transform="translate(127.246094 0)"/>
       <use xlink:href="#DejaVuSans-33" transform="translate(190.869141 0)"/>
       <use xlink:href="#DejaVuSans-2d" transform="translate(254.492188 0)"/>
       <use xlink:href="#DejaVuSans-30" transform="translate(290.576172 0)"/>
       <use xlink:href="#DejaVuSans-35" transform="translate(354.199219 0)"/>
      </g>
     </g>
    </g>
    <g id="xtick_4">
     <g id="line2d_7">
      <path d="M 278.621604 270.166154 
L 278.621604 76.32 
" clip-path="url(#pd15d48e9c6)" style="fill: none; stroke: #e7dfd1; stroke-opacity: 0.75; stroke-width: 0.8; stroke-linecap: square"/>
     </g>
     <g id="line2d_8">
      <g>
       <use xlink:href="#me9d0d5c549" x="278.621604" y="270.166154" style="fill: #1f2937; stroke: #1f2937; stroke-width: 0.8"/>
      </g>
     </g>
     <g id="text_4">
      <!-- 2023-07 -->
      <g style="fill: #1f2937" transform="translate(257.730198 284.764591) scale(0.1 -0.1)">
       <defs>
        <path id="DejaVuSans-37" d="M 525 4666 
L 3525 4666 
L 3525 4397 
L 1831 0 
L 1172 0 
L 2766 4134 
L 525 4134 
L 525 4666 
z
" transform="scale(0.015625)"/>
       </defs>
       <use xlink:href="#DejaVuSans-32"/>
       <use xlink:href="#DejaVuSans-30" transform="translate(63.623047 0)"/>
       <use xlink:href="#DejaVuSans-32" transform="translate(127.246094 0)"/>
       <use xlink:href="#DejaVuSans-33" transform="translate(190.869141 0)"/>
       <use xlink:href="#DejaVuSans-2d" transform="translate(254.492188 0)"/>
       <use xlink:href="#DejaVuSans-30" transform="translate(290.576172 0)"/>
       <use xlink:href="#DejaVuSans-37" transform="translate(354.199219 0)"/>
      </g>
     </g>
    </g>
    <g id="xtick_5">
     <g id="line2d_9">
      <path d="M 353.26123 270.166154 
L 353.26123 76.32 
" clip-path="url(#pd15d48e9c6)" style="fill: none; stroke: #e7dfd1; stroke-opacity: 0.75; stroke-width: 0.8; stroke-linecap: square"/>
     </g>
     <g id="line2d_10">
      <g>
       <use xlink:href="#me9d0d5c549" x="353.26123" y="270.166154" style="fill: #1f2937; stroke: #1f2937; stroke-width: 0.8"/>
      </g>
     </g>
     <g id="text_5">
      <!-- 2023-09 -->
      <g style="fill: #1f2937" transform="translate(332.369824 284.764591) scale(0.1 -0.1)">
       <defs>
        <path id="DejaVuSans-39" d="M 703 97 
L 703 672 
Q 941 559 1184 500 
Q 1428 441 1663 441 
Q 2288 441 2617 861 
Q 2947 1281 2994 2138 
Q 2813 1869 2534 1725 
Q 2256 1581 1919 1581 
Q 1219 1581 811 2004 
Q 403 2428 403 3163 
Q 403 3881 828 4315 
Q 1253 4750 1959 4750 
Q 2769 4750 3195 4129 
Q 3622 3509 3622 2328 
Q 3622 1225 3098 567 
Q 2575 -91 1691 -91 
Q 1453 -91 1209 -44 
Q 966 3 703 97 
z
M 1959 2075 
Q 2384 2075 2632 2365 
Q 2881 2656 2881 3163 
Q 2881 3666 2632 3958 
Q 2384 4250 1959 4250 
Q 1534 4250 1286 3958 
Q 1038 3666 1038 3163 
Q 1038 2656 1286 2365 
Q 1534 2075 1959 2075 
z
" transform="scale(0.015625)"/>
       </defs>
       <use xlink:href="#DejaVuSans-32"/>
       <use xlink:href="#DejaVuSans-30" transform="translate(63.623047 0)"/>
       <use xlink:href="#DejaVuSans-32" transform="translate(127.246094 0)"/>
       <use xlink:href="#DejaVuSans-33" transform="translate(190.869141 0)"/>
       <use xlink:href="#DejaVuSans-2d" transform="translate(254.492188 0)"/>
       <use xlink:href="#DejaVuSans-30" transform="translate(290.576172 0)"/>
       <use xlink:href="#DejaVuSans-39" transform="translate(354.199219 0)"/>
      </g>
     </g>
    </g>
    <g id="xtick_6">
     <g id="line2d_11">
      <path d="M 426.696991 270.166154 
L 426.696991 76.32 
" clip-path="url(#pd15d48e9c6)" style="fill: none; stroke: #e7dfd1; stroke-opacity: 0.75; stroke-width: 0.8; stroke-linecap: square"/>
     </g>
     <g id="line2d_12">
      <g>
       <use xlink:href="#me9d0d5c549" x="426.696991" y="270.166154" style="fill: #1f2937; stroke: #1f2937; stroke-width: 0.8"/>
      </g>
     </g>
     <g id="text_6">
      <!-- 2023-11 -->
      <g style="fill: #1f2937" transform="translate(405.805585 284.764591) scale(0.1 -0.1)">
       <use xlink:href="#DejaVuSans-32"/>
       <use xlink:href="#DejaVuSans-30" transform="translate(63.623047 0)"/>
       <use xlink:href="#DejaVuSans-32" transform="translate(127.246094 0)"/>
       <use xlink:href="#DejaVuSans-33" transform="translate(190.869141 0)"/>
       <use xlink:href="#DejaVuSans-2d" transform="translate(254.492188 0)"/>
       <use xlink:href="#DejaVuSans-31" transform="translate(290.576172 0)"/>
       <use xlink:href="#DejaVuSans-31" transform="translate(354.199219 0)"/>
      </g>
     </g>
    </g>
    <g id="xtick_7">
     <g id="line2d_13">
      <path d="M 500.132752 270.166154 
L 500.132752 76.32 
" clip-path="url(#pd15d48e9c6)" style="fill: none; stroke: #e7dfd1; stroke-opacity: 0.75; stroke-width: 0.8; stroke-linecap: square"/>
     </g>
     <g id="line2d_14">
      <g>
       <use xlink:href="#me9d0d5c549" x="500.132752" y="270.166154" style="fill: #1f2937; stroke: #1f2937; stroke-width: 0.8"/>
      </g>
     </g>
     <g id="text_7">
      <!-- 2024-01 -->
      <g style="fill: #1f2937" transform="translate(479.241346 284.764591) scale(0.1 -0.1)">
       <defs>
        <path id="DejaVuSans-34" d="M 2419 4116 
L 825 1625 
L 2419 1625 
L 2419 4116 
z
M 2253 4666 
L 3047 4666 
L 3047 1625 
L 3713 1625 
L 3713 1100 
L 3047 1100 
L 3047 0 
L 2419 0 
L 2419 1100 
L 313 1100 
L 313 1709 
L 2253 4666 
z
" transform="scale(0.015625)"/>
       </defs>
       <use xlink:href="#DejaVuSans-32"/>
       <use xlink:href="#DejaVuSans-30" transform="translate(63.623047 0)"/>
       <use xlink:href="#DejaVuSans-32" transform="translate(127.246094 0)"/>
       <use xlink:href="#DejaVuSans-34" transform="translate(190.869141 0)"/>
       <use xlink:href="#DejaVuSans-2d" transform="translate(254.492188 0)"/>
       <use xlink:href="#DejaVuSans-30" transform="translate(290.576172 0)"/>
       <use xlink:href="#DejaVuSans-31" transform="translate(354.199219 0)"/>
      </g>
     </g>
    </g>
    <g id="xtick_8">
     <g id="line2d_15">
      <path d="M 572.364648 270.166154 
L 572.364648 76.32 
" clip-path="url(#pd15d48e9c6)" style="fill: none; stroke: #e7dfd1; stroke-opacity: 0.75; stroke-width: 0.8; stroke-linecap: square"/>
     </g>
     <g id="line2d_16">
      <g>
       <use xlink:href="#me9d0d5c549" x="572.364648" y="270.166154" style="fill: #1f2937; stroke: #1f2937; stroke-width: 0.8"/>
      </g>
     </g>
     <g id="text_8">
      <!-- 2024-03 -->
      <g style="fill: #1f2937" transform="translate(551.473242 284.764591) scale(0.1 -0.1)">
       <use xlink:href="#DejaVuSans-32"/>
       <use xlink:href="#DejaVuSans-30" transform="translate(63.623047 0)"/>
       <use xlink:href="#DejaVuSans-32" transform="translate(127.246094 0)"/>
       <use xlink:href="#DejaVuSans-34" transform="translate(190.869141 0)"/>
       <use xlink:href="#DejaVuSans-2d" transform="translate(254.492188 0)"/>
       <use xlink:href="#DejaVuSans-30" transform="translate(290.576172 0)"/>
       <use xlink:href="#DejaVuSans-33" transform="translate(354.199219 0)"/>
      </g>
     </g>
    </g>
    <g id="xtick_9">
     <g id="line2d_17">
      <path d="M 645.800409 270.166154 
L 645.800409 76.32 
" clip-path="url(#pd15d48e9c6)" style="fill: none; stroke: #e7dfd1; stroke-opacity: 0.75; stroke-width: 0.8; stroke-linecap: square"/>
     </g>
     <g id="line2d_18">
      <g>
       <use xlink:href="#me9d0d5c549" x="645.800409" y="270.166154" style="fill: #1f2937; stroke: #1f2937; stroke-width: 0.8"/>
      </g>
     </g>
     <g id="text_9">
      <!-- 2024-05 -->
      <g style="fill: #1f2937" transform="translate(624.909003 284.764591) scale(0.1 -0.1)">
       <use xlink:href="#DejaVuSans-32"/>
       <use xlink:href="#DejaVuSans-30" transform="translate(63.623047 0)"/>
       <use xlink:href="#DejaVuSans-32" transform="translate(127.246094 0)"/>
       <use xlink:href="#DejaVuSans-34" transform="translate(190.869141 0)"/>
       <use xlink:href="#DejaVuSans-2d" transform="translate(254.492188 0)"/>
       <use xlink:href="#DejaVuSans-30" transform="translate(290.576172 0)"/>
       <use xlink:href="#DejaVuSans-35" transform="translate(354.199219 0)"/>
      </g>
     </g>
    </g>
    <g id="xtick_10">
     <g id="line2d_19">
      <path d="M 719.23617 270.166154 
L 719.23617 76.32 
" clip-path="url(#pd15d48e9c6)" style="fill: none; stroke: #e7dfd1; stroke-opacity: 0.75; stroke-width: 0.8; stroke-linecap: square"/>
     </g>
     <g id="line2d_20">
      <g>
       <use xlink:href="#me9d0d5c549" x="719.23617" y="270.166154" style="fill: #1f2937; stroke: #1f2937; stroke-width: 0.8"/>
      </g>
     </g>
     <g id="text_10">
      <!-- 2024-07 -->
      <g style="fill: #1f2937" transform="translate(698.344764 284.764591) scale(0.1 -0.1)">
       <use xlink:href="#DejaVuSans-32"/>
       <use xlink:href="#DejaVuSans-30" transform="translate(63.623047 0)"/>
       <use xlink:href="#DejaVuSans-32" transform="translate(127.246094 0)"/>
       <use xlink:href="#DejaVuSans-34" transform="translate(190.869141 0)"/>
       <use xlink:href="#DejaVuSans-2d" transform="translate(254.492188 0)"/>
       <use xlink:href="#DejaVuSans-30" transform="translate(290.576172 0)"/>
       <use xlink:href="#DejaVuSans-37" transform="translate(354.199219 0)"/>
      </g>
     </g>
    </g>
   </g>
   <g id="matplotlib.axis_2">
    <g id="ytick_1">
     <g id="line2d_21">
      <path d="M 55.605625 267.457953 
L 750.837625 267.457953 
" clip-path="url(#pd15d48e9c6)" style="fill: none; stroke: #e7dfd1; stroke-opacity: 0.75; stroke-width: 0.8; stroke-linecap: square"/>
     </g>
     <g id="line2d_22">
      <defs>
       <path id="md9ec72d666" d="M 0 0 
L -3.5 0 
" style="stroke: #1f2937; stroke-width: 0.8"/>
      </defs>
      <g>
       <use xlink:href="#md9ec72d666" x="55.605625" y="267.457953" style="fill: #1f2937; stroke: #1f2937; stroke-width: 0.8"/>
      </g>
     </g>
     <g id="text_11">
      <!-- 0 -->
      <g style="fill: #1f2937" transform="translate(42.243125 271.257172) scale(0.1 -0.1)">
       <use xlink:href="#DejaVuSans-30"/>
      </g>
     </g>
    </g>
    <g id="ytick_2">
     <g id="line2d_23">
      <path d="M 55.605625 229.314278 
L 750.837625 229.314278 
" clip-path="url(#pd15d48e9c6)" style="fill: none; stroke: #e7dfd1; stroke-opacity: 0.75; stroke-width: 0.8; stroke-linecap: square"/>
     </g>
     <g id="line2d_24">
      <g>
       <use xlink:href="#md9ec72d666" x="55.605625" y="229.314278" style="fill: #1f2937; stroke: #1f2937; stroke-width: 0.8"/>
      </g>
     </g>
     <g id="text_12">
      <!-- 50 -->
      <g style="fill: #1f2937" transform="translate(35.880625 233.113497) scale(0.1 -0.1)">
       <use xlink:href="#DejaVuSans-35"/>
       <use xlink:href="#DejaVuSans-30" transform="translate(63.623047 0)"/>
      </g>
     </g>
    </g>
    <g id="ytick_3">
     <g id="line2d_25">
      <path d="M 55.605625 191.170604 
L 750.837625 191.170604 
" clip-path="url(#pd15d48e9c6)" style="fill: none; stroke: #e7dfd1; stroke-opacity: 0.75; stroke-width: 0.8; stroke-linecap: square"/>
     </g>
     <g id="line2d_26">
      <g>
       <use xlink:href="#md9ec72d666" x="55.605625" y="191.170604" style="fill: #1f2937; stroke: #1f2937; stroke-width: 0.8"/>
      </g>
     </g>
     <g id="text_13">
      <!-- 100 -->
      <g style="fill: #1f2937" transform="translate(29.518125 194.969823) scale(0.1 -0.1)">
       <use xlink:href="#DejaVuSans-31"/>
       <use xlink:href="#DejaVuSans-30" transform="translate(63.623047 0)"/>
       <use xlink:href="#DejaVuSans-30" transform="translate(127.246094 0)"/>
      </g>
     </g>
    </g>
    <g id="ytick_4">
     <g id="line2d_27">
      <path d="M 55.605625 153.026929 
L 750.837625 153.026929 
" clip-path="url(#pd15d48e9c6)" style="fill: none; stroke: #e7dfd1; stroke-opacity: 0.75; stroke-width: 0.8; stroke-linecap: square"/>
     </g>
     <g id="line2d_28">
      <g>
       <use xlink:href="#md9ec72d666" x="55.605625" y="153.026929" style="fill: #1f2937; stroke: #1f2937; stroke-width: 0.8"/>
      </g>
     </g>
     <g id="text_14">
      <!-- 150 -->
      <g style="fill: #1f2937" transform="translate(29.518125 156.826148) scale(0.1 -0.1)">
       <use xlink:href="#DejaVuSans-31"/>
       <use xlink:href="#DejaVuSans-35" transform="translate(63.623047 0)"/>
       <use xlink:href="#DejaVuSans-30" transform="translate(127.246094 0)"/>
      </g>
     </g>
    </g>
    <g id="ytick_5">
     <g id="line2d_29">
      <path d="M 55.605625 114.883255 
L 750.837625 114.883255 
" clip-path="url(#pd15d48e9c6)" style="fill: none; stroke: #e7dfd1; stroke-opacity: 0.75; stroke-width: 0.8; stroke-linecap: square"/>
     </g>
     <g id="line2d_30">
      <g>
       <use xlink:href="#md9ec72d666" x="55.605625" y="114.883255" style="fill: #1f2937; stroke: #1f2937; stroke-width: 0.8"/>
      </g>
     </g>
     <g id="text_15">
      <!-- 200 -->
      <g style="fill: #1f2937" transform="translate(29.518125 118.682474) scale(0.1 -0.1)">
       <use xlink:href="#DejaVuSans-32"/>
       <use xlink:href="#DejaVuSans-30" transform="translate(63.623047 0)"/>
       <use xlink:href="#DejaVuSans-30" transform="translate(127.246094 0)"/>
      </g>
     </g>
    </g>
    <g id="ytick_6">
     <g id="line2d_31">
      <path d="M 55.605625 76.73958 
L 750.837625 76.73958 
" clip-path="url(#pd15d48e9c6)" style="fill: none; stroke: #e7dfd1; stroke-opacity: 0.75; stroke-width: 0.8; stroke-linecap: square"/>
     </g>
     <g id="line2d_32">
      <g>
       <use xlink:href="#md9ec72d666" x="55.605625" y="76.73958" style="fill: #1f2937; stroke: #1f2937; stroke-width: 0.8"/>
      </g>
     </g>
     <g id="text_16">
      <!-- 250 -->
      <g style="fill: #1f2937" transform="translate(29.518125 80.538799) scale(0.1 -0.1)">
       <use xlink:href="#DejaVuSans-32"/>
       <use xlink:href="#DejaVuSans-35" transform="translate(63.623047 0)"/>
       <use xlink:href="#DejaVuSans-30" transform="translate(127.246094 0)"/>
      </g>
     </g>
    </g>
    <g id="text_17">
     <!-- Cases per week -->
     <g style="fill: #1f2937" transform="translate(23.438438 212.706358) rotate(-90) scale(0.1 -0.1)">
      <defs>
       <path id="DejaVuSans-43" d="M 4122 4306 
L 4122 3641 
Q 3803 3938 3442 4084 
Q 3081 4231 2675 4231 
Q 1875 4231 1450 3742 
Q 1025 3253 1025 2328 
Q 1025 1406 1450 917 
Q 1875 428 2675 428 
Q 3081 428 3442 575 
Q 3803 722 4122 1019 
L 4122 359 
Q 3791 134 3420 21 
Q 3050 -91 2638 -91 
Q 1578 -91 968 557 
Q 359 1206 359 2328 
Q 359 3453 968 4101 
Q 1578 4750 2638 4750 
Q 3056 4750 3426 4639 
Q 3797 4528 4122 4306 
z
" transform="scale(0.015625)"/>
       <path id="DejaVuSans-61" d="M 2194 1759 
Q 1497 1759 1228 1600 
Q 959 1441 959 1056 
Q 959 750 1161 570 
Q 1363 391 1709 391 
Q 2188 391 2477 730 
Q 2766 1069 2766 1631 
L 2766 1759 
L 2194 1759 
z
M 3341 1997 
L 3341 0 
L 2766 0 
L 2766 531 
Q 2569 213 2275 61 
Q 1981 -91 1556 -91 
Q 1019 -91 701 211 
Q 384 513 384 1019 
Q 384 1609 779 1909 
Q 1175 2209 1959 2209 
L 2766 2209 
L 2766 2266 
Q 2766 2663 2505 2880 
Q 2244 3097 1772 3097 
Q 1472 3097 1187 3025 
Q 903 2953 641 2809 
L 641 3341 
Q 956 3463 1253 3523 
Q 1550 3584 1831 3584 
Q 2591 3584 2966 3190 
Q 3341 2797 3341 1997 
z
" transform="scale(0.015625)"/>
       <path id="DejaVuSans-73" d="M 2834 3397 
L 2834 2853 
Q 2591 2978 2328 3040 
Q 2066 3103 1784 3103 
Q 1356 3103 1142 2972 
Q 928 2841 928 2578 
Q 928 2378 1081 2264 
Q 1234 2150 1697 2047 
L 1894 2003 
Q 2506 1872 2764 1633 
Q 3022 1394 3022 966 
Q 3022 478 2636 193 
Q 2250 -91 1575 -91 
Q 1294 -91 989 -36 
Q 684 19 347 128 
L 347 722 
Q 666 556 975 473 
Q 1284 391 1588 391 
Q 1994 391 2212 530 
Q 2431 669 2431 922 
Q 2431 1156 2273 1281 
Q 2116 1406 1581 1522 
L 1381 1569 
Q 847 1681 609 1914 
Q 372 2147 372 2553 
Q 372 3047 722 3315 
Q 1072 3584 1716 3584 
Q 2034 3584 2315 3537 
Q 2597 3491 2834 3397 
z
" transform="scale(0.015625)"/>
       <path id="DejaVuSans-65" d="M 3597 1894 
L 3597 1613 
L 953 1613 
Q 991 1019 1311 708 
Q 1631 397 2203 397 
Q 2534 397 2845 478 
Q 3156 559 3463 722 
L 3463 178 
Q 3153 47 2828 -22 
Q 2503 -91 2169 -91 
Q 1331 -91 842 396 
Q 353 884 353 1716 
Q 353 2575 817 3079 
Q 1281 3584 2069 3584 
Q 2775 3584 3186 3129 
Q 3597 2675 3597 1894 
z
M 3022 2063 
Q 3016 2534 2758 2815 
Q 2500 3097 2075 3097 
Q 1594 3097 1305 2825 
Q 1016 2553 972 2059 
L 3022 2063 
z
" transform="scale(0.015625)"/>
       <path id="DejaVuSans-20" transform="scale(0.015625)"/>
       <path id="DejaVuSans-70" d="M 1159 525 
L 1159 -1331 
L 581 -1331 
L 581 3500 
L 1159 3500 
L 1159 2969 
Q 1341 3281 1617 3432 
Q 1894 3584 2278 3584 
Q 2916 3584 3314 3078 
Q 3713 2572 3713 1747 
Q 3713 922 3314 415 
Q 2916 -91 2278 -91 
Q 1894 -91 1617 61 
Q 1341 213 1159 525 
z
M 3116 1747 
Q 3116 2381 2855 2742 
Q 2594 3103 2138 3103 
Q 1681 3103 1420 2742 
Q 1159 2381 1159 1747 
Q 1159 1113 1420 752 
Q 1681 391 2138 391 
Q 2594 391 2855 752 
Q 3116 1113 3116 1747 
z
" transform="scale(0.015625)"/>
       <path id="DejaVuSans-72" d="M 2631 2963 
Q 2534 3019 2420 3045 
Q 2306 3072 2169 3072 
Q 1681 3072 1420 2755 
Q 1159 2438 1159 1844 
L 1159 0 
L 581 0 
L 581 3500 
L 1159 3500 
L 1159 2956 
Q 1341 3275 1631 3429 
Q 1922 3584 2338 3584 
Q 2397 3584 2469 3576 
Q 2541 3569 2628 3553 
L 2631 2963 
z
" transform="scale(0.015625)"/>
       <path id="DejaVuSans-77" d="M 269 3500 
L 844 3500 
L 1563 769 
L 2278 3500 
L 2956 3500 
L 3675 769 
L 4391 3500 
L 4966 3500 
L 4050 0 
L 3372 0 
L 2619 2869 
L 1863 0 
L 1184 0 
L 269 3500 
z
" transform="scale(0.015625)"/>
       <path id="DejaVuSans-6b" d="M 581 4863 
L 1159 4863 
L 1159 1991 
L 2875 3500 
L 3609 3500 
L 1753 1863 
L 3688 0 
L 2938 0 
L 1159 1709 
L 1159 0 
L 581 0 
L 581 4863 
z
" transform="scale(0.015625)"/>
      </defs>
      <use xlink:href="#DejaVuSans-43"/>
      <use xlink:href="#DejaVuSans-61" transform="translate(69.824219 0)"/>
      <use xlink:href="#DejaVuSans-73" transform="translate(131.103516 0)"/>
      <use xlink:href="#DejaVuSans-65" transform="translate(183.203125 0)"/>
      <use xlink:href="#DejaVuSans-73" transform="translate(244.726562 0)"/>
      <use xlink:href="#DejaVuSans-20" transform="translate(296.826172 0)"/>
      <use xlink:href="#DejaVuSans-70" transform="translate(328.613281 0)"/>
      <use xlink:href="#DejaVuSans-65" transform="translate(392.089844 0)"/>
      <use xlink:href="#DejaVuSans-72" transform="translate(453.613281 0)"/>
      <use xlink:href="#DejaVuSans-20" transform="translate(494.726562 0)"/>
      <use xlink:href="#DejaVuSans-77" transform="translate(526.513672 0)"/>
      <use xlink:href="#DejaVuSans-65" transform="translate(608.300781 0)"/>
      <use xlink:href="#DejaVuSans-65" transform="translate(669.824219 0)"/>
      <use xlink:href="#DejaVuSans-6b" transform="translate(731.347656 0)"/>
     </g>
    </g>
   </g>
   <g id="line2d_33">
    <path d="M 87.20708 256.014851 
L 95.634134 257.540598 
L 104.061189 260.592092 
L 112.488243 252.963357 
L 120.915298 256.777724 
L 129.342352 257.540598 
L 137.769407 256.777724 
L 146.196461 256.014851 
L 154.623516 240.757381 
L 163.05057 249.148989 
L 171.477625 243.808875 
L 179.90468 233.128646 
L 188.331734 239.994507 
L 196.758789 224.737038 
L 205.185843 226.262784 
L 213.612898 211.768188 
L 222.039952 215.582556 
L 230.467007 198.036465 
L 238.894061 184.304743 
L 247.321116 176.676008 
L 255.74817 199.562212 
L 264.175225 159.892791 
L 272.60228 193.459224 
L 281.029334 182.778996 
L 289.456389 172.86164 
L 297.883443 175.913134 
L 306.310498 214.056809 
L 314.737552 204.902327 
L 323.164607 217.108303 
L 331.591661 214.056809 
L 340.018716 204.902327 
L 348.44577 231.602899 
L 356.872825 223.974164 
L 365.29988 239.231634 
L 373.726934 235.417266 
L 382.153989 236.18014 
L 390.581043 241.520254 
L 399.008098 239.231634 
L 407.435152 240.757381 
L 415.862207 237.705887 
L 424.289261 249.911863 
L 432.716316 251.43761 
L 441.14337 244.571748 
L 449.570425 246.860369 
L 457.99748 249.148989 
L 466.424534 257.540598 
L 474.851589 251.43761 
L 483.278643 260.592092 
L 491.705698 261.354965 
L 500.132752 256.777724 
L 508.559807 256.777724 
L 516.986861 255.251977 
L 525.413916 256.014851 
L 533.84097 257.540598 
L 542.268025 260.592092 
L 550.69508 259.066345 
L 559.122134 258.303471 
L 567.549189 250.674736 
L 575.976243 256.014851 
L 584.403298 249.911863 
L 592.830352 247.623242 
L 601.257407 243.046001 
L 609.684461 230.077152 
L 618.111516 218.63405 
L 626.53857 211.768188 
L 634.965625 220.92267 
L 643.39268 218.63405 
L 651.819734 203.37658 
L 660.246789 195.747845 
L 668.673843 172.86164 
L 677.100898 157.60417 
L 685.527952 154.552676 
L 693.955007 133.192219 
L 702.382061 132.429345 
L 710.809116 171.335893 
L 719.23617 141.583827 
" clip-path="url(#pd15d48e9c6)" style="fill: none; stroke: #1f2937; stroke-width: 2.2; stroke-linecap: square"/>
   </g>
   <g id="line2d_34">
    <path d="M 87.20708 241.211654 
L 95.634134 242.864459 
L 104.061189 245.82964 
L 112.488243 247.757893 
L 120.915298 248.791401 
L 129.342352 248.864617 
L 137.769407 249.137233 
L 146.196461 247.950183 
L 154.623516 243.33573 
L 163.05057 244.32066 
L 171.477625 240.185448 
L 179.90468 239.931223 
L 188.331734 224.2454 
L 196.758789 222.806439 
L 205.185843 206.193929 
L 213.612898 195.797169 
L 222.039952 179.984007 
L 230.467007 166.214072 
L 238.894061 151.515921 
L 247.321116 144.439993 
L 255.74817 136.631611 
L 264.175225 140.348768 
L 272.60228 143.034493 
L 281.029334 140.613114 
L 289.456389 156.590486 
L 297.883443 161.712831 
L 306.310498 169.32184 
L 314.737552 186.192798 
L 323.164607 189.974673 
L 331.591661 189.066898 
L 340.018716 199.410469 
L 348.44577 205.211736 
L 356.872825 208.704333 
L 365.29988 213.509494 
L 373.726934 218.529498 
L 382.153989 215.97239 
L 390.581043 219.223325 
L 399.008098 223.53698 
L 407.435152 226.845181 
L 415.862207 222.99597 
L 424.289261 227.281113 
L 432.716316 230.077631 
L 441.14337 233.836399 
L 449.570425 238.213703 
L 457.99748 240.308376 
L 466.424534 243.806326 
L 474.851589 246.548834 
L 483.278643 248.816236 
L 491.705698 249.315427 
L 500.132752 248.351897 
L 508.559807 247.006339 
L 516.986861 249.882289 
L 525.413916 246.383146 
L 533.84097 247.516635 
L 542.268025 247.244564 
L 550.69508 244.968397 
L 559.122134 247.698391 
L 567.549189 246.663194 
L 575.976243 240.842821 
L 584.403298 241.911814 
L 592.830352 238.947181 
L 601.257407 231.595378 
L 609.684461 220.644398 
L 618.111516 208.855986 
L 626.53857 215.620796 
L 634.965625 216.219928 
L 643.39268 196.323249 
L 651.819734 176.549327 
L 660.246789 167.334581 
L 668.673843 158.811666 
L 677.100898 137.262633 
L 685.527952 126.969852 
L 693.955007 121.382401 
L 702.382061 108.67467 
L 710.809116 113.890576 
L 719.23617 127.864965 
" clip-path="url(#pd15d48e9c6)" style="fill: none; stroke: #8b2c2a; stroke-width: 2; stroke-linecap: square"/>
   </g>
   <g id="patch_3">
    <path d="M 55.605625 270.166154 
L 55.605625 76.32 
" style="fill: none; stroke: #e7dfd1; stroke-width: 0.8; stroke-linejoin: miter; stroke-linecap: square"/>
   </g>
   <g id="patch_4">
    <path d="M 55.605625 270.166154 
L 750.837625 270.166154 
" style="fill: none; stroke: #e7dfd1; stroke-width: 0.8; stroke-linejoin: miter; stroke-linecap: square"/>
   </g>
   <g id="text_18">
    <g id="patch_5">
     <path d="M 764.742265 110.388245 
L 851.686015 110.388245 
Q 855.186015 110.388245 855.186015 106.888245 
L 855.186015 86.012308 
Q 855.186015 82.512308 851.686015 82.512308 
L 764.742265 82.512308 
Q 761.242265 82.512308 761.242265 86.012308 
L 761.242265 106.888245 
Q 761.242265 110.388245 764.742265 110.388245 
z
" style="fill: #f6f2ea; stroke: #e7dfd1; stroke-linejoin: miter"/>
    </g>
    <!-- Weekly R² 0.624 -->
    <g style="fill: #1f2937" transform="translate(764.742265 93.610745) scale(0.1 -0.1)">
     <defs>
      <path id="DejaVuSans-57" d="M 213 4666 
L 850 4666 
L 1831 722 
L 2809 4666 
L 3519 4666 
L 4500 722 
L 5478 4666 
L 6119 4666 
L 4947 0 
L 4153 0 
L 3169 4050 
L 2175 0 
L 1381 0 
L 213 4666 
z
" transform="scale(0.015625)"/>
      <path id="DejaVuSans-6c" d="M 603 4863 
L 1178 4863 
L 1178 0 
L 603 0 
L 603 4863 
z
" transform="scale(0.015625)"/>
      <path id="DejaVuSans-79" d="M 2059 -325 
Q 1816 -950 1584 -1140 
Q 1353 -1331 966 -1331 
L 506 -1331 
L 506 -850 
L 844 -850 
Q 1081 -850 1212 -737 
Q 1344 -625 1503 -206 
L 1606 56 
L 191 3500 
L 800 3500 
L 1894 763 
L 2988 3500 
L 3597 3500 
L 2059 -325 
z
" transform="scale(0.015625)"/>
      <path id="DejaVuSans-52" d="M 2841 2188 
Q 3044 2119 3236 1894 
Q 3428 1669 3622 1275 
L 4263 0 
L 3584 0 
L 2988 1197 
Q 2756 1666 2539 1819 
Q 2322 1972 1947 1972 
L 1259 1972 
L 1259 0 
L 628 0 
L 628 4666 
L 2053 4666 
Q 2853 4666 3247 4331 
Q 3641 3997 3641 3322 
Q 3641 2881 3436 2590 
Q 3231 2300 2841 2188 
z
M 1259 4147 
L 1259 2491 
L 2053 2491 
Q 2509 2491 2742 2702 
Q 2975 2913 2975 3322 
Q 2975 3731 2742 3939 
Q 2509 4147 2053 4147 
L 1259 4147 
z
" transform="scale(0.015625)"/>
      <path id="DejaVuSans-b2" d="M 838 2444 
L 2163 2444 
L 2163 2088 
L 294 2088 
L 294 2431 
Q 400 2528 597 2703 
Q 1672 3656 1672 3950 
Q 1672 4156 1509 4282 
Q 1347 4409 1081 4409 
Q 919 4409 728 4354 
Q 538 4300 313 4191 
L 313 4575 
Q 553 4663 761 4706 
Q 969 4750 1147 4750 
Q 1600 4750 1872 4544 
Q 2144 4338 2144 4000 
Q 2144 3566 1109 2678 
Q 934 2528 838 2444 
z
" transform="scale(0.015625)"/>
      <path id="DejaVuSans-2e" d="M 684 794 
L 1344 794 
L 1344 0 
L 684 0 
L 684 794 
z
" transform="scale(0.015625)"/>
      <path id="DejaVuSans-36" d="M 2113 2584 
Q 1688 2584 1439 2293 
Q 1191 2003 1191 1497 
Q 1191 994 1439 701 
Q 1688 409 2113 409 
Q 2538 409 2786 701 
Q 3034 994 3034 1497 
Q 3034 2003 2786 2293 
Q 2538 2584 2113 2584 
z
M 3366 4563 
L 3366 3988 
Q 3128 4100 2886 4159 
Q 2644 4219 2406 4219 
Q 1781 4219 1451 3797 
Q 1122 3375 1075 2522 
Q 1259 2794 1537 2939 
Q 1816 3084 2150 3084 
Q 2853 3084 3261 2657 
Q 3669 2231 3669 1497 
Q 3669 778 3244 343 
Q 2819 -91 2113 -91 
Q 1303 -91 875 529 
Q 447 1150 447 2328 
Q 447 3434 972 4092 
Q 1497 4750 2381 4750 
Q 2619 4750 2861 4703 
Q 3103 4656 3366 4563 
z
" transform="scale(0.015625)"/>
     </defs>
     <use xlink:href="#DejaVuSans-57"/>
     <use xlink:href="#DejaVuSans-65" transform="translate(93.001953 0)"/>
     <use xlink:href="#DejaVuSans-65" transform="translate(154.525391 0)"/>
     <use xlink:href="#DejaVuSans-6b" transform="translate(216.048828 0)"/>
     <use xlink:href="#DejaVuSans-6c" transform="translate(273.958984 0)"/>
     <use xlink:href="#DejaVuSans-79" transform="translate(301.742188 0)"/>
     <use xlink:href="#DejaVuSans-20" transform="translate(360.921875 0)"/>
     <use xlink:href="#DejaVuSans-52" transform="translate(392.708984 0)"/>
     <use xlink:href="#DejaVuSans-b2" transform="translate(462.191406 0)"/>
     <use xlink:href="#DejaVuSans-20" transform="translate(502.279297 0)"/>
     <use xlink:href="#DejaVuSans-30" transform="translate(534.066406 0)"/>
     <use xlink:href="#DejaVuSans-2e" transform="translate(597.689453 0)"/>
     <use xlink:href="#DejaVuSans-36" transform="translate(629.476562 0)"/>
     <use xlink:href="#DejaVuSans-32" transform="translate(693.099609 0)"/>
     <use xlink:href="#DejaVuSans-34" transform="translate(756.722656 0)"/>
    </g>
    <!-- Correlation 0.962 -->
    <g style="fill: #1f2937" transform="translate(764.742265 104.808558) scale(0.1 -0.1)">
     <defs>
      <path id="DejaVuSans-6f" d="M 1959 3097 
Q 1497 3097 1228 2736 
Q 959 2375 959 1747 
Q 959 1119 1226 758 
Q 1494 397 1959 397 
Q 2419 397 2687 759 
Q 2956 1122 2956 1747 
Q 2956 2369 2687 2733 
Q 2419 3097 1959 3097 
z
M 1959 3584 
Q 2709 3584 3137 3096 
Q 3566 2609 3566 1747 
Q 3566 888 3137 398 
Q 2709 -91 1959 -91 
Q 1206 -91 779 398 
Q 353 888 353 1747 
Q 353 2609 779 3096 
Q 1206 3584 1959 3584 
z
" transform="scale(0.015625)"/>
      <path id="DejaVuSans-74" d="M 1172 4494 
L 1172 3500 
L 2356 3500 
L 2356 3053 
L 1172 3053 
L 1172 1153 
Q 1172 725 1289 603 
Q 1406 481 1766 481 
L 2356 481 
L 2356 0 
L 1766 0 
Q 1100 0 847 248 
Q 594 497 594 1153 
L 594 3053 
L 172 3053 
L 172 3500 
L 594 3500 
L 594 4494 
L 1172 4494 
z
" transform="scale(0.015625)"/>
      <path id="DejaVuSans-69" d="M 603 3500 
L 1178 3500 
L 1178 0 
L 603 0 
L 603 3500 
z
M 603 4863 
L 1178 4863 
L 1178 4134 
L 603 4134 
L 603 4863 
z
" transform="scale(0.015625)"/>
      <path id="DejaVuSans-6e" d="M 3513 2113 
L 3513 0 
L 2938 0 
L 2938 2094 
Q 2938 2591 2744 2837 
Q 2550 3084 2163 3084 
Q 1697 3084 1428 2787 
Q 1159 2491 1159 1978 
L 1159 0 
L 581 0 
L 581 3500 
L 1159 3500 
L 1159 2956 
Q 1366 3272 1645 3428 
Q 1925 3584 2291 3584 
Q 2894 3584 3203 3211 
Q 3513 2838 3513 2113 
z
" transform="scale(0.015625)"/>
     </defs>
     <use xlink:href="#DejaVuSans-43"/>
     <use xlink:href="#DejaVuSans-6f" transform="translate(69.824219 0)"/>
     <use xlink:href="#DejaVuSans-72" transform="translate(131.005859 0)"/>
     <use xlink:href="#DejaVuSans-72" transform="translate(170.369141 0)"/>
     <use xlink:href="#DejaVuSans-65" transform="translate(209.232422 0)"/>
     <use xlink:href="#DejaVuSans-6c" transform="translate(270.755859 0)"/>
     <use xlink:href="#DejaVuSans-61" transform="translate(298.539062 0)"/>
     <use xlink:href="#DejaVuSans-74" transform="translate(359.818359 0)"/>
     <use xlink:href="#DejaVuSans-69" transform="translate(399.027344 0)"/>
     <use xlink:href="#DejaVuSans-6f" transform="translate(426.810547 0)"/>
     <use xlink:href="#DejaVuSans-6e" transform="translate(487.992188 0)"/>
     <use xlink:href="#DejaVuSans-20" transform="translate(551.371094 0)"/>
     <use xlink:href="#DejaVuSans-30" transform="translate(583.158203 0)"/>
     <use xlink:href="#DejaVuSans-2e" transform="translate(646.78125 0)"/>
     <use xlink:href="#DejaVuSans-39" transform="translate(678.568359 0)"/>
     <use xlink:href="#DejaVuSans-36" transform="translate(742.191406 0)"/>
     <use xlink:href="#DejaVuSans-32" transform="translate(805.814453 0)"/>
    </g>
   </g>
   <g id="text_19">
    <!-- Validation holdout -->
    <g style="fill: #1f2937" transform="translate(55.605625 70.32) scale(0.13 -0.13)">
     <defs>
      <path id="DejaVuSans-Bold-56" d="M 31 4666 
L 1241 4666 
L 2478 1222 
L 3713 4666 
L 4922 4666 
L 3194 0 
L 1759 0 
L 31 4666 
z
" transform="scale(0.015625)"/>
      <path id="DejaVuSans-Bold-61" d="M 2106 1575 
Q 1756 1575 1579 1456 
Q 1403 1338 1403 1106 
Q 1403 894 1545 773 
Q 1688 653 1941 653 
Q 2256 653 2472 879 
Q 2688 1106 2688 1447 
L 2688 1575 
L 2106 1575 
z
M 3816 1997 
L 3816 0 
L 2688 0 
L 2688 519 
Q 2463 200 2181 54 
Q 1900 -91 1497 -91 
Q 953 -91 614 226 
Q 275 544 275 1050 
Q 275 1666 698 1953 
Q 1122 2241 2028 2241 
L 2688 2241 
L 2688 2328 
Q 2688 2594 2478 2717 
Q 2269 2841 1825 2841 
Q 1466 2841 1156 2769 
Q 847 2697 581 2553 
L 581 3406 
Q 941 3494 1303 3539 
Q 1666 3584 2028 3584 
Q 2975 3584 3395 3211 
Q 3816 2838 3816 1997 
z
" transform="scale(0.015625)"/>
      <path id="DejaVuSans-Bold-6c" d="M 538 4863 
L 1656 4863 
L 1656 0 
L 538 0 
L 538 4863 
z
" transform="scale(0.015625)"/>
      <path id="DejaVuSans-Bold-69" d="M 538 3500 
L 1656 3500 
L 1656 0 
L 538 0 
L 538 3500 
z
M 538 4863 
L 1656 4863 
L 1656 3950 
L 538 3950 
L 538 4863 
z
" transform="scale(0.015625)"/>
      <path id="DejaVuSans-Bold-64" d="M 2919 2988 
L 2919 4863 
L 4044 4863 
L 4044 0 
L 2919 0 
L 2919 506 
Q 2688 197 2409 53 
Q 2131 -91 1766 -91 
Q 1119 -91 703 423 
Q 288 938 288 1747 
Q 288 2556 703 3070 
Q 1119 3584 1766 3584 
Q 2128 3584 2408 3439 
Q 2688 3294 2919 2988 
z
M 2181 722 
Q 2541 722 2730 984 
Q 2919 1247 2919 1747 
Q 2919 2247 2730 2509 
Q 2541 2772 2181 2772 
Q 1825 2772 1636 2509 
Q 1447 2247 1447 1747 
Q 1447 1247 1636 984 
Q 1825 722 2181 722 
z
" transform="scale(0.015625)"/>
      <path id="DejaVuSans-Bold-74" d="M 1759 4494 
L 1759 3500 
L 2913 3500 
L 2913 2700 
L 1759 2700 
L 1759 1216 
Q 1759 972 1856 886 
Q 1953 800 2241 800 
L 2816 800 
L 2816 0 
L 1856 0 
Q 1194 0 917 276 
Q 641 553 641 1216 
L 641 2700 
L 84 2700 
L 84 3500 
L 641 3500 
L 641 4494 
L 1759 4494 
z
" transform="scale(0.015625)"/>
      <path id="DejaVuSans-Bold-6f" d="M 2203 2784 
Q 1831 2784 1636 2517 
Q 1441 2250 1441 1747 
Q 1441 1244 1636 976 
Q 1831 709 2203 709 
Q 2569 709 2762 976 
Q 2956 1244 2956 1747 
Q 2956 2250 2762 2517 
Q 2569 2784 2203 2784 
z
M 2203 3584 
Q 3106 3584 3614 3096 
Q 4122 2609 4122 1747 
Q 4122 884 3614 396 
Q 3106 -91 2203 -91 
Q 1297 -91 786 396 
Q 275 884 275 1747 
Q 275 2609 786 3096 
Q 1297 3584 2203 3584 
z
" transform="scale(0.015625)"/>
      <path id="DejaVuSans-Bold-6e" d="M 4056 2131 
L 4056 0 
L 2931 0 
L 2931 347 
L 2931 1631 
Q 2931 2084 2911 2256 
Q 2891 2428 2841 2509 
Q 2775 2619 2662 2680 
Q 2550 2741 2406 2741 
Q 2056 2741 1856 2470 
Q 1656 2200 1656 1722 
L 1656 0 
L 538 0 
L 538 3500 
L 1656 3500 
L 1656 2988 
Q 1909 3294 2193 3439 
Q 2478 3584 2822 3584 
Q 3428 3584 3742 3212 
Q 4056 2841 4056 2131 
z
" transform="scale(0.015625)"/>
      <path id="DejaVuSans-Bold-20" transform="scale(0.015625)"/>
      <path id="DejaVuSans-Bold-68" d="M 4056 2131 
L 4056 0 
L 2931 0 
L 2931 347 
L 2931 1625 
Q 2931 2084 2911 2256 
Q 2891 2428 2841 2509 
Q 2775 2619 2662 2680 
Q 2550 2741 2406 2741 
Q 2056 2741 1856 2470 
Q 1656 2200 1656 1722 
L 1656 0 
L 538 0 
L 538 4863 
L 1656 4863 
L 1656 2988 
Q 1909 3294 2193 3439 
Q 2478 3584 2822 3584 
Q 3428 3584 3742 3212 
Q 4056 2841 4056 2131 
z
" transform="scale(0.015625)"/>
      <path id="DejaVuSans-Bold-75" d="M 500 1363 
L 500 3500 
L 1625 3500 
L 1625 3150 
Q 1625 2866 1622 2436 
Q 1619 2006 1619 1863 
Q 1619 1441 1641 1255 
Q 1663 1069 1716 984 
Q 1784 875 1895 815 
Q 2006 756 2150 756 
Q 2500 756 2700 1025 
Q 2900 1294 2900 1772 
L 2900 3500 
L 4019 3500 
L 4019 0 
L 2900 0 
L 2900 506 
Q 2647 200 2364 54 
Q 2081 -91 1741 -91 
Q 1134 -91 817 281 
Q 500 653 500 1363 
z
" transform="scale(0.015625)"/>
     </defs>
     <use xlink:href="#DejaVuSans-Bold-56"/>
     <use xlink:href="#DejaVuSans-Bold-61" transform="translate(71.892578 0)"/>
     <use xlink:href="#DejaVuSans-Bold-6c" transform="translate(139.373047 0)"/>
     <use xlink:href="#DejaVuSans-Bold-69" transform="translate(173.650391 0)"/>
     <use xlink:href="#DejaVuSans-Bold-64" transform="translate(207.927734 0)"/>
     <use xlink:href="#DejaVuSans-Bold-61" transform="translate(279.509766 0)"/>
     <use xlink:href="#DejaVuSans-Bold-74" transform="translate(346.990234 0)"/>
     <use xlink:href="#DejaVuSans-Bold-69" transform="translate(394.792969 0)"/>
     <use xlink:href="#DejaVuSans-Bold-6f" transform="translate(429.070312 0)"/>
     <use xlink:href="#DejaVuSans-Bold-6e" transform="translate(497.771484 0)"/>
     <use xlink:href="#DejaVuSans-Bold-20" transform="translate(568.962891 0)"/>
     <use xlink:href="#DejaVuSans-Bold-68" transform="translate(603.777344 0)"/>
     <use xlink:href="#DejaVuSans-Bold-6f" transform="translate(674.96875 0)"/>
     <use xlink:href="#DejaVuSans-Bold-6c" transform="translate(743.669922 0)"/>
     <use xlink:href="#DejaVuSans-Bold-64" transform="translate(777.947266 0)"/>
     <use xlink:href="#DejaVuSans-Bold-6f" transform="translate(849.529297 0)"/>
     <use xlink:href="#DejaVuSans-Bold-75" transform="translate(918.230469 0)"/>
     <use xlink:href="#DejaVuSans-Bold-74" transform="translate(989.421875 0)"/>
    </g>
   </g>
   <g id="legend_1">
    <g id="line2d_35">
     <path d="M 64.605625 89.418437 
L 74.605625 89.418437 
L 84.605625 89.418437 
" style="fill: none; stroke: #1f2937; stroke-width: 2.2; stroke-linecap: square"/>
    </g>
    <g id="text_20">
     <!-- Actual weekly cases -->
     <g style="fill: #1f2937" transform="translate(92.605625 92.918437) scale(0.1 -0.1)">
      <defs>
       <path id="DejaVuSans-41" d="M 2188 4044 
L 1331 1722 
L 3047 1722 
L 2188 4044 
z
M 1831 4666 
L 2547 4666 
L 4325 0 
L 3669 0 
L 3244 1197 
L 1141 1197 
L 716 0 
L 50 0 
L 1831 4666 
z
" transform="scale(0.015625)"/>
       <path id="DejaVuSans-63" d="M 3122 3366 
L 3122 2828 
Q 2878 2963 2633 3030 
Q 2388 3097 2138 3097 
Q 1578 3097 1268 2742 
Q 959 2388 959 1747 
Q 959 1106 1268 751 
Q 1578 397 2138 397 
Q 2388 397 2633 464 
Q 2878 531 3122 666 
L 3122 134 
Q 2881 22 2623 -34 
Q 2366 -91 2075 -91 
Q 1284 -91 818 406 
Q 353 903 353 1747 
Q 353 2603 823 3093 
Q 1294 3584 2113 3584 
Q 2378 3584 2631 3529 
Q 2884 3475 3122 3366 
z
" transform="scale(0.015625)"/>
       <path id="DejaVuSans-75" d="M 544 1381 
L 544 3500 
L 1119 3500 
L 1119 1403 
Q 1119 906 1312 657 
Q 1506 409 1894 409 
Q 2359 409 2629 706 
Q 2900 1003 2900 1516 
L 2900 3500 
L 3475 3500 
L 3475 0 
L 2900 0 
L 2900 538 
Q 2691 219 2414 64 
Q 2138 -91 1772 -91 
Q 1169 -91 856 284 
Q 544 659 544 1381 
z
M 1991 3584 
L 1991 3584 
z
" transform="scale(0.015625)"/>
      </defs>
      <use xlink:href="#DejaVuSans-41"/>
      <use xlink:href="#DejaVuSans-63" transform="translate(66.658203 0)"/>
      <use xlink:href="#DejaVuSans-74" transform="translate(121.638672 0)"/>
      <use xlink:href="#DejaVuSans-75" transform="translate(160.847656 0)"/>
      <use xlink:href="#DejaVuSans-61" transform="translate(224.226562 0)"/>
      <use xlink:href="#DejaVuSans-6c" transform="translate(285.505859 0)"/>
      <use xlink:href="#DejaVuSans-20" transform="translate(313.289062 0)"/>
      <use xlink:href="#DejaVuSans-77" transform="translate(345.076172 0)"/>
      <use xlink:href="#DejaVuSans-65" transform="translate(426.863281 0)"/>
      <use xlink:href="#DejaVuSans-65" transform="translate(488.386719 0)"/>
      <use xlink:href="#DejaVuSans-6b" transform="translate(549.910156 0)"/>
      <use xlink:href="#DejaVuSans-6c" transform="translate(607.820312 0)"/>
      <use xlink:href="#DejaVuSans-79" transform="translate(635.603516 0)"/>
      <use xlink:href="#DejaVuSans-20" transform="translate(694.783203 0)"/>
      <use xlink:href="#DejaVuSans-63" transform="translate(726.570312 0)"/>
      <use xlink:href="#DejaVuSans-61" transform="translate(781.550781 0)"/>
      <use xlink:href="#DejaVuSans-73" transform="translate(842.830078 0)"/>
      <use xlink:href="#DejaVuSans-65" transform="translate(894.929688 0)"/>
      <use xlink:href="#DejaVuSans-73" transform="translate(956.453125 0)"/>
     </g>
    </g>
    <g id="line2d_36">
     <path d="M 213.460313 89.418437 
L 223.460313 89.418437 
L 233.460313 89.418437 
" style="fill: none; stroke: #8b2c2a; stroke-width: 2; stroke-linecap: square"/>
    </g>
    <g id="text_21">
     <!-- Predicted weekly cases -->
     <g style="fill: #1f2937" transform="translate(241.460313 92.918437) scale(0.1 -0.1)">
      <defs>
       <path id="DejaVuSans-50" d="M 1259 4147 
L 1259 2394 
L 2053 2394 
Q 2494 2394 2734 2622 
Q 2975 2850 2975 3272 
Q 2975 3691 2734 3919 
Q 2494 4147 2053 4147 
L 1259 4147 
z
M 628 4666 
L 2053 4666 
Q 2838 4666 3239 4311 
Q 3641 3956 3641 3272 
Q 3641 2581 3239 2228 
Q 2838 1875 2053 1875 
L 1259 1875 
L 1259 0 
L 628 0 
L 628 4666 
z
" transform="scale(0.015625)"/>
       <path id="DejaVuSans-64" d="M 2906 2969 
L 2906 4863 
L 3481 4863 
L 3481 0 
L 2906 0 
L 2906 525 
Q 2725 213 2448 61 
Q 2172 -91 1784 -91 
Q 1150 -91 751 415 
Q 353 922 353 1747 
Q 353 2572 751 3078 
Q 1150 3584 1784 3584 
Q 2172 3584 2448 3432 
Q 2725 3281 2906 2969 
z
M 947 1747 
Q 947 1113 1208 752 
Q 1469 391 1925 391 
Q 2381 391 2643 752 
Q 2906 1113 2906 1747 
Q 2906 2381 2643 2742 
Q 2381 3103 1925 3103 
Q 1469 3103 1208 2742 
Q 947 2381 947 1747 
z
" transform="scale(0.015625)"/>
      </defs>
      <use xlink:href="#DejaVuSans-50"/>
      <use xlink:href="#DejaVuSans-72" transform="translate(58.552734 0)"/>
      <use xlink:href="#DejaVuSans-65" transform="translate(97.416016 0)"/>
      <use xlink:href="#DejaVuSans-64" transform="translate(158.939453 0)"/>
      <use xlink:href="#DejaVuSans-69" transform="translate(222.416016 0)"/>
      <use xlink:href="#DejaVuSans-63" transform="translate(250.199219 0)"/>
      <use xlink:href="#DejaVuSans-74" transform="translate(305.179688 0)"/>
      <use xlink:href="#DejaVuSans-65" transform="translate(344.388672 0)"/>
      <use xlink:href="#DejaVuSans-64" transform="translate(405.912109 0)"/>
      <use xlink:href="#DejaVuSans-20" transform="translate(469.388672 0)"/>
      <use xlink:href="#DejaVuSans-77" transform="translate(501.175781 0)"/>
      <use xlink:href="#DejaVuSans-65" transform="translate(582.962891 0)"/>
      <use xlink:href="#DejaVuSans-65" transform="translate(644.486328 0)"/>
      <use xlink:href="#DejaVuSans-6b" transform="translate(706.009766 0)"/>
      <use xlink:href="#DejaVuSans-6c" transform="translate(763.919922 0)"/>
      <use xlink:href="#DejaVuSans-79" transform="translate(791.703125 0)"/>
      <use xlink:href="#DejaVuSans-20" transform="translate(850.882812 0)"/>
      <use xlink:href="#DejaVuSans-63" transform="translate(882.669922 0)"/>
      <use xlink:href="#DejaVuSans-61" transform="translate(937.650391 0)"/>
      <use xlink:href="#DejaVuSans-73" transform="translate(998.929688 0)"/>
      <use xlink:href="#DejaVuSans-65" transform="translate(1051.029297 0)"/>
      <use xlink:href="#DejaVuSans-73" transform="translate(1112.552734 0)"/>
     </g>
    </g>
   </g>
  </g>
  <g id="axes_2">
   <g id="patch_6">
    <path d="M 55.605625 529.92 
L 750.837625 529.92 
L 750.837625 336.073846 
L 55.605625 336.073846 
z
" style="fill: #fffdf8"/>
   </g>
   <g id="FillBetweenPolyCollection_2">
    <defs>
     <path id="m363c6a9a83" d="M 87.20708 -174.015703 
L 87.20708 -190.068269 
L 95.523252 -166.964864 
L 103.839424 -150.747887 
L 112.155596 -140.362343 
L 120.471769 -130.162001 
L 128.787941 -124.428892 
L 137.104113 -112.801445 
L 145.420285 -105.589303 
L 153.736458 -101.707997 
L 162.05263 -92.358374 
L 170.368802 -97.405423 
L 178.684974 -94.261578 
L 187.001147 -87.639949 
L 195.317319 -95.211412 
L 203.633491 -87.642011 
L 211.949663 -91.989589 
L 220.265836 -89.715446 
L 228.582008 -83.586377 
L 236.89818 -80.626983 
L 245.214352 -78.722529 
L 253.530525 -77.340765 
L 261.846697 -73.050884 
L 270.162869 -69.75011 
L 278.479041 -69.679063 
L 286.795214 -69.220094 
L 295.111386 -68.831075 
L 303.427558 -67.787186 
L 311.74373 -70.899264 
L 320.059903 -69.572537 
L 328.376075 -72.095961 
L 336.692247 -75.17424 
L 345.008419 -69.382597 
L 353.324592 -70.189923 
L 361.640764 -69.662835 
L 369.956936 -68.106745 
L 378.273108 -68.45924 
L 386.589281 -71.393941 
L 394.905453 -76.697272 
L 403.221625 -80.376875 
L 411.537797 -83.03349 
L 419.853969 -98.654433 
L 428.170142 -107.751574 
L 436.486314 -122.674186 
L 444.802486 -123.278715 
L 453.118658 -144.427327 
L 461.434831 -153.19869 
L 469.751003 -172.313165 
L 478.067175 -187.219908 
L 486.383347 -187.714299 
L 494.69952 -206.671991 
L 503.015692 -198.662191 
L 511.331864 -187.237318 
L 519.648036 -173.393278 
L 527.964209 -178.244865 
L 536.280381 -178.900834 
L 544.596553 -167.124065 
L 552.912725 -165.238558 
L 561.228898 -159.162445 
L 569.54507 -140.097426 
L 577.861242 -143.431157 
L 586.177414 -137.548334 
L 594.493587 -131.394804 
L 602.809759 -132.484938 
L 611.125931 -126.707112 
L 619.442103 -114.372368 
L 627.758276 -108.877416 
L 636.074448 -102.877728 
L 644.39062 -100.384433 
L 652.706792 -99.497383 
L 661.022965 -96.681952 
L 669.339137 -95.033877 
L 677.655309 -93.003796 
L 685.971481 -88.858676 
L 694.287654 -81.786905 
L 702.603826 -79.35889 
L 710.919998 -73.103635 
L 719.23617 -71.870804 
L 719.23617 -71.027782 
L 719.23617 -71.027782 
L 710.919998 -83.233758 
L 702.603826 -78.656517 
L 694.287654 -94.67686 
L 685.971481 -93.151113 
L 677.655309 -95.439734 
L 669.339137 -119.088812 
L 661.022965 -123.666053 
L 652.706792 -111.460077 
L 644.39062 -110.697204 
L 636.074448 -135.872029 
L 627.758276 -128.243294 
L 619.442103 -113.748698 
L 611.125931 -124.428926 
L 602.809759 -159.521107 
L 594.493587 -144.263637 
L 586.177414 -168.675589 
L 577.861242 -169.438462 
L 569.54507 -186.984553 
L 561.228898 -196.139034 
L 552.912725 -182.407312 
L 544.596553 -192.324667 
L 536.280381 -215.973745 
L 527.964209 -202.242022 
L 519.648036 -231.231215 
L 511.331864 -227.416848 
L 503.015692 -190.79892 
L 494.69952 -194.613288 
L 486.383347 -208.34501 
L 478.067175 -184.695932 
L 469.751003 -145.026511 
L 461.434831 -151.129499 
L 453.118658 -131.294788 
L 444.802486 -131.294788 
L 436.486314 -89.336746 
L 428.170142 -97.728354 
L 419.853969 -83.233758 
L 411.537797 -77.13077 
L 403.221625 -80.182264 
L 394.905453 -59.58468 
L 386.589281 -70.264909 
L 378.273108 -67.213415 
L 369.956936 -63.399047 
L 361.640764 -58.821806 
L 353.324592 -58.821806 
L 345.008419 -63.399047 
L 336.692247 -62.636174 
L 328.376075 -60.347553 
L 320.059903 -67.213415 
L 311.74373 -71.790656 
L 303.427558 -72.553529 
L 295.111386 -57.296059 
L 286.795214 -62.636174 
L 278.479041 -65.687668 
L 270.162869 -64.924794 
L 261.846697 -73.316403 
L 253.530525 -66.450541 
L 245.214352 -79.41939 
L 236.89818 -82.470884 
L 228.582008 -86.285252 
L 220.265836 -73.316403 
L 211.949663 -86.285252 
L 203.633491 -74.84215 
L 195.317319 -78.656517 
L 187.001147 -81.708011 
L 178.684974 -67.213415 
L 170.368802 -68.739162 
L 162.05263 -90.099619 
L 153.736458 -92.38824 
L 145.420285 -95.439734 
L 137.104113 -95.439734 
L 128.787941 -94.67686 
L 120.471769 -112.985824 
L 112.155596 -133.583408 
L 103.839424 -139.686396 
L 95.523252 -148.078005 
L 87.20708 -174.015703 
z
" style="stroke: #d28b79; stroke-opacity: 0.18"/>
    </defs>
    <g clip-path="url(#p16a509457c)">
     <use xlink:href="#m363c6a9a83" x="0" y="576.11625" style="fill: #d28b79; fill-opacity: 0.18; stroke: #d28b79; stroke-opacity: 0.18"/>
    </g>
   </g>
   <g id="matplotlib.axis_3">
    <g id="xtick_11">
     <g id="line2d_37">
      <path d="M 78.890907 529.92 
L 78.890907 336.073846 
" clip-path="url(#p16a509457c)" style="fill: none; stroke: #e7dfd1; stroke-opacity: 0.75; stroke-width: 0.8; stroke-linecap: square"/>
     </g>
     <g id="line2d_38">
      <g>
       <use xlink:href="#me9d0d5c549" x="78.890907" y="529.92" style="fill: #1f2937; stroke: #1f2937; stroke-width: 0.8"/>
      </g>
     </g>
     <g id="text_22">
      <!-- 2024-07 -->
      <g style="fill: #1f2937" transform="translate(57.999501 544.518438) scale(0.1 -0.1)">
       <use xlink:href="#DejaVuSans-32"/>
       <use xlink:href="#DejaVuSans-30" transform="translate(63.623047 0)"/>
       <use xlink:href="#DejaVuSans-32" transform="translate(127.246094 0)"/>
       <use xlink:href="#DejaVuSans-34" transform="translate(190.869141 0)"/>
       <use xlink:href="#DejaVuSans-2d" transform="translate(254.492188 0)"/>
       <use xlink:href="#DejaVuSans-30" transform="translate(290.576172 0)"/>
       <use xlink:href="#DejaVuSans-37" transform="translate(354.199219 0)"/>
      </g>
     </g>
    </g>
    <g id="xtick_12">
     <g id="line2d_39">
      <path d="M 225.017934 529.92 
L 225.017934 336.073846 
" clip-path="url(#p16a509457c)" style="fill: none; stroke: #e7dfd1; stroke-opacity: 0.75; stroke-width: 0.8; stroke-linecap: square"/>
     </g>
     <g id="line2d_40">
      <g>
       <use xlink:href="#me9d0d5c549" x="225.017934" y="529.92" style="fill: #1f2937; stroke: #1f2937; stroke-width: 0.8"/>
      </g>
     </g>
     <g id="text_23">
      <!-- 2024-11 -->
      <g style="fill: #1f2937" transform="translate(204.126528 544.518438) scale(0.1 -0.1)">
       <use xlink:href="#DejaVuSans-32"/>
       <use xlink:href="#DejaVuSans-30" transform="translate(63.623047 0)"/>
       <use xlink:href="#DejaVuSans-32" transform="translate(127.246094 0)"/>
       <use xlink:href="#DejaVuSans-34" transform="translate(190.869141 0)"/>
       <use xlink:href="#DejaVuSans-2d" transform="translate(254.492188 0)"/>
       <use xlink:href="#DejaVuSans-31" transform="translate(290.576172 0)"/>
       <use xlink:href="#DejaVuSans-31" transform="translate(354.199219 0)"/>
      </g>
     </g>
    </g>
    <g id="xtick_13">
     <g id="line2d_41">
      <path d="M 367.580887 529.92 
L 367.580887 336.073846 
" clip-path="url(#p16a509457c)" style="fill: none; stroke: #e7dfd1; stroke-opacity: 0.75; stroke-width: 0.8; stroke-linecap: square"/>
     </g>
     <g id="line2d_42">
      <g>
       <use xlink:href="#me9d0d5c549" x="367.580887" y="529.92" style="fill: #1f2937; stroke: #1f2937; stroke-width: 0.8"/>
      </g>
     </g>
     <g id="text_24">
      <!-- 2025-03 -->
      <g style="fill: #1f2937" transform="translate(346.689481 544.518438) scale(0.1 -0.1)">
       <use xlink:href="#DejaVuSans-32"/>
       <use xlink:href="#DejaVuSans-30" transform="translate(63.623047 0)"/>
       <use xlink:href="#DejaVuSans-32" transform="translate(127.246094 0)"/>
       <use xlink:href="#DejaVuSans-35" transform="translate(190.869141 0)"/>
       <use xlink:href="#DejaVuSans-2d" transform="translate(254.492188 0)"/>
       <use xlink:href="#DejaVuSans-30" transform="translate(290.576172 0)"/>
       <use xlink:href="#DejaVuSans-33" transform="translate(354.199219 0)"/>
      </g>
     </g>
    </g>
    <g id="xtick_14">
     <g id="line2d_43">
      <path d="M 512.519889 529.92 
L 512.519889 336.073846 
" clip-path="url(#p16a509457c)" style="fill: none; stroke: #e7dfd1; stroke-opacity: 0.75; stroke-width: 0.8; stroke-linecap: square"/>
     </g>
     <g id="line2d_44">
      <g>
       <use xlink:href="#me9d0d5c549" x="512.519889" y="529.92" style="fill: #1f2937; stroke: #1f2937; stroke-width: 0.8"/>
      </g>
     </g>
     <g id="text_25">
      <!-- 2025-07 -->
      <g style="fill: #1f2937" transform="translate(491.628483 544.518438) scale(0.1 -0.1)">
       <use xlink:href="#DejaVuSans-32"/>
       <use xlink:href="#DejaVuSans-30" transform="translate(63.623047 0)"/>
       <use xlink:href="#DejaVuSans-32" transform="translate(127.246094 0)"/>
       <use xlink:href="#DejaVuSans-35" transform="translate(190.869141 0)"/>
       <use xlink:href="#DejaVuSans-2d" transform="translate(254.492188 0)"/>
       <use xlink:href="#DejaVuSans-30" transform="translate(290.576172 0)"/>
       <use xlink:href="#DejaVuSans-37" transform="translate(354.199219 0)"/>
      </g>
     </g>
    </g>
    <g id="xtick_15">
     <g id="line2d_45">
      <path d="M 658.646915 529.92 
L 658.646915 336.073846 
" clip-path="url(#p16a509457c)" style="fill: none; stroke: #e7dfd1; stroke-opacity: 0.75; stroke-width: 0.8; stroke-linecap: square"/>
     </g>
     <g id="line2d_46">
      <g>
       <use xlink:href="#me9d0d5c549" x="658.646915" y="529.92" style="fill: #1f2937; stroke: #1f2937; stroke-width: 0.8"/>
      </g>
     </g>
     <g id="text_26">
      <!-- 2025-11 -->
      <g style="fill: #1f2937" transform="translate(637.755509 544.518438) scale(0.1 -0.1)">
       <use xlink:href="#DejaVuSans-32"/>
       <use xlink:href="#DejaVuSans-30" transform="translate(63.623047 0)"/>
       <use xlink:href="#DejaVuSans-32" transform="translate(127.246094 0)"/>
       <use xlink:href="#DejaVuSans-35" transform="translate(190.869141 0)"/>
       <use xlink:href="#DejaVuSans-2d" transform="translate(254.492188 0)"/>
       <use xlink:href="#DejaVuSans-31" transform="translate(290.576172 0)"/>
       <use xlink:href="#DejaVuSans-31" transform="translate(354.199219 0)"/>
      </g>
     </g>
    </g>
    <g id="text_27">
     <!-- Week start -->
     <g style="fill: #1f2937" transform="translate(376.289594 558.196563) scale(0.1 -0.1)">
      <use xlink:href="#DejaVuSans-57"/>
      <use xlink:href="#DejaVuSans-65" transform="translate(93.001953 0)"/>
      <use xlink:href="#DejaVuSans-65" transform="translate(154.525391 0)"/>
      <use xlink:href="#DejaVuSans-6b" transform="translate(216.048828 0)"/>
      <use xlink:href="#DejaVuSans-20" transform="translate(273.958984 0)"/>
      <use xlink:href="#DejaVuSans-73" transform="translate(305.746094 0)"/>
      <use xlink:href="#DejaVuSans-74" transform="translate(357.845703 0)"/>
      <use xlink:href="#DejaVuSans-61" transform="translate(397.054688 0)"/>
      <use xlink:href="#DejaVuSans-72" transform="translate(458.333984 0)"/>
      <use xlink:href="#DejaVuSans-74" transform="translate(499.447266 0)"/>
     </g>
    </g>
   </g>
   <g id="matplotlib.axis_4">
    <g id="ytick_7">
     <g id="line2d_47">
      <path d="M 55.605625 527.211799 
L 750.837625 527.211799 
" clip-path="url(#p16a509457c)" style="fill: none; stroke: #e7dfd1; stroke-opacity: 0.75; stroke-width: 0.8; stroke-linecap: square"/>
     </g>
     <g id="line2d_48">
      <g>
       <use xlink:href="#md9ec72d666" x="55.605625" y="527.211799" style="fill: #1f2937; stroke: #1f2937; stroke-width: 0.8"/>
      </g>
     </g>
     <g id="text_28">
      <!-- 0 -->
      <g style="fill: #1f2937" transform="translate(42.243125 531.011018) scale(0.1 -0.1)">
       <use xlink:href="#DejaVuSans-30"/>
      </g>
     </g>
    </g>
    <g id="ytick_8">
     <g id="line2d_49">
      <path d="M 55.605625 489.068125 
L 750.837625 489.068125 
" clip-path="url(#p16a509457c)" style="fill: none; stroke: #e7dfd1; stroke-opacity: 0.75; stroke-width: 0.8; stroke-linecap: square"/>
     </g>
     <g id="line2d_50">
      <g>
       <use xlink:href="#md9ec72d666" x="55.605625" y="489.068125" style="fill: #1f2937; stroke: #1f2937; stroke-width: 0.8"/>
      </g>
     </g>
     <g id="text_29">
      <!-- 50 -->
      <g style="fill: #1f2937" transform="translate(35.880625 492.867343) scale(0.1 -0.1)">
       <use xlink:href="#DejaVuSans-35"/>
       <use xlink:href="#DejaVuSans-30" transform="translate(63.623047 0)"/>
      </g>
     </g>
    </g>
    <g id="ytick_9">
     <g id="line2d_51">
      <path d="M 55.605625 450.92445 
L 750.837625 450.92445 
" clip-path="url(#p16a509457c)" style="fill: none; stroke: #e7dfd1; stroke-opacity: 0.75; stroke-width: 0.8; stroke-linecap: square"/>
     </g>
     <g id="line2d_52">
      <g>
       <use xlink:href="#md9ec72d666" x="55.605625" y="450.92445" style="fill: #1f2937; stroke: #1f2937; stroke-width: 0.8"/>
      </g>
     </g>
     <g id="text_30">
      <!-- 100 -->
      <g style="fill: #1f2937" transform="translate(29.518125 454.723669) scale(0.1 -0.1)">
       <use xlink:href="#DejaVuSans-31"/>
       <use xlink:href="#DejaVuSans-30" transform="translate(63.623047 0)"/>
       <use xlink:href="#DejaVuSans-30" transform="translate(127.246094 0)"/>
      </g>
     </g>
    </g>
    <g id="ytick_10">
     <g id="line2d_53">
      <path d="M 55.605625 412.780776 
L 750.837625 412.780776 
" clip-path="url(#p16a509457c)" style="fill: none; stroke: #e7dfd1; stroke-opacity: 0.75; stroke-width: 0.8; stroke-linecap: square"/>
     </g>
     <g id="line2d_54">
      <g>
       <use xlink:href="#md9ec72d666" x="55.605625" y="412.780776" style="fill: #1f2937; stroke: #1f2937; stroke-width: 0.8"/>
      </g>
     </g>
     <g id="text_31">
      <!-- 150 -->
      <g style="fill: #1f2937" transform="translate(29.518125 416.579994) scale(0.1 -0.1)">
       <use xlink:href="#DejaVuSans-31"/>
       <use xlink:href="#DejaVuSans-35" transform="translate(63.623047 0)"/>
       <use xlink:href="#DejaVuSans-30" transform="translate(127.246094 0)"/>
      </g>
     </g>
    </g>
    <g id="ytick_11">
     <g id="line2d_55">
      <path d="M 55.605625 374.637101 
L 750.837625 374.637101 
" clip-path="url(#p16a509457c)" style="fill: none; stroke: #e7dfd1; stroke-opacity: 0.75; stroke-width: 0.8; stroke-linecap: square"/>
     </g>
     <g id="line2d_56">
      <g>
       <use xlink:href="#md9ec72d666" x="55.605625" y="374.637101" style="fill: #1f2937; stroke: #1f2937; stroke-width: 0.8"/>
      </g>
     </g>
     <g id="text_32">
      <!-- 200 -->
      <g style="fill: #1f2937" transform="translate(29.518125 378.43632) scale(0.1 -0.1)">
       <use xlink:href="#DejaVuSans-32"/>
       <use xlink:href="#DejaVuSans-30" transform="translate(63.623047 0)"/>
       <use xlink:href="#DejaVuSans-30" transform="translate(127.246094 0)"/>
      </g>
     </g>
    </g>
    <g id="ytick_12">
     <g id="line2d_57">
      <path d="M 55.605625 336.493427 
L 750.837625 336.493427 
" clip-path="url(#p16a509457c)" style="fill: none; stroke: #e7dfd1; stroke-opacity: 0.75; stroke-width: 0.8; stroke-linecap: square"/>
     </g>
     <g id="line2d_58">
      <g>
       <use xlink:href="#md9ec72d666" x="55.605625" y="336.493427" style="fill: #1f2937; stroke: #1f2937; stroke-width: 0.8"/>
      </g>
     </g>
     <g id="text_33">
      <!-- 250 -->
      <g style="fill: #1f2937" transform="translate(29.518125 340.292645) scale(0.1 -0.1)">
       <use xlink:href="#DejaVuSans-32"/>
       <use xlink:href="#DejaVuSans-35" transform="translate(63.623047 0)"/>
       <use xlink:href="#DejaVuSans-30" transform="translate(127.246094 0)"/>
      </g>
     </g>
    </g>
    <g id="text_34">
     <!-- Cases per week -->
     <g style="fill: #1f2937" transform="translate(23.438438 472.460204) rotate(-90) scale(0.1 -0.1)">
      <use xlink:href="#DejaVuSans-43"/>
      <use xlink:href="#DejaVuSans-61" transform="translate(69.824219 0)"/>
      <use xlink:href="#DejaVuSans-73" transform="translate(131.103516 0)"/>
      <use xlink:href="#DejaVuSans-65" transform="translate(183.203125 0)"/>
      <use xlink:href="#DejaVuSans-73" transform="translate(244.726562 0)"/>
      <use xlink:href="#DejaVuSans-20" transform="translate(296.826172 0)"/>
      <use xlink:href="#DejaVuSans-70" transform="translate(328.613281 0)"/>
      <use xlink:href="#DejaVuSans-65" transform="translate(392.089844 0)"/>
      <use xlink:href="#DejaVuSans-72" transform="translate(453.613281 0)"/>
      <use xlink:href="#DejaVuSans-20" transform="translate(494.726562 0)"/>
      <use xlink:href="#DejaVuSans-77" transform="translate(526.513672 0)"/>
      <use xlink:href="#DejaVuSans-65" transform="translate(608.300781 0)"/>
      <use xlink:href="#DejaVuSans-65" transform="translate(669.824219 0)"/>
      <use xlink:href="#DejaVuSans-6b" transform="translate(731.347656 0)"/>
     </g>
    </g>
   </g>
   <g id="line2d_59">
    <path d="M 87.20708 402.100547 
L 95.523252 428.038245 
L 103.839424 436.429854 
L 112.155596 442.532842 
L 120.471769 463.130426 
L 128.787941 481.43939 
L 137.104113 480.676516 
L 145.420285 480.676516 
L 153.736458 483.72801 
L 162.05263 486.016631 
L 170.368802 507.377088 
L 178.684974 508.902835 
L 187.001147 494.408239 
L 195.317319 497.459733 
L 203.633491 501.2741 
L 211.949663 489.830998 
L 220.265836 502.799847 
L 228.582008 489.830998 
L 236.89818 493.645366 
L 245.214352 496.69686 
L 253.530525 509.665709 
L 261.846697 502.799847 
L 270.162869 511.191456 
L 278.479041 510.428582 
L 286.795214 513.480076 
L 295.111386 518.820191 
L 303.427558 503.562721 
L 311.74373 504.325594 
L 320.059903 508.902835 
L 328.376075 515.768697 
L 336.692247 513.480076 
L 345.008419 512.717203 
L 353.324592 517.294444 
L 361.640764 517.294444 
L 369.956936 512.717203 
L 378.273108 508.902835 
L 386.589281 505.851341 
L 394.905453 516.53157 
L 403.221625 495.933986 
L 411.537797 498.98548 
L 419.853969 492.882492 
L 428.170142 478.387896 
L 436.486314 486.779504 
L 444.802486 444.821462 
L 453.118658 444.821462 
L 461.434831 424.986751 
L 469.751003 431.089739 
L 478.067175 391.420318 
L 486.383347 367.77124 
L 494.69952 381.502962 
L 503.015692 385.31733 
L 511.331864 348.699402 
L 519.648036 344.885035 
L 527.964209 373.874228 
L 536.280381 360.142505 
L 544.596553 383.791583 
L 552.912725 393.708938 
L 561.228898 379.977216 
L 569.54507 389.131697 
L 577.861242 406.677788 
L 586.177414 407.440661 
L 594.493587 431.852613 
L 602.809759 416.595143 
L 611.125931 451.687324 
L 619.442103 462.367552 
L 627.758276 447.872956 
L 636.074448 440.244221 
L 644.39062 465.419046 
L 652.706792 464.656173 
L 661.022965 452.450197 
L 669.339137 457.027438 
L 677.655309 480.676516 
L 685.971481 482.965137 
L 694.287654 481.43939 
L 702.603826 497.459733 
L 710.919998 492.882492 
L 719.23617 505.088468 
" clip-path="url(#p16a509457c)" style="fill: none; stroke: #1f2937; stroke-width: 2.2; stroke-linecap: square"/>
   </g>
   <g id="line2d_60">
    <path d="M 87.20708 386.047981 
L 95.523252 409.151386 
L 103.839424 425.368363 
L 112.155596 435.753907 
L 120.471769 445.954249 
L 128.787941 451.687358 
L 137.104113 463.314805 
L 145.420285 470.526947 
L 153.736458 474.408253 
L 162.05263 483.757876 
L 170.368802 478.710827 
L 178.684974 481.854672 
L 187.001147 488.476301 
L 195.317319 480.904838 
L 203.633491 488.474239 
L 211.949663 484.126661 
L 220.265836 486.400804 
L 228.582008 492.529873 
L 236.89818 495.489267 
L 245.214352 497.393721 
L 253.530525 498.775485 
L 261.846697 503.065366 
L 270.162869 506.36614 
L 278.479041 506.437187 
L 286.795214 506.896156 
L 295.111386 507.285175 
L 303.427558 508.329064 
L 311.74373 505.216986 
L 320.059903 506.543713 
L 328.376075 504.020289 
L 336.692247 500.94201 
L 345.008419 506.733653 
L 353.324592 505.926327 
L 361.640764 506.453415 
L 369.956936 508.009505 
L 378.273108 507.65701 
L 386.589281 504.722309 
L 394.905453 499.418978 
L 403.221625 495.739375 
L 411.537797 493.08276 
L 419.853969 477.461817 
L 428.170142 468.364676 
L 436.486314 453.442064 
L 444.802486 452.837535 
L 453.118658 431.688923 
L 461.434831 422.91756 
L 469.751003 403.803085 
L 478.067175 388.896342 
L 486.383347 388.401951 
L 494.69952 369.444259 
L 503.015692 377.454059 
L 511.331864 388.878932 
L 519.648036 402.722972 
L 527.964209 397.871385 
L 536.280381 397.215416 
L 544.596553 408.992185 
L 552.912725 410.877692 
L 561.228898 416.953805 
L 569.54507 436.018824 
L 577.861242 432.685093 
L 586.177414 438.567916 
L 594.493587 444.721446 
L 602.809759 443.631312 
L 611.125931 449.409138 
L 619.442103 461.743882 
L 627.758276 467.238834 
L 636.074448 473.238522 
L 644.39062 475.731817 
L 652.706792 476.618867 
L 661.022965 479.434298 
L 669.339137 481.082373 
L 677.655309 483.112454 
L 685.971481 487.257574 
L 694.287654 494.329345 
L 702.603826 496.75736 
L 710.919998 503.012615 
L 719.23617 504.245446 
" clip-path="url(#p16a509457c)" style="fill: none; stroke: #8b2c2a; stroke-width: 2; stroke-linecap: square"/>
   </g>
   <g id="patch_7">
    <path d="M 55.605625 529.92 
L 55.605625 336.073846 
" style="fill: none; stroke: #e7dfd1; stroke-width: 0.8; stroke-linejoin: miter; stroke-linecap: square"/>
   </g>
   <g id="patch_8">
    <path d="M 55.605625 529.92 
L 750.837625 529.92 
" style="fill: none; stroke: #e7dfd1; stroke-width: 0.8; stroke-linejoin: miter; stroke-linecap: square"/>
   </g>
   <g id="text_35">
    <g id="patch_9">
     <path d="M 764.742265 370.142091 
L 851.686015 370.142091 
Q 855.186015 370.142091 855.186015 366.642091 
L 855.186015 345.766154 
Q 855.186015 342.266154 851.686015 342.266154 
L 764.742265 342.266154 
Q 761.242265 342.266154 761.242265 345.766154 
L 761.242265 366.642091 
Q 761.242265 370.142091 764.742265 370.142091 
z
" style="fill: #f6f2ea; stroke: #e7dfd1; stroke-linejoin: miter"/>
    </g>
    <!-- Weekly R² 0.854 -->
    <g style="fill: #1f2937" transform="translate(764.742265 353.364591) scale(0.1 -0.1)">
     <defs>
      <path id="DejaVuSans-38" d="M 2034 2216 
Q 1584 2216 1326 1975 
Q 1069 1734 1069 1313 
Q 1069 891 1326 650 
Q 1584 409 2034 409 
Q 2484 409 2743 651 
Q 3003 894 3003 1313 
Q 3003 1734 2745 1975 
Q 2488 2216 2034 2216 
z
M 1403 2484 
Q 997 2584 770 2862 
Q 544 3141 544 3541 
Q 544 4100 942 4425 
Q 1341 4750 2034 4750 
Q 2731 4750 3128 4425 
Q 3525 4100 3525 3541 
Q 3525 3141 3298 2862 
Q 3072 2584 2669 2484 
Q 3125 2378 3379 2068 
Q 3634 1759 3634 1313 
Q 3634 634 3220 271 
Q 2806 -91 2034 -91 
Q 1263 -91 848 271 
Q 434 634 434 1313 
Q 434 1759 690 2068 
Q 947 2378 1403 2484 
z
M 1172 3481 
Q 1172 3119 1398 2916 
Q 1625 2713 2034 2713 
Q 2441 2713 2670 2916 
Q 2900 3119 2900 3481 
Q 2900 3844 2670 4047 
Q 2441 4250 2034 4250 
Q 1625 4250 1398 4047 
Q 1172 3844 1172 3481 
z
" transform="scale(0.015625)"/>
     </defs>
     <use xlink:href="#DejaVuSans-57"/>
     <use xlink:href="#DejaVuSans-65" transform="translate(93.001953 0)"/>
     <use xlink:href="#DejaVuSans-65" transform="translate(154.525391 0)"/>
     <use xlink:href="#DejaVuSans-6b" transform="translate(216.048828 0)"/>
     <use xlink:href="#DejaVuSans-6c" transform="translate(273.958984 0)"/>
     <use xlink:href="#DejaVuSans-79" transform="translate(301.742188 0)"/>
     <use xlink:href="#DejaVuSans-20" transform="translate(360.921875 0)"/>
     <use xlink:href="#DejaVuSans-52" transform="translate(392.708984 0)"/>
     <use xlink:href="#DejaVuSans-b2" transform="translate(462.191406 0)"/>
     <use xlink:href="#DejaVuSans-20" transform="translate(502.279297 0)"/>
     <use xlink:href="#DejaVuSans-30" transform="translate(534.066406 0)"/>
     <use xlink:href="#DejaVuSans-2e" transform="translate(597.689453 0)"/>
     <use xlink:href="#DejaVuSans-38" transform="translate(629.476562 0)"/>
     <use xlink:href="#DejaVuSans-35" transform="translate(693.099609 0)"/>
     <use xlink:href="#DejaVuSans-34" transform="translate(756.722656 0)"/>
    </g>
    <!-- Correlation 0.931 -->
    <g style="fill: #1f2937" transform="translate(764.742265 364.562404) scale(0.1 -0.1)">
     <use xlink:href="#DejaVuSans-43"/>
     <use xlink:href="#DejaVuSans-6f" transform="translate(69.824219 0)"/>
     <use xlink:href="#DejaVuSans-72" transform="translate(131.005859 0)"/>
     <use xlink:href="#DejaVuSans-72" transform="translate(170.369141 0)"/>
     <use xlink:href="#DejaVuSans-65" transform="translate(209.232422 0)"/>
     <use xlink:href="#DejaVuSans-6c" transform="translate(270.755859 0)"/>
     <use xlink:href="#DejaVuSans-61" transform="translate(298.539062 0)"/>
     <use xlink:href="#DejaVuSans-74" transform="translate(359.818359 0)"/>
     <use xlink:href="#DejaVuSans-69" transform="translate(399.027344 0)"/>
     <use xlink:href="#DejaVuSans-6f" transform="translate(426.810547 0)"/>
     <use xlink:href="#DejaVuSans-6e" transform="translate(487.992188 0)"/>
     <use xlink:href="#DejaVuSans-20" transform="translate(551.371094 0)"/>
     <use xlink:href="#DejaVuSans-30" transform="translate(583.158203 0)"/>
     <use xlink:href="#DejaVuSans-2e" transform="translate(646.78125 0)"/>
     <use xlink:href="#DejaVuSans-39" transform="translate(678.568359 0)"/>
     <use xlink:href="#DejaVuSans-33" transform="translate(742.191406 0)"/>
     <use xlink:href="#DejaVuSans-31" transform="translate(805.814453 0)"/>
    </g>
   </g>
   <g id="text_36">
    <!-- Test holdout -->
    <g style="fill: #1f2937" transform="translate(55.605625 330.073846) scale(0.13 -0.13)">
     <defs>
      <path id="DejaVuSans-Bold-54" d="M 31 4666 
L 4331 4666 
L 4331 3756 
L 2784 3756 
L 2784 0 
L 1581 0 
L 1581 3756 
L 31 3756 
L 31 4666 
z
" transform="scale(0.015625)"/>
      <path id="DejaVuSans-Bold-65" d="M 4031 1759 
L 4031 1441 
L 1416 1441 
Q 1456 1047 1700 850 
Q 1944 653 2381 653 
Q 2734 653 3104 758 
Q 3475 863 3866 1075 
L 3866 213 
Q 3469 63 3072 -14 
Q 2675 -91 2278 -91 
Q 1328 -91 801 392 
Q 275 875 275 1747 
Q 275 2603 792 3093 
Q 1309 3584 2216 3584 
Q 3041 3584 3536 3087 
Q 4031 2591 4031 1759 
z
M 2881 2131 
Q 2881 2450 2695 2645 
Q 2509 2841 2209 2841 
Q 1884 2841 1681 2658 
Q 1478 2475 1428 2131 
L 2881 2131 
z
" transform="scale(0.015625)"/>
      <path id="DejaVuSans-Bold-73" d="M 3272 3391 
L 3272 2541 
Q 2913 2691 2578 2766 
Q 2244 2841 1947 2841 
Q 1628 2841 1473 2761 
Q 1319 2681 1319 2516 
Q 1319 2381 1436 2309 
Q 1553 2238 1856 2203 
L 2053 2175 
Q 2913 2066 3209 1816 
Q 3506 1566 3506 1031 
Q 3506 472 3093 190 
Q 2681 -91 1863 -91 
Q 1516 -91 1145 -36 
Q 775 19 384 128 
L 384 978 
Q 719 816 1070 734 
Q 1422 653 1784 653 
Q 2113 653 2278 743 
Q 2444 834 2444 1013 
Q 2444 1163 2330 1236 
Q 2216 1309 1875 1350 
L 1678 1375 
Q 931 1469 631 1722 
Q 331 1975 331 2491 
Q 331 3047 712 3315 
Q 1094 3584 1881 3584 
Q 2191 3584 2531 3537 
Q 2872 3491 3272 3391 
z
" transform="scale(0.015625)"/>
     </defs>
     <use xlink:href="#DejaVuSans-Bold-54"/>
     <use xlink:href="#DejaVuSans-Bold-65" transform="translate(54.962891 0)"/>
     <use xlink:href="#DejaVuSans-Bold-73" transform="translate(122.785156 0)"/>
     <use xlink:href="#DejaVuSans-Bold-74" transform="translate(182.306641 0)"/>
     <use xlink:href="#DejaVuSans-Bold-20" transform="translate(230.109375 0)"/>
     <use xlink:href="#DejaVuSans-Bold-68" transform="translate(264.923828 0)"/>
     <use xlink:href="#DejaVuSans-Bold-6f" transform="translate(336.115234 0)"/>
     <use xlink:href="#DejaVuSans-Bold-6c" transform="translate(404.816406 0)"/>
     <use xlink:href="#DejaVuSans-Bold-64" transform="translate(439.09375 0)"/>
     <use xlink:href="#DejaVuSans-Bold-6f" transform="translate(510.675781 0)"/>
     <use xlink:href="#DejaVuSans-Bold-75" transform="translate(579.376953 0)"/>
     <use xlink:href="#DejaVuSans-Bold-74" transform="translate(650.568359 0)"/>
    </g>
   </g>
  </g>
  <g id="text_37">
   <!-- Borelioza baseline follows weekly national dynamics on future weeks -->
   <g style="fill: #1f2937" transform="translate(16.437625 29.517187) scale(0.18 -0.18)">
    <defs>
     <path id="DejaVuSans-Bold-42" d="M 2456 2859 
Q 2741 2859 2887 2984 
Q 3034 3109 3034 3353 
Q 3034 3594 2887 3720 
Q 2741 3847 2456 3847 
L 1791 3847 
L 1791 2859 
L 2456 2859 
z
M 2497 819 
Q 2859 819 3042 972 
Q 3225 1125 3225 1434 
Q 3225 1738 3044 1889 
Q 2863 2041 2497 2041 
L 1791 2041 
L 1791 819 
L 2497 819 
z
M 3616 2497 
Q 4003 2384 4215 2081 
Q 4428 1778 4428 1338 
Q 4428 663 3972 331 
Q 3516 0 2584 0 
L 588 0 
L 588 4666 
L 2394 4666 
Q 3366 4666 3802 4372 
Q 4238 4078 4238 3431 
Q 4238 3091 4078 2852 
Q 3919 2613 3616 2497 
z
" transform="scale(0.015625)"/>
     <path id="DejaVuSans-Bold-72" d="M 3138 2547 
Q 2991 2616 2845 2648 
Q 2700 2681 2553 2681 
Q 2122 2681 1889 2404 
Q 1656 2128 1656 1613 
L 1656 0 
L 538 0 
L 538 3500 
L 1656 3500 
L 1656 2925 
Q 1872 3269 2151 3426 
Q 2431 3584 2822 3584 
Q 2878 3584 2943 3579 
Q 3009 3575 3134 3559 
L 3138 2547 
z
" transform="scale(0.015625)"/>
     <path id="DejaVuSans-Bold-7a" d="M 366 3500 
L 3419 3500 
L 3419 2719 
L 1575 800 
L 3419 800 
L 3419 0 
L 288 0 
L 288 781 
L 2131 2700 
L 366 2700 
L 366 3500 
z
" transform="scale(0.015625)"/>
     <path id="DejaVuSans-Bold-62" d="M 2400 722 
Q 2759 722 2948 984 
Q 3138 1247 3138 1747 
Q 3138 2247 2948 2509 
Q 2759 2772 2400 2772 
Q 2041 2772 1848 2508 
Q 1656 2244 1656 1747 
Q 1656 1250 1848 986 
Q 2041 722 2400 722 
z
M 1656 2988 
Q 1888 3294 2169 3439 
Q 2450 3584 2816 3584 
Q 3463 3584 3878 3070 
Q 4294 2556 4294 1747 
Q 4294 938 3878 423 
Q 3463 -91 2816 -91 
Q 2450 -91 2169 54 
Q 1888 200 1656 506 
L 1656 0 
L 538 0 
L 538 4863 
L 1656 4863 
L 1656 2988 
z
" transform="scale(0.015625)"/>
     <path id="DejaVuSans-Bold-66" d="M 2841 4863 
L 2841 4128 
L 2222 4128 
Q 1984 4128 1890 4042 
Q 1797 3956 1797 3744 
L 1797 3500 
L 2753 3500 
L 2753 2700 
L 1797 2700 
L 1797 0 
L 678 0 
L 678 2700 
L 122 2700 
L 122 3500 
L 678 3500 
L 678 3744 
Q 678 4316 997 4589 
Q 1316 4863 1984 4863 
L 2841 4863 
z
" transform="scale(0.015625)"/>
     <path id="DejaVuSans-Bold-77" d="M 225 3500 
L 1313 3500 
L 1900 1088 
L 2491 3500 
L 3425 3500 
L 4013 1113 
L 4603 3500 
L 5691 3500 
L 4769 0 
L 3547 0 
L 2956 2406 
L 2369 0 
L 1147 0 
L 225 3500 
z
" transform="scale(0.015625)"/>
     <path id="DejaVuSans-Bold-6b" d="M 538 4863 
L 1656 4863 
L 1656 2216 
L 2944 3500 
L 4244 3500 
L 2534 1894 
L 4378 0 
L 3022 0 
L 1656 1459 
L 1656 0 
L 538 0 
L 538 4863 
z
" transform="scale(0.015625)"/>
     <path id="DejaVuSans-Bold-79" d="M 78 3500 
L 1197 3500 
L 2138 1125 
L 2938 3500 
L 4056 3500 
L 2584 -331 
Q 2363 -916 2067 -1148 
Q 1772 -1381 1288 -1381 
L 641 -1381 
L 641 -647 
L 991 -647 
Q 1275 -647 1404 -556 
Q 1534 -466 1606 -231 
L 1638 -134 
L 78 3500 
z
" transform="scale(0.015625)"/>
     <path id="DejaVuSans-Bold-6d" d="M 3781 2919 
Q 3994 3244 4286 3414 
Q 4578 3584 4928 3584 
Q 5531 3584 5847 3212 
Q 6163 2841 6163 2131 
L 6163 0 
L 5038 0 
L 5038 1825 
Q 5041 1866 5042 1909 
Q 5044 1953 5044 2034 
Q 5044 2406 4934 2573 
Q 4825 2741 4581 2741 
Q 4263 2741 4089 2478 
Q 3916 2216 3909 1719 
L 3909 0 
L 2784 0 
L 2784 1825 
Q 2784 2406 2684 2573 
Q 2584 2741 2328 2741 
Q 2006 2741 1831 2477 
Q 1656 2213 1656 1722 
L 1656 0 
L 531 0 
L 531 3500 
L 1656 3500 
L 1656 2988 
Q 1863 3284 2130 3434 
Q 2397 3584 2719 3584 
Q 3081 3584 3359 3409 
Q 3638 3234 3781 2919 
z
" transform="scale(0.015625)"/>
     <path id="DejaVuSans-Bold-63" d="M 3366 3391 
L 3366 2478 
Q 3138 2634 2908 2709 
Q 2678 2784 2431 2784 
Q 1963 2784 1702 2511 
Q 1441 2238 1441 1747 
Q 1441 1256 1702 982 
Q 1963 709 2431 709 
Q 2694 709 2930 787 
Q 3166 866 3366 1019 
L 3366 103 
Q 3103 6 2833 -42 
Q 2563 -91 2291 -91 
Q 1344 -91 809 395 
Q 275 881 275 1747 
Q 275 2613 809 3098 
Q 1344 3584 2291 3584 
Q 2566 3584 2833 3536 
Q 3100 3488 3366 3391 
z
" transform="scale(0.015625)"/>
    </defs>
    <use xlink:href="#DejaVuSans-Bold-42"/>
    <use xlink:href="#DejaVuSans-Bold-6f" transform="translate(76.220703 0)"/>
    <use xlink:href="#DejaVuSans-Bold-72" transform="translate(144.921875 0)"/>
    <use xlink:href="#DejaVuSans-Bold-65" transform="translate(194.238281 0)"/>
    <use xlink:href="#DejaVuSans-Bold-6c" transform="translate(262.060547 0)"/>
    <use xlink:href="#DejaVuSans-Bold-69" transform="translate(296.337891 0)"/>
    <use xlink:href="#DejaVuSans-Bold-6f" transform="translate(330.615234 0)"/>
    <use xlink:href="#DejaVuSans-Bold-7a" transform="translate(399.316406 0)"/>
    <use xlink:href="#DejaVuSans-Bold-61" transform="translate(457.519531 0)"/>
    <use xlink:href="#DejaVuSans-Bold-20" transform="translate(525 0)"/>
    <use xlink:href="#DejaVuSans-Bold-62" transform="translate(559.814453 0)"/>
    <use xlink:href="#DejaVuSans-Bold-61" transform="translate(631.396484 0)"/>
    <use xlink:href="#DejaVuSans-Bold-73" transform="translate(698.876953 0)"/>
    <use xlink:href="#DejaVuSans-Bold-65" transform="translate(758.398438 0)"/>
    <use xlink:href="#DejaVuSans-Bold-6c" transform="translate(826.220703 0)"/>
    <use xlink:href="#DejaVuSans-Bold-69" transform="translate(860.498047 0)"/>
    <use xlink:href="#DejaVuSans-Bold-6e" transform="translate(894.775391 0)"/>
    <use xlink:href="#DejaVuSans-Bold-65" transform="translate(965.966797 0)"/>
    <use xlink:href="#DejaVuSans-Bold-20" transform="translate(1033.789062 0)"/>
    <use xlink:href="#DejaVuSans-Bold-66" transform="translate(1068.603516 0)"/>
    <use xlink:href="#DejaVuSans-Bold-6f" transform="translate(1112.109375 0)"/>
    <use xlink:href="#DejaVuSans-Bold-6c" transform="translate(1180.810547 0)"/>
    <use xlink:href="#DejaVuSans-Bold-6c" transform="translate(1215.087891 0)"/>
    <use xlink:href="#DejaVuSans-Bold-6f" transform="translate(1249.365234 0)"/>
    <use xlink:href="#DejaVuSans-Bold-77" transform="translate(1318.066406 0)"/>
    <use xlink:href="#DejaVuSans-Bold-73" transform="translate(1410.449219 0)"/>
    <use xlink:href="#DejaVuSans-Bold-20" transform="translate(1469.970703 0)"/>
    <use xlink:href="#DejaVuSans-Bold-77" transform="translate(1504.785156 0)"/>
    <use xlink:href="#DejaVuSans-Bold-65" transform="translate(1597.167969 0)"/>
    <use xlink:href="#DejaVuSans-Bold-65" transform="translate(1664.990234 0)"/>
    <use xlink:href="#DejaVuSans-Bold-6b" transform="translate(1732.8125 0)"/>
    <use xlink:href="#DejaVuSans-Bold-6c" transform="translate(1799.316406 0)"/>
    <use xlink:href="#DejaVuSans-Bold-79" transform="translate(1833.59375 0)"/>
    <use xlink:href="#DejaVuSans-Bold-20" transform="translate(1898.779297 0)"/>
    <use xlink:href="#DejaVuSans-Bold-6e" transform="translate(1933.59375 0)"/>
    <use xlink:href="#DejaVuSans-Bold-61" transform="translate(2004.785156 0)"/>
    <use xlink:href="#DejaVuSans-Bold-74" transform="translate(2072.265625 0)"/>
    <use xlink:href="#DejaVuSans-Bold-69" transform="translate(2120.068359 0)"/>
    <use xlink:href="#DejaVuSans-Bold-6f" transform="translate(2154.345703 0)"/>
    <use xlink:href="#DejaVuSans-Bold-6e" transform="translate(2223.046875 0)"/>
    <use xlink:href="#DejaVuSans-Bold-61" transform="translate(2294.238281 0)"/>
    <use xlink:href="#DejaVuSans-Bold-6c" transform="translate(2361.71875 0)"/>
    <use xlink:href="#DejaVuSans-Bold-20" transform="translate(2395.996094 0)"/>
    <use xlink:href="#DejaVuSans-Bold-64" transform="translate(2430.810547 0)"/>
    <use xlink:href="#DejaVuSans-Bold-79" transform="translate(2502.392578 0)"/>
    <use xlink:href="#DejaVuSans-Bold-6e" transform="translate(2567.578125 0)"/>
    <use xlink:href="#DejaVuSans-Bold-61" transform="translate(2638.769531 0)"/>
    <use xlink:href="#DejaVuSans-Bold-6d" transform="translate(2706.25 0)"/>
    <use xlink:href="#DejaVuSans-Bold-69" transform="translate(2810.449219 0)"/>
    <use xlink:href="#DejaVuSans-Bold-63" transform="translate(2844.726562 0)"/>
    <use xlink:href="#DejaVuSans-Bold-73" transform="translate(2904.003906 0)"/>
    <use xlink:href="#DejaVuSans-Bold-20" transform="translate(2963.525391 0)"/>
    <use xlink:href="#DejaVuSans-Bold-6f" transform="translate(2998.339844 0)"/>
    <use xlink:href="#DejaVuSans-Bold-6e" transform="translate(3067.041016 0)"/>
    <use xlink:href="#DejaVuSans-Bold-20" transform="translate(3138.232422 0)"/>
    <use xlink:href="#DejaVuSans-Bold-66" transform="translate(3173.046875 0)"/>
    <use xlink:href="#DejaVuSans-Bold-75" transform="translate(3216.552734 0)"/>
    <use xlink:href="#DejaVuSans-Bold-74" transform="translate(3287.744141 0)"/>
    <use xlink:href="#DejaVuSans-Bold-75" transform="translate(3335.546875 0)"/>
    <use xlink:href="#DejaVuSans-Bold-72" transform="translate(3406.738281 0)"/>
    <use xlink:href="#DejaVuSans-Bold-65" transform="translate(3456.054688 0)"/>
    <use xlink:href="#DejaVuSans-Bold-20" transform="translate(3523.876953 0)"/>
    <use xlink:href="#DejaVuSans-Bold-77" transform="translate(3558.691406 0)"/>
    <use xlink:href="#DejaVuSans-Bold-65" transform="translate(3651.074219 0)"/>
    <use xlink:href="#DejaVuSans-Bold-65" transform="translate(3718.896484 0)"/>
    <use xlink:href="#DejaVuSans-Bold-6b" transform="translate(3786.71875 0)"/>
    <use xlink:href="#DejaVuSans-Bold-73" transform="translate(3853.222656 0)"/>
   </g>
  </g>
 </g>
 <defs>
  <clipPath id="pd15d48e9c6">
   <rect x="55.605625" y="76.32" width="695.232" height="193.846154"/>
  </clipPath>
  <clipPath id="p16a509457c">
   <rect x="55.605625" y="336.073846" width="695.232" height="193.846154"/>
  </clipPath>
 </defs>
</svg>
