<?xml version="1.0" encoding="utf-8" standalone="no"?>
<!DOCTYPE svg PUBLIC "-//W3C//DTD SVG 1.1//EN"
  "http://www.w3.org/Graphics/SVG/1.1/DTD/svg11.dtd">
<svg xmlns:xlink="http://www.w3.org/1999/xlink" width="1023.647375pt" height="523.74216pt" viewBox="0 0 1023.647375 523.74216" xmlns="http://www.w3.org/2000/svg" version="1.1">
 <metadata>
  <rdf:RDF xmlns:dc="http://purl.org/dc/elements/1.1/" xmlns:cc="http://creativecommons.org/ns#" xmlns:rdf="http://www.w3.org/1999/02/22-rdf-syntax-ns#">
   <cc:Work>
    <dc:type rdf:resource="http://purl.org/dc/dcmitype/StillImage"/>
    <dc:date>2026-04-14T14:43:28.380413</dc:date>
    <dc:format>image/svg+xml</dc:format>
    <dc:creator>
     <cc:Agent>
      <dc:title>Matplotlib v3.10.8, https://matplotlib.org/</dc:title>
     </cc:Agent>
    </dc:creator>
   </cc:Work>
  </rdf:RDF>
 </metadata>
 <defs>
  <style type="text/css">*{stroke-linejoin: round; stroke-linecap: butt}</style>
 </defs>
 <g id="figure_1">
  <g id="patch_1">
   <path d="M 0 523.74216 
L 1023.647375 523.74216 
L 1023.647375 0 
L 0 0 
z
" style="fill: #f5faf6"/>
  </g>
  <g id="axes_1">
   <g id="patch_2">
    <path d="M 52.079375 484.250285 
L 1016.447375 484.250285 
L 1016.447375 26.042285 
L 52.079375 26.042285 
z
" style="fill: #fbfdfb"/>
   </g>
   <g id="patch_3">
    <path d="M 943.381053 484.250285 
L 1016.447375 484.250285 
L 1016.447375 26.042285 
L 943.381053 26.042285 
z
" clip-path="url(#pc7bc53d73e)" style="fill: #dff3e3; stroke: #dff3e3; stroke-linejoin: miter"/>
   </g>
   <g id="line2d_1">
    <path d="M 943.381053 484.250285 
L 943.381053 26.042285 
" clip-path="url(#pc7bc53d73e)" style="fill: none; stroke-dasharray: 6.66,2.88; stroke-dashoffset: 0; stroke: #a7d7af; stroke-width: 1.8"/>
   </g>
   <g id="matplotlib.axis_1">
    <g id="xtick_1">
     <g id="line2d_2">
      <defs>
       <path id="m30300fba4e" d="M 0 0 
L 0 3.5 
" style="stroke: #5c7a68; stroke-width: 0.8"/>
      </defs>
      <g>
       <use xlink:href="#m30300fba4e" x="52.079375" y="484.250285" style="fill: #5c7a68; stroke: #5c7a68; stroke-width: 0.8"/>
      </g>
     </g>
     <g id="text_1">
      <!-- 2017 -->
      <g style="fill: #5c7a68" transform="translate(39.354375 498.848722) scale(0.1 -0.1)">
       <defs>
        <path id="DejaVuSans-32" d="M 1228 531 
L 3431 531 
L 3431 0 
L 469 0 
L 469 531 
Q 828 903 1448 1529 
Q 2069 2156 2228 2338 
Q 2531 2678 2651 2914 
Q 2772 3150 2772 3378 
Q 2772 3750 2511 3984 
Q 2250 4219 1831 4219 
Q 1534 4219 1204 4116 
Q 875 4013 500 3803 
L 500 4441 
Q 881 4594 1212 4672 
Q 1544 4750 1819 4750 
Q 2544 4750 2975 4387 
Q 3406 4025 3406 3419 
Q 3406 3131 3298 2873 
Q 3191 2616 2906 2266 
Q 2828 2175 2409 1742 
Q 1991 1309 1228 531 
z
" transform="scale(0.015625)"/>
        <path id="DejaVuSans-30" d="M 2034 4250 
Q 1547 4250 1301 3770 
Q 1056 3291 1056 2328 
Q 1056 1369 1301 889 
Q 1547 409 2034 409 
Q 2525 409 2770 889 
Q 3016 1369 3016 2328 
Q 3016 3291 2770 3770 
Q 2525 4250 2034 4250 
z
M 2034 4750 
Q 2819 4750 3233 4129 
Q 3647 3509 3647 2328 
Q 3647 1150 3233 529 
Q 2819 -91 2034 -91 
Q 1250 -91 836 529 
Q 422 1150 422 2328 
Q 422 3509 836 4129 
Q 1250 4750 2034 4750 
z
" transform="scale(0.015625)"/>
        <path id="DejaVuSans-31" d="M 794 531 
L 1825 531 
L 1825 4091 
L 703 3866 
L 703 4441 
L 1819 4666 
L 2450 4666 
L 2450 531 
L 3481 531 
L 3481 0 
L 794 0 
L 794 531 
z
" transform="scale(0.015625)"/>
        <path id="DejaVuSans-37" d="M 525 4666 
L 3525 4666 
L 3525 4397 
L 1831 0 
L 1172 0 
L 2766 4134 
L 525 4134 
L 525 4666 
z
" transform="scale(0.015625)"/>
       </defs>
       <use xlink:href="#DejaVuSans-32"/>
       <use xlink:href="#DejaVuSans-30" transform="translate(63.623047 0)"/>
       <use xlink:href="#DejaVuSans-31" transform="translate(127.246094 0)"/>
       <use xlink:href="#DejaVuSans-37" transform="translate(190.869141 0)"/>
      </g>
     </g>
    </g>
    <g id="xtick_2">
     <g id="line2d_3">
      <g>
       <use xlink:href="#m30300fba4e" x="150.127932" y="484.250285" style="fill: #5c7a68; stroke: #5c7a68; stroke-width: 0.8"/>
      </g>
     </g>
     <g id="text_2">
      <!-- 2018 -->
      <g style="fill: #5c7a68" transform="translate(137.402932 498.848722) scale(0.1 -0.1)">
       <defs>
        <path id="DejaVuSans-38" d="M 2034 2216 
Q 1584 2216 1326 1975 
Q 1069 1734 1069 1313 
Q 1069 891 1326 650 
Q 1584 409 2034 409 
Q 2484 409 2743 651 
Q 3003 894 3003 1313 
Q 3003 1734 2745 1975 
Q 2488 2216 2034 2216 
z
M 1403 2484 
Q 997 2584 770 2862 
Q 544 3141 544 3541 
Q 544 4100 942 4425 
Q 1341 4750 2034 4750 
Q 2731 4750 3128 4425 
Q 3525 4100 3525 3541 
Q 3525 3141 3298 2862 
Q 3072 2584 2669 2484 
Q 3125 2378 3379 2068 
Q 3634 1759 3634 1313 
Q 3634 634 3220 271 
Q 2806 -91 2034 -91 
Q 1263 -91 848 271 
Q 434 634 434 1313 
Q 434 1759 690 2068 
Q 947 2378 1403 2484 
z
M 1172 3481 
Q 1172 3119 1398 2916 
Q 1625 2713 2034 2713 
Q 2441 2713 2670 2916 
Q 2900 3119 2900 3481 
Q 2900 3844 2670 4047 
Q 2441 4250 2034 4250 
Q 1625 4250 1398 4047 
Q 1172 3844 1172 3481 
z
" transform="scale(0.015625)"/>
       </defs>
       <use xlink:href="#DejaVuSans-32"/>
       <use xlink:href="#DejaVuSans-30" transform="translate(63.623047 0)"/>
       <use xlink:href="#DejaVuSans-31" transform="translate(127.246094 0)"/>
       <use xlink:href="#DejaVuSans-38" transform="translate(190.869141 0)"/>
      </g>
     </g>
    </g>
    <g id="xtick_3">
     <g id="line2d_4">
      <g>
       <use xlink:href="#m30300fba4e" x="248.176489" y="484.250285" style="fill: #5c7a68; stroke: #5c7a68; stroke-width: 0.8"/>
      </g>
     </g>
     <g id="text_3">
      <!-- 2019 -->
      <g style="fill: #5c7a68" transform="translate(235.451489 498.848722) scale(0.1 -0.1)">
       <defs>
        <path id="DejaVuSans-39" d="M 703 97 
L 703 672 
Q 941 559 1184 500 
Q 1428 441 1663 441 
Q 2288 441 2617 861 
Q 2947 1281 2994 2138 
Q 2813 1869 2534 1725 
Q 2256 1581 1919 1581 
Q 1219 1581 811 2004 
Q 403 2428 403 3163 
Q 403 3881 828 4315 
Q 1253 4750 1959 4750 
Q 2769 4750 3195 4129 
Q 3622 3509 3622 2328 
Q 3622 1225 3098 567 
Q 2575 -91 1691 -91 
Q 1453 -91 1209 -44 
Q 966 3 703 97 
z
M 1959 2075 
Q 2384 2075 2632 2365 
Q 2881 2656 2881 3163 
Q 2881 3666 2632 3958 
Q 2384 4250 1959 4250 
Q 1534 4250 1286 3958 
Q 1038 3666 1038 3163 
Q 1038 2656 1286 2365 
Q 1534 2075 1959 2075 
z
" transform="scale(0.015625)"/>
       </defs>
       <use xlink:href="#DejaVuSans-32"/>
       <use xlink:href="#DejaVuSans-30" transform="translate(63.623047 0)"/>
       <use xlink:href="#DejaVuSans-31" transform="translate(127.246094 0)"/>
       <use xlink:href="#DejaVuSans-39" transform="translate(190.869141 0)"/>
      </g>
     </g>
    </g>
    <g id="xtick_4">
     <g id="line2d_5">
      <g>
       <use xlink:href="#m30300fba4e" x="346.225046" y="484.250285" style="fill: #5c7a68; stroke: #5c7a68; stroke-width: 0.8"/>
      </g>
     </g>
     <g id="text_4">
      <!-- 2020 -->
      <g style="fill: #5c7a68" transform="translate(333.500046 498.848722) scale(0.1 -0.1)">
       <use xlink:href="#DejaVuSans-32"/>
       <use xlink:href="#DejaVuSans-30" transform="translate(63.623047 0)"/>
       <use xlink:href="#DejaVuSans-32" transform="translate(127.246094 0)"/>
       <use xlink:href="#DejaVuSans-30" transform="translate(190.869141 0)"/>
      </g>
     </g>
    </g>
    <g id="xtick_5">
     <g id="line2d_6">
      <g>
       <use xlink:href="#m30300fba4e" x="444.54223" y="484.250285" style="fill: #5c7a68; stroke: #5c7a68; stroke-width: 0.8"/>
      </g>
     </g>
     <g id="text_5">
      <!-- 2021 -->
      <g style="fill: #5c7a68" transform="translate(431.81723 498.848722) scale(0.1 -0.1)">
       <use xlink:href="#DejaVuSans-32"/>
       <use xlink:href="#DejaVuSans-30" transform="translate(63.623047 0)"/>
       <use xlink:href="#DejaVuSans-32" transform="translate(127.246094 0)"/>
       <use xlink:href="#DejaVuSans-31" transform="translate(190.869141 0)"/>
      </g>
     </g>
    </g>
    <g id="xtick_6">
     <g id="line2d_7">
      <g>
       <use xlink:href="#m30300fba4e" x="542.590787" y="484.250285" style="fill: #5c7a68; stroke: #5c7a68; stroke-width: 0.8"/>
      </g>
     </g>
     <g id="text_6">
      <!-- 2022 -->
      <g style="fill: #5c7a68" transform="translate(529.865787 498.848722) scale(0.1 -0.1)">
       <use xlink:href="#DejaVuSans-32"/>
       <use xlink:href="#DejaVuSans-30" transform="translate(63.623047 0)"/>
       <use xlink:href="#DejaVuSans-32" transform="translate(127.246094 0)"/>
       <use xlink:href="#DejaVuSans-32" transform="translate(190.869141 0)"/>
      </g>
     </g>
    </g>
    <g id="xtick_7">
     <g id="line2d_8">
      <g>
       <use xlink:href="#m30300fba4e" x="640.639344" y="484.250285" style="fill: #5c7a68; stroke: #5c7a68; stroke-width: 0.8"/>
      </g>
     </g>
     <g id="text_7">
      <!-- 2023 -->
      <g style="fill: #5c7a68" transform="translate(627.914344 498.848722) scale(0.1 -0.1)">
       <defs>
        <path id="DejaVuSans-33" d="M 2597 2516 
Q 3050 2419 3304 2112 
Q 3559 1806 3559 1356 
Q 3559 666 3084 287 
Q 2609 -91 1734 -91 
Q 1441 -91 1130 -33 
Q 819 25 488 141 
L 488 750 
Q 750 597 1062 519 
Q 1375 441 1716 441 
Q 2309 441 2620 675 
Q 2931 909 2931 1356 
Q 2931 1769 2642 2001 
Q 2353 2234 1838 2234 
L 1294 2234 
L 1294 2753 
L 1863 2753 
Q 2328 2753 2575 2939 
Q 2822 3125 2822 3475 
Q 2822 3834 2567 4026 
Q 2313 4219 1838 4219 
Q 1578 4219 1281 4162 
Q 984 4106 628 3988 
L 628 4550 
Q 988 4650 1302 4700 
Q 1616 4750 1894 4750 
Q 2613 4750 3031 4423 
Q 3450 4097 3450 3541 
Q 3450 3153 3228 2886 
Q 3006 2619 2597 2516 
z
" transform="scale(0.015625)"/>
       </defs>
       <use xlink:href="#DejaVuSans-32"/>
       <use xlink:href="#DejaVuSans-30" transform="translate(63.623047 0)"/>
       <use xlink:href="#DejaVuSans-32" transform="translate(127.246094 0)"/>
       <use xlink:href="#DejaVuSans-33" transform="translate(190.869141 0)"/>
      </g>
     </g>
    </g>
    <g id="xtick_8">
     <g id="line2d_9">
      <g>
       <use xlink:href="#m30300fba4e" x="738.687901" y="484.250285" style="fill: #5c7a68; stroke: #5c7a68; stroke-width: 0.8"/>
      </g>
     </g>
     <g id="text_8">
      <!-- 2024 -->
      <g style="fill: #5c7a68" transform="translate(725.962901 498.848722) scale(0.1 -0.1)">
       <defs>
        <path id="DejaVuSans-34" d="M 2419 4116 
L 825 1625 
L 2419 1625 
L 2419 4116 
z
M 2253 4666 
L 3047 4666 
L 3047 1625 
L 3713 1625 
L 3713 1100 
L 3047 1100 
L 3047 0 
L 2419 0 
L 2419 1100 
L 313 1100 
L 313 1709 
L 2253 4666 
z
" transform="scale(0.015625)"/>
       </defs>
       <use xlink:href="#DejaVuSans-32"/>
       <use xlink:href="#DejaVuSans-30" transform="translate(63.623047 0)"/>
       <use xlink:href="#DejaVuSans-32" transform="translate(127.246094 0)"/>
       <use xlink:href="#DejaVuSans-34" transform="translate(190.869141 0)"/>
      </g>
     </g>
    </g>
    <g id="xtick_9">
     <g id="line2d_10">
      <g>
       <use xlink:href="#m30300fba4e" x="837.005084" y="484.250285" style="fill: #5c7a68; stroke: #5c7a68; stroke-width: 0.8"/>
      </g>
     </g>
     <g id="text_9">
      <!-- 2025 -->
      <g style="fill: #5c7a68" transform="translate(824.280084 498.848722) scale(0.1 -0.1)">
       <defs>
        <path id="DejaVuSans-35" d="M 691 4666 
L 3169 4666 
L 3169 4134 
L 1269 4134 
L 1269 2991 
Q 1406 3038 1543 3061 
Q 1681 3084 1819 3084 
Q 2600 3084 3056 2656 
Q 3513 2228 3513 1497 
Q 3513 744 3044 326 
Q 2575 -91 1722 -91 
Q 1428 -91 1123 -41 
Q 819 9 494 109 
L 494 744 
Q 775 591 1075 516 
Q 1375 441 1709 441 
Q 2250 441 2565 725 
Q 2881 1009 2881 1497 
Q 2881 1984 2565 2268 
Q 2250 2553 1709 2553 
Q 1456 2553 1204 2497 
Q 953 2441 691 2322 
L 691 4666 
z
" transform="scale(0.015625)"/>
       </defs>
       <use xlink:href="#DejaVuSans-32"/>
       <use xlink:href="#DejaVuSans-30" transform="translate(63.623047 0)"/>
       <use xlink:href="#DejaVuSans-32" transform="translate(127.246094 0)"/>
       <use xlink:href="#DejaVuSans-35" transform="translate(190.869141 0)"/>
      </g>
     </g>
    </g>
    <g id="xtick_10">
     <g id="line2d_11">
      <g>
       <use xlink:href="#m30300fba4e" x="935.053641" y="484.250285" style="fill: #5c7a68; stroke: #5c7a68; stroke-width: 0.8"/>
      </g>
     </g>
     <g id="text_10">
      <!-- 2026 -->
      <g style="fill: #5c7a68" transform="translate(922.328641 498.848722) scale(0.1 -0.1)">
       <defs>
        <path id="DejaVuSans-36" d="M 2113 2584 
Q 1688 2584 1439 2293 
Q 1191 2003 1191 1497 
Q 1191 994 1439 701 
Q 1688 409 2113 409 
Q 2538 409 2786 701 
Q 3034 994 3034 1497 
Q 3034 2003 2786 2293 
Q 2538 2584 2113 2584 
z
M 3366 4563 
L 3366 3988 
Q 3128 4100 2886 4159 
Q 2644 4219 2406 4219 
Q 1781 4219 1451 3797 
Q 1122 3375 1075 2522 
Q 1259 2794 1537 2939 
Q 1816 3084 2150 3084 
Q 2853 3084 3261 2657 
Q 3669 2231 3669 1497 
Q 3669 778 3244 343 
Q 2819 -91 2113 -91 
Q 1303 -91 875 529 
Q 447 1150 447 2328 
Q 447 3434 972 4092 
Q 1497 4750 2381 4750 
Q 2619 4750 2861 4703 
Q 3103 4656 3366 4563 
z
" transform="scale(0.015625)"/>
       </defs>
       <use xlink:href="#DejaVuSans-32"/>
       <use xlink:href="#DejaVuSans-30" transform="translate(63.623047 0)"/>
       <use xlink:href="#DejaVuSans-32" transform="translate(127.246094 0)"/>
       <use xlink:href="#DejaVuSans-36" transform="translate(190.869141 0)"/>
      </g>
     </g>
    </g>
    <g id="text_11">
     <!-- Year -->
     <g style="fill: #173024" transform="translate(521.558375 514.046535) scale(0.12 -0.12)">
      <defs>
       <path id="DejaVuSans-59" d="M -13 4666 
L 666 4666 
L 1959 2747 
L 3244 4666 
L 3922 4666 
L 2272 2222 
L 2272 0 
L 1638 0 
L 1638 2222 
L -13 4666 
z
" transform="scale(0.015625)"/>
       <path id="DejaVuSans-65" d="M 3597 1894 
L 3597 1613 
L 953 1613 
Q 991 1019 1311 708 
Q 1631 397 2203 397 
Q 2534 397 2845 478 
Q 3156 559 3463 722 
L 3463 178 
Q 3153 47 2828 -22 
Q 2503 -91 2169 -91 
Q 1331 -91 842 396 
Q 353 884 353 1716 
Q 353 2575 817 3079 
Q 1281 3584 2069 3584 
Q 2775 3584 3186 3129 
Q 3597 2675 3597 1894 
z
M 3022 2063 
Q 3016 2534 2758 2815 
Q 2500 3097 2075 3097 
Q 1594 3097 1305 2825 
Q 1016 2553 972 2059 
L 3022 2063 
z
" transform="scale(0.015625)"/>
       <path id="DejaVuSans-61" d="M 2194 1759 
Q 1497 1759 1228 1600 
Q 959 1441 959 1056 
Q 959 750 1161 570 
Q 1363 391 1709 391 
Q 2188 391 2477 730 
Q 2766 1069 2766 1631 
L 2766 1759 
L 2194 1759 
z
M 3341 1997 
L 3341 0 
L 2766 0 
L 2766 531 
Q 2569 213 2275 61 
Q 1981 -91 1556 -91 
Q 1019 -91 701 211 
Q 384 513 384 1019 
Q 384 1609 779 1909 
Q 1175 2209 1959 2209 
L 2766 2209 
L 2766 2266 
Q 2766 2663 2505 2880 
Q 2244 3097 1772 3097 
Q 1472 3097 1187 3025 
Q 903 2953 641 2809 
L 641 3341 
Q 956 3463 1253 3523 
Q 1550 3584 1831 3584 
Q 2591 3584 2966 3190 
Q 3341 2797 3341 1997 
z
" transform="scale(0.015625)"/>
       <path id="DejaVuSans-72" d="M 2631 2963 
Q 2534 3019 2420 3045 
Q 2306 3072 2169 3072 
Q 1681 3072 1420 2755 
Q 1159 2438 1159 1844 
L 1159 0 
L 581 0 
L 581 3500 
L 1159 3500 
L 1159 2956 
Q 1341 3275 1631 3429 
Q 1922 3584 2338 3584 
Q 2397 3584 2469 3576 
Q 2541 3569 2628 3553 
L 2631 2963 
z
" transform="scale(0.015625)"/>
      </defs>
      <use xlink:href="#DejaVuSans-59"/>
      <use xlink:href="#DejaVuSans-65" transform="translate(47.833984 0)"/>
      <use xlink:href="#DejaVuSans-61" transform="translate(109.357422 0)"/>
      <use xlink:href="#DejaVuSans-72" transform="translate(170.636719 0)"/>
     </g>
    </g>
   </g>
   <g id="matplotlib.axis_2">
    <g id="ytick_1">
     <g id="line2d_12">
      <path d="M 52.079375 484.250285 
L 1016.447375 484.250285 
" clip-path="url(#pc7bc53d73e)" style="fill: none; stroke: #d7e8db; stroke-width: 0.8; stroke-linecap: square"/>
     </g>
     <g id="line2d_13">
      <defs>
       <path id="m1748897b11" d="M 0 0 
L -3.5 0 
" style="stroke: #5c7a68; stroke-width: 0.8"/>
      </defs>
      <g>
       <use xlink:href="#m1748897b11" x="52.079375" y="484.250285" style="fill: #5c7a68; stroke: #5c7a68; stroke-width: 0.8"/>
      </g>
     </g>
     <g id="text_12">
      <!-- 0.0 -->
      <g style="fill: #5c7a68" transform="translate(29.17625 488.049504) scale(0.1 -0.1)">
       <defs>
        <path id="DejaVuSans-2e" d="M 684 794 
L 1344 794 
L 1344 0 
L 684 0 
L 684 794 
z
" transform="scale(0.015625)"/>
       </defs>
       <use xlink:href="#DejaVuSans-30"/>
       <use xlink:href="#DejaVuSans-2e" transform="translate(63.623047 0)"/>
       <use xlink:href="#DejaVuSans-30" transform="translate(95.410156 0)"/>
      </g>
     </g>
    </g>
    <g id="ytick_2">
     <g id="line2d_14">
      <path d="M 52.079375 412.314694 
L 1016.447375 412.314694 
" clip-path="url(#pc7bc53d73e)" style="fill: none; stroke: #d7e8db; stroke-width: 0.8; stroke-linecap: square"/>
     </g>
     <g id="line2d_15">
      <g>
       <use xlink:href="#m1748897b11" x="52.079375" y="412.314694" style="fill: #5c7a68; stroke: #5c7a68; stroke-width: 0.8"/>
      </g>
     </g>
     <g id="text_13">
      <!-- 20.0 -->
      <g style="fill: #5c7a68" transform="translate(22.81375 416.113912) scale(0.1 -0.1)">
       <use xlink:href="#DejaVuSans-32"/>
       <use xlink:href="#DejaVuSans-30" transform="translate(63.623047 0)"/>
       <use xlink:href="#DejaVuSans-2e" transform="translate(127.246094 0)"/>
       <use xlink:href="#DejaVuSans-30" transform="translate(159.033203 0)"/>
      </g>
     </g>
    </g>
    <g id="ytick_3">
     <g id="line2d_16">
      <path d="M 52.079375 340.379102 
L 1016.447375 340.379102 
" clip-path="url(#pc7bc53d73e)" style="fill: none; stroke: #d7e8db; stroke-width: 0.8; stroke-linecap: square"/>
     </g>
     <g id="line2d_17">
      <g>
       <use xlink:href="#m1748897b11" x="52.079375" y="340.379102" style="fill: #5c7a68; stroke: #5c7a68; stroke-width: 0.8"/>
      </g>
     </g>
     <g id="text_14">
      <!-- 40.0 -->
      <g style="fill: #5c7a68" transform="translate(22.81375 344.178321) scale(0.1 -0.1)">
       <use xlink:href="#DejaVuSans-34"/>
       <use xlink:href="#DejaVuSans-30" transform="translate(63.623047 0)"/>
       <use xlink:href="#DejaVuSans-2e" transform="translate(127.246094 0)"/>
       <use xlink:href="#DejaVuSans-30" transform="translate(159.033203 0)"/>
      </g>
     </g>
    </g>
    <g id="ytick_4">
     <g id="line2d_18">
      <path d="M 52.079375 268.443511 
L 1016.447375 268.443511 
" clip-path="url(#pc7bc53d73e)" style="fill: none; stroke: #d7e8db; stroke-width: 0.8; stroke-linecap: square"/>
     </g>
     <g id="line2d_19">
      <g>
       <use xlink:href="#m1748897b11" x="52.079375" y="268.443511" style="fill: #5c7a68; stroke: #5c7a68; stroke-width: 0.8"/>
      </g>
     </g>
     <g id="text_15">
      <!-- 60.0 -->
      <g style="fill: #5c7a68" transform="translate(22.81375 272.24273) scale(0.1 -0.1)">
       <use xlink:href="#DejaVuSans-36"/>
       <use xlink:href="#DejaVuSans-30" transform="translate(63.623047 0)"/>
       <use xlink:href="#DejaVuSans-2e" transform="translate(127.246094 0)"/>
       <use xlink:href="#DejaVuSans-30" transform="translate(159.033203 0)"/>
      </g>
     </g>
    </g>
    <g id="ytick_5">
     <g id="line2d_20">
      <path d="M 52.079375 196.507919 
L 1016.447375 196.507919 
" clip-path="url(#pc7bc53d73e)" style="fill: none; stroke: #d7e8db; stroke-width: 0.8; stroke-linecap: square"/>
     </g>
     <g id="line2d_21">
      <g>
       <use xlink:href="#m1748897b11" x="52.079375" y="196.507919" style="fill: #5c7a68; stroke: #5c7a68; stroke-width: 0.8"/>
      </g>
     </g>
     <g id="text_16">
      <!-- 80.0 -->
      <g style="fill: #5c7a68" transform="translate(22.81375 200.307138) scale(0.1 -0.1)">
       <use xlink:href="#DejaVuSans-38"/>
       <use xlink:href="#DejaVuSans-30" transform="translate(63.623047 0)"/>
       <use xlink:href="#DejaVuSans-2e" transform="translate(127.246094 0)"/>
       <use xlink:href="#DejaVuSans-30" transform="translate(159.033203 0)"/>
      </g>
     </g>
    </g>
    <g id="ytick_6">
     <g id="line2d_22">
      <path d="M 52.079375 124.572328 
L 1016.447375 124.572328 
" clip-path="url(#pc7bc53d73e)" style="fill: none; stroke: #d7e8db; stroke-width: 0.8; stroke-linecap: square"/>
     </g>
     <g id="line2d_23">
      <g>
       <use xlink:href="#m1748897b11" x="52.079375" y="124.572328" style="fill: #5c7a68; stroke: #5c7a68; stroke-width: 0.8"/>
      </g>
     </g>
     <g id="text_17">
      <!-- 100 -->
      <g style="fill: #5c7a68" transform="translate(25.991875 128.371547) scale(0.1 -0.1)">
       <use xlink:href="#DejaVuSans-31"/>
       <use xlink:href="#DejaVuSans-30" transform="translate(63.623047 0)"/>
       <use xlink:href="#DejaVuSans-30" transform="translate(127.246094 0)"/>
      </g>
     </g>
    </g>
    <g id="ytick_7">
     <g id="line2d_24">
      <path d="M 52.079375 52.636737 
L 1016.447375 52.636737 
" clip-path="url(#pc7bc53d73e)" style="fill: none; stroke: #d7e8db; stroke-width: 0.8; stroke-linecap: square"/>
     </g>
     <g id="line2d_25">
      <g>
       <use xlink:href="#m1748897b11" x="52.079375" y="52.636737" style="fill: #5c7a68; stroke: #5c7a68; stroke-width: 0.8"/>
      </g>
     </g>
     <g id="text_18">
      <!-- 120 -->
      <g style="fill: #5c7a68" transform="translate(25.991875 56.435955) scale(0.1 -0.1)">
       <use xlink:href="#DejaVuSans-31"/>
       <use xlink:href="#DejaVuSans-32" transform="translate(63.623047 0)"/>
       <use xlink:href="#DejaVuSans-30" transform="translate(127.246094 0)"/>
      </g>
     </g>
    </g>
    <g id="text_19">
     <!-- Prevalence per 100k -->
     <g style="fill: #173024" transform="translate(16.318125 316.770972) rotate(-90) scale(0.12 -0.12)">
      <defs>
       <path id="DejaVuSans-50" d="M 1259 4147 
L 1259 2394 
L 2053 2394 
Q 2494 2394 2734 2622 
Q 2975 2850 2975 3272 
Q 2975 3691 2734 3919 
Q 2494 4147 2053 4147 
L 1259 4147 
z
M 628 4666 
L 2053 4666 
Q 2838 4666 3239 4311 
Q 3641 3956 3641 3272 
Q 3641 2581 3239 2228 
Q 2838 1875 2053 1875 
L 1259 1875 
L 1259 0 
L 628 0 
L 628 4666 
z
" transform="scale(0.015625)"/>
       <path id="DejaVuSans-76" d="M 191 3500 
L 800 3500 
L 1894 563 
L 2988 3500 
L 3597 3500 
L 2284 0 
L 1503 0 
L 191 3500 
z
" transform="scale(0.015625)"/>
       <path id="DejaVuSans-6c" d="M 603 4863 
L 1178 4863 
L 1178 0 
L 603 0 
L 603 4863 
z
" transform="scale(0.015625)"/>
       <path id="DejaVuSans-6e" d="M 3513 2113 
L 3513 0 
L 2938 0 
L 2938 2094 
Q 2938 2591 2744 2837 
Q 2550 3084 2163 3084 
Q 1697 3084 1428 2787 
Q 1159 2491 1159 1978 
L 1159 0 
L 581 0 
L 581 3500 
L 1159 3500 
L 1159 2956 
Q 1366 3272 1645 3428 
Q 1925 3584 2291 3584 
Q 2894 3584 3203 3211 
Q 3513 2838 3513 2113 
z
" transform="scale(0.015625)"/>
       <path id="DejaVuSans-63" d="M 3122 3366 
L 3122 2828 
Q 2878 2963 2633 3030 
Q 2388 3097 2138 3097 
Q 1578 3097 1268 2742 
Q 959 2388 959 1747 
Q 959 1106 1268 751 
Q 1578 397 2138 397 
Q 2388 397 2633 464 
Q 2878 531 3122 666 
L 3122 134 
Q 2881 22 2623 -34 
Q 2366 -91 2075 -91 
Q 1284 -91 818 406 
Q 353 903 353 1747 
Q 353 2603 823 3093 
Q 1294 3584 2113 3584 
Q 2378 3584 2631 3529 
Q 2884 3475 3122 3366 
z
" transform="scale(0.015625)"/>
       <path id="DejaVuSans-20" transform="scale(0.015625)"/>
       <path id="DejaVuSans-70" d="M 1159 525 
L 1159 -1331 
L 581 -1331 
L 581 3500 
L 1159 3500 
L 1159 2969 
Q 1341 3281 1617 3432 
Q 1894 3584 2278 3584 
Q 2916 3584 3314 3078 
Q 3713 2572 3713 1747 
Q 3713 922 3314 415 
Q 2916 -91 2278 -91 
Q 1894 -91 1617 61 
Q 1341 213 1159 525 
z
M 3116 1747 
Q 3116 2381 2855 2742 
Q 2594 3103 2138 3103 
Q 1681 3103 1420 2742 
Q 1159 2381 1159 1747 
Q 1159 1113 1420 752 
Q 1681 391 2138 391 
Q 2594 391 2855 752 
Q 3116 1113 3116 1747 
z
" transform="scale(0.015625)"/>
       <path id="DejaVuSans-6b" d="M 581 4863 
L 1159 4863 
L 1159 1991 
L 2875 3500 
L 3609 3500 
L 1753 1863 
L 3688 0 
L 2938 0 
L 1159 1709 
L 1159 0 
L 581 0 
L 581 4863 
z
" transform="scale(0.015625)"/>
      </defs>
      <use xlink:href="#DejaVuSans-50"/>
      <use xlink:href="#DejaVuSans-72" transform="translate(58.552734 0)"/>
      <use xlink:href="#DejaVuSans-65" transform="translate(97.416016 0)"/>
      <use xlink:href="#DejaVuSans-76" transform="translate(158.939453 0)"/>
      <use xlink:href="#DejaVuSans-61" transform="translate(218.119141 0)"/>
      <use xlink:href="#DejaVuSans-6c" transform="translate(279.398438 0)"/>
      <use xlink:href="#DejaVuSans-65" transform="translate(307.181641 0)"/>
      <use xlink:href="#DejaVuSans-6e" transform="translate(368.705078 0)"/>
      <use xlink:href="#DejaVuSans-63" transform="translate(432.083984 0)"/>
      <use xlink:href="#DejaVuSans-65" transform="translate(487.064453 0)"/>
      <use xlink:href="#DejaVuSans-20" transform="translate(548.587891 0)"/>
      <use xlink:href="#DejaVuSans-70" transform="translate(580.375 0)"/>
      <use xlink:href="#DejaVuSans-65" transform="translate(643.851562 0)"/>
      <use xlink:href="#DejaVuSans-72" transform="translate(705.375 0)"/>
      <use xlink:href="#DejaVuSans-20" transform="translate(746.488281 0)"/>
      <use xlink:href="#DejaVuSans-31" transform="translate(778.275391 0)"/>
      <use xlink:href="#DejaVuSans-30" transform="translate(841.898438 0)"/>
      <use xlink:href="#DejaVuSans-30" transform="translate(905.521484 0)"/>
      <use xlink:href="#DejaVuSans-6b" transform="translate(969.144531 0)"/>
     </g>
    </g>
   </g>
   <g id="patch_4">
    <path d="M 52.079375 484.250285 
L 52.079375 26.042285 
" style="fill: none; stroke: #d7e8db; stroke-width: 0.8; stroke-linejoin: miter; stroke-linecap: square"/>
   </g>
   <g id="patch_5">
    <path d="M 52.079375 484.250285 
L 1016.447375 484.250285 
" style="fill: none; stroke: #d7e8db; stroke-width: 0.8; stroke-linejoin: miter; stroke-linecap: square"/>
   </g>
   <g id="line2d_26">
    <path d="M 52.079375 484.250285 
L 60.406787 484.250285 
L 67.92832 478.302303 
L 76.255732 442.614409 
L 84.314517 395.030551 
L 92.641929 400.978533 
L 100.700714 341.49871 
L 109.028126 377.186604 
L 117.355538 448.562391 
L 125.414323 442.614409 
L 133.741735 436.666427 
L 141.80052 472.35432 
L 150.127932 484.250285 
L 158.455344 484.250285 
L 165.976877 484.250285 
L 174.304289 472.382845 
L 182.363074 371.509609 
L 190.690486 240.967774 
L 198.749271 223.166615 
L 207.076683 365.575889 
L 215.404095 460.515406 
L 223.46288 413.045648 
L 231.790292 436.780527 
L 239.849078 466.449126 
L 248.176489 484.250285 
L 256.503901 478.401415 
L 264.025434 478.401415 
L 272.352846 455.005934 
L 280.411631 431.610454 
L 288.739043 355.575142 
L 296.797828 297.08644 
L 305.12524 425.761584 
L 313.452652 449.157064 
L 321.511437 384.819493 
L 329.838849 443.308194 
L 337.897635 478.401415 
L 346.225046 478.401415 
L 354.552458 484.250285 
L 362.342617 478.454586 
L 370.670029 466.863187 
L 378.728815 385.723394 
L 387.056226 206.05671 
L 395.115012 95.938421 
L 403.442423 316.175 
L 411.769835 397.314793 
L 419.828621 449.476088 
L 428.156032 484.250285 
L 436.214818 484.250285 
L 444.54223 484.250285 
L 452.869641 472.578284 
L 460.391174 466.742284 
L 468.718586 455.070283 
L 476.777372 455.070283 
L 485.104783 437.562282 
L 493.163569 396.71028 
L 501.490981 455.070283 
L 509.818392 472.578284 
L 517.877178 425.890281 
L 526.204589 449.234283 
L 534.263375 478.414285 
L 542.590787 484.250285 
L 550.918198 484.250285 
L 558.439732 478.375718 
L 566.767143 472.501151 
L 574.825929 431.379181 
L 583.15334 308.013271 
L 591.212126 261.016734 
L 599.539538 349.135241 
L 607.866949 425.504614 
L 615.925735 466.626584 
L 624.253147 443.128315 
L 632.311932 466.626584 
L 640.639344 478.444345 
L 648.966756 484.250285 
L 656.488289 478.444345 
L 664.8157 484.250285 
L 672.874486 472.638405 
L 681.201898 414.579002 
L 689.260683 356.5196 
L 697.588095 414.579002 
L 705.915506 455.220584 
L 713.974292 472.638405 
L 722.301704 466.832464 
L 730.360489 466.832464 
L 738.687901 478.479374 
L 747.015313 478.479374 
L 754.805472 449.62482 
L 763.132884 443.85391 
L 771.191669 380.373891 
L 779.519081 397.686624 
L 787.577866 368.83207 
L 795.905278 443.85391 
L 804.23269 461.166642 
L 812.291475 438.082999 
L 820.618887 461.166642 
L 828.677672 484.250285 
L 837.005084 484.250285 
L 845.332496 484.250285 
L 852.854029 478.545242 
L 861.181441 461.430113 
L 869.240226 392.969598 
L 877.567638 375.854469 
L 885.626423 370.149426 
L 893.953835 444.314984 
L 902.281247 461.430113 
L 910.340032 444.314984 
L 918.667444 472.840199 
L 926.72623 484.250285 
" clip-path="url(#pc7bc53d73e)" style="fill: none; stroke: #1f2933; stroke-width: 2.4; stroke-linecap: square"/>
   </g>
   <g id="text_20">
    <!-- Observed monthly history transitions into the V2 latest-issue residual forecast -->
    <g style="fill: #5c7a68" transform="translate(52.079375 14.798437) scale(0.1 -0.1)">
     <defs>
      <path id="DejaVuSans-4f" d="M 2522 4238 
Q 1834 4238 1429 3725 
Q 1025 3213 1025 2328 
Q 1025 1447 1429 934 
Q 1834 422 2522 422 
Q 3209 422 3611 934 
Q 4013 1447 4013 2328 
Q 4013 3213 3611 3725 
Q 3209 4238 2522 4238 
z
M 2522 4750 
Q 3503 4750 4090 4092 
Q 4678 3434 4678 2328 
Q 4678 1225 4090 567 
Q 3503 -91 2522 -91 
Q 1538 -91 948 565 
Q 359 1222 359 2328 
Q 359 3434 948 4092 
Q 1538 4750 2522 4750 
z
" transform="scale(0.015625)"/>
      <path id="DejaVuSans-62" d="M 3116 1747 
Q 3116 2381 2855 2742 
Q 2594 3103 2138 3103 
Q 1681 3103 1420 2742 
Q 1159 2381 1159 1747 
Q 1159 1113 1420 752 
Q 1681 391 2138 391 
Q 2594 391 2855 752 
Q 3116 1113 3116 1747 
z
M 1159 2969 
Q 1341 3281 1617 3432 
Q 1894 3584 2278 3584 
Q 2916 3584 3314 3078 
Q 3713 2572 3713 1747 
Q 3713 922 3314 415 
Q 2916 -91 2278 -91 
Q 1894 -91 1617 61 
Q 1341 213 1159 525 
L 1159 0 
L 581 0 
L 581 4863 
L 1159 4863 
L 1159 2969 
z
" transform="scale(0.015625)"/>
      <path id="DejaVuSans-73" d="M 2834 3397 
L 2834 2853 
Q 2591 2978 2328 3040 
Q 2066 3103 1784 3103 
Q 1356 3103 1142 2972 
Q 928 2841 928 2578 
Q 928 2378 1081 2264 
Q 1234 2150 1697 2047 
L 1894 2003 
Q 2506 1872 2764 1633 
Q 3022 1394 3022 966 
Q 3022 478 2636 193 
Q 2250 -91 1575 -91 
Q 1294 -91 989 -36 
Q 684 19 347 128 
L 347 722 
Q 666 556 975 473 
Q 1284 391 1588 391 
Q 1994 391 2212 530 
Q 2431 669 2431 922 
Q 2431 1156 2273 1281 
Q 2116 1406 1581 1522 
L 1381 1569 
Q 847 1681 609 1914 
Q 372 2147 372 2553 
Q 372 3047 722 3315 
Q 1072 3584 1716 3584 
Q 2034 3584 2315 3537 
Q 2597 3491 2834 3397 
z
" transform="scale(0.015625)"/>
      <path id="DejaVuSans-64" d="M 2906 2969 
L 2906 4863 
L 3481 4863 
L 3481 0 
L 2906 0 
L 2906 525 
Q 2725 213 2448 61 
Q 2172 -91 1784 -91 
Q 1150 -91 751 415 
Q 353 922 353 1747 
Q 353 2572 751 3078 
Q 1150 3584 1784 3584 
Q 2172 3584 2448 3432 
Q 2725 3281 2906 2969 
z
M 947 1747 
Q 947 1113 1208 752 
Q 1469 391 1925 391 
Q 2381 391 2643 752 
Q 2906 1113 2906 1747 
Q 2906 2381 2643 2742 
Q 2381 3103 1925 3103 
Q 1469 3103 1208 2742 
Q 947 2381 947 1747 
z
" transform="scale(0.015625)"/>
      <path id="DejaVuSans-6d" d="M 3328 2828 
Q 3544 3216 3844 3400 
Q 4144 3584 4550 3584 
Q 5097 3584 5394 3201 
Q 5691 2819 5691 2113 
L 5691 0 
L 5113 0 
L 5113 2094 
Q 5113 2597 4934 2840 
Q 4756 3084 4391 3084 
Q 3944 3084 3684 2787 
Q 3425 2491 3425 1978 
L 3425 0 
L 2847 0 
L 2847 2094 
Q 2847 2600 2669 2842 
Q 2491 3084 2119 3084 
Q 1678 3084 1418 2786 
Q 1159 2488 1159 1978 
L 1159 0 
L 581 0 
L 581 3500 
L 1159 3500 
L 1159 2956 
Q 1356 3278 1631 3431 
Q 1906 3584 2284 3584 
Q 2666 3584 2933 3390 
Q 3200 3197 3328 2828 
z
" transform="scale(0.015625)"/>
      <path id="DejaVuSans-6f" d="M 1959 3097 
Q 1497 3097 1228 2736 
Q 959 2375 959 1747 
Q 959 1119 1226 758 
Q 1494 397 1959 397 
Q 2419 397 2687 759 
Q 2956 1122 2956 1747 
Q 2956 2369 2687 2733 
Q 2419 3097 1959 3097 
z
M 1959 3584 
Q 2709 3584 3137 3096 
Q 3566 2609 3566 1747 
Q 3566 888 3137 398 
Q 2709 -91 1959 -91 
Q 1206 -91 779 398 
Q 353 888 353 1747 
Q 353 2609 779 3096 
Q 1206 3584 1959 3584 
z
" transform="scale(0.015625)"/>
      <path id="DejaVuSans-74" d="M 1172 4494 
L 1172 3500 
L 2356 3500 
L 2356 3053 
L 1172 3053 
L 1172 1153 
Q 1172 725 1289 603 
Q 1406 481 1766 481 
L 2356 481 
L 2356 0 
L 1766 0 
Q 1100 0 847 248 
Q 594 497 594 1153 
L 594 3053 
L 172 3053 
L 172 3500 
L 594 3500 
L 594 4494 
L 1172 4494 
z
" transform="scale(0.015625)"/>
      <path id="DejaVuSans-68" d="M 3513 2113 
L 3513 0 
L 2938 0 
L 2938 2094 
Q 2938 2591 2744 2837 
Q 2550 3084 2163 3084 
Q 1697 3084 1428 2787 
Q 1159 2491 1159 1978 
L 1159 0 
L 581 0 
L 581 4863 
L 1159 4863 
L 1159 2956 
Q 1366 3272 1645 3428 
Q 1925 3584 2291 3584 
Q 2894 3584 3203 3211 
Q 3513 2838 3513 2113 
z
" transform="scale(0.015625)"/>
      <path id="DejaVuSans-79" d="M 2059 -325 
Q 1816 -950 1584 -1140 
Q 1353 -1331 966 -1331 
L 506 -1331 
L 506 -850 
L 844 -850 
Q 1081 -850 1212 -737 
Q 1344 -625 1503 -206 
L 1606 56 
L 191 3500 
L 800 3500 
L 1894 763 
L 2988 3500 
L 3597 3500 
L 2059 -325 
z
" transform="scale(0.015625)"/>
      <path id="DejaVuSans-69" d="M 603 3500 
L 1178 3500 
L 1178 0 
L 603 0 
L 603 3500 
z
M 603 4863 
L 1178 4863 
L 1178 4134 
L 603 4134 
L 603 4863 
z
" transform="scale(0.015625)"/>
      <path id="DejaVuSans-56" d="M 1831 0 
L 50 4666 
L 709 4666 
L 2188 738 
L 3669 4666 
L 4325 4666 
L 2547 0 
L 1831 0 
z
" transform="scale(0.015625)"/>
      <path id="DejaVuSans-2d" d="M 313 2009 
L 1997 2009 
L 1997 1497 
L 313 1497 
L 313 2009 
z
" transform="scale(0.015625)"/>
      <path id="DejaVuSans-75" d="M 544 1381 
L 544 3500 
L 1119 3500 
L 1119 1403 
Q 1119 906 1312 657 
Q 1506 409 1894 409 
Q 2359 409 2629 706 
Q 2900 1003 2900 1516 
L 2900 3500 
L 3475 3500 
L 3475 0 
L 2900 0 
L 2900 538 
Q 2691 219 2414 64 
Q 2138 -91 1772 -91 
Q 1169 -91 856 284 
Q 544 659 544 1381 
z
M 1991 3584 
L 1991 3584 
z
" transform="scale(0.015625)"/>
      <path id="DejaVuSans-66" d="M 2375 4863 
L 2375 4384 
L 1825 4384 
Q 1516 4384 1395 4259 
Q 1275 4134 1275 3809 
L 1275 3500 
L 2222 3500 
L 2222 3053 
L 1275 3053 
L 1275 0 
L 697 0 
L 697 3053 
L 147 3053 
L 147 3500 
L 697 3500 
L 697 3744 
Q 697 4328 969 4595 
Q 1241 4863 1831 4863 
L 2375 4863 
z
" transform="scale(0.015625)"/>
     </defs>
     <use xlink:href="#DejaVuSans-4f"/>
     <use xlink:href="#DejaVuSans-62" transform="translate(78.710938 0)"/>
     <use xlink:href="#DejaVuSans-73" transform="translate(142.1875 0)"/>
     <use xlink:href="#DejaVuSans-65" transform="translate(194.287109 0)"/>
     <use xlink:href="#DejaVuSans-72" transform="translate(255.810547 0)"/>
     <use xlink:href="#DejaVuSans-76" transform="translate(296.923828 0)"/>
     <use xlink:href="#DejaVuSans-65" transform="translate(356.103516 0)"/>
     <use xlink:href="#DejaVuSans-64" transform="translate(417.626953 0)"/>
     <use xlink:href="#DejaVuSans-20" transform="translate(481.103516 0)"/>
     <use xlink:href="#DejaVuSans-6d" transform="translate(512.890625 0)"/>
     <use xlink:href="#DejaVuSans-6f" transform="translate(610.302734 0)"/>
     <use xlink:href="#DejaVuSans-6e" transform="translate(671.484375 0)"/>
     <use xlink:href="#DejaVuSans-74" transform="translate(734.863281 0)"/>
     <use xlink:href="#DejaVuSans-68" transform="translate(774.072266 0)"/>
     <use xlink:href="#DejaVuSans-6c" transform="translate(837.451172 0)"/>
     <use xlink:href="#DejaVuSans-79" transform="translate(865.234375 0)"/>
     <use xlink:href="#DejaVuSans-20" transform="translate(924.414062 0)"/>
     <use xlink:href="#DejaVuSans-68" transform="translate(956.201172 0)"/>
     <use xlink:href="#DejaVuSans-69" transform="translate(1019.580078 0)"/>
     <use xlink:href="#DejaVuSans-73" transform="translate(1047.363281 0)"/>
     <use xlink:href="#DejaVuSans-74" transform="translate(1099.462891 0)"/>
     <use xlink:href="#DejaVuSans-6f" transform="translate(1138.671875 0)"/>
     <use xlink:href="#DejaVuSans-72" transform="translate(1199.853516 0)"/>
     <use xlink:href="#DejaVuSans-79" transform="translate(1240.966797 0)"/>
     <use xlink:href="#DejaVuSans-20" transform="translate(1300.146484 0)"/>
     <use xlink:href="#DejaVuSans-74" transform="translate(1331.933594 0)"/>
     <use xlink:href="#DejaVuSans-72" transform="translate(1371.142578 0)"/>
     <use xlink:href="#DejaVuSans-61" transform="translate(1412.255859 0)"/>
     <use xlink:href="#DejaVuSans-6e" transform="translate(1473.535156 0)"/>
     <use xlink:href="#DejaVuSans-73" transform="translate(1536.914062 0)"/>
     <use xlink:href="#DejaVuSans-69" transform="translate(1589.013672 0)"/>
     <use xlink:href="#DejaVuSans-74" transform="translate(1616.796875 0)"/>
     <use xlink:href="#DejaVuSans-69" transform="translate(1656.005859 0)"/>
     <use xlink:href="#DejaVuSans-6f" transform="translate(1683.789062 0)"/>
     <use xlink:href="#DejaVuSans-6e" transform="translate(1744.970703 0)"/>
     <use xlink:href="#DejaVuSans-73" transform="translate(1808.349609 0)"/>
     <use xlink:href="#DejaVuSans-20" transform="translate(1860.449219 0)"/>
     <use xlink:href="#DejaVuSans-69" transform="translate(1892.236328 0)"/>
     <use xlink:href="#DejaVuSans-6e" transform="translate(1920.019531 0)"/>
     <use xlink:href="#DejaVuSans-74" transform="translate(1983.398438 0)"/>
     <use xlink:href="#DejaVuSans-6f" transform="translate(2022.607422 0)"/>
     <use xlink:href="#DejaVuSans-20" transform="translate(2083.789062 0)"/>
     <use xlink:href="#DejaVuSans-74" transform="translate(2115.576172 0)"/>
     <use xlink:href="#DejaVuSans-68" transform="translate(2154.785156 0)"/>
     <use xlink:href="#DejaVuSans-65" transform="translate(2218.164062 0)"/>
     <use xlink:href="#DejaVuSans-20" transform="translate(2279.6875 0)"/>
     <use xlink:href="#DejaVuSans-56" transform="translate(2311.474609 0)"/>
     <use xlink:href="#DejaVuSans-32" transform="translate(2379.882812 0)"/>
     <use xlink:href="#DejaVuSans-20" transform="translate(2443.505859 0)"/>
     <use xlink:href="#DejaVuSans-6c" transform="translate(2475.292969 0)"/>
     <use xlink:href="#DejaVuSans-61" transform="translate(2503.076172 0)"/>
     <use xlink:href="#DejaVuSans-74" transform="translate(2564.355469 0)"/>
     <use xlink:href="#DejaVuSans-65" transform="translate(2603.564453 0)"/>
     <use xlink:href="#DejaVuSans-73" transform="translate(2665.087891 0)"/>
     <use xlink:href="#DejaVuSans-74" transform="translate(2717.1875 0)"/>
     <use xlink:href="#DejaVuSans-2d" transform="translate(2756.396484 0)"/>
     <use xlink:href="#DejaVuSans-69" transform="translate(2792.480469 0)"/>
     <use xlink:href="#DejaVuSans-73" transform="translate(2820.263672 0)"/>
     <use xlink:href="#DejaVuSans-73" transform="translate(2872.363281 0)"/>
     <use xlink:href="#DejaVuSans-75" transform="translate(2924.462891 0)"/>
     <use xlink:href="#DejaVuSans-65" transform="translate(2987.841797 0)"/>
     <use xlink:href="#DejaVuSans-20" transform="translate(3049.365234 0)"/>
     <use xlink:href="#DejaVuSans-72" transform="translate(3081.152344 0)"/>
     <use xlink:href="#DejaVuSans-65" transform="translate(3120.015625 0)"/>
     <use xlink:href="#DejaVuSans-73" transform="translate(3181.539062 0)"/>
     <use xlink:href="#DejaVuSans-69" transform="translate(3233.638672 0)"/>
     <use xlink:href="#DejaVuSans-64" transform="translate(3261.421875 0)"/>
     <use xlink:href="#DejaVuSans-75" transform="translate(3324.898438 0)"/>
     <use xlink:href="#DejaVuSans-61" transform="translate(3388.277344 0)"/>
     <use xlink:href="#DejaVuSans-6c" transform="translate(3449.556641 0)"/>
     <use xlink:href="#DejaVuSans-20" transform="translate(3477.339844 0)"/>
     <use xlink:href="#DejaVuSans-66" transform="translate(3509.126953 0)"/>
     <use xlink:href="#DejaVuSans-6f" transform="translate(3544.332031 0)"/>
     <use xlink:href="#DejaVuSans-72" transform="translate(3605.513672 0)"/>
     <use xlink:href="#DejaVuSans-65" transform="translate(3644.376953 0)"/>
     <use xlink:href="#DejaVuSans-63" transform="translate(3705.900391 0)"/>
     <use xlink:href="#DejaVuSans-61" transform="translate(3760.880859 0)"/>
     <use xlink:href="#DejaVuSans-73" transform="translate(3822.160156 0)"/>
     <use xlink:href="#DejaVuSans-74" transform="translate(3874.259766 0)"/>
    </g>
   </g>
   <g id="text_21">
    <!-- Forecast window -->
    <g style="fill: #0b6e4f" transform="translate(804.286415 56.551122) scale(0.1 -0.1)">
     <defs>
      <path id="DejaVuSans-Bold-46" d="M 588 4666 
L 3834 4666 
L 3834 3756 
L 1791 3756 
L 1791 2888 
L 3713 2888 
L 3713 1978 
L 1791 1978 
L 1791 0 
L 588 0 
L 588 4666 
z
" transform="scale(0.015625)"/>
      <path id="DejaVuSans-Bold-6f" d="M 2203 2784 
Q 1831 2784 1636 2517 
Q 1441 2250 1441 1747 
Q 1441 1244 1636 976 
Q 1831 709 2203 709 
Q 2569 709 2762 976 
Q 2956 1244 2956 1747 
Q 2956 2250 2762 2517 
Q 2569 2784 2203 2784 
z
M 2203 3584 
Q 3106 3584 3614 3096 
Q 4122 2609 4122 1747 
Q 4122 884 3614 396 
Q 3106 -91 2203 -91 
Q 1297 -91 786 396 
Q 275 884 275 1747 
Q 275 2609 786 3096 
Q 1297 3584 2203 3584 
z
" transform="scale(0.015625)"/>
      <path id="DejaVuSans-Bold-72" d="M 3138 2547 
Q 2991 2616 2845 2648 
Q 2700 2681 2553 2681 
Q 2122 2681 1889 2404 
Q 1656 2128 1656 1613 
L 1656 0 
L 538 0 
L 538 3500 
L 1656 3500 
L 1656 2925 
Q 1872 3269 2151 3426 
Q 2431 3584 2822 3584 
Q 2878 3584 2943 3579 
Q 3009 3575 3134 3559 
L 3138 2547 
z
" transform="scale(0.015625)"/>
      <path id="DejaVuSans-Bold-65" d="M 4031 1759 
L 4031 1441 
L 1416 1441 
Q 1456 1047 1700 850 
Q 1944 653 2381 653 
Q 2734 653 3104 758 
Q 3475 863 3866 1075 
L 3866 213 
Q 3469 63 3072 -14 
Q 2675 -91 2278 -91 
Q 1328 -91 801 392 
Q 275 875 275 1747 
Q 275 2603 792 3093 
Q 1309 3584 2216 3584 
Q 3041 3584 3536 3087 
Q 4031 2591 4031 1759 
z
M 2881 2131 
Q 2881 2450 2695 2645 
Q 2509 2841 2209 2841 
Q 1884 2841 1681 2658 
Q 1478 2475 1428 2131 
L 2881 2131 
z
" transform="scale(0.015625)"/>
      <path id="DejaVuSans-Bold-63" d="M 3366 3391 
L 3366 2478 
Q 3138 2634 2908 2709 
Q 2678 2784 2431 2784 
Q 1963 2784 1702 2511 
Q 1441 2238 1441 1747 
Q 1441 1256 1702 982 
Q 1963 709 2431 709 
Q 2694 709 2930 787 
Q 3166 866 3366 1019 
L 3366 103 
Q 3103 6 2833 -42 
Q 2563 -91 2291 -91 
Q 1344 -91 809 395 
Q 275 881 275 1747 
Q 275 2613 809 3098 
Q 1344 3584 2291 3584 
Q 2566 3584 2833 3536 
Q 3100 3488 3366 3391 
z
" transform="scale(0.015625)"/>
      <path id="DejaVuSans-Bold-61" d="M 2106 1575 
Q 1756 1575 1579 1456 
Q 1403 1338 1403 1106 
Q 1403 894 1545 773 
Q 1688 653 1941 653 
Q 2256 653 2472 879 
Q 2688 1106 2688 1447 
L 2688 1575 
L 2106 1575 
z
M 3816 1997 
L 3816 0 
L 2688 0 
L 2688 519 
Q 2463 200 2181 54 
Q 1900 -91 1497 -91 
Q 953 -91 614 226 
Q 275 544 275 1050 
Q 275 1666 698 1953 
Q 1122 2241 2028 2241 
L 2688 2241 
L 2688 2328 
Q 2688 2594 2478 2717 
Q 2269 2841 1825 2841 
Q 1466 2841 1156 2769 
Q 847 2697 581 2553 
L 581 3406 
Q 941 3494 1303 3539 
Q 1666 3584 2028 3584 
Q 2975 3584 3395 3211 
Q 3816 2838 3816 1997 
z
" transform="scale(0.015625)"/>
      <path id="DejaVuSans-Bold-73" d="M 3272 3391 
L 3272 2541 
Q 2913 2691 2578 2766 
Q 2244 2841 1947 2841 
Q 1628 2841 1473 2761 
Q 1319 2681 1319 2516 
Q 1319 2381 1436 2309 
Q 1553 2238 1856 2203 
L 2053 2175 
Q 2913 2066 3209 1816 
Q 3506 1566 3506 1031 
Q 3506 472 3093 190 
Q 2681 -91 1863 -91 
Q 1516 -91 1145 -36 
Q 775 19 384 128 
L 384 978 
Q 719 816 1070 734 
Q 1422 653 1784 653 
Q 2113 653 2278 743 
Q 2444 834 2444 1013 
Q 2444 1163 2330 1236 
Q 2216 1309 1875 1350 
L 1678 1375 
Q 931 1469 631 1722 
Q 331 1975 331 2491 
Q 331 3047 712 3315 
Q 1094 3584 1881 3584 
Q 2191 3584 2531 3537 
Q 2872 3491 3272 3391 
z
" transform="scale(0.015625)"/>
      <path id="DejaVuSans-Bold-74" d="M 1759 4494 
L 1759 3500 
L 2913 3500 
L 2913 2700 
L 1759 2700 
L 1759 1216 
Q 1759 972 1856 886 
Q 1953 800 2241 800 
L 2816 800 
L 2816 0 
L 1856 0 
Q 1194 0 917 276 
Q 641 553 641 1216 
L 641 2700 
L 84 2700 
L 84 3500 
L 641 3500 
L 641 4494 
L 1759 4494 
z
" transform="scale(0.015625)"/>
      <path id="DejaVuSans-Bold-20" transform="scale(0.015625)"/>
      <path id="DejaVuSans-Bold-77" d="M 225 3500 
L 1313 3500 
L 1900 1088 
L 2491 3500 
L 3425 3500 
L 4013 1113 
L 4603 3500 
L 5691 3500 
L 4769 0 
L 3547 0 
L 2956 2406 
L 2369 0 
L 1147 0 
L 225 3500 
z
" transform="scale(0.015625)"/>
      <path id="DejaVuSans-Bold-69" d="M 538 3500 
L 1656 3500 
L 1656 0 
L 538 0 
L 538 3500 
z
M 538 4863 
L 1656 4863 
L 1656 3950 
L 538 3950 
L 538 4863 
z
" transform="scale(0.015625)"/>
      <path id="DejaVuSans-Bold-6e" d="M 4056 2131 
L 4056 0 
L 2931 0 
L 2931 347 
L 2931 1631 
Q 2931 2084 2911 2256 
Q 2891 2428 2841 2509 
Q 2775 2619 2662 2680 
Q 2550 2741 2406 2741 
Q 2056 2741 1856 2470 
Q 1656 2200 1656 1722 
L 1656 0 
L 538 0 
L 538 3500 
L 1656 3500 
L 1656 2988 
Q 1909 3294 2193 3439 
Q 2478 3584 2822 3584 
Q 3428 3584 3742 3212 
Q 4056 2841 4056 2131 
z
" transform="scale(0.015625)"/>
      <path id="DejaVuSans-Bold-64" d="M 2919 2988 
L 2919 4863 
L 4044 4863 
L 4044 0 
L 2919 0 
L 2919 506 
Q 2688 197 2409 53 
Q 2131 -91 1766 -91 
Q 1119 -91 703 423 
Q 288 938 288 1747 
Q 288 2556 703 3070 
Q 1119 3584 1766 3584 
Q 2128 3584 2408 3439 
Q 2688 3294 2919 2988 
z
M 2181 722 
Q 2541 722 2730 984 
Q 2919 1247 2919 1747 
Q 2919 2247 2730 2509 
Q 2541 2772 2181 2772 
Q 1825 2772 1636 2509 
Q 1447 2247 1447 1747 
Q 1447 1247 1636 984 
Q 1825 722 2181 722 
z
" transform="scale(0.015625)"/>
     </defs>
     <use xlink:href="#DejaVuSans-Bold-46"/>
     <use xlink:href="#DejaVuSans-Bold-6f" transform="translate(64.310547 0)"/>
     <use xlink:href="#DejaVuSans-Bold-72" transform="translate(133.011719 0)"/>
     <use xlink:href="#DejaVuSans-Bold-65" transform="translate(182.328125 0)"/>
     <use xlink:href="#DejaVuSans-Bold-63" transform="translate(250.150391 0)"/>
     <use xlink:href="#DejaVuSans-Bold-61" transform="translate(309.427734 0)"/>
     <use xlink:href="#DejaVuSans-Bold-73" transform="translate(376.908203 0)"/>
     <use xlink:href="#DejaVuSans-Bold-74" transform="translate(436.429688 0)"/>
     <use xlink:href="#DejaVuSans-Bold-20" transform="translate(484.232422 0)"/>
     <use xlink:href="#DejaVuSans-Bold-77" transform="translate(519.046875 0)"/>
     <use xlink:href="#DejaVuSans-Bold-69" transform="translate(611.429688 0)"/>
     <use xlink:href="#DejaVuSans-Bold-6e" transform="translate(645.707031 0)"/>
     <use xlink:href="#DejaVuSans-Bold-64" transform="translate(716.898438 0)"/>
     <use xlink:href="#DejaVuSans-Bold-6f" transform="translate(788.480469 0)"/>
     <use xlink:href="#DejaVuSans-Bold-77" transform="translate(857.181641 0)"/>
    </g>
   </g>
   <g id="text_22">
    <g id="patch_6">
     <path d="M 863.949511 93.659238 
L 1001.981855 93.659238 
Q 1006.445855 93.659238 1006.445855 89.195238 
L 1006.445855 48.952685 
Q 1006.445855 44.488685 1001.981855 44.488685 
L 863.949511 44.488685 
Q 859.485511 44.488685 859.485511 48.952685 
L 859.485511 89.195238 
Q 859.485511 93.659238 863.949511 93.659238 
z
" style="fill: #ffffff; stroke: #cc7a5b; stroke-width: 1.2; stroke-linejoin: miter"/>
    </g>
    <!-- Holdout RMSE: 5.0 -->
    <g style="fill: #173024" transform="translate(915.478777 56.019232) scale(0.093 -0.093)">
     <defs>
      <path id="DejaVuSans-48" d="M 628 4666 
L 1259 4666 
L 1259 2753 
L 3553 2753 
L 3553 4666 
L 4184 4666 
L 4184 0 
L 3553 0 
L 3553 2222 
L 1259 2222 
L 1259 0 
L 628 0 
L 628 4666 
z
" transform="scale(0.015625)"/>
      <path id="DejaVuSans-52" d="M 2841 2188 
Q 3044 2119 3236 1894 
Q 3428 1669 3622 1275 
L 4263 0 
L 3584 0 
L 2988 1197 
Q 2756 1666 2539 1819 
Q 2322 1972 1947 1972 
L 1259 1972 
L 1259 0 
L 628 0 
L 628 4666 
L 2053 4666 
Q 2853 4666 3247 4331 
Q 3641 3997 3641 3322 
Q 3641 2881 3436 2590 
Q 3231 2300 2841 2188 
z
M 1259 4147 
L 1259 2491 
L 2053 2491 
Q 2509 2491 2742 2702 
Q 2975 2913 2975 3322 
Q 2975 3731 2742 3939 
Q 2509 4147 2053 4147 
L 1259 4147 
z
" transform="scale(0.015625)"/>
      <path id="DejaVuSans-4d" d="M 628 4666 
L 1569 4666 
L 2759 1491 
L 3956 4666 
L 4897 4666 
L 4897 0 
L 4281 0 
L 4281 4097 
L 3078 897 
L 2444 897 
L 1241 4097 
L 1241 0 
L 628 0 
L 628 4666 
z
" transform="scale(0.015625)"/>
      <path id="DejaVuSans-53" d="M 3425 4513 
L 3425 3897 
Q 3066 4069 2747 4153 
Q 2428 4238 2131 4238 
Q 1616 4238 1336 4038 
Q 1056 3838 1056 3469 
Q 1056 3159 1242 3001 
Q 1428 2844 1947 2747 
L 2328 2669 
Q 3034 2534 3370 2195 
Q 3706 1856 3706 1288 
Q 3706 609 3251 259 
Q 2797 -91 1919 -91 
Q 1588 -91 1214 -16 
Q 841 59 441 206 
L 441 856 
Q 825 641 1194 531 
Q 1563 422 1919 422 
Q 2459 422 2753 634 
Q 3047 847 3047 1241 
Q 3047 1584 2836 1778 
Q 2625 1972 2144 2069 
L 1759 2144 
Q 1053 2284 737 2584 
Q 422 2884 422 3419 
Q 422 4038 858 4394 
Q 1294 4750 2059 4750 
Q 2388 4750 2728 4690 
Q 3069 4631 3425 4513 
z
" transform="scale(0.015625)"/>
      <path id="DejaVuSans-45" d="M 628 4666 
L 3578 4666 
L 3578 4134 
L 1259 4134 
L 1259 2753 
L 3481 2753 
L 3481 2222 
L 1259 2222 
L 1259 531 
L 3634 531 
L 3634 0 
L 628 0 
L 628 4666 
z
" transform="scale(0.015625)"/>
      <path id="DejaVuSans-3a" d="M 750 794 
L 1409 794 
L 1409 0 
L 750 0 
L 750 794 
z
M 750 3309 
L 1409 3309 
L 1409 2516 
L 750 2516 
L 750 3309 
z
" transform="scale(0.015625)"/>
     </defs>
     <use xlink:href="#DejaVuSans-48"/>
     <use xlink:href="#DejaVuSans-6f" transform="translate(75.195312 0)"/>
     <use xlink:href="#DejaVuSans-6c" transform="translate(136.376953 0)"/>
     <use xlink:href="#DejaVuSans-64" transform="translate(164.160156 0)"/>
     <use xlink:href="#DejaVuSans-6f" transform="translate(227.636719 0)"/>
     <use xlink:href="#DejaVuSans-75" transform="translate(288.818359 0)"/>
     <use xlink:href="#DejaVuSans-74" transform="translate(352.197266 0)"/>
     <use xlink:href="#DejaVuSans-20" transform="translate(391.40625 0)"/>
     <use xlink:href="#DejaVuSans-52" transform="translate(423.193359 0)"/>
     <use xlink:href="#DejaVuSans-4d" transform="translate(492.675781 0)"/>
     <use xlink:href="#DejaVuSans-53" transform="translate(578.955078 0)"/>
     <use xlink:href="#DejaVuSans-45" transform="translate(642.431641 0)"/>
     <use xlink:href="#DejaVuSans-3a" transform="translate(705.615234 0)"/>
     <use xlink:href="#DejaVuSans-20" transform="translate(739.306641 0)"/>
     <use xlink:href="#DejaVuSans-35" transform="translate(771.09375 0)"/>
     <use xlink:href="#DejaVuSans-2e" transform="translate(834.716797 0)"/>
     <use xlink:href="#DejaVuSans-30" transform="translate(866.503906 0)"/>
    </g>
    <!-- Baseline RMSE: 4.0 -->
    <g style="fill: #173024" transform="translate(912.450464 66.433197) scale(0.093 -0.093)">
     <defs>
      <path id="DejaVuSans-42" d="M 1259 2228 
L 1259 519 
L 2272 519 
Q 2781 519 3026 730 
Q 3272 941 3272 1375 
Q 3272 1813 3026 2020 
Q 2781 2228 2272 2228 
L 1259 2228 
z
M 1259 4147 
L 1259 2741 
L 2194 2741 
Q 2656 2741 2882 2914 
Q 3109 3088 3109 3444 
Q 3109 3797 2882 3972 
Q 2656 4147 2194 4147 
L 1259 4147 
z
M 628 4666 
L 2241 4666 
Q 2963 4666 3353 4366 
Q 3744 4066 3744 3513 
Q 3744 3084 3544 2831 
Q 3344 2578 2956 2516 
Q 3422 2416 3680 2098 
Q 3938 1781 3938 1306 
Q 3938 681 3513 340 
Q 3088 0 2303 0 
L 628 0 
L 628 4666 
z
" transform="scale(0.015625)"/>
     </defs>
     <use xlink:href="#DejaVuSans-42"/>
     <use xlink:href="#DejaVuSans-61" transform="translate(68.603516 0)"/>
     <use xlink:href="#DejaVuSans-73" transform="translate(129.882812 0)"/>
     <use xlink:href="#DejaVuSans-65" transform="translate(181.982422 0)"/>
     <use xlink:href="#DejaVuSans-6c" transform="translate(243.505859 0)"/>
     <use xlink:href="#DejaVuSans-69" transform="translate(271.289062 0)"/>
     <use xlink:href="#DejaVuSans-6e" transform="translate(299.072266 0)"/>
     <use xlink:href="#DejaVuSans-65" transform="translate(362.451172 0)"/>
     <use xlink:href="#DejaVuSans-20" transform="translate(423.974609 0)"/>
     <use xlink:href="#DejaVuSans-52" transform="translate(455.761719 0)"/>
     <use xlink:href="#DejaVuSans-4d" transform="translate(525.244141 0)"/>
     <use xlink:href="#DejaVuSans-53" transform="translate(611.523438 0)"/>
     <use xlink:href="#DejaVuSans-45" transform="translate(675 0)"/>
     <use xlink:href="#DejaVuSans-3a" transform="translate(738.183594 0)"/>
     <use xlink:href="#DejaVuSans-20" transform="translate(771.875 0)"/>
     <use xlink:href="#DejaVuSans-34" transform="translate(803.662109 0)"/>
     <use xlink:href="#DejaVuSans-2e" transform="translate(867.285156 0)"/>
     <use xlink:href="#DejaVuSans-30" transform="translate(899.072266 0)"/>
    </g>
    <!-- RMSE loss vs baseline: 26.5% -->
    <g style="fill: #173024" transform="translate(863.949511 76.847163) scale(0.093 -0.093)">
     <defs>
      <path id="DejaVuSans-25" d="M 4653 2053 
Q 4381 2053 4226 1822 
Q 4072 1591 4072 1178 
Q 4072 772 4226 539 
Q 4381 306 4653 306 
Q 4919 306 5073 539 
Q 5228 772 5228 1178 
Q 5228 1588 5073 1820 
Q 4919 2053 4653 2053 
z
M 4653 2450 
Q 5147 2450 5437 2106 
Q 5728 1763 5728 1178 
Q 5728 594 5436 251 
Q 5144 -91 4653 -91 
Q 4153 -91 3862 251 
Q 3572 594 3572 1178 
Q 3572 1766 3864 2108 
Q 4156 2450 4653 2450 
z
M 1428 4353 
Q 1159 4353 1004 4120 
Q 850 3888 850 3481 
Q 850 3069 1003 2837 
Q 1156 2606 1428 2606 
Q 1700 2606 1854 2837 
Q 2009 3069 2009 3481 
Q 2009 3884 1853 4118 
Q 1697 4353 1428 4353 
z
M 4250 4750 
L 4750 4750 
L 1831 -91 
L 1331 -91 
L 4250 4750 
z
M 1428 4750 
Q 1922 4750 2215 4408 
Q 2509 4066 2509 3481 
Q 2509 2891 2217 2550 
Q 1925 2209 1428 2209 
Q 931 2209 642 2551 
Q 353 2894 353 3481 
Q 353 4063 643 4406 
Q 934 4750 1428 4750 
z
" transform="scale(0.015625)"/>
     </defs>
     <use xlink:href="#DejaVuSans-52"/>
     <use xlink:href="#DejaVuSans-4d" transform="translate(69.482422 0)"/>
     <use xlink:href="#DejaVuSans-53" transform="translate(155.761719 0)"/>
     <use xlink:href="#DejaVuSans-45" transform="translate(219.238281 0)"/>
     <use xlink:href="#DejaVuSans-20" transform="translate(282.421875 0)"/>
     <use xlink:href="#DejaVuSans-6c" transform="translate(314.208984 0)"/>
     <use xlink:href="#DejaVuSans-6f" transform="translate(341.992188 0)"/>
     <use xlink:href="#DejaVuSans-73" transform="translate(403.173828 0)"/>
     <use xlink:href="#DejaVuSans-73" transform="translate(455.273438 0)"/>
     <use xlink:href="#DejaVuSans-20" transform="translate(507.373047 0)"/>
     <use xlink:href="#DejaVuSans-76" transform="translate(539.160156 0)"/>
     <use xlink:href="#DejaVuSans-73" transform="translate(598.339844 0)"/>
     <use xlink:href="#DejaVuSans-20" transform="translate(650.439453 0)"/>
     <use xlink:href="#DejaVuSans-62" transform="translate(682.226562 0)"/>
     <use xlink:href="#DejaVuSans-61" transform="translate(745.703125 0)"/>
     <use xlink:href="#DejaVuSans-73" transform="translate(806.982422 0)"/>
     <use xlink:href="#DejaVuSans-65" transform="translate(859.082031 0)"/>
     <use xlink:href="#DejaVuSans-6c" transform="translate(920.605469 0)"/>
     <use xlink:href="#DejaVuSans-69" transform="translate(948.388672 0)"/>
     <use xlink:href="#DejaVuSans-6e" transform="translate(976.171875 0)"/>
     <use xlink:href="#DejaVuSans-65" transform="translate(1039.550781 0)"/>
     <use xlink:href="#DejaVuSans-3a" transform="translate(1101.074219 0)"/>
     <use xlink:href="#DejaVuSans-20" transform="translate(1134.765625 0)"/>
     <use xlink:href="#DejaVuSans-32" transform="translate(1166.552734 0)"/>
     <use xlink:href="#DejaVuSans-36" transform="translate(1230.175781 0)"/>
     <use xlink:href="#DejaVuSans-2e" transform="translate(1293.798828 0)"/>
     <use xlink:href="#DejaVuSans-35" transform="translate(1325.585938 0)"/>
     <use xlink:href="#DejaVuSans-25" transform="translate(1389.208984 0)"/>
    </g>
    <!-- Holdout MAPE: 101.3% -->
    <g style="fill: #173024" transform="translate(895.204777 87.261129) scale(0.093 -0.093)">
     <defs>
      <path id="DejaVuSans-41" d="M 2188 4044 
L 1331 1722 
L 3047 1722 
L 2188 4044 
z
M 1831 4666 
L 2547 4666 
L 4325 0 
L 3669 0 
L 3244 1197 
L 1141 1197 
L 716 0 
L 50 0 
L 1831 4666 
z
" transform="scale(0.015625)"/>
     </defs>
     <use xlink:href="#DejaVuSans-48"/>
     <use xlink:href="#DejaVuSans-6f" transform="translate(75.195312 0)"/>
     <use xlink:href="#DejaVuSans-6c" transform="translate(136.376953 0)"/>
     <use xlink:href="#DejaVuSans-64" transform="translate(164.160156 0)"/>
     <use xlink:href="#DejaVuSans-6f" transform="translate(227.636719 0)"/>
     <use xlink:href="#DejaVuSans-75" transform="translate(288.818359 0)"/>
     <use xlink:href="#DejaVuSans-74" transform="translate(352.197266 0)"/>
     <use xlink:href="#DejaVuSans-20" transform="translate(391.40625 0)"/>
     <use xlink:href="#DejaVuSans-4d" transform="translate(423.193359 0)"/>
     <use xlink:href="#DejaVuSans-41" transform="translate(509.472656 0)"/>
     <use xlink:href="#DejaVuSans-50" transform="translate(577.880859 0)"/>
     <use xlink:href="#DejaVuSans-45" transform="translate(638.183594 0)"/>
     <use xlink:href="#DejaVuSans-3a" transform="translate(701.367188 0)"/>
     <use xlink:href="#DejaVuSans-20" transform="translate(735.058594 0)"/>
     <use xlink:href="#DejaVuSans-31" transform="translate(766.845703 0)"/>
     <use xlink:href="#DejaVuSans-30" transform="translate(830.46875 0)"/>
     <use xlink:href="#DejaVuSans-31" transform="translate(894.091797 0)"/>
     <use xlink:href="#DejaVuSans-2e" transform="translate(957.714844 0)"/>
     <use xlink:href="#DejaVuSans-33" transform="translate(989.501953 0)"/>
     <use xlink:href="#DejaVuSans-25" transform="translate(1053.125 0)"/>
    </g>
   </g>
   <g id="text_23">
    <!-- KME Prevalence Outlook -->
    <g style="fill: #173024" transform="translate(52.079375 20.042285) scale(0.16 -0.16)">
     <defs>
      <path id="DejaVuSans-Bold-4b" d="M 588 4666 
L 1791 4666 
L 1791 2963 
L 3525 4666 
L 4922 4666 
L 2675 2456 
L 5153 0 
L 3647 0 
L 1791 1838 
L 1791 0 
L 588 0 
L 588 4666 
z
" transform="scale(0.015625)"/>
      <path id="DejaVuSans-Bold-4d" d="M 588 4666 
L 2119 4666 
L 3181 2169 
L 4250 4666 
L 5778 4666 
L 5778 0 
L 4641 0 
L 4641 3413 
L 3566 897 
L 2803 897 
L 1728 3413 
L 1728 0 
L 588 0 
L 588 4666 
z
" transform="scale(0.015625)"/>
      <path id="DejaVuSans-Bold-45" d="M 588 4666 
L 3834 4666 
L 3834 3756 
L 1791 3756 
L 1791 2888 
L 3713 2888 
L 3713 1978 
L 1791 1978 
L 1791 909 
L 3903 909 
L 3903 0 
L 588 0 
L 588 4666 
z
" transform="scale(0.015625)"/>
      <path id="DejaVuSans-Bold-50" d="M 588 4666 
L 2584 4666 
Q 3475 4666 3951 4270 
Q 4428 3875 4428 3144 
Q 4428 2409 3951 2014 
Q 3475 1619 2584 1619 
L 1791 1619 
L 1791 0 
L 588 0 
L 588 4666 
z
M 1791 3794 
L 1791 2491 
L 2456 2491 
Q 2806 2491 2997 2661 
Q 3188 2831 3188 3144 
Q 3188 3456 2997 3625 
Q 2806 3794 2456 3794 
L 1791 3794 
z
" transform="scale(0.015625)"/>
      <path id="DejaVuSans-Bold-76" d="M 97 3500 
L 1216 3500 
L 2088 1081 
L 2956 3500 
L 4078 3500 
L 2700 0 
L 1472 0 
L 97 3500 
z
" transform="scale(0.015625)"/>
      <path id="DejaVuSans-Bold-6c" d="M 538 4863 
L 1656 4863 
L 1656 0 
L 538 0 
L 538 4863 
z
" transform="scale(0.015625)"/>
      <path id="DejaVuSans-Bold-4f" d="M 2719 3878 
Q 2169 3878 1866 3472 
Q 1563 3066 1563 2328 
Q 1563 1594 1866 1187 
Q 2169 781 2719 781 
Q 3272 781 3575 1187 
Q 3878 1594 3878 2328 
Q 3878 3066 3575 3472 
Q 3272 3878 2719 3878 
z
M 2719 4750 
Q 3844 4750 4481 4106 
Q 5119 3463 5119 2328 
Q 5119 1197 4481 553 
Q 3844 -91 2719 -91 
Q 1597 -91 958 553 
Q 319 1197 319 2328 
Q 319 3463 958 4106 
Q 1597 4750 2719 4750 
z
" transform="scale(0.015625)"/>
      <path id="DejaVuSans-Bold-75" d="M 500 1363 
L 500 3500 
L 1625 3500 
L 1625 3150 
Q 1625 2866 1622 2436 
Q 1619 2006 1619 1863 
Q 1619 1441 1641 1255 
Q 1663 1069 1716 984 
Q 1784 875 1895 815 
Q 2006 756 2150 756 
Q 2500 756 2700 1025 
Q 2900 1294 2900 1772 
L 2900 3500 
L 4019 3500 
L 4019 0 
L 2900 0 
L 2900 506 
Q 2647 200 2364 54 
Q 2081 -91 1741 -91 
Q 1134 -91 817 281 
Q 500 653 500 1363 
z
" transform="scale(0.015625)"/>
      <path id="DejaVuSans-Bold-6b" d="M 538 4863 
L 1656 4863 
L 1656 2216 
L 2944 3500 
L 4244 3500 
L 2534 1894 
L 4378 0 
L 3022 0 
L 1656 1459 
L 1656 0 
L 538 0 
L 538 4863 
z
" transform="scale(0.015625)"/>
     </defs>
     <use xlink:href="#DejaVuSans-Bold-4b"/>
     <use xlink:href="#DejaVuSans-Bold-4d" transform="translate(77.490234 0)"/>
     <use xlink:href="#DejaVuSans-Bold-45" transform="translate(177.001953 0)"/>
     <use xlink:href="#DejaVuSans-Bold-20" transform="translate(245.3125 0)"/>
     <use xlink:href="#DejaVuSans-Bold-50" transform="translate(280.126953 0)"/>
     <use xlink:href="#DejaVuSans-Bold-72" transform="translate(353.417969 0)"/>
     <use xlink:href="#DejaVuSans-Bold-65" transform="translate(402.734375 0)"/>
     <use xlink:href="#DejaVuSans-Bold-76" transform="translate(470.556641 0)"/>
     <use xlink:href="#DejaVuSans-Bold-61" transform="translate(535.742188 0)"/>
     <use xlink:href="#DejaVuSans-Bold-6c" transform="translate(603.222656 0)"/>
     <use xlink:href="#DejaVuSans-Bold-65" transform="translate(637.5 0)"/>
     <use xlink:href="#DejaVuSans-Bold-6e" transform="translate(705.322266 0)"/>
     <use xlink:href="#DejaVuSans-Bold-63" transform="translate(776.513672 0)"/>
     <use xlink:href="#DejaVuSans-Bold-65" transform="translate(835.791016 0)"/>
     <use xlink:href="#DejaVuSans-Bold-20" transform="translate(903.613281 0)"/>
     <use xlink:href="#DejaVuSans-Bold-4f" transform="translate(938.427734 0)"/>
     <use xlink:href="#DejaVuSans-Bold-75" transform="translate(1023.4375 0)"/>
     <use xlink:href="#DejaVuSans-Bold-74" transform="translate(1094.628906 0)"/>
     <use xlink:href="#DejaVuSans-Bold-6c" transform="translate(1142.431641 0)"/>
     <use xlink:href="#DejaVuSans-Bold-6f" transform="translate(1176.708984 0)"/>
     <use xlink:href="#DejaVuSans-Bold-6f" transform="translate(1245.410156 0)"/>
     <use xlink:href="#DejaVuSans-Bold-6b" transform="translate(1314.111328 0)"/>
    </g>
   </g>
   <g id="PathCollection_1">
    <defs>
     <path id="mdf8121c33e" d="M 0 2 
C 0.530406 2 1.03916 1.789267 1.414214 1.414214 
C 1.789267 1.03916 2 0.530406 2 0 
C 2 -0.530406 1.789267 -1.03916 1.414214 -1.414214 
C 1.03916 -1.789267 0.530406 -2 0 -2 
C -0.530406 -2 -1.03916 -1.789267 -1.414214 -1.414214 
C -1.789267 -1.03916 -2 -0.530406 -2 0 
C -2 0.530406 -1.789267 1.03916 -1.414214 1.414214 
C -1.03916 1.789267 -0.530406 2 0 2 
z
" style="stroke: #ffffff; stroke-width: 0.6"/>
    </defs>
    <g clip-path="url(#pc7bc53d73e)">
     <use xlink:href="#mdf8121c33e" x="52.079375" y="484.250285" style="fill: #334e68; stroke: #ffffff; stroke-width: 0.6"/>
     <use xlink:href="#mdf8121c33e" x="60.406787" y="484.250285" style="fill: #334e68; stroke: #ffffff; stroke-width: 0.6"/>
     <use xlink:href="#mdf8121c33e" x="67.92832" y="478.302303" style="fill: #334e68; stroke: #ffffff; stroke-width: 0.6"/>
     <use xlink:href="#mdf8121c33e" x="76.255732" y="442.614409" style="fill: #334e68; stroke: #ffffff; stroke-width: 0.6"/>
     <use xlink:href="#mdf8121c33e" x="84.314517" y="395.030551" style="fill: #334e68; stroke: #ffffff; stroke-width: 0.6"/>
     <use xlink:href="#mdf8121c33e" x="92.641929" y="400.978533" style="fill: #334e68; stroke: #ffffff; stroke-width: 0.6"/>
     <use xlink:href="#mdf8121c33e" x="100.700714" y="341.49871" style="fill: #334e68; stroke: #ffffff; stroke-width: 0.6"/>
     <use xlink:href="#mdf8121c33e" x="109.028126" y="377.186604" style="fill: #334e68; stroke: #ffffff; stroke-width: 0.6"/>
     <use xlink:href="#mdf8121c33e" x="117.355538" y="448.562391" style="fill: #334e68; stroke: #ffffff; stroke-width: 0.6"/>
     <use xlink:href="#mdf8121c33e" x="125.414323" y="442.614409" style="fill: #334e68; stroke: #ffffff; stroke-width: 0.6"/>
     <use xlink:href="#mdf8121c33e" x="133.741735" y="436.666427" style="fill: #334e68; stroke: #ffffff; stroke-width: 0.6"/>
     <use xlink:href="#mdf8121c33e" x="141.80052" y="472.35432" style="fill: #334e68; stroke: #ffffff; stroke-width: 0.6"/>
     <use xlink:href="#mdf8121c33e" x="150.127932" y="484.250285" style="fill: #334e68; stroke: #ffffff; stroke-width: 0.6"/>
     <use xlink:href="#mdf8121c33e" x="158.455344" y="484.250285" style="fill: #334e68; stroke: #ffffff; stroke-width: 0.6"/>
     <use xlink:href="#mdf8121c33e" x="165.976877" y="484.250285" style="fill: #334e68; stroke: #ffffff; stroke-width: 0.6"/>
     <use xlink:href="#mdf8121c33e" x="174.304289" y="472.382845" style="fill: #334e68; stroke: #ffffff; stroke-width: 0.6"/>
     <use xlink:href="#mdf8121c33e" x="182.363074" y="371.509609" style="fill: #334e68; stroke: #ffffff; stroke-width: 0.6"/>
     <use xlink:href="#mdf8121c33e" x="190.690486" y="240.967774" style="fill: #334e68; stroke: #ffffff; stroke-width: 0.6"/>
     <use xlink:href="#mdf8121c33e" x="198.749271" y="223.166615" style="fill: #334e68; stroke: #ffffff; stroke-width: 0.6"/>
     <use xlink:href="#mdf8121c33e" x="207.076683" y="365.575889" style="fill: #334e68; stroke: #ffffff; stroke-width: 0.6"/>
     <use xlink:href="#mdf8121c33e" x="215.404095" y="460.515406" style="fill: #334e68; stroke: #ffffff; stroke-width: 0.6"/>
     <use xlink:href="#mdf8121c33e" x="223.46288" y="413.045648" style="fill: #334e68; stroke: #ffffff; stroke-width: 0.6"/>
     <use xlink:href="#mdf8121c33e" x="231.790292" y="436.780527" style="fill: #334e68; stroke: #ffffff; stroke-width: 0.6"/>
     <use xlink:href="#mdf8121c33e" x="239.849078" y="466.449126" style="fill: #334e68; stroke: #ffffff; stroke-width: 0.6"/>
     <use xlink:href="#mdf8121c33e" x="248.176489" y="484.250285" style="fill: #334e68; stroke: #ffffff; stroke-width: 0.6"/>
     <use xlink:href="#mdf8121c33e" x="256.503901" y="478.401415" style="fill: #334e68; stroke: #ffffff; stroke-width: 0.6"/>
     <use xlink:href="#mdf8121c33e" x="264.025434" y="478.401415" style="fill: #334e68; stroke: #ffffff; stroke-width: 0.6"/>
     <use xlink:href="#mdf8121c33e" x="272.352846" y="455.005934" style="fill: #334e68; stroke: #ffffff; stroke-width: 0.6"/>
     <use xlink:href="#mdf8121c33e" x="280.411631" y="431.610454" style="fill: #334e68; stroke: #ffffff; stroke-width: 0.6"/>
     <use xlink:href="#mdf8121c33e" x="288.739043" y="355.575142" style="fill: #334e68; stroke: #ffffff; stroke-width: 0.6"/>
     <use xlink:href="#mdf8121c33e" x="296.797828" y="297.08644" style="fill: #334e68; stroke: #ffffff; stroke-width: 0.6"/>
     <use xlink:href="#mdf8121c33e" x="305.12524" y="425.761584" style="fill: #334e68; stroke: #ffffff; stroke-width: 0.6"/>
     <use xlink:href="#mdf8121c33e" x="313.452652" y="449.157064" style="fill: #334e68; stroke: #ffffff; stroke-width: 0.6"/>
     <use xlink:href="#mdf8121c33e" x="321.511437" y="384.819493" style="fill: #334e68; stroke: #ffffff; stroke-width: 0.6"/>
     <use xlink:href="#mdf8121c33e" x="329.838849" y="443.308194" style="fill: #334e68; stroke: #ffffff; stroke-width: 0.6"/>
     <use xlink:href="#mdf8121c33e" x="337.897635" y="478.401415" style="fill: #334e68; stroke: #ffffff; stroke-width: 0.6"/>
     <use xlink:href="#mdf8121c33e" x="346.225046" y="478.401415" style="fill: #334e68; stroke: #ffffff; stroke-width: 0.6"/>
     <use xlink:href="#mdf8121c33e" x="354.552458" y="484.250285" style="fill: #334e68; stroke: #ffffff; stroke-width: 0.6"/>
     <use xlink:href="#mdf8121c33e" x="362.342617" y="478.454586" style="fill: #334e68; stroke: #ffffff; stroke-width: 0.6"/>
     <use xlink:href="#mdf8121c33e" x="370.670029" y="466.863187" style="fill: #334e68; stroke: #ffffff; stroke-width: 0.6"/>
     <use xlink:href="#mdf8121c33e" x="378.728815" y="385.723394" style="fill: #334e68; stroke: #ffffff; stroke-width: 0.6"/>
     <use xlink:href="#mdf8121c33e" x="387.056226" y="206.05671" style="fill: #334e68; stroke: #ffffff; stroke-width: 0.6"/>
     <use xlink:href="#mdf8121c33e" x="395.115012" y="95.938421" style="fill: #334e68; stroke: #ffffff; stroke-width: 0.6"/>
     <use xlink:href="#mdf8121c33e" x="403.442423" y="316.175" style="fill: #334e68; stroke: #ffffff; stroke-width: 0.6"/>
     <use xlink:href="#mdf8121c33e" x="411.769835" y="397.314793" style="fill: #334e68; stroke: #ffffff; stroke-width: 0.6"/>
     <use xlink:href="#mdf8121c33e" x="419.828621" y="449.476088" style="fill: #334e68; stroke: #ffffff; stroke-width: 0.6"/>
     <use xlink:href="#mdf8121c33e" x="428.156032" y="484.250285" style="fill: #334e68; stroke: #ffffff; stroke-width: 0.6"/>
     <use xlink:href="#mdf8121c33e" x="436.214818" y="484.250285" style="fill: #334e68; stroke: #ffffff; stroke-width: 0.6"/>
     <use xlink:href="#mdf8121c33e" x="444.54223" y="484.250285" style="fill: #334e68; stroke: #ffffff; stroke-width: 0.6"/>
     <use xlink:href="#mdf8121c33e" x="452.869641" y="472.578284" style="fill: #334e68; stroke: #ffffff; stroke-width: 0.6"/>
     <use xlink:href="#mdf8121c33e" x="460.391174" y="466.742284" style="fill: #334e68; stroke: #ffffff; stroke-width: 0.6"/>
     <use xlink:href="#mdf8121c33e" x="468.718586" y="455.070283" style="fill: #334e68; stroke: #ffffff; stroke-width: 0.6"/>
     <use xlink:href="#mdf8121c33e" x="476.777372" y="455.070283" style="fill: #334e68; stroke: #ffffff; stroke-width: 0.6"/>
     <use xlink:href="#mdf8121c33e" x="485.104783" y="437.562282" style="fill: #334e68; stroke: #ffffff; stroke-width: 0.6"/>
     <use xlink:href="#mdf8121c33e" x="493.163569" y="396.71028" style="fill: #334e68; stroke: #ffffff; stroke-width: 0.6"/>
     <use xlink:href="#mdf8121c33e" x="501.490981" y="455.070283" style="fill: #334e68; stroke: #ffffff; stroke-width: 0.6"/>
     <use xlink:href="#mdf8121c33e" x="509.818392" y="472.578284" style="fill: #334e68; stroke: #ffffff; stroke-width: 0.6"/>
     <use xlink:href="#mdf8121c33e" x="517.877178" y="425.890281" style="fill: #334e68; stroke: #ffffff; stroke-width: 0.6"/>
     <use xlink:href="#mdf8121c33e" x="526.204589" y="449.234283" style="fill: #334e68; stroke: #ffffff; stroke-width: 0.6"/>
     <use xlink:href="#mdf8121c33e" x="534.263375" y="478.414285" style="fill: #334e68; stroke: #ffffff; stroke-width: 0.6"/>
     <use xlink:href="#mdf8121c33e" x="542.590787" y="484.250285" style="fill: #334e68; stroke: #ffffff; stroke-width: 0.6"/>
     <use xlink:href="#mdf8121c33e" x="550.918198" y="484.250285" style="fill: #334e68; stroke: #ffffff; stroke-width: 0.6"/>
     <use xlink:href="#mdf8121c33e" x="558.439732" y="478.375718" style="fill: #334e68; stroke: #ffffff; stroke-width: 0.6"/>
     <use xlink:href="#mdf8121c33e" x="566.767143" y="472.501151" style="fill: #334e68; stroke: #ffffff; stroke-width: 0.6"/>
     <use xlink:href="#mdf8121c33e" x="574.825929" y="431.379181" style="fill: #334e68; stroke: #ffffff; stroke-width: 0.6"/>
     <use xlink:href="#mdf8121c33e" x="583.15334" y="308.013271" style="fill: #334e68; stroke: #ffffff; stroke-width: 0.6"/>
     <use xlink:href="#mdf8121c33e" x="591.212126" y="261.016734" style="fill: #334e68; stroke: #ffffff; stroke-width: 0.6"/>
     <use xlink:href="#mdf8121c33e" x="599.539538" y="349.135241" style="fill: #334e68; stroke: #ffffff; stroke-width: 0.6"/>
     <use xlink:href="#mdf8121c33e" x="607.866949" y="425.504614" style="fill: #334e68; stroke: #ffffff; stroke-width: 0.6"/>
     <use xlink:href="#mdf8121c33e" x="615.925735" y="466.626584" style="fill: #334e68; stroke: #ffffff; stroke-width: 0.6"/>
     <use xlink:href="#mdf8121c33e" x="624.253147" y="443.128315" style="fill: #334e68; stroke: #ffffff; stroke-width: 0.6"/>
     <use xlink:href="#mdf8121c33e" x="632.311932" y="466.626584" style="fill: #334e68; stroke: #ffffff; stroke-width: 0.6"/>
     <use xlink:href="#mdf8121c33e" x="640.639344" y="478.444345" style="fill: #334e68; stroke: #ffffff; stroke-width: 0.6"/>
     <use xlink:href="#mdf8121c33e" x="648.966756" y="484.250285" style="fill: #334e68; stroke: #ffffff; stroke-width: 0.6"/>
     <use xlink:href="#mdf8121c33e" x="656.488289" y="478.444345" style="fill: #334e68; stroke: #ffffff; stroke-width: 0.6"/>
     <use xlink:href="#mdf8121c33e" x="664.8157" y="484.250285" style="fill: #334e68; stroke: #ffffff; stroke-width: 0.6"/>
     <use xlink:href="#mdf8121c33e" x="672.874486" y="472.638405" style="fill: #334e68; stroke: #ffffff; stroke-width: 0.6"/>
     <use xlink:href="#mdf8121c33e" x="681.201898" y="414.579002" style="fill: #334e68; stroke: #ffffff; stroke-width: 0.6"/>
     <use xlink:href="#mdf8121c33e" x="689.260683" y="356.5196" style="fill: #334e68; stroke: #ffffff; stroke-width: 0.6"/>
     <use xlink:href="#mdf8121c33e" x="697.588095" y="414.579002" style="fill: #334e68; stroke: #ffffff; stroke-width: 0.6"/>
     <use xlink:href="#mdf8121c33e" x="705.915506" y="455.220584" style="fill: #334e68; stroke: #ffffff; stroke-width: 0.6"/>
     <use xlink:href="#mdf8121c33e" x="713.974292" y="472.638405" style="fill: #334e68; stroke: #ffffff; stroke-width: 0.6"/>
     <use xlink:href="#mdf8121c33e" x="722.301704" y="466.832464" style="fill: #334e68; stroke: #ffffff; stroke-width: 0.6"/>
     <use xlink:href="#mdf8121c33e" x="730.360489" y="466.832464" style="fill: #334e68; stroke: #ffffff; stroke-width: 0.6"/>
     <use xlink:href="#mdf8121c33e" x="738.687901" y="478.479374" style="fill: #334e68; stroke: #ffffff; stroke-width: 0.6"/>
     <use xlink:href="#mdf8121c33e" x="747.015313" y="478.479374" style="fill: #334e68; stroke: #ffffff; stroke-width: 0.6"/>
     <use xlink:href="#mdf8121c33e" x="754.805472" y="449.62482" style="fill: #334e68; stroke: #ffffff; stroke-width: 0.6"/>
     <use xlink:href="#mdf8121c33e" x="763.132884" y="443.85391" style="fill: #334e68; stroke: #ffffff; stroke-width: 0.6"/>
     <use xlink:href="#mdf8121c33e" x="771.191669" y="380.373891" style="fill: #334e68; stroke: #ffffff; stroke-width: 0.6"/>
     <use xlink:href="#mdf8121c33e" x="779.519081" y="397.686624" style="fill: #334e68; stroke: #ffffff; stroke-width: 0.6"/>
     <use xlink:href="#mdf8121c33e" x="787.577866" y="368.83207" style="fill: #334e68; stroke: #ffffff; stroke-width: 0.6"/>
     <use xlink:href="#mdf8121c33e" x="795.905278" y="443.85391" style="fill: #334e68; stroke: #ffffff; stroke-width: 0.6"/>
     <use xlink:href="#mdf8121c33e" x="804.23269" y="461.166642" style="fill: #334e68; stroke: #ffffff; stroke-width: 0.6"/>
     <use xlink:href="#mdf8121c33e" x="812.291475" y="438.082999" style="fill: #334e68; stroke: #ffffff; stroke-width: 0.6"/>
     <use xlink:href="#mdf8121c33e" x="820.618887" y="461.166642" style="fill: #334e68; stroke: #ffffff; stroke-width: 0.6"/>
     <use xlink:href="#mdf8121c33e" x="828.677672" y="484.250285" style="fill: #334e68; stroke: #ffffff; stroke-width: 0.6"/>
     <use xlink:href="#mdf8121c33e" x="837.005084" y="484.250285" style="fill: #334e68; stroke: #ffffff; stroke-width: 0.6"/>
     <use xlink:href="#mdf8121c33e" x="845.332496" y="484.250285" style="fill: #334e68; stroke: #ffffff; stroke-width: 0.6"/>
     <use xlink:href="#mdf8121c33e" x="852.854029" y="478.545242" style="fill: #334e68; stroke: #ffffff; stroke-width: 0.6"/>
     <use xlink:href="#mdf8121c33e" x="861.181441" y="461.430113" style="fill: #334e68; stroke: #ffffff; stroke-width: 0.6"/>
     <use xlink:href="#mdf8121c33e" x="869.240226" y="392.969598" style="fill: #334e68; stroke: #ffffff; stroke-width: 0.6"/>
     <use xlink:href="#mdf8121c33e" x="877.567638" y="375.854469" style="fill: #334e68; stroke: #ffffff; stroke-width: 0.6"/>
     <use xlink:href="#mdf8121c33e" x="885.626423" y="370.149426" style="fill: #334e68; stroke: #ffffff; stroke-width: 0.6"/>
     <use xlink:href="#mdf8121c33e" x="893.953835" y="444.314984" style="fill: #334e68; stroke: #ffffff; stroke-width: 0.6"/>
     <use xlink:href="#mdf8121c33e" x="902.281247" y="461.430113" style="fill: #334e68; stroke: #ffffff; stroke-width: 0.6"/>
     <use xlink:href="#mdf8121c33e" x="910.340032" y="444.314984" style="fill: #334e68; stroke: #ffffff; stroke-width: 0.6"/>
     <use xlink:href="#mdf8121c33e" x="918.667444" y="472.840199" style="fill: #334e68; stroke: #ffffff; stroke-width: 0.6"/>
     <use xlink:href="#mdf8121c33e" x="926.72623" y="484.250285" style="fill: #334e68; stroke: #ffffff; stroke-width: 0.6"/>
    </g>
   </g>
   <g id="line2d_27">
    <path d="M 943.381053 476.8418 
L 950.902586 464.959239 
L 959.229998 445.808614 
L 967.288783 396.607753 
L 975.616195 382.014192 
L 983.674981 380.231408 
L 992.002392 427.323024 
L 1000.329804 445.289121 
L 1008.388589 440.722153 
" clip-path="url(#pc7bc53d73e)" style="fill: none; stroke: #0b6e4f; stroke-width: 2.9; stroke-linecap: square"/>
   </g>
   <g id="legend_1">
    <g id="line2d_28">
     <path d="M 61.079375 440.314347 
L 71.079375 440.314347 
L 81.079375 440.314347 
" style="fill: none; stroke: #1f2933; stroke-width: 2.4; stroke-linecap: square"/>
    </g>
    <g id="text_24">
     <!-- Observed prevalence -->
     <g style="fill: #173024" transform="translate(89.079375 443.814347) scale(0.1 -0.1)">
      <use xlink:href="#DejaVuSans-4f"/>
      <use xlink:href="#DejaVuSans-62" transform="translate(78.710938 0)"/>
      <use xlink:href="#DejaVuSans-73" transform="translate(142.1875 0)"/>
      <use xlink:href="#DejaVuSans-65" transform="translate(194.287109 0)"/>
      <use xlink:href="#DejaVuSans-72" transform="translate(255.810547 0)"/>
      <use xlink:href="#DejaVuSans-76" transform="translate(296.923828 0)"/>
      <use xlink:href="#DejaVuSans-65" transform="translate(356.103516 0)"/>
      <use xlink:href="#DejaVuSans-64" transform="translate(417.626953 0)"/>
      <use xlink:href="#DejaVuSans-20" transform="translate(481.103516 0)"/>
      <use xlink:href="#DejaVuSans-70" transform="translate(512.890625 0)"/>
      <use xlink:href="#DejaVuSans-72" transform="translate(576.367188 0)"/>
      <use xlink:href="#DejaVuSans-65" transform="translate(615.230469 0)"/>
      <use xlink:href="#DejaVuSans-76" transform="translate(676.753906 0)"/>
      <use xlink:href="#DejaVuSans-61" transform="translate(735.933594 0)"/>
      <use xlink:href="#DejaVuSans-6c" transform="translate(797.212891 0)"/>
      <use xlink:href="#DejaVuSans-65" transform="translate(824.996094 0)"/>
      <use xlink:href="#DejaVuSans-6e" transform="translate(886.519531 0)"/>
      <use xlink:href="#DejaVuSans-63" transform="translate(949.898438 0)"/>
      <use xlink:href="#DejaVuSans-65" transform="translate(1004.878906 0)"/>
     </g>
    </g>
    <g id="line2d_29">
     <path d="M 61.079375 454.992472 
L 71.079375 454.992472 
L 81.079375 454.992472 
" style="fill: none; stroke: #0b6e4f; stroke-width: 2.9; stroke-linecap: square"/>
    </g>
    <g id="text_25">
     <!-- V2 residual forecast -->
     <g style="fill: #173024" transform="translate(89.079375 458.492472) scale(0.1 -0.1)">
      <use xlink:href="#DejaVuSans-56"/>
      <use xlink:href="#DejaVuSans-32" transform="translate(68.408203 0)"/>
      <use xlink:href="#DejaVuSans-20" transform="translate(132.03125 0)"/>
      <use xlink:href="#DejaVuSans-72" transform="translate(163.818359 0)"/>
      <use xlink:href="#DejaVuSans-65" transform="translate(202.681641 0)"/>
      <use xlink:href="#DejaVuSans-73" transform="translate(264.205078 0)"/>
      <use xlink:href="#DejaVuSans-69" transform="translate(316.304688 0)"/>
      <use xlink:href="#DejaVuSans-64" transform="translate(344.087891 0)"/>
      <use xlink:href="#DejaVuSans-75" transform="translate(407.564453 0)"/>
      <use xlink:href="#DejaVuSans-61" transform="translate(470.943359 0)"/>
      <use xlink:href="#DejaVuSans-6c" transform="translate(532.222656 0)"/>
      <use xlink:href="#DejaVuSans-20" transform="translate(560.005859 0)"/>
      <use xlink:href="#DejaVuSans-66" transform="translate(591.792969 0)"/>
      <use xlink:href="#DejaVuSans-6f" transform="translate(626.998047 0)"/>
      <use xlink:href="#DejaVuSans-72" transform="translate(688.179688 0)"/>
      <use xlink:href="#DejaVuSans-65" transform="translate(727.042969 0)"/>
      <use xlink:href="#DejaVuSans-63" transform="translate(788.566406 0)"/>
      <use xlink:href="#DejaVuSans-61" transform="translate(843.546875 0)"/>
      <use xlink:href="#DejaVuSans-73" transform="translate(904.826172 0)"/>
      <use xlink:href="#DejaVuSans-74" transform="translate(956.925781 0)"/>
     </g>
    </g>
    <g id="patch_7">
     <path d="M 61.079375 473.170597 
L 81.079375 473.170597 
L 81.079375 466.170597 
L 61.079375 466.170597 
z
" style="fill: #dff3e3; stroke: #a7d7af; stroke-linejoin: miter"/>
    </g>
    <g id="text_26">
     <!-- Forecast zone -->
     <g style="fill: #173024" transform="translate(89.079375 473.170597) scale(0.1 -0.1)">
      <defs>
       <path id="DejaVuSans-46" d="M 628 4666 
L 3309 4666 
L 3309 4134 
L 1259 4134 
L 1259 2759 
L 3109 2759 
L 3109 2228 
L 1259 2228 
L 1259 0 
L 628 0 
L 628 4666 
z
" transform="scale(0.015625)"/>
       <path id="DejaVuSans-7a" d="M 353 3500 
L 3084 3500 
L 3084 2975 
L 922 459 
L 3084 459 
L 3084 0 
L 275 0 
L 275 525 
L 2438 3041 
L 353 3041 
L 353 3500 
z
" transform="scale(0.015625)"/>
      </defs>
      <use xlink:href="#DejaVuSans-46"/>
      <use xlink:href="#DejaVuSans-6f" transform="translate(53.894531 0)"/>
      <use xlink:href="#DejaVuSans-72" transform="translate(115.076172 0)"/>
      <use xlink:href="#DejaVuSans-65" transform="translate(153.939453 0)"/>
      <use xlink:href="#DejaVuSans-63" transform="translate(215.462891 0)"/>
      <use xlink:href="#DejaVuSans-61" transform="translate(270.443359 0)"/>
      <use xlink:href="#DejaVuSans-73" transform="translate(331.722656 0)"/>
      <use xlink:href="#DejaVuSans-74" transform="translate(383.822266 0)"/>
      <use xlink:href="#DejaVuSans-20" transform="translate(423.03125 0)"/>
      <use xlink:href="#DejaVuSans-7a" transform="translate(454.818359 0)"/>
      <use xlink:href="#DejaVuSans-6f" transform="translate(507.308594 0)"/>
      <use xlink:href="#DejaVuSans-6e" transform="translate(568.490234 0)"/>
      <use xlink:href="#DejaVuSans-65" transform="translate(631.869141 0)"/>
     </g>
    </g>
   </g>
   <g id="PathCollection_2">
    <defs>
     <path id="m263cf10ec5" d="M 0 2.915476 
C 0.773193 2.915476 1.514823 2.608283 2.061553 2.061553 
C 2.608283 1.514823 2.915476 0.773193 2.915476 0 
C 2.915476 -0.773193 2.608283 -1.514823 2.061553 -2.061553 
C 1.514823 -2.608283 0.773193 -2.915476 0 -2.915476 
C -0.773193 -2.915476 -1.514823 -2.608283 -2.061553 -2.061553 
C -2.608283 -1.514823 -2.915476 -0.773193 -2.915476 0 
C -2.915476 0.773193 -2.608283 1.514823 -2.061553 2.061553 
C -1.514823 2.608283 -0.773193 2.915476 0 2.915476 
z
" style="stroke: #ffffff; stroke-width: 0.7"/>
    </defs>
    <g clip-path="url(#pc7bc53d73e)">
     <use xlink:href="#m263cf10ec5" x="943.381053" y="476.8418" style="fill: #0b6e4f; stroke: #ffffff; stroke-width: 0.7"/>
     <use xlink:href="#m263cf10ec5" x="950.902586" y="464.959239" style="fill: #0b6e4f; stroke: #ffffff; stroke-width: 0.7"/>
     <use xlink:href="#m263cf10ec5" x="959.229998" y="445.808614" style="fill: #0b6e4f; stroke: #ffffff; stroke-width: 0.7"/>
     <use xlink:href="#m263cf10ec5" x="967.288783" y="396.607753" style="fill: #0b6e4f; stroke: #ffffff; stroke-width: 0.7"/>
     <use xlink:href="#m263cf10ec5" x="975.616195" y="382.014192" style="fill: #0b6e4f; stroke: #ffffff; stroke-width: 0.7"/>
     <use xlink:href="#m263cf10ec5" x="983.674981" y="380.231408" style="fill: #0b6e4f; stroke: #ffffff; stroke-width: 0.7"/>
     <use xlink:href="#m263cf10ec5" x="992.002392" y="427.323024" style="fill: #0b6e4f; stroke: #ffffff; stroke-width: 0.7"/>
     <use xlink:href="#m263cf10ec5" x="1000.329804" y="445.289121" style="fill: #0b6e4f; stroke: #ffffff; stroke-width: 0.7"/>
     <use xlink:href="#m263cf10ec5" x="1008.388589" y="440.722153" style="fill: #0b6e4f; stroke: #ffffff; stroke-width: 0.7"/>
    </g>
   </g>
  </g>
 </g>
 <defs>
  <clipPath id="pc7bc53d73e">
   <rect x="52.079375" y="26.042285" width="964.368" height="458.208"/>
  </clipPath>
 </defs>
</svg>
