<?xml version="1.0" encoding="utf-8" standalone="no"?>
<!DOCTYPE svg PUBLIC "-//W3C//DTD SVG 1.1//EN"
  "http://www.w3.org/Graphics/SVG/1.1/DTD/svg11.dtd">
<svg xmlns:xlink="http://www.w3.org/1999/xlink" width="1030.009875pt" height="523.74216pt" viewBox="0 0 1030.009875 523.74216" xmlns="http://www.w3.org/2000/svg" version="1.1">
 <metadata>
  <rdf:RDF xmlns:dc="http://purl.org/dc/elements/1.1/" xmlns:cc="http://creativecommons.org/ns#" xmlns:rdf="http://www.w3.org/1999/02/22-rdf-syntax-ns#">
   <cc:Work>
    <dc:type rdf:resource="http://purl.org/dc/dcmitype/StillImage"/>
    <dc:date>2026-04-14T14:43:27.841017</dc:date>
    <dc:format>image/svg+xml</dc:format>
    <dc:creator>
     <cc:Agent>
      <dc:title>Matplotlib v3.10.8, https://matplotlib.org/</dc:title>
     </cc:Agent>
    </dc:creator>
   </cc:Work>
  </rdf:RDF>
 </metadata>
 <defs>
  <style type="text/css">*{stroke-linejoin: round; stroke-linecap: butt}</style>
 </defs>
 <g id="figure_1">
  <g id="patch_1">
   <path d="M 0 523.74216 
L 1030.009875 523.74216 
L 1030.009875 0 
L 0 0 
z
" style="fill: #f5faf6"/>
  </g>
  <g id="axes_1">
   <g id="patch_2">
    <path d="M 58.441875 484.250285 
L 1022.809875 484.250285 
L 1022.809875 26.042285 
L 58.441875 26.042285 
z
" style="fill: #fbfdfb"/>
   </g>
   <g id="patch_3">
    <path d="M 949.743553 484.250285 
L 1022.809875 484.250285 
L 1022.809875 26.042285 
L 949.743553 26.042285 
z
" clip-path="url(#pb5a89f3c2a)" style="fill: #dff3e3; stroke: #dff3e3; stroke-linejoin: miter"/>
   </g>
   <g id="line2d_1">
    <path d="M 949.743553 484.250285 
L 949.743553 26.042285 
" clip-path="url(#pb5a89f3c2a)" style="fill: none; stroke-dasharray: 6.66,2.88; stroke-dashoffset: 0; stroke: #a7d7af; stroke-width: 1.8"/>
   </g>
   <g id="matplotlib.axis_1">
    <g id="xtick_1">
     <g id="line2d_2">
      <defs>
       <path id="mc65ef0fb09" d="M 0 0 
L 0 3.5 
" style="stroke: #5c7a68; stroke-width: 0.8"/>
      </defs>
      <g>
       <use xlink:href="#mc65ef0fb09" x="58.441875" y="484.250285" style="fill: #5c7a68; stroke: #5c7a68; stroke-width: 0.8"/>
      </g>
     </g>
     <g id="text_1">
      <!-- 2017 -->
      <g style="fill: #5c7a68" transform="translate(45.716875 498.848722) scale(0.1 -0.1)">
       <defs>
        <path id="DejaVuSans-32" d="M 1228 531 
L 3431 531 
L 3431 0 
L 469 0 
L 469 531 
Q 828 903 1448 1529 
Q 2069 2156 2228 2338 
Q 2531 2678 2651 2914 
Q 2772 3150 2772 3378 
Q 2772 3750 2511 3984 
Q 2250 4219 1831 4219 
Q 1534 4219 1204 4116 
Q 875 4013 500 3803 
L 500 4441 
Q 881 4594 1212 4672 
Q 1544 4750 1819 4750 
Q 2544 4750 2975 4387 
Q 3406 4025 3406 3419 
Q 3406 3131 3298 2873 
Q 3191 2616 2906 2266 
Q 2828 2175 2409 1742 
Q 1991 1309 1228 531 
z
" transform="scale(0.015625)"/>
        <path id="DejaVuSans-30" d="M 2034 4250 
Q 1547 4250 1301 3770 
Q 1056 3291 1056 2328 
Q 1056 1369 1301 889 
Q 1547 409 2034 409 
Q 2525 409 2770 889 
Q 3016 1369 3016 2328 
Q 3016 3291 2770 3770 
Q 2525 4250 2034 4250 
z
M 2034 4750 
Q 2819 4750 3233 4129 
Q 3647 3509 3647 2328 
Q 3647 1150 3233 529 
Q 2819 -91 2034 -91 
Q 1250 -91 836 529 
Q 422 1150 422 2328 
Q 422 3509 836 4129 
Q 1250 4750 2034 4750 
z
" transform="scale(0.015625)"/>
        <path id="DejaVuSans-31" d="M 794 531 
L 1825 531 
L 1825 4091 
L 703 3866 
L 703 4441 
L 1819 4666 
L 2450 4666 
L 2450 531 
L 3481 531 
L 3481 0 
L 794 0 
L 794 531 
z
" transform="scale(0.015625)"/>
        <path id="DejaVuSans-37" d="M 525 4666 
L 3525 4666 
L 3525 4397 
L 1831 0 
L 1172 0 
L 2766 4134 
L 525 4134 
L 525 4666 
z
" transform="scale(0.015625)"/>
       </defs>
       <use xlink:href="#DejaVuSans-32"/>
       <use xlink:href="#DejaVuSans-30" transform="translate(63.623047 0)"/>
       <use xlink:href="#DejaVuSans-31" transform="translate(127.246094 0)"/>
       <use xlink:href="#DejaVuSans-37" transform="translate(190.869141 0)"/>
      </g>
     </g>
    </g>
    <g id="xtick_2">
     <g id="line2d_3">
      <g>
       <use xlink:href="#mc65ef0fb09" x="156.490432" y="484.250285" style="fill: #5c7a68; stroke: #5c7a68; stroke-width: 0.8"/>
      </g>
     </g>
     <g id="text_2">
      <!-- 2018 -->
      <g style="fill: #5c7a68" transform="translate(143.765432 498.848722) scale(0.1 -0.1)">
       <defs>
        <path id="DejaVuSans-38" d="M 2034 2216 
Q 1584 2216 1326 1975 
Q 1069 1734 1069 1313 
Q 1069 891 1326 650 
Q 1584 409 2034 409 
Q 2484 409 2743 651 
Q 3003 894 3003 1313 
Q 3003 1734 2745 1975 
Q 2488 2216 2034 2216 
z
M 1403 2484 
Q 997 2584 770 2862 
Q 544 3141 544 3541 
Q 544 4100 942 4425 
Q 1341 4750 2034 4750 
Q 2731 4750 3128 4425 
Q 3525 4100 3525 3541 
Q 3525 3141 3298 2862 
Q 3072 2584 2669 2484 
Q 3125 2378 3379 2068 
Q 3634 1759 3634 1313 
Q 3634 634 3220 271 
Q 2806 -91 2034 -91 
Q 1263 -91 848 271 
Q 434 634 434 1313 
Q 434 1759 690 2068 
Q 947 2378 1403 2484 
z
M 1172 3481 
Q 1172 3119 1398 2916 
Q 1625 2713 2034 2713 
Q 2441 2713 2670 2916 
Q 2900 3119 2900 3481 
Q 2900 3844 2670 4047 
Q 2441 4250 2034 4250 
Q 1625 4250 1398 4047 
Q 1172 3844 1172 3481 
z
" transform="scale(0.015625)"/>
       </defs>
       <use xlink:href="#DejaVuSans-32"/>
       <use xlink:href="#DejaVuSans-30" transform="translate(63.623047 0)"/>
       <use xlink:href="#DejaVuSans-31" transform="translate(127.246094 0)"/>
       <use xlink:href="#DejaVuSans-38" transform="translate(190.869141 0)"/>
      </g>
     </g>
    </g>
    <g id="xtick_3">
     <g id="line2d_4">
      <g>
       <use xlink:href="#mc65ef0fb09" x="254.538989" y="484.250285" style="fill: #5c7a68; stroke: #5c7a68; stroke-width: 0.8"/>
      </g>
     </g>
     <g id="text_3">
      <!-- 2019 -->
      <g style="fill: #5c7a68" transform="translate(241.813989 498.848722) scale(0.1 -0.1)">
       <defs>
        <path id="DejaVuSans-39" d="M 703 97 
L 703 672 
Q 941 559 1184 500 
Q 1428 441 1663 441 
Q 2288 441 2617 861 
Q 2947 1281 2994 2138 
Q 2813 1869 2534 1725 
Q 2256 1581 1919 1581 
Q 1219 1581 811 2004 
Q 403 2428 403 3163 
Q 403 3881 828 4315 
Q 1253 4750 1959 4750 
Q 2769 4750 3195 4129 
Q 3622 3509 3622 2328 
Q 3622 1225 3098 567 
Q 2575 -91 1691 -91 
Q 1453 -91 1209 -44 
Q 966 3 703 97 
z
M 1959 2075 
Q 2384 2075 2632 2365 
Q 2881 2656 2881 3163 
Q 2881 3666 2632 3958 
Q 2384 4250 1959 4250 
Q 1534 4250 1286 3958 
Q 1038 3666 1038 3163 
Q 1038 2656 1286 2365 
Q 1534 2075 1959 2075 
z
" transform="scale(0.015625)"/>
       </defs>
       <use xlink:href="#DejaVuSans-32"/>
       <use xlink:href="#DejaVuSans-30" transform="translate(63.623047 0)"/>
       <use xlink:href="#DejaVuSans-31" transform="translate(127.246094 0)"/>
       <use xlink:href="#DejaVuSans-39" transform="translate(190.869141 0)"/>
      </g>
     </g>
    </g>
    <g id="xtick_4">
     <g id="line2d_5">
      <g>
       <use xlink:href="#mc65ef0fb09" x="352.587546" y="484.250285" style="fill: #5c7a68; stroke: #5c7a68; stroke-width: 0.8"/>
      </g>
     </g>
     <g id="text_4">
      <!-- 2020 -->
      <g style="fill: #5c7a68" transform="translate(339.862546 498.848722) scale(0.1 -0.1)">
       <use xlink:href="#DejaVuSans-32"/>
       <use xlink:href="#DejaVuSans-30" transform="translate(63.623047 0)"/>
       <use xlink:href="#DejaVuSans-32" transform="translate(127.246094 0)"/>
       <use xlink:href="#DejaVuSans-30" transform="translate(190.869141 0)"/>
      </g>
     </g>
    </g>
    <g id="xtick_5">
     <g id="line2d_6">
      <g>
       <use xlink:href="#mc65ef0fb09" x="450.90473" y="484.250285" style="fill: #5c7a68; stroke: #5c7a68; stroke-width: 0.8"/>
      </g>
     </g>
     <g id="text_5">
      <!-- 2021 -->
      <g style="fill: #5c7a68" transform="translate(438.17973 498.848722) scale(0.1 -0.1)">
       <use xlink:href="#DejaVuSans-32"/>
       <use xlink:href="#DejaVuSans-30" transform="translate(63.623047 0)"/>
       <use xlink:href="#DejaVuSans-32" transform="translate(127.246094 0)"/>
       <use xlink:href="#DejaVuSans-31" transform="translate(190.869141 0)"/>
      </g>
     </g>
    </g>
    <g id="xtick_6">
     <g id="line2d_7">
      <g>
       <use xlink:href="#mc65ef0fb09" x="548.953287" y="484.250285" style="fill: #5c7a68; stroke: #5c7a68; stroke-width: 0.8"/>
      </g>
     </g>
     <g id="text_6">
      <!-- 2022 -->
      <g style="fill: #5c7a68" transform="translate(536.228287 498.848722) scale(0.1 -0.1)">
       <use xlink:href="#DejaVuSans-32"/>
       <use xlink:href="#DejaVuSans-30" transform="translate(63.623047 0)"/>
       <use xlink:href="#DejaVuSans-32" transform="translate(127.246094 0)"/>
       <use xlink:href="#DejaVuSans-32" transform="translate(190.869141 0)"/>
      </g>
     </g>
    </g>
    <g id="xtick_7">
     <g id="line2d_8">
      <g>
       <use xlink:href="#mc65ef0fb09" x="647.001844" y="484.250285" style="fill: #5c7a68; stroke: #5c7a68; stroke-width: 0.8"/>
      </g>
     </g>
     <g id="text_7">
      <!-- 2023 -->
      <g style="fill: #5c7a68" transform="translate(634.276844 498.848722) scale(0.1 -0.1)">
       <defs>
        <path id="DejaVuSans-33" d="M 2597 2516 
Q 3050 2419 3304 2112 
Q 3559 1806 3559 1356 
Q 3559 666 3084 287 
Q 2609 -91 1734 -91 
Q 1441 -91 1130 -33 
Q 819 25 488 141 
L 488 750 
Q 750 597 1062 519 
Q 1375 441 1716 441 
Q 2309 441 2620 675 
Q 2931 909 2931 1356 
Q 2931 1769 2642 2001 
Q 2353 2234 1838 2234 
L 1294 2234 
L 1294 2753 
L 1863 2753 
Q 2328 2753 2575 2939 
Q 2822 3125 2822 3475 
Q 2822 3834 2567 4026 
Q 2313 4219 1838 4219 
Q 1578 4219 1281 4162 
Q 984 4106 628 3988 
L 628 4550 
Q 988 4650 1302 4700 
Q 1616 4750 1894 4750 
Q 2613 4750 3031 4423 
Q 3450 4097 3450 3541 
Q 3450 3153 3228 2886 
Q 3006 2619 2597 2516 
z
" transform="scale(0.015625)"/>
       </defs>
       <use xlink:href="#DejaVuSans-32"/>
       <use xlink:href="#DejaVuSans-30" transform="translate(63.623047 0)"/>
       <use xlink:href="#DejaVuSans-32" transform="translate(127.246094 0)"/>
       <use xlink:href="#DejaVuSans-33" transform="translate(190.869141 0)"/>
      </g>
     </g>
    </g>
    <g id="xtick_8">
     <g id="line2d_9">
      <g>
       <use xlink:href="#mc65ef0fb09" x="745.050401" y="484.250285" style="fill: #5c7a68; stroke: #5c7a68; stroke-width: 0.8"/>
      </g>
     </g>
     <g id="text_8">
      <!-- 2024 -->
      <g style="fill: #5c7a68" transform="translate(732.325401 498.848722) scale(0.1 -0.1)">
       <defs>
        <path id="DejaVuSans-34" d="M 2419 4116 
L 825 1625 
L 2419 1625 
L 2419 4116 
z
M 2253 4666 
L 3047 4666 
L 3047 1625 
L 3713 1625 
L 3713 1100 
L 3047 1100 
L 3047 0 
L 2419 0 
L 2419 1100 
L 313 1100 
L 313 1709 
L 2253 4666 
z
" transform="scale(0.015625)"/>
       </defs>
       <use xlink:href="#DejaVuSans-32"/>
       <use xlink:href="#DejaVuSans-30" transform="translate(63.623047 0)"/>
       <use xlink:href="#DejaVuSans-32" transform="translate(127.246094 0)"/>
       <use xlink:href="#DejaVuSans-34" transform="translate(190.869141 0)"/>
      </g>
     </g>
    </g>
    <g id="xtick_9">
     <g id="line2d_10">
      <g>
       <use xlink:href="#mc65ef0fb09" x="843.367584" y="484.250285" style="fill: #5c7a68; stroke: #5c7a68; stroke-width: 0.8"/>
      </g>
     </g>
     <g id="text_9">
      <!-- 2025 -->
      <g style="fill: #5c7a68" transform="translate(830.642584 498.848722) scale(0.1 -0.1)">
       <defs>
        <path id="DejaVuSans-35" d="M 691 4666 
L 3169 4666 
L 3169 4134 
L 1269 4134 
L 1269 2991 
Q 1406 3038 1543 3061 
Q 1681 3084 1819 3084 
Q 2600 3084 3056 2656 
Q 3513 2228 3513 1497 
Q 3513 744 3044 326 
Q 2575 -91 1722 -91 
Q 1428 -91 1123 -41 
Q 819 9 494 109 
L 494 744 
Q 775 591 1075 516 
Q 1375 441 1709 441 
Q 2250 441 2565 725 
Q 2881 1009 2881 1497 
Q 2881 1984 2565 2268 
Q 2250 2553 1709 2553 
Q 1456 2553 1204 2497 
Q 953 2441 691 2322 
L 691 4666 
z
" transform="scale(0.015625)"/>
       </defs>
       <use xlink:href="#DejaVuSans-32"/>
       <use xlink:href="#DejaVuSans-30" transform="translate(63.623047 0)"/>
       <use xlink:href="#DejaVuSans-32" transform="translate(127.246094 0)"/>
       <use xlink:href="#DejaVuSans-35" transform="translate(190.869141 0)"/>
      </g>
     </g>
    </g>
    <g id="xtick_10">
     <g id="line2d_11">
      <g>
       <use xlink:href="#mc65ef0fb09" x="941.416141" y="484.250285" style="fill: #5c7a68; stroke: #5c7a68; stroke-width: 0.8"/>
      </g>
     </g>
     <g id="text_10">
      <!-- 2026 -->
      <g style="fill: #5c7a68" transform="translate(928.691141 498.848722) scale(0.1 -0.1)">
       <defs>
        <path id="DejaVuSans-36" d="M 2113 2584 
Q 1688 2584 1439 2293 
Q 1191 2003 1191 1497 
Q 1191 994 1439 701 
Q 1688 409 2113 409 
Q 2538 409 2786 701 
Q 3034 994 3034 1497 
Q 3034 2003 2786 2293 
Q 2538 2584 2113 2584 
z
M 3366 4563 
L 3366 3988 
Q 3128 4100 2886 4159 
Q 2644 4219 2406 4219 
Q 1781 4219 1451 3797 
Q 1122 3375 1075 2522 
Q 1259 2794 1537 2939 
Q 1816 3084 2150 3084 
Q 2853 3084 3261 2657 
Q 3669 2231 3669 1497 
Q 3669 778 3244 343 
Q 2819 -91 2113 -91 
Q 1303 -91 875 529 
Q 447 1150 447 2328 
Q 447 3434 972 4092 
Q 1497 4750 2381 4750 
Q 2619 4750 2861 4703 
Q 3103 4656 3366 4563 
z
" transform="scale(0.015625)"/>
       </defs>
       <use xlink:href="#DejaVuSans-32"/>
       <use xlink:href="#DejaVuSans-30" transform="translate(63.623047 0)"/>
       <use xlink:href="#DejaVuSans-32" transform="translate(127.246094 0)"/>
       <use xlink:href="#DejaVuSans-36" transform="translate(190.869141 0)"/>
      </g>
     </g>
    </g>
    <g id="text_11">
     <!-- Year -->
     <g style="fill: #173024" transform="translate(527.920875 514.046535) scale(0.12 -0.12)">
      <defs>
       <path id="DejaVuSans-59" d="M -13 4666 
L 666 4666 
L 1959 2747 
L 3244 4666 
L 3922 4666 
L 2272 2222 
L 2272 0 
L 1638 0 
L 1638 2222 
L -13 4666 
z
" transform="scale(0.015625)"/>
       <path id="DejaVuSans-65" d="M 3597 1894 
L 3597 1613 
L 953 1613 
Q 991 1019 1311 708 
Q 1631 397 2203 397 
Q 2534 397 2845 478 
Q 3156 559 3463 722 
L 3463 178 
Q 3153 47 2828 -22 
Q 2503 -91 2169 -91 
Q 1331 -91 842 396 
Q 353 884 353 1716 
Q 353 2575 817 3079 
Q 1281 3584 2069 3584 
Q 2775 3584 3186 3129 
Q 3597 2675 3597 1894 
z
M 3022 2063 
Q 3016 2534 2758 2815 
Q 2500 3097 2075 3097 
Q 1594 3097 1305 2825 
Q 1016 2553 972 2059 
L 3022 2063 
z
" transform="scale(0.015625)"/>
       <path id="DejaVuSans-61" d="M 2194 1759 
Q 1497 1759 1228 1600 
Q 959 1441 959 1056 
Q 959 750 1161 570 
Q 1363 391 1709 391 
Q 2188 391 2477 730 
Q 2766 1069 2766 1631 
L 2766 1759 
L 2194 1759 
z
M 3341 1997 
L 3341 0 
L 2766 0 
L 2766 531 
Q 2569 213 2275 61 
Q 1981 -91 1556 -91 
Q 1019 -91 701 211 
Q 384 513 384 1019 
Q 384 1609 779 1909 
Q 1175 2209 1959 2209 
L 2766 2209 
L 2766 2266 
Q 2766 2663 2505 2880 
Q 2244 3097 1772 3097 
Q 1472 3097 1187 3025 
Q 903 2953 641 2809 
L 641 3341 
Q 956 3463 1253 3523 
Q 1550 3584 1831 3584 
Q 2591 3584 2966 3190 
Q 3341 2797 3341 1997 
z
" transform="scale(0.015625)"/>
       <path id="DejaVuSans-72" d="M 2631 2963 
Q 2534 3019 2420 3045 
Q 2306 3072 2169 3072 
Q 1681 3072 1420 2755 
Q 1159 2438 1159 1844 
L 1159 0 
L 581 0 
L 581 3500 
L 1159 3500 
L 1159 2956 
Q 1341 3275 1631 3429 
Q 1922 3584 2338 3584 
Q 2397 3584 2469 3576 
Q 2541 3569 2628 3553 
L 2631 2963 
z
" transform="scale(0.015625)"/>
      </defs>
      <use xlink:href="#DejaVuSans-59"/>
      <use xlink:href="#DejaVuSans-65" transform="translate(47.833984 0)"/>
      <use xlink:href="#DejaVuSans-61" transform="translate(109.357422 0)"/>
      <use xlink:href="#DejaVuSans-72" transform="translate(170.636719 0)"/>
     </g>
    </g>
   </g>
   <g id="matplotlib.axis_2">
    <g id="ytick_1">
     <g id="line2d_12">
      <path d="M 58.441875 484.250285 
L 1022.809875 484.250285 
" clip-path="url(#pb5a89f3c2a)" style="fill: none; stroke: #d7e8db; stroke-width: 0.8; stroke-linecap: square"/>
     </g>
     <g id="line2d_13">
      <defs>
       <path id="m2b9018e8cf" d="M 0 0 
L -3.5 0 
" style="stroke: #5c7a68; stroke-width: 0.8"/>
      </defs>
      <g>
       <use xlink:href="#m2b9018e8cf" x="58.441875" y="484.250285" style="fill: #5c7a68; stroke: #5c7a68; stroke-width: 0.8"/>
      </g>
     </g>
     <g id="text_12">
      <!-- 0.0 -->
      <g style="fill: #5c7a68" transform="translate(35.53875 488.049504) scale(0.1 -0.1)">
       <defs>
        <path id="DejaVuSans-2e" d="M 684 794 
L 1344 794 
L 1344 0 
L 684 0 
L 684 794 
z
" transform="scale(0.015625)"/>
       </defs>
       <use xlink:href="#DejaVuSans-30"/>
       <use xlink:href="#DejaVuSans-2e" transform="translate(63.623047 0)"/>
       <use xlink:href="#DejaVuSans-30" transform="translate(95.410156 0)"/>
      </g>
     </g>
    </g>
    <g id="ytick_2">
     <g id="line2d_14">
      <path d="M 58.441875 417.944056 
L 1022.809875 417.944056 
" clip-path="url(#pb5a89f3c2a)" style="fill: none; stroke: #d7e8db; stroke-width: 0.8; stroke-linecap: square"/>
     </g>
     <g id="line2d_15">
      <g>
       <use xlink:href="#m2b9018e8cf" x="58.441875" y="417.944056" style="fill: #5c7a68; stroke: #5c7a68; stroke-width: 0.8"/>
      </g>
     </g>
     <g id="text_13">
      <!-- 500 -->
      <g style="fill: #5c7a68" transform="translate(32.354375 421.743275) scale(0.1 -0.1)">
       <use xlink:href="#DejaVuSans-35"/>
       <use xlink:href="#DejaVuSans-30" transform="translate(63.623047 0)"/>
       <use xlink:href="#DejaVuSans-30" transform="translate(127.246094 0)"/>
      </g>
     </g>
    </g>
    <g id="ytick_3">
     <g id="line2d_16">
      <path d="M 58.441875 351.637828 
L 1022.809875 351.637828 
" clip-path="url(#pb5a89f3c2a)" style="fill: none; stroke: #d7e8db; stroke-width: 0.8; stroke-linecap: square"/>
     </g>
     <g id="line2d_17">
      <g>
       <use xlink:href="#m2b9018e8cf" x="58.441875" y="351.637828" style="fill: #5c7a68; stroke: #5c7a68; stroke-width: 0.8"/>
      </g>
     </g>
     <g id="text_14">
      <!-- 1,000 -->
      <g style="fill: #5c7a68" transform="translate(22.81375 355.437047) scale(0.1 -0.1)">
       <defs>
        <path id="DejaVuSans-2c" d="M 750 794 
L 1409 794 
L 1409 256 
L 897 -744 
L 494 -744 
L 750 256 
L 750 794 
z
" transform="scale(0.015625)"/>
       </defs>
       <use xlink:href="#DejaVuSans-31"/>
       <use xlink:href="#DejaVuSans-2c" transform="translate(63.623047 0)"/>
       <use xlink:href="#DejaVuSans-30" transform="translate(95.410156 0)"/>
       <use xlink:href="#DejaVuSans-30" transform="translate(159.033203 0)"/>
       <use xlink:href="#DejaVuSans-30" transform="translate(222.65625 0)"/>
      </g>
     </g>
    </g>
    <g id="ytick_4">
     <g id="line2d_18">
      <path d="M 58.441875 285.331599 
L 1022.809875 285.331599 
" clip-path="url(#pb5a89f3c2a)" style="fill: none; stroke: #d7e8db; stroke-width: 0.8; stroke-linecap: square"/>
     </g>
     <g id="line2d_19">
      <g>
       <use xlink:href="#m2b9018e8cf" x="58.441875" y="285.331599" style="fill: #5c7a68; stroke: #5c7a68; stroke-width: 0.8"/>
      </g>
     </g>
     <g id="text_15">
      <!-- 1,500 -->
      <g style="fill: #5c7a68" transform="translate(22.81375 289.130818) scale(0.1 -0.1)">
       <use xlink:href="#DejaVuSans-31"/>
       <use xlink:href="#DejaVuSans-2c" transform="translate(63.623047 0)"/>
       <use xlink:href="#DejaVuSans-35" transform="translate(95.410156 0)"/>
       <use xlink:href="#DejaVuSans-30" transform="translate(159.033203 0)"/>
       <use xlink:href="#DejaVuSans-30" transform="translate(222.65625 0)"/>
      </g>
     </g>
    </g>
    <g id="ytick_5">
     <g id="line2d_20">
      <path d="M 58.441875 219.025371 
L 1022.809875 219.025371 
" clip-path="url(#pb5a89f3c2a)" style="fill: none; stroke: #d7e8db; stroke-width: 0.8; stroke-linecap: square"/>
     </g>
     <g id="line2d_21">
      <g>
       <use xlink:href="#m2b9018e8cf" x="58.441875" y="219.025371" style="fill: #5c7a68; stroke: #5c7a68; stroke-width: 0.8"/>
      </g>
     </g>
     <g id="text_16">
      <!-- 2,000 -->
      <g style="fill: #5c7a68" transform="translate(22.81375 222.82459) scale(0.1 -0.1)">
       <use xlink:href="#DejaVuSans-32"/>
       <use xlink:href="#DejaVuSans-2c" transform="translate(63.623047 0)"/>
       <use xlink:href="#DejaVuSans-30" transform="translate(95.410156 0)"/>
       <use xlink:href="#DejaVuSans-30" transform="translate(159.033203 0)"/>
       <use xlink:href="#DejaVuSans-30" transform="translate(222.65625 0)"/>
      </g>
     </g>
    </g>
    <g id="ytick_6">
     <g id="line2d_22">
      <path d="M 58.441875 152.719142 
L 1022.809875 152.719142 
" clip-path="url(#pb5a89f3c2a)" style="fill: none; stroke: #d7e8db; stroke-width: 0.8; stroke-linecap: square"/>
     </g>
     <g id="line2d_23">
      <g>
       <use xlink:href="#m2b9018e8cf" x="58.441875" y="152.719142" style="fill: #5c7a68; stroke: #5c7a68; stroke-width: 0.8"/>
      </g>
     </g>
     <g id="text_17">
      <!-- 2,500 -->
      <g style="fill: #5c7a68" transform="translate(22.81375 156.518361) scale(0.1 -0.1)">
       <use xlink:href="#DejaVuSans-32"/>
       <use xlink:href="#DejaVuSans-2c" transform="translate(63.623047 0)"/>
       <use xlink:href="#DejaVuSans-35" transform="translate(95.410156 0)"/>
       <use xlink:href="#DejaVuSans-30" transform="translate(159.033203 0)"/>
       <use xlink:href="#DejaVuSans-30" transform="translate(222.65625 0)"/>
      </g>
     </g>
    </g>
    <g id="ytick_7">
     <g id="line2d_24">
      <path d="M 58.441875 86.412914 
L 1022.809875 86.412914 
" clip-path="url(#pb5a89f3c2a)" style="fill: none; stroke: #d7e8db; stroke-width: 0.8; stroke-linecap: square"/>
     </g>
     <g id="line2d_25">
      <g>
       <use xlink:href="#m2b9018e8cf" x="58.441875" y="86.412914" style="fill: #5c7a68; stroke: #5c7a68; stroke-width: 0.8"/>
      </g>
     </g>
     <g id="text_18">
      <!-- 3,000 -->
      <g style="fill: #5c7a68" transform="translate(22.81375 90.212133) scale(0.1 -0.1)">
       <use xlink:href="#DejaVuSans-33"/>
       <use xlink:href="#DejaVuSans-2c" transform="translate(63.623047 0)"/>
       <use xlink:href="#DejaVuSans-30" transform="translate(95.410156 0)"/>
       <use xlink:href="#DejaVuSans-30" transform="translate(159.033203 0)"/>
       <use xlink:href="#DejaVuSans-30" transform="translate(222.65625 0)"/>
      </g>
     </g>
    </g>
    <g id="text_19">
     <!-- Prevalence per 100k -->
     <g style="fill: #173024" transform="translate(16.318125 316.770972) rotate(-90) scale(0.12 -0.12)">
      <defs>
       <path id="DejaVuSans-50" d="M 1259 4147 
L 1259 2394 
L 2053 2394 
Q 2494 2394 2734 2622 
Q 2975 2850 2975 3272 
Q 2975 3691 2734 3919 
Q 2494 4147 2053 4147 
L 1259 4147 
z
M 628 4666 
L 2053 4666 
Q 2838 4666 3239 4311 
Q 3641 3956 3641 3272 
Q 3641 2581 3239 2228 
Q 2838 1875 2053 1875 
L 1259 1875 
L 1259 0 
L 628 0 
L 628 4666 
z
" transform="scale(0.015625)"/>
       <path id="DejaVuSans-76" d="M 191 3500 
L 800 3500 
L 1894 563 
L 2988 3500 
L 3597 3500 
L 2284 0 
L 1503 0 
L 191 3500 
z
" transform="scale(0.015625)"/>
       <path id="DejaVuSans-6c" d="M 603 4863 
L 1178 4863 
L 1178 0 
L 603 0 
L 603 4863 
z
" transform="scale(0.015625)"/>
       <path id="DejaVuSans-6e" d="M 3513 2113 
L 3513 0 
L 2938 0 
L 2938 2094 
Q 2938 2591 2744 2837 
Q 2550 3084 2163 3084 
Q 1697 3084 1428 2787 
Q 1159 2491 1159 1978 
L 1159 0 
L 581 0 
L 581 3500 
L 1159 3500 
L 1159 2956 
Q 1366 3272 1645 3428 
Q 1925 3584 2291 3584 
Q 2894 3584 3203 3211 
Q 3513 2838 3513 2113 
z
" transform="scale(0.015625)"/>
       <path id="DejaVuSans-63" d="M 3122 3366 
L 3122 2828 
Q 2878 2963 2633 3030 
Q 2388 3097 2138 3097 
Q 1578 3097 1268 2742 
Q 959 2388 959 1747 
Q 959 1106 1268 751 
Q 1578 397 2138 397 
Q 2388 397 2633 464 
Q 2878 531 3122 666 
L 3122 134 
Q 2881 22 2623 -34 
Q 2366 -91 2075 -91 
Q 1284 -91 818 406 
Q 353 903 353 1747 
Q 353 2603 823 3093 
Q 1294 3584 2113 3584 
Q 2378 3584 2631 3529 
Q 2884 3475 3122 3366 
z
" transform="scale(0.015625)"/>
       <path id="DejaVuSans-20" transform="scale(0.015625)"/>
       <path id="DejaVuSans-70" d="M 1159 525 
L 1159 -1331 
L 581 -1331 
L 581 3500 
L 1159 3500 
L 1159 2969 
Q 1341 3281 1617 3432 
Q 1894 3584 2278 3584 
Q 2916 3584 3314 3078 
Q 3713 2572 3713 1747 
Q 3713 922 3314 415 
Q 2916 -91 2278 -91 
Q 1894 -91 1617 61 
Q 1341 213 1159 525 
z
M 3116 1747 
Q 3116 2381 2855 2742 
Q 2594 3103 2138 3103 
Q 1681 3103 1420 2742 
Q 1159 2381 1159 1747 
Q 1159 1113 1420 752 
Q 1681 391 2138 391 
Q 2594 391 2855 752 
Q 3116 1113 3116 1747 
z
" transform="scale(0.015625)"/>
       <path id="DejaVuSans-6b" d="M 581 4863 
L 1159 4863 
L 1159 1991 
L 2875 3500 
L 3609 3500 
L 1753 1863 
L 3688 0 
L 2938 0 
L 1159 1709 
L 1159 0 
L 581 0 
L 581 4863 
z
" transform="scale(0.015625)"/>
      </defs>
      <use xlink:href="#DejaVuSans-50"/>
      <use xlink:href="#DejaVuSans-72" transform="translate(58.552734 0)"/>
      <use xlink:href="#DejaVuSans-65" transform="translate(97.416016 0)"/>
      <use xlink:href="#DejaVuSans-76" transform="translate(158.939453 0)"/>
      <use xlink:href="#DejaVuSans-61" transform="translate(218.119141 0)"/>
      <use xlink:href="#DejaVuSans-6c" transform="translate(279.398438 0)"/>
      <use xlink:href="#DejaVuSans-65" transform="translate(307.181641 0)"/>
      <use xlink:href="#DejaVuSans-6e" transform="translate(368.705078 0)"/>
      <use xlink:href="#DejaVuSans-63" transform="translate(432.083984 0)"/>
      <use xlink:href="#DejaVuSans-65" transform="translate(487.064453 0)"/>
      <use xlink:href="#DejaVuSans-20" transform="translate(548.587891 0)"/>
      <use xlink:href="#DejaVuSans-70" transform="translate(580.375 0)"/>
      <use xlink:href="#DejaVuSans-65" transform="translate(643.851562 0)"/>
      <use xlink:href="#DejaVuSans-72" transform="translate(705.375 0)"/>
      <use xlink:href="#DejaVuSans-20" transform="translate(746.488281 0)"/>
      <use xlink:href="#DejaVuSans-31" transform="translate(778.275391 0)"/>
      <use xlink:href="#DejaVuSans-30" transform="translate(841.898438 0)"/>
      <use xlink:href="#DejaVuSans-30" transform="translate(905.521484 0)"/>
      <use xlink:href="#DejaVuSans-6b" transform="translate(969.144531 0)"/>
     </g>
    </g>
   </g>
   <g id="patch_4">
    <path d="M 58.441875 484.250285 
L 58.441875 26.042285 
" style="fill: none; stroke: #d7e8db; stroke-width: 0.8; stroke-linejoin: miter; stroke-linecap: square"/>
   </g>
   <g id="patch_5">
    <path d="M 58.441875 484.250285 
L 1022.809875 484.250285 
" style="fill: none; stroke: #d7e8db; stroke-width: 0.8; stroke-linejoin: miter; stroke-linecap: square"/>
   </g>
   <g id="line2d_26">
    <path d="M 58.441875 468.67993 
L 66.769287 472.627344 
L 74.29082 456.618387 
L 82.618232 421.968865 
L 90.677017 377.889409 
L 99.004429 244.554538 
L 107.063214 306.178056 
L 115.390626 366.70507 
L 123.718038 429.205791 
L 131.776823 410.345924 
L 140.104235 405.302006 
L 148.16302 455.960485 
L 156.490432 456.684645 
L 164.817844 462.810343 
L 172.339377 460.841369 
L 180.666789 426.056156 
L 188.725574 226.97098 
L 197.052986 117.145971 
L 205.111771 148.649559 
L 213.439183 223.033031 
L 221.766595 371.581202 
L 229.82538 398.490517 
L 238.152792 412.929661 
L 246.211578 455.371996 
L 254.538989 456.684645 
L 262.866401 466.135976 
L 270.387934 461.823046 
L 278.715346 436.161108 
L 286.774131 374.054907 
L 295.101543 326.397024 
L 303.160328 335.454178 
L 311.48774 361.116115 
L 319.815152 429.476066 
L 327.873937 422.791023 
L 336.201349 437.023694 
L 344.260135 458.588348 
L 352.587546 457.510115 
L 360.914958 463.095357 
L 368.705117 462.881671 
L 377.032529 376.979842 
L 385.091315 279.538962 
L 393.418726 122.90702 
L 401.477512 94.273077 
L 409.804923 268.854655 
L 418.132335 377.620901 
L 426.191121 412.238055 
L 434.518532 437.239334 
L 442.577318 455.616342 
L 450.90473 464.884803 
L 459.232141 471.339963 
L 466.753674 463.59377 
L 475.081086 437.342783 
L 483.139872 405.712495 
L 491.467283 366.981531 
L 499.526069 357.29879 
L 507.853481 420.774537 
L 516.180892 431.317967 
L 524.239678 452.619997 
L 532.567089 456.493094 
L 540.625875 451.544137 
L 548.953287 470.171677 
L 557.280698 471.904428 
L 564.802232 464.107045 
L 573.129643 450.894813 
L 581.188429 376.60308 
L 589.51584 255.960237 
L 597.574626 312.27467 
L 605.902038 388.732343 
L 614.229449 421.438033 
L 622.288235 433.783889 
L 630.615647 439.198738 
L 638.674432 457.82582 
L 647.001844 467.339251 
L 655.329256 472.476781 
L 662.850789 462.62985 
L 671.1782 448.287581 
L 679.236986 423.028062 
L 687.564398 365.444923 
L 695.623183 393.273206 
L 703.950595 409.970176 
L 712.278006 446.361007 
L 720.336792 453.211046 
L 728.664204 457.492321 
L 736.722989 473.333036 
L 745.050401 471.696726 
L 753.377813 469.994548 
L 761.167972 463.824155 
L 769.495384 431.695555 
L 777.554169 375.73647 
L 785.881581 350.842124 
L 793.940366 361.267961 
L 802.267778 404.03517 
L 810.59519 449.993963 
L 818.653975 442.334164 
L 826.981387 451.057824 
L 835.040172 464.462472 
L 843.367584 460.632572 
L 851.694996 470.998635 
L 859.216529 466.371074 
L 867.543941 444.916022 
L 875.602726 372.978492 
L 883.930138 323.547733 
L 891.988923 256.868794 
L 900.316335 335.537321 
L 908.643747 373.609523 
L 916.702532 386.230142 
L 925.029944 419.254096 
L 933.08873 447.860833 
" clip-path="url(#pb5a89f3c2a)" style="fill: none; stroke: #1f2933; stroke-width: 2.4; stroke-linecap: square"/>
   </g>
   <g id="text_20">
    <!-- Observed monthly history transitions into the V2 latest-issue residual forecast -->
    <g style="fill: #5c7a68" transform="translate(58.441875 14.798437) scale(0.1 -0.1)">
     <defs>
      <path id="DejaVuSans-4f" d="M 2522 4238 
Q 1834 4238 1429 3725 
Q 1025 3213 1025 2328 
Q 1025 1447 1429 934 
Q 1834 422 2522 422 
Q 3209 422 3611 934 
Q 4013 1447 4013 2328 
Q 4013 3213 3611 3725 
Q 3209 4238 2522 4238 
z
M 2522 4750 
Q 3503 4750 4090 4092 
Q 4678 3434 4678 2328 
Q 4678 1225 4090 567 
Q 3503 -91 2522 -91 
Q 1538 -91 948 565 
Q 359 1222 359 2328 
Q 359 3434 948 4092 
Q 1538 4750 2522 4750 
z
" transform="scale(0.015625)"/>
      <path id="DejaVuSans-62" d="M 3116 1747 
Q 3116 2381 2855 2742 
Q 2594 3103 2138 3103 
Q 1681 3103 1420 2742 
Q 1159 2381 1159 1747 
Q 1159 1113 1420 752 
Q 1681 391 2138 391 
Q 2594 391 2855 752 
Q 3116 1113 3116 1747 
z
M 1159 2969 
Q 1341 3281 1617 3432 
Q 1894 3584 2278 3584 
Q 2916 3584 3314 3078 
Q 3713 2572 3713 1747 
Q 3713 922 3314 415 
Q 2916 -91 2278 -91 
Q 1894 -91 1617 61 
Q 1341 213 1159 525 
L 1159 0 
L 581 0 
L 581 4863 
L 1159 4863 
L 1159 2969 
z
" transform="scale(0.015625)"/>
      <path id="DejaVuSans-73" d="M 2834 3397 
L 2834 2853 
Q 2591 2978 2328 3040 
Q 2066 3103 1784 3103 
Q 1356 3103 1142 2972 
Q 928 2841 928 2578 
Q 928 2378 1081 2264 
Q 1234 2150 1697 2047 
L 1894 2003 
Q 2506 1872 2764 1633 
Q 3022 1394 3022 966 
Q 3022 478 2636 193 
Q 2250 -91 1575 -91 
Q 1294 -91 989 -36 
Q 684 19 347 128 
L 347 722 
Q 666 556 975 473 
Q 1284 391 1588 391 
Q 1994 391 2212 530 
Q 2431 669 2431 922 
Q 2431 1156 2273 1281 
Q 2116 1406 1581 1522 
L 1381 1569 
Q 847 1681 609 1914 
Q 372 2147 372 2553 
Q 372 3047 722 3315 
Q 1072 3584 1716 3584 
Q 2034 3584 2315 3537 
Q 2597 3491 2834 3397 
z
" transform="scale(0.015625)"/>
      <path id="DejaVuSans-64" d="M 2906 2969 
L 2906 4863 
L 3481 4863 
L 3481 0 
L 2906 0 
L 2906 525 
Q 2725 213 2448 61 
Q 2172 -91 1784 -91 
Q 1150 -91 751 415 
Q 353 922 353 1747 
Q 353 2572 751 3078 
Q 1150 3584 1784 3584 
Q 2172 3584 2448 3432 
Q 2725 3281 2906 2969 
z
M 947 1747 
Q 947 1113 1208 752 
Q 1469 391 1925 391 
Q 2381 391 2643 752 
Q 2906 1113 2906 1747 
Q 2906 2381 2643 2742 
Q 2381 3103 1925 3103 
Q 1469 3103 1208 2742 
Q 947 2381 947 1747 
z
" transform="scale(0.015625)"/>
      <path id="DejaVuSans-6d" d="M 3328 2828 
Q 3544 3216 3844 3400 
Q 4144 3584 4550 3584 
Q 5097 3584 5394 3201 
Q 5691 2819 5691 2113 
L 5691 0 
L 5113 0 
L 5113 2094 
Q 5113 2597 4934 2840 
Q 4756 3084 4391 3084 
Q 3944 3084 3684 2787 
Q 3425 2491 3425 1978 
L 3425 0 
L 2847 0 
L 2847 2094 
Q 2847 2600 2669 2842 
Q 2491 3084 2119 3084 
Q 1678 3084 1418 2786 
Q 1159 2488 1159 1978 
L 1159 0 
L 581 0 
L 581 3500 
L 1159 3500 
L 1159 2956 
Q 1356 3278 1631 3431 
Q 1906 3584 2284 3584 
Q 2666 3584 2933 3390 
Q 3200 3197 3328 2828 
z
" transform="scale(0.015625)"/>
      <path id="DejaVuSans-6f" d="M 1959 3097 
Q 1497 3097 1228 2736 
Q 959 2375 959 1747 
Q 959 1119 1226 758 
Q 1494 397 1959 397 
Q 2419 397 2687 759 
Q 2956 1122 2956 1747 
Q 2956 2369 2687 2733 
Q 2419 3097 1959 3097 
z
M 1959 3584 
Q 2709 3584 3137 3096 
Q 3566 2609 3566 1747 
Q 3566 888 3137 398 
Q 2709 -91 1959 -91 
Q 1206 -91 779 398 
Q 353 888 353 1747 
Q 353 2609 779 3096 
Q 1206 3584 1959 3584 
z
" transform="scale(0.015625)"/>
      <path id="DejaVuSans-74" d="M 1172 4494 
L 1172 3500 
L 2356 3500 
L 2356 3053 
L 1172 3053 
L 1172 1153 
Q 1172 725 1289 603 
Q 1406 481 1766 481 
L 2356 481 
L 2356 0 
L 1766 0 
Q 1100 0 847 248 
Q 594 497 594 1153 
L 594 3053 
L 172 3053 
L 172 3500 
L 594 3500 
L 594 4494 
L 1172 4494 
z
" transform="scale(0.015625)"/>
      <path id="DejaVuSans-68" d="M 3513 2113 
L 3513 0 
L 2938 0 
L 2938 2094 
Q 2938 2591 2744 2837 
Q 2550 3084 2163 3084 
Q 1697 3084 1428 2787 
Q 1159 2491 1159 1978 
L 1159 0 
L 581 0 
L 581 4863 
L 1159 4863 
L 1159 2956 
Q 1366 3272 1645 3428 
Q 1925 3584 2291 3584 
Q 2894 3584 3203 3211 
Q 3513 2838 3513 2113 
z
" transform="scale(0.015625)"/>
      <path id="DejaVuSans-79" d="M 2059 -325 
Q 1816 -950 1584 -1140 
Q 1353 -1331 966 -1331 
L 506 -1331 
L 506 -850 
L 844 -850 
Q 1081 -850 1212 -737 
Q 1344 -625 1503 -206 
L 1606 56 
L 191 3500 
L 800 3500 
L 1894 763 
L 2988 3500 
L 3597 3500 
L 2059 -325 
z
" transform="scale(0.015625)"/>
      <path id="DejaVuSans-69" d="M 603 3500 
L 1178 3500 
L 1178 0 
L 603 0 
L 603 3500 
z
M 603 4863 
L 1178 4863 
L 1178 4134 
L 603 4134 
L 603 4863 
z
" transform="scale(0.015625)"/>
      <path id="DejaVuSans-56" d="M 1831 0 
L 50 4666 
L 709 4666 
L 2188 738 
L 3669 4666 
L 4325 4666 
L 2547 0 
L 1831 0 
z
" transform="scale(0.015625)"/>
      <path id="DejaVuSans-2d" d="M 313 2009 
L 1997 2009 
L 1997 1497 
L 313 1497 
L 313 2009 
z
" transform="scale(0.015625)"/>
      <path id="DejaVuSans-75" d="M 544 1381 
L 544 3500 
L 1119 3500 
L 1119 1403 
Q 1119 906 1312 657 
Q 1506 409 1894 409 
Q 2359 409 2629 706 
Q 2900 1003 2900 1516 
L 2900 3500 
L 3475 3500 
L 3475 0 
L 2900 0 
L 2900 538 
Q 2691 219 2414 64 
Q 2138 -91 1772 -91 
Q 1169 -91 856 284 
Q 544 659 544 1381 
z
M 1991 3584 
L 1991 3584 
z
" transform="scale(0.015625)"/>
      <path id="DejaVuSans-66" d="M 2375 4863 
L 2375 4384 
L 1825 4384 
Q 1516 4384 1395 4259 
Q 1275 4134 1275 3809 
L 1275 3500 
L 2222 3500 
L 2222 3053 
L 1275 3053 
L 1275 0 
L 697 0 
L 697 3053 
L 147 3053 
L 147 3500 
L 697 3500 
L 697 3744 
Q 697 4328 969 4595 
Q 1241 4863 1831 4863 
L 2375 4863 
z
" transform="scale(0.015625)"/>
     </defs>
     <use xlink:href="#DejaVuSans-4f"/>
     <use xlink:href="#DejaVuSans-62" transform="translate(78.710938 0)"/>
     <use xlink:href="#DejaVuSans-73" transform="translate(142.1875 0)"/>
     <use xlink:href="#DejaVuSans-65" transform="translate(194.287109 0)"/>
     <use xlink:href="#DejaVuSans-72" transform="translate(255.810547 0)"/>
     <use xlink:href="#DejaVuSans-76" transform="translate(296.923828 0)"/>
     <use xlink:href="#DejaVuSans-65" transform="translate(356.103516 0)"/>
     <use xlink:href="#DejaVuSans-64" transform="translate(417.626953 0)"/>
     <use xlink:href="#DejaVuSans-20" transform="translate(481.103516 0)"/>
     <use xlink:href="#DejaVuSans-6d" transform="translate(512.890625 0)"/>
     <use xlink:href="#DejaVuSans-6f" transform="translate(610.302734 0)"/>
     <use xlink:href="#DejaVuSans-6e" transform="translate(671.484375 0)"/>
     <use xlink:href="#DejaVuSans-74" transform="translate(734.863281 0)"/>
     <use xlink:href="#DejaVuSans-68" transform="translate(774.072266 0)"/>
     <use xlink:href="#DejaVuSans-6c" transform="translate(837.451172 0)"/>
     <use xlink:href="#DejaVuSans-79" transform="translate(865.234375 0)"/>
     <use xlink:href="#DejaVuSans-20" transform="translate(924.414062 0)"/>
     <use xlink:href="#DejaVuSans-68" transform="translate(956.201172 0)"/>
     <use xlink:href="#DejaVuSans-69" transform="translate(1019.580078 0)"/>
     <use xlink:href="#DejaVuSans-73" transform="translate(1047.363281 0)"/>
     <use xlink:href="#DejaVuSans-74" transform="translate(1099.462891 0)"/>
     <use xlink:href="#DejaVuSans-6f" transform="translate(1138.671875 0)"/>
     <use xlink:href="#DejaVuSans-72" transform="translate(1199.853516 0)"/>
     <use xlink:href="#DejaVuSans-79" transform="translate(1240.966797 0)"/>
     <use xlink:href="#DejaVuSans-20" transform="translate(1300.146484 0)"/>
     <use xlink:href="#DejaVuSans-74" transform="translate(1331.933594 0)"/>
     <use xlink:href="#DejaVuSans-72" transform="translate(1371.142578 0)"/>
     <use xlink:href="#DejaVuSans-61" transform="translate(1412.255859 0)"/>
     <use xlink:href="#DejaVuSans-6e" transform="translate(1473.535156 0)"/>
     <use xlink:href="#DejaVuSans-73" transform="translate(1536.914062 0)"/>
     <use xlink:href="#DejaVuSans-69" transform="translate(1589.013672 0)"/>
     <use xlink:href="#DejaVuSans-74" transform="translate(1616.796875 0)"/>
     <use xlink:href="#DejaVuSans-69" transform="translate(1656.005859 0)"/>
     <use xlink:href="#DejaVuSans-6f" transform="translate(1683.789062 0)"/>
     <use xlink:href="#DejaVuSans-6e" transform="translate(1744.970703 0)"/>
     <use xlink:href="#DejaVuSans-73" transform="translate(1808.349609 0)"/>
     <use xlink:href="#DejaVuSans-20" transform="translate(1860.449219 0)"/>
     <use xlink:href="#DejaVuSans-69" transform="translate(1892.236328 0)"/>
     <use xlink:href="#DejaVuSans-6e" transform="translate(1920.019531 0)"/>
     <use xlink:href="#DejaVuSans-74" transform="translate(1983.398438 0)"/>
     <use xlink:href="#DejaVuSans-6f" transform="translate(2022.607422 0)"/>
     <use xlink:href="#DejaVuSans-20" transform="translate(2083.789062 0)"/>
     <use xlink:href="#DejaVuSans-74" transform="translate(2115.576172 0)"/>
     <use xlink:href="#DejaVuSans-68" transform="translate(2154.785156 0)"/>
     <use xlink:href="#DejaVuSans-65" transform="translate(2218.164062 0)"/>
     <use xlink:href="#DejaVuSans-20" transform="translate(2279.6875 0)"/>
     <use xlink:href="#DejaVuSans-56" transform="translate(2311.474609 0)"/>
     <use xlink:href="#DejaVuSans-32" transform="translate(2379.882812 0)"/>
     <use xlink:href="#DejaVuSans-20" transform="translate(2443.505859 0)"/>
     <use xlink:href="#DejaVuSans-6c" transform="translate(2475.292969 0)"/>
     <use xlink:href="#DejaVuSans-61" transform="translate(2503.076172 0)"/>
     <use xlink:href="#DejaVuSans-74" transform="translate(2564.355469 0)"/>
     <use xlink:href="#DejaVuSans-65" transform="translate(2603.564453 0)"/>
     <use xlink:href="#DejaVuSans-73" transform="translate(2665.087891 0)"/>
     <use xlink:href="#DejaVuSans-74" transform="translate(2717.1875 0)"/>
     <use xlink:href="#DejaVuSans-2d" transform="translate(2756.396484 0)"/>
     <use xlink:href="#DejaVuSans-69" transform="translate(2792.480469 0)"/>
     <use xlink:href="#DejaVuSans-73" transform="translate(2820.263672 0)"/>
     <use xlink:href="#DejaVuSans-73" transform="translate(2872.363281 0)"/>
     <use xlink:href="#DejaVuSans-75" transform="translate(2924.462891 0)"/>
     <use xlink:href="#DejaVuSans-65" transform="translate(2987.841797 0)"/>
     <use xlink:href="#DejaVuSans-20" transform="translate(3049.365234 0)"/>
     <use xlink:href="#DejaVuSans-72" transform="translate(3081.152344 0)"/>
     <use xlink:href="#DejaVuSans-65" transform="translate(3120.015625 0)"/>
     <use xlink:href="#DejaVuSans-73" transform="translate(3181.539062 0)"/>
     <use xlink:href="#DejaVuSans-69" transform="translate(3233.638672 0)"/>
     <use xlink:href="#DejaVuSans-64" transform="translate(3261.421875 0)"/>
     <use xlink:href="#DejaVuSans-75" transform="translate(3324.898438 0)"/>
     <use xlink:href="#DejaVuSans-61" transform="translate(3388.277344 0)"/>
     <use xlink:href="#DejaVuSans-6c" transform="translate(3449.556641 0)"/>
     <use xlink:href="#DejaVuSans-20" transform="translate(3477.339844 0)"/>
     <use xlink:href="#DejaVuSans-66" transform="translate(3509.126953 0)"/>
     <use xlink:href="#DejaVuSans-6f" transform="translate(3544.332031 0)"/>
     <use xlink:href="#DejaVuSans-72" transform="translate(3605.513672 0)"/>
     <use xlink:href="#DejaVuSans-65" transform="translate(3644.376953 0)"/>
     <use xlink:href="#DejaVuSans-63" transform="translate(3705.900391 0)"/>
     <use xlink:href="#DejaVuSans-61" transform="translate(3760.880859 0)"/>
     <use xlink:href="#DejaVuSans-73" transform="translate(3822.160156 0)"/>
     <use xlink:href="#DejaVuSans-74" transform="translate(3874.259766 0)"/>
    </g>
   </g>
   <g id="text_21">
    <!-- Forecast window -->
    <g style="fill: #0b6e4f" transform="translate(810.648915 56.551122) scale(0.1 -0.1)">
     <defs>
      <path id="DejaVuSans-Bold-46" d="M 588 4666 
L 3834 4666 
L 3834 3756 
L 1791 3756 
L 1791 2888 
L 3713 2888 
L 3713 1978 
L 1791 1978 
L 1791 0 
L 588 0 
L 588 4666 
z
" transform="scale(0.015625)"/>
      <path id="DejaVuSans-Bold-6f" d="M 2203 2784 
Q 1831 2784 1636 2517 
Q 1441 2250 1441 1747 
Q 1441 1244 1636 976 
Q 1831 709 2203 709 
Q 2569 709 2762 976 
Q 2956 1244 2956 1747 
Q 2956 2250 2762 2517 
Q 2569 2784 2203 2784 
z
M 2203 3584 
Q 3106 3584 3614 3096 
Q 4122 2609 4122 1747 
Q 4122 884 3614 396 
Q 3106 -91 2203 -91 
Q 1297 -91 786 396 
Q 275 884 275 1747 
Q 275 2609 786 3096 
Q 1297 3584 2203 3584 
z
" transform="scale(0.015625)"/>
      <path id="DejaVuSans-Bold-72" d="M 3138 2547 
Q 2991 2616 2845 2648 
Q 2700 2681 2553 2681 
Q 2122 2681 1889 2404 
Q 1656 2128 1656 1613 
L 1656 0 
L 538 0 
L 538 3500 
L 1656 3500 
L 1656 2925 
Q 1872 3269 2151 3426 
Q 2431 3584 2822 3584 
Q 2878 3584 2943 3579 
Q 3009 3575 3134 3559 
L 3138 2547 
z
" transform="scale(0.015625)"/>
      <path id="DejaVuSans-Bold-65" d="M 4031 1759 
L 4031 1441 
L 1416 1441 
Q 1456 1047 1700 850 
Q 1944 653 2381 653 
Q 2734 653 3104 758 
Q 3475 863 3866 1075 
L 3866 213 
Q 3469 63 3072 -14 
Q 2675 -91 2278 -91 
Q 1328 -91 801 392 
Q 275 875 275 1747 
Q 275 2603 792 3093 
Q 1309 3584 2216 3584 
Q 3041 3584 3536 3087 
Q 4031 2591 4031 1759 
z
M 2881 2131 
Q 2881 2450 2695 2645 
Q 2509 2841 2209 2841 
Q 1884 2841 1681 2658 
Q 1478 2475 1428 2131 
L 2881 2131 
z
" transform="scale(0.015625)"/>
      <path id="DejaVuSans-Bold-63" d="M 3366 3391 
L 3366 2478 
Q 3138 2634 2908 2709 
Q 2678 2784 2431 2784 
Q 1963 2784 1702 2511 
Q 1441 2238 1441 1747 
Q 1441 1256 1702 982 
Q 1963 709 2431 709 
Q 2694 709 2930 787 
Q 3166 866 3366 1019 
L 3366 103 
Q 3103 6 2833 -42 
Q 2563 -91 2291 -91 
Q 1344 -91 809 395 
Q 275 881 275 1747 
Q 275 2613 809 3098 
Q 1344 3584 2291 3584 
Q 2566 3584 2833 3536 
Q 3100 3488 3366 3391 
z
" transform="scale(0.015625)"/>
      <path id="DejaVuSans-Bold-61" d="M 2106 1575 
Q 1756 1575 1579 1456 
Q 1403 1338 1403 1106 
Q 1403 894 1545 773 
Q 1688 653 1941 653 
Q 2256 653 2472 879 
Q 2688 1106 2688 1447 
L 2688 1575 
L 2106 1575 
z
M 3816 1997 
L 3816 0 
L 2688 0 
L 2688 519 
Q 2463 200 2181 54 
Q 1900 -91 1497 -91 
Q 953 -91 614 226 
Q 275 544 275 1050 
Q 275 1666 698 1953 
Q 1122 2241 2028 2241 
L 2688 2241 
L 2688 2328 
Q 2688 2594 2478 2717 
Q 2269 2841 1825 2841 
Q 1466 2841 1156 2769 
Q 847 2697 581 2553 
L 581 3406 
Q 941 3494 1303 3539 
Q 1666 3584 2028 3584 
Q 2975 3584 3395 3211 
Q 3816 2838 3816 1997 
z
" transform="scale(0.015625)"/>
      <path id="DejaVuSans-Bold-73" d="M 3272 3391 
L 3272 2541 
Q 2913 2691 2578 2766 
Q 2244 2841 1947 2841 
Q 1628 2841 1473 2761 
Q 1319 2681 1319 2516 
Q 1319 2381 1436 2309 
Q 1553 2238 1856 2203 
L 2053 2175 
Q 2913 2066 3209 1816 
Q 3506 1566 3506 1031 
Q 3506 472 3093 190 
Q 2681 -91 1863 -91 
Q 1516 -91 1145 -36 
Q 775 19 384 128 
L 384 978 
Q 719 816 1070 734 
Q 1422 653 1784 653 
Q 2113 653 2278 743 
Q 2444 834 2444 1013 
Q 2444 1163 2330 1236 
Q 2216 1309 1875 1350 
L 1678 1375 
Q 931 1469 631 1722 
Q 331 1975 331 2491 
Q 331 3047 712 3315 
Q 1094 3584 1881 3584 
Q 2191 3584 2531 3537 
Q 2872 3491 3272 3391 
z
" transform="scale(0.015625)"/>
      <path id="DejaVuSans-Bold-74" d="M 1759 4494 
L 1759 3500 
L 2913 3500 
L 2913 2700 
L 1759 2700 
L 1759 1216 
Q 1759 972 1856 886 
Q 1953 800 2241 800 
L 2816 800 
L 2816 0 
L 1856 0 
Q 1194 0 917 276 
Q 641 553 641 1216 
L 641 2700 
L 84 2700 
L 84 3500 
L 641 3500 
L 641 4494 
L 1759 4494 
z
" transform="scale(0.015625)"/>
      <path id="DejaVuSans-Bold-20" transform="scale(0.015625)"/>
      <path id="DejaVuSans-Bold-77" d="M 225 3500 
L 1313 3500 
L 1900 1088 
L 2491 3500 
L 3425 3500 
L 4013 1113 
L 4603 3500 
L 5691 3500 
L 4769 0 
L 3547 0 
L 2956 2406 
L 2369 0 
L 1147 0 
L 225 3500 
z
" transform="scale(0.015625)"/>
      <path id="DejaVuSans-Bold-69" d="M 538 3500 
L 1656 3500 
L 1656 0 
L 538 0 
L 538 3500 
z
M 538 4863 
L 1656 4863 
L 1656 3950 
L 538 3950 
L 538 4863 
z
" transform="scale(0.015625)"/>
      <path id="DejaVuSans-Bold-6e" d="M 4056 2131 
L 4056 0 
L 2931 0 
L 2931 347 
L 2931 1631 
Q 2931 2084 2911 2256 
Q 2891 2428 2841 2509 
Q 2775 2619 2662 2680 
Q 2550 2741 2406 2741 
Q 2056 2741 1856 2470 
Q 1656 2200 1656 1722 
L 1656 0 
L 538 0 
L 538 3500 
L 1656 3500 
L 1656 2988 
Q 1909 3294 2193 3439 
Q 2478 3584 2822 3584 
Q 3428 3584 3742 3212 
Q 4056 2841 4056 2131 
z
" transform="scale(0.015625)"/>
      <path id="DejaVuSans-Bold-64" d="M 2919 2988 
L 2919 4863 
L 4044 4863 
L 4044 0 
L 2919 0 
L 2919 506 
Q 2688 197 2409 53 
Q 2131 -91 1766 -91 
Q 1119 -91 703 423 
Q 288 938 288 1747 
Q 288 2556 703 3070 
Q 1119 3584 1766 3584 
Q 2128 3584 2408 3439 
Q 2688 3294 2919 2988 
z
M 2181 722 
Q 2541 722 2730 984 
Q 2919 1247 2919 1747 
Q 2919 2247 2730 2509 
Q 2541 2772 2181 2772 
Q 1825 2772 1636 2509 
Q 1447 2247 1447 1747 
Q 1447 1247 1636 984 
Q 1825 722 2181 722 
z
" transform="scale(0.015625)"/>
     </defs>
     <use xlink:href="#DejaVuSans-Bold-46"/>
     <use xlink:href="#DejaVuSans-Bold-6f" transform="translate(64.310547 0)"/>
     <use xlink:href="#DejaVuSans-Bold-72" transform="translate(133.011719 0)"/>
     <use xlink:href="#DejaVuSans-Bold-65" transform="translate(182.328125 0)"/>
     <use xlink:href="#DejaVuSans-Bold-63" transform="translate(250.150391 0)"/>
     <use xlink:href="#DejaVuSans-Bold-61" transform="translate(309.427734 0)"/>
     <use xlink:href="#DejaVuSans-Bold-73" transform="translate(376.908203 0)"/>
     <use xlink:href="#DejaVuSans-Bold-74" transform="translate(436.429688 0)"/>
     <use xlink:href="#DejaVuSans-Bold-20" transform="translate(484.232422 0)"/>
     <use xlink:href="#DejaVuSans-Bold-77" transform="translate(519.046875 0)"/>
     <use xlink:href="#DejaVuSans-Bold-69" transform="translate(611.429688 0)"/>
     <use xlink:href="#DejaVuSans-Bold-6e" transform="translate(645.707031 0)"/>
     <use xlink:href="#DejaVuSans-Bold-64" transform="translate(716.898438 0)"/>
     <use xlink:href="#DejaVuSans-Bold-6f" transform="translate(788.480469 0)"/>
     <use xlink:href="#DejaVuSans-Bold-77" transform="translate(857.181641 0)"/>
    </g>
   </g>
   <g id="text_22">
    <g id="patch_6">
     <path d="M 874.111933 93.659238 
L 1008.344355 93.659238 
Q 1012.808355 93.659238 1012.808355 89.195238 
L 1012.808355 48.952685 
Q 1012.808355 44.488685 1008.344355 44.488685 
L 874.111933 44.488685 
Q 869.647933 44.488685 869.647933 48.952685 
L 869.647933 89.195238 
Q 869.647933 93.659238 874.111933 93.659238 
z
" style="fill: #ffffff; stroke: #5bae6a; stroke-width: 1.2; stroke-linejoin: miter"/>
    </g>
    <!-- Holdout RMSE: 371.6 -->
    <g style="fill: #173024" transform="translate(910.007027 56.019232) scale(0.093 -0.093)">
     <defs>
      <path id="DejaVuSans-48" d="M 628 4666 
L 1259 4666 
L 1259 2753 
L 3553 2753 
L 3553 4666 
L 4184 4666 
L 4184 0 
L 3553 0 
L 3553 2222 
L 1259 2222 
L 1259 0 
L 628 0 
L 628 4666 
z
" transform="scale(0.015625)"/>
      <path id="DejaVuSans-52" d="M 2841 2188 
Q 3044 2119 3236 1894 
Q 3428 1669 3622 1275 
L 4263 0 
L 3584 0 
L 2988 1197 
Q 2756 1666 2539 1819 
Q 2322 1972 1947 1972 
L 1259 1972 
L 1259 0 
L 628 0 
L 628 4666 
L 2053 4666 
Q 2853 4666 3247 4331 
Q 3641 3997 3641 3322 
Q 3641 2881 3436 2590 
Q 3231 2300 2841 2188 
z
M 1259 4147 
L 1259 2491 
L 2053 2491 
Q 2509 2491 2742 2702 
Q 2975 2913 2975 3322 
Q 2975 3731 2742 3939 
Q 2509 4147 2053 4147 
L 1259 4147 
z
" transform="scale(0.015625)"/>
      <path id="DejaVuSans-4d" d="M 628 4666 
L 1569 4666 
L 2759 1491 
L 3956 4666 
L 4897 4666 
L 4897 0 
L 4281 0 
L 4281 4097 
L 3078 897 
L 2444 897 
L 1241 4097 
L 1241 0 
L 628 0 
L 628 4666 
z
" transform="scale(0.015625)"/>
      <path id="DejaVuSans-53" d="M 3425 4513 
L 3425 3897 
Q 3066 4069 2747 4153 
Q 2428 4238 2131 4238 
Q 1616 4238 1336 4038 
Q 1056 3838 1056 3469 
Q 1056 3159 1242 3001 
Q 1428 2844 1947 2747 
L 2328 2669 
Q 3034 2534 3370 2195 
Q 3706 1856 3706 1288 
Q 3706 609 3251 259 
Q 2797 -91 1919 -91 
Q 1588 -91 1214 -16 
Q 841 59 441 206 
L 441 856 
Q 825 641 1194 531 
Q 1563 422 1919 422 
Q 2459 422 2753 634 
Q 3047 847 3047 1241 
Q 3047 1584 2836 1778 
Q 2625 1972 2144 2069 
L 1759 2144 
Q 1053 2284 737 2584 
Q 422 2884 422 3419 
Q 422 4038 858 4394 
Q 1294 4750 2059 4750 
Q 2388 4750 2728 4690 
Q 3069 4631 3425 4513 
z
" transform="scale(0.015625)"/>
      <path id="DejaVuSans-45" d="M 628 4666 
L 3578 4666 
L 3578 4134 
L 1259 4134 
L 1259 2753 
L 3481 2753 
L 3481 2222 
L 1259 2222 
L 1259 531 
L 3634 531 
L 3634 0 
L 628 0 
L 628 4666 
z
" transform="scale(0.015625)"/>
      <path id="DejaVuSans-3a" d="M 750 794 
L 1409 794 
L 1409 0 
L 750 0 
L 750 794 
z
M 750 3309 
L 1409 3309 
L 1409 2516 
L 750 2516 
L 750 3309 
z
" transform="scale(0.015625)"/>
     </defs>
     <use xlink:href="#DejaVuSans-48"/>
     <use xlink:href="#DejaVuSans-6f" transform="translate(75.195312 0)"/>
     <use xlink:href="#DejaVuSans-6c" transform="translate(136.376953 0)"/>
     <use xlink:href="#DejaVuSans-64" transform="translate(164.160156 0)"/>
     <use xlink:href="#DejaVuSans-6f" transform="translate(227.636719 0)"/>
     <use xlink:href="#DejaVuSans-75" transform="translate(288.818359 0)"/>
     <use xlink:href="#DejaVuSans-74" transform="translate(352.197266 0)"/>
     <use xlink:href="#DejaVuSans-20" transform="translate(391.40625 0)"/>
     <use xlink:href="#DejaVuSans-52" transform="translate(423.193359 0)"/>
     <use xlink:href="#DejaVuSans-4d" transform="translate(492.675781 0)"/>
     <use xlink:href="#DejaVuSans-53" transform="translate(578.955078 0)"/>
     <use xlink:href="#DejaVuSans-45" transform="translate(642.431641 0)"/>
     <use xlink:href="#DejaVuSans-3a" transform="translate(705.615234 0)"/>
     <use xlink:href="#DejaVuSans-20" transform="translate(739.306641 0)"/>
     <use xlink:href="#DejaVuSans-33" transform="translate(771.09375 0)"/>
     <use xlink:href="#DejaVuSans-37" transform="translate(834.716797 0)"/>
     <use xlink:href="#DejaVuSans-31" transform="translate(898.339844 0)"/>
     <use xlink:href="#DejaVuSans-2e" transform="translate(961.962891 0)"/>
     <use xlink:href="#DejaVuSans-36" transform="translate(993.75 0)"/>
    </g>
    <!-- Baseline RMSE: 401.5 -->
    <g style="fill: #173024" transform="translate(906.978714 66.433197) scale(0.093 -0.093)">
     <defs>
      <path id="DejaVuSans-42" d="M 1259 2228 
L 1259 519 
L 2272 519 
Q 2781 519 3026 730 
Q 3272 941 3272 1375 
Q 3272 1813 3026 2020 
Q 2781 2228 2272 2228 
L 1259 2228 
z
M 1259 4147 
L 1259 2741 
L 2194 2741 
Q 2656 2741 2882 2914 
Q 3109 3088 3109 3444 
Q 3109 3797 2882 3972 
Q 2656 4147 2194 4147 
L 1259 4147 
z
M 628 4666 
L 2241 4666 
Q 2963 4666 3353 4366 
Q 3744 4066 3744 3513 
Q 3744 3084 3544 2831 
Q 3344 2578 2956 2516 
Q 3422 2416 3680 2098 
Q 3938 1781 3938 1306 
Q 3938 681 3513 340 
Q 3088 0 2303 0 
L 628 0 
L 628 4666 
z
" transform="scale(0.015625)"/>
     </defs>
     <use xlink:href="#DejaVuSans-42"/>
     <use xlink:href="#DejaVuSans-61" transform="translate(68.603516 0)"/>
     <use xlink:href="#DejaVuSans-73" transform="translate(129.882812 0)"/>
     <use xlink:href="#DejaVuSans-65" transform="translate(181.982422 0)"/>
     <use xlink:href="#DejaVuSans-6c" transform="translate(243.505859 0)"/>
     <use xlink:href="#DejaVuSans-69" transform="translate(271.289062 0)"/>
     <use xlink:href="#DejaVuSans-6e" transform="translate(299.072266 0)"/>
     <use xlink:href="#DejaVuSans-65" transform="translate(362.451172 0)"/>
     <use xlink:href="#DejaVuSans-20" transform="translate(423.974609 0)"/>
     <use xlink:href="#DejaVuSans-52" transform="translate(455.761719 0)"/>
     <use xlink:href="#DejaVuSans-4d" transform="translate(525.244141 0)"/>
     <use xlink:href="#DejaVuSans-53" transform="translate(611.523438 0)"/>
     <use xlink:href="#DejaVuSans-45" transform="translate(675 0)"/>
     <use xlink:href="#DejaVuSans-3a" transform="translate(738.183594 0)"/>
     <use xlink:href="#DejaVuSans-20" transform="translate(771.875 0)"/>
     <use xlink:href="#DejaVuSans-34" transform="translate(803.662109 0)"/>
     <use xlink:href="#DejaVuSans-30" transform="translate(867.285156 0)"/>
     <use xlink:href="#DejaVuSans-31" transform="translate(930.908203 0)"/>
     <use xlink:href="#DejaVuSans-2e" transform="translate(994.53125 0)"/>
     <use xlink:href="#DejaVuSans-35" transform="translate(1026.318359 0)"/>
    </g>
    <!-- RMSE gain vs baseline: 7.4% -->
    <g style="fill: #173024" transform="translate(874.111933 76.847163) scale(0.093 -0.093)">
     <defs>
      <path id="DejaVuSans-67" d="M 2906 1791 
Q 2906 2416 2648 2759 
Q 2391 3103 1925 3103 
Q 1463 3103 1205 2759 
Q 947 2416 947 1791 
Q 947 1169 1205 825 
Q 1463 481 1925 481 
Q 2391 481 2648 825 
Q 2906 1169 2906 1791 
z
M 3481 434 
Q 3481 -459 3084 -895 
Q 2688 -1331 1869 -1331 
Q 1566 -1331 1297 -1286 
Q 1028 -1241 775 -1147 
L 775 -588 
Q 1028 -725 1275 -790 
Q 1522 -856 1778 -856 
Q 2344 -856 2625 -561 
Q 2906 -266 2906 331 
L 2906 616 
Q 2728 306 2450 153 
Q 2172 0 1784 0 
Q 1141 0 747 490 
Q 353 981 353 1791 
Q 353 2603 747 3093 
Q 1141 3584 1784 3584 
Q 2172 3584 2450 3431 
Q 2728 3278 2906 2969 
L 2906 3500 
L 3481 3500 
L 3481 434 
z
" transform="scale(0.015625)"/>
      <path id="DejaVuSans-25" d="M 4653 2053 
Q 4381 2053 4226 1822 
Q 4072 1591 4072 1178 
Q 4072 772 4226 539 
Q 4381 306 4653 306 
Q 4919 306 5073 539 
Q 5228 772 5228 1178 
Q 5228 1588 5073 1820 
Q 4919 2053 4653 2053 
z
M 4653 2450 
Q 5147 2450 5437 2106 
Q 5728 1763 5728 1178 
Q 5728 594 5436 251 
Q 5144 -91 4653 -91 
Q 4153 -91 3862 251 
Q 3572 594 3572 1178 
Q 3572 1766 3864 2108 
Q 4156 2450 4653 2450 
z
M 1428 4353 
Q 1159 4353 1004 4120 
Q 850 3888 850 3481 
Q 850 3069 1003 2837 
Q 1156 2606 1428 2606 
Q 1700 2606 1854 2837 
Q 2009 3069 2009 3481 
Q 2009 3884 1853 4118 
Q 1697 4353 1428 4353 
z
M 4250 4750 
L 4750 4750 
L 1831 -91 
L 1331 -91 
L 4250 4750 
z
M 1428 4750 
Q 1922 4750 2215 4408 
Q 2509 4066 2509 3481 
Q 2509 2891 2217 2550 
Q 1925 2209 1428 2209 
Q 931 2209 642 2551 
Q 353 2894 353 3481 
Q 353 4063 643 4406 
Q 934 4750 1428 4750 
z
" transform="scale(0.015625)"/>
     </defs>
     <use xlink:href="#DejaVuSans-52"/>
     <use xlink:href="#DejaVuSans-4d" transform="translate(69.482422 0)"/>
     <use xlink:href="#DejaVuSans-53" transform="translate(155.761719 0)"/>
     <use xlink:href="#DejaVuSans-45" transform="translate(219.238281 0)"/>
     <use xlink:href="#DejaVuSans-20" transform="translate(282.421875 0)"/>
     <use xlink:href="#DejaVuSans-67" transform="translate(314.208984 0)"/>
     <use xlink:href="#DejaVuSans-61" transform="translate(377.685547 0)"/>
     <use xlink:href="#DejaVuSans-69" transform="translate(438.964844 0)"/>
     <use xlink:href="#DejaVuSans-6e" transform="translate(466.748047 0)"/>
     <use xlink:href="#DejaVuSans-20" transform="translate(530.126953 0)"/>
     <use xlink:href="#DejaVuSans-76" transform="translate(561.914062 0)"/>
     <use xlink:href="#DejaVuSans-73" transform="translate(621.09375 0)"/>
     <use xlink:href="#DejaVuSans-20" transform="translate(673.193359 0)"/>
     <use xlink:href="#DejaVuSans-62" transform="translate(704.980469 0)"/>
     <use xlink:href="#DejaVuSans-61" transform="translate(768.457031 0)"/>
     <use xlink:href="#DejaVuSans-73" transform="translate(829.736328 0)"/>
     <use xlink:href="#DejaVuSans-65" transform="translate(881.835938 0)"/>
     <use xlink:href="#DejaVuSans-6c" transform="translate(943.359375 0)"/>
     <use xlink:href="#DejaVuSans-69" transform="translate(971.142578 0)"/>
     <use xlink:href="#DejaVuSans-6e" transform="translate(998.925781 0)"/>
     <use xlink:href="#DejaVuSans-65" transform="translate(1062.304688 0)"/>
     <use xlink:href="#DejaVuSans-3a" transform="translate(1123.828125 0)"/>
     <use xlink:href="#DejaVuSans-20" transform="translate(1157.519531 0)"/>
     <use xlink:href="#DejaVuSans-37" transform="translate(1189.306641 0)"/>
     <use xlink:href="#DejaVuSans-2e" transform="translate(1252.929688 0)"/>
     <use xlink:href="#DejaVuSans-34" transform="translate(1284.716797 0)"/>
     <use xlink:href="#DejaVuSans-25" transform="translate(1348.339844 0)"/>
    </g>
    <!-- Holdout MAPE: 45.3% -->
    <g style="fill: #173024" transform="translate(907.484402 87.261129) scale(0.093 -0.093)">
     <defs>
      <path id="DejaVuSans-41" d="M 2188 4044 
L 1331 1722 
L 3047 1722 
L 2188 4044 
z
M 1831 4666 
L 2547 4666 
L 4325 0 
L 3669 0 
L 3244 1197 
L 1141 1197 
L 716 0 
L 50 0 
L 1831 4666 
z
" transform="scale(0.015625)"/>
     </defs>
     <use xlink:href="#DejaVuSans-48"/>
     <use xlink:href="#DejaVuSans-6f" transform="translate(75.195312 0)"/>
     <use xlink:href="#DejaVuSans-6c" transform="translate(136.376953 0)"/>
     <use xlink:href="#DejaVuSans-64" transform="translate(164.160156 0)"/>
     <use xlink:href="#DejaVuSans-6f" transform="translate(227.636719 0)"/>
     <use xlink:href="#DejaVuSans-75" transform="translate(288.818359 0)"/>
     <use xlink:href="#DejaVuSans-74" transform="translate(352.197266 0)"/>
     <use xlink:href="#DejaVuSans-20" transform="translate(391.40625 0)"/>
     <use xlink:href="#DejaVuSans-4d" transform="translate(423.193359 0)"/>
     <use xlink:href="#DejaVuSans-41" transform="translate(509.472656 0)"/>
     <use xlink:href="#DejaVuSans-50" transform="translate(577.880859 0)"/>
     <use xlink:href="#DejaVuSans-45" transform="translate(638.183594 0)"/>
     <use xlink:href="#DejaVuSans-3a" transform="translate(701.367188 0)"/>
     <use xlink:href="#DejaVuSans-20" transform="translate(735.058594 0)"/>
     <use xlink:href="#DejaVuSans-34" transform="translate(766.845703 0)"/>
     <use xlink:href="#DejaVuSans-35" transform="translate(830.46875 0)"/>
     <use xlink:href="#DejaVuSans-2e" transform="translate(894.091797 0)"/>
     <use xlink:href="#DejaVuSans-33" transform="translate(925.878906 0)"/>
     <use xlink:href="#DejaVuSans-25" transform="translate(989.501953 0)"/>
    </g>
   </g>
   <g id="text_23">
    <!-- Lyme Prevalence Outlook -->
    <g style="fill: #173024" transform="translate(58.441875 20.042285) scale(0.16 -0.16)">
     <defs>
      <path id="DejaVuSans-Bold-4c" d="M 588 4666 
L 1791 4666 
L 1791 909 
L 3903 909 
L 3903 0 
L 588 0 
L 588 4666 
z
" transform="scale(0.015625)"/>
      <path id="DejaVuSans-Bold-79" d="M 78 3500 
L 1197 3500 
L 2138 1125 
L 2938 3500 
L 4056 3500 
L 2584 -331 
Q 2363 -916 2067 -1148 
Q 1772 -1381 1288 -1381 
L 641 -1381 
L 641 -647 
L 991 -647 
Q 1275 -647 1404 -556 
Q 1534 -466 1606 -231 
L 1638 -134 
L 78 3500 
z
" transform="scale(0.015625)"/>
      <path id="DejaVuSans-Bold-6d" d="M 3781 2919 
Q 3994 3244 4286 3414 
Q 4578 3584 4928 3584 
Q 5531 3584 5847 3212 
Q 6163 2841 6163 2131 
L 6163 0 
L 5038 0 
L 5038 1825 
Q 5041 1866 5042 1909 
Q 5044 1953 5044 2034 
Q 5044 2406 4934 2573 
Q 4825 2741 4581 2741 
Q 4263 2741 4089 2478 
Q 3916 2216 3909 1719 
L 3909 0 
L 2784 0 
L 2784 1825 
Q 2784 2406 2684 2573 
Q 2584 2741 2328 2741 
Q 2006 2741 1831 2477 
Q 1656 2213 1656 1722 
L 1656 0 
L 531 0 
L 531 3500 
L 1656 3500 
L 1656 2988 
Q 1863 3284 2130 3434 
Q 2397 3584 2719 3584 
Q 3081 3584 3359 3409 
Q 3638 3234 3781 2919 
z
" transform="scale(0.015625)"/>
      <path id="DejaVuSans-Bold-50" d="M 588 4666 
L 2584 4666 
Q 3475 4666 3951 4270 
Q 4428 3875 4428 3144 
Q 4428 2409 3951 2014 
Q 3475 1619 2584 1619 
L 1791 1619 
L 1791 0 
L 588 0 
L 588 4666 
z
M 1791 3794 
L 1791 2491 
L 2456 2491 
Q 2806 2491 2997 2661 
Q 3188 2831 3188 3144 
Q 3188 3456 2997 3625 
Q 2806 3794 2456 3794 
L 1791 3794 
z
" transform="scale(0.015625)"/>
      <path id="DejaVuSans-Bold-76" d="M 97 3500 
L 1216 3500 
L 2088 1081 
L 2956 3500 
L 4078 3500 
L 2700 0 
L 1472 0 
L 97 3500 
z
" transform="scale(0.015625)"/>
      <path id="DejaVuSans-Bold-6c" d="M 538 4863 
L 1656 4863 
L 1656 0 
L 538 0 
L 538 4863 
z
" transform="scale(0.015625)"/>
      <path id="DejaVuSans-Bold-4f" d="M 2719 3878 
Q 2169 3878 1866 3472 
Q 1563 3066 1563 2328 
Q 1563 1594 1866 1187 
Q 2169 781 2719 781 
Q 3272 781 3575 1187 
Q 3878 1594 3878 2328 
Q 3878 3066 3575 3472 
Q 3272 3878 2719 3878 
z
M 2719 4750 
Q 3844 4750 4481 4106 
Q 5119 3463 5119 2328 
Q 5119 1197 4481 553 
Q 3844 -91 2719 -91 
Q 1597 -91 958 553 
Q 319 1197 319 2328 
Q 319 3463 958 4106 
Q 1597 4750 2719 4750 
z
" transform="scale(0.015625)"/>
      <path id="DejaVuSans-Bold-75" d="M 500 1363 
L 500 3500 
L 1625 3500 
L 1625 3150 
Q 1625 2866 1622 2436 
Q 1619 2006 1619 1863 
Q 1619 1441 1641 1255 
Q 1663 1069 1716 984 
Q 1784 875 1895 815 
Q 2006 756 2150 756 
Q 2500 756 2700 1025 
Q 2900 1294 2900 1772 
L 2900 3500 
L 4019 3500 
L 4019 0 
L 2900 0 
L 2900 506 
Q 2647 200 2364 54 
Q 2081 -91 1741 -91 
Q 1134 -91 817 281 
Q 500 653 500 1363 
z
" transform="scale(0.015625)"/>
      <path id="DejaVuSans-Bold-6b" d="M 538 4863 
L 1656 4863 
L 1656 2216 
L 2944 3500 
L 4244 3500 
L 2534 1894 
L 4378 0 
L 3022 0 
L 1656 1459 
L 1656 0 
L 538 0 
L 538 4863 
z
" transform="scale(0.015625)"/>
     </defs>
     <use xlink:href="#DejaVuSans-Bold-4c"/>
     <use xlink:href="#DejaVuSans-Bold-79" transform="translate(56.970703 0)"/>
     <use xlink:href="#DejaVuSans-Bold-6d" transform="translate(122.15625 0)"/>
     <use xlink:href="#DejaVuSans-Bold-65" transform="translate(226.355469 0)"/>
     <use xlink:href="#DejaVuSans-Bold-20" transform="translate(294.177734 0)"/>
     <use xlink:href="#DejaVuSans-Bold-50" transform="translate(328.992188 0)"/>
     <use xlink:href="#DejaVuSans-Bold-72" transform="translate(402.283203 0)"/>
     <use xlink:href="#DejaVuSans-Bold-65" transform="translate(451.599609 0)"/>
     <use xlink:href="#DejaVuSans-Bold-76" transform="translate(519.421875 0)"/>
     <use xlink:href="#DejaVuSans-Bold-61" transform="translate(584.607422 0)"/>
     <use xlink:href="#DejaVuSans-Bold-6c" transform="translate(652.087891 0)"/>
     <use xlink:href="#DejaVuSans-Bold-65" transform="translate(686.365234 0)"/>
     <use xlink:href="#DejaVuSans-Bold-6e" transform="translate(754.1875 0)"/>
     <use xlink:href="#DejaVuSans-Bold-63" transform="translate(825.378906 0)"/>
     <use xlink:href="#DejaVuSans-Bold-65" transform="translate(884.65625 0)"/>
     <use xlink:href="#DejaVuSans-Bold-20" transform="translate(952.478516 0)"/>
     <use xlink:href="#DejaVuSans-Bold-4f" transform="translate(987.292969 0)"/>
     <use xlink:href="#DejaVuSans-Bold-75" transform="translate(1072.302734 0)"/>
     <use xlink:href="#DejaVuSans-Bold-74" transform="translate(1143.494141 0)"/>
     <use xlink:href="#DejaVuSans-Bold-6c" transform="translate(1191.296875 0)"/>
     <use xlink:href="#DejaVuSans-Bold-6f" transform="translate(1225.574219 0)"/>
     <use xlink:href="#DejaVuSans-Bold-6f" transform="translate(1294.275391 0)"/>
     <use xlink:href="#DejaVuSans-Bold-6b" transform="translate(1362.976562 0)"/>
    </g>
   </g>
   <g id="PathCollection_1">
    <defs>
     <path id="m8003c19228" d="M 0 2 
C 0.530406 2 1.03916 1.789267 1.414214 1.414214 
C 1.789267 1.03916 2 0.530406 2 0 
C 2 -0.530406 1.789267 -1.03916 1.414214 -1.414214 
C 1.03916 -1.789267 0.530406 -2 0 -2 
C -0.530406 -2 -1.03916 -1.789267 -1.414214 -1.414214 
C -1.789267 -1.03916 -2 -0.530406 -2 0 
C -2 0.530406 -1.789267 1.03916 -1.414214 1.414214 
C -1.03916 1.789267 -0.530406 2 0 2 
z
" style="stroke: #ffffff; stroke-width: 0.6"/>
    </defs>
    <g clip-path="url(#pb5a89f3c2a)">
     <use xlink:href="#m8003c19228" x="58.441875" y="468.67993" style="fill: #334e68; stroke: #ffffff; stroke-width: 0.6"/>
     <use xlink:href="#m8003c19228" x="66.769287" y="472.627344" style="fill: #334e68; stroke: #ffffff; stroke-width: 0.6"/>
     <use xlink:href="#m8003c19228" x="74.29082" y="456.618387" style="fill: #334e68; stroke: #ffffff; stroke-width: 0.6"/>
     <use xlink:href="#m8003c19228" x="82.618232" y="421.968865" style="fill: #334e68; stroke: #ffffff; stroke-width: 0.6"/>
     <use xlink:href="#m8003c19228" x="90.677017" y="377.889409" style="fill: #334e68; stroke: #ffffff; stroke-width: 0.6"/>
     <use xlink:href="#m8003c19228" x="99.004429" y="244.554538" style="fill: #334e68; stroke: #ffffff; stroke-width: 0.6"/>
     <use xlink:href="#m8003c19228" x="107.063214" y="306.178056" style="fill: #334e68; stroke: #ffffff; stroke-width: 0.6"/>
     <use xlink:href="#m8003c19228" x="115.390626" y="366.70507" style="fill: #334e68; stroke: #ffffff; stroke-width: 0.6"/>
     <use xlink:href="#m8003c19228" x="123.718038" y="429.205791" style="fill: #334e68; stroke: #ffffff; stroke-width: 0.6"/>
     <use xlink:href="#m8003c19228" x="131.776823" y="410.345924" style="fill: #334e68; stroke: #ffffff; stroke-width: 0.6"/>
     <use xlink:href="#m8003c19228" x="140.104235" y="405.302006" style="fill: #334e68; stroke: #ffffff; stroke-width: 0.6"/>
     <use xlink:href="#m8003c19228" x="148.16302" y="455.960485" style="fill: #334e68; stroke: #ffffff; stroke-width: 0.6"/>
     <use xlink:href="#m8003c19228" x="156.490432" y="456.684645" style="fill: #334e68; stroke: #ffffff; stroke-width: 0.6"/>
     <use xlink:href="#m8003c19228" x="164.817844" y="462.810343" style="fill: #334e68; stroke: #ffffff; stroke-width: 0.6"/>
     <use xlink:href="#m8003c19228" x="172.339377" y="460.841369" style="fill: #334e68; stroke: #ffffff; stroke-width: 0.6"/>
     <use xlink:href="#m8003c19228" x="180.666789" y="426.056156" style="fill: #334e68; stroke: #ffffff; stroke-width: 0.6"/>
     <use xlink:href="#m8003c19228" x="188.725574" y="226.97098" style="fill: #334e68; stroke: #ffffff; stroke-width: 0.6"/>
     <use xlink:href="#m8003c19228" x="197.052986" y="117.145971" style="fill: #334e68; stroke: #ffffff; stroke-width: 0.6"/>
     <use xlink:href="#m8003c19228" x="205.111771" y="148.649559" style="fill: #334e68; stroke: #ffffff; stroke-width: 0.6"/>
     <use xlink:href="#m8003c19228" x="213.439183" y="223.033031" style="fill: #334e68; stroke: #ffffff; stroke-width: 0.6"/>
     <use xlink:href="#m8003c19228" x="221.766595" y="371.581202" style="fill: #334e68; stroke: #ffffff; stroke-width: 0.6"/>
     <use xlink:href="#m8003c19228" x="229.82538" y="398.490517" style="fill: #334e68; stroke: #ffffff; stroke-width: 0.6"/>
     <use xlink:href="#m8003c19228" x="238.152792" y="412.929661" style="fill: #334e68; stroke: #ffffff; stroke-width: 0.6"/>
     <use xlink:href="#m8003c19228" x="246.211578" y="455.371996" style="fill: #334e68; stroke: #ffffff; stroke-width: 0.6"/>
     <use xlink:href="#m8003c19228" x="254.538989" y="456.684645" style="fill: #334e68; stroke: #ffffff; stroke-width: 0.6"/>
     <use xlink:href="#m8003c19228" x="262.866401" y="466.135976" style="fill: #334e68; stroke: #ffffff; stroke-width: 0.6"/>
     <use xlink:href="#m8003c19228" x="270.387934" y="461.823046" style="fill: #334e68; stroke: #ffffff; stroke-width: 0.6"/>
     <use xlink:href="#m8003c19228" x="278.715346" y="436.161108" style="fill: #334e68; stroke: #ffffff; stroke-width: 0.6"/>
     <use xlink:href="#m8003c19228" x="286.774131" y="374.054907" style="fill: #334e68; stroke: #ffffff; stroke-width: 0.6"/>
     <use xlink:href="#m8003c19228" x="295.101543" y="326.397024" style="fill: #334e68; stroke: #ffffff; stroke-width: 0.6"/>
     <use xlink:href="#m8003c19228" x="303.160328" y="335.454178" style="fill: #334e68; stroke: #ffffff; stroke-width: 0.6"/>
     <use xlink:href="#m8003c19228" x="311.48774" y="361.116115" style="fill: #334e68; stroke: #ffffff; stroke-width: 0.6"/>
     <use xlink:href="#m8003c19228" x="319.815152" y="429.476066" style="fill: #334e68; stroke: #ffffff; stroke-width: 0.6"/>
     <use xlink:href="#m8003c19228" x="327.873937" y="422.791023" style="fill: #334e68; stroke: #ffffff; stroke-width: 0.6"/>
     <use xlink:href="#m8003c19228" x="336.201349" y="437.023694" style="fill: #334e68; stroke: #ffffff; stroke-width: 0.6"/>
     <use xlink:href="#m8003c19228" x="344.260135" y="458.588348" style="fill: #334e68; stroke: #ffffff; stroke-width: 0.6"/>
     <use xlink:href="#m8003c19228" x="352.587546" y="457.510115" style="fill: #334e68; stroke: #ffffff; stroke-width: 0.6"/>
     <use xlink:href="#m8003c19228" x="360.914958" y="463.095357" style="fill: #334e68; stroke: #ffffff; stroke-width: 0.6"/>
     <use xlink:href="#m8003c19228" x="368.705117" y="462.881671" style="fill: #334e68; stroke: #ffffff; stroke-width: 0.6"/>
     <use xlink:href="#m8003c19228" x="377.032529" y="376.979842" style="fill: #334e68; stroke: #ffffff; stroke-width: 0.6"/>
     <use xlink:href="#m8003c19228" x="385.091315" y="279.538962" style="fill: #334e68; stroke: #ffffff; stroke-width: 0.6"/>
     <use xlink:href="#m8003c19228" x="393.418726" y="122.90702" style="fill: #334e68; stroke: #ffffff; stroke-width: 0.6"/>
     <use xlink:href="#m8003c19228" x="401.477512" y="94.273077" style="fill: #334e68; stroke: #ffffff; stroke-width: 0.6"/>
     <use xlink:href="#m8003c19228" x="409.804923" y="268.854655" style="fill: #334e68; stroke: #ffffff; stroke-width: 0.6"/>
     <use xlink:href="#m8003c19228" x="418.132335" y="377.620901" style="fill: #334e68; stroke: #ffffff; stroke-width: 0.6"/>
     <use xlink:href="#m8003c19228" x="426.191121" y="412.238055" style="fill: #334e68; stroke: #ffffff; stroke-width: 0.6"/>
     <use xlink:href="#m8003c19228" x="434.518532" y="437.239334" style="fill: #334e68; stroke: #ffffff; stroke-width: 0.6"/>
     <use xlink:href="#m8003c19228" x="442.577318" y="455.616342" style="fill: #334e68; stroke: #ffffff; stroke-width: 0.6"/>
     <use xlink:href="#m8003c19228" x="450.90473" y="464.884803" style="fill: #334e68; stroke: #ffffff; stroke-width: 0.6"/>
     <use xlink:href="#m8003c19228" x="459.232141" y="471.339963" style="fill: #334e68; stroke: #ffffff; stroke-width: 0.6"/>
     <use xlink:href="#m8003c19228" x="466.753674" y="463.59377" style="fill: #334e68; stroke: #ffffff; stroke-width: 0.6"/>
     <use xlink:href="#m8003c19228" x="475.081086" y="437.342783" style="fill: #334e68; stroke: #ffffff; stroke-width: 0.6"/>
     <use xlink:href="#m8003c19228" x="483.139872" y="405.712495" style="fill: #334e68; stroke: #ffffff; stroke-width: 0.6"/>
     <use xlink:href="#m8003c19228" x="491.467283" y="366.981531" style="fill: #334e68; stroke: #ffffff; stroke-width: 0.6"/>
     <use xlink:href="#m8003c19228" x="499.526069" y="357.29879" style="fill: #334e68; stroke: #ffffff; stroke-width: 0.6"/>
     <use xlink:href="#m8003c19228" x="507.853481" y="420.774537" style="fill: #334e68; stroke: #ffffff; stroke-width: 0.6"/>
     <use xlink:href="#m8003c19228" x="516.180892" y="431.317967" style="fill: #334e68; stroke: #ffffff; stroke-width: 0.6"/>
     <use xlink:href="#m8003c19228" x="524.239678" y="452.619997" style="fill: #334e68; stroke: #ffffff; stroke-width: 0.6"/>
     <use xlink:href="#m8003c19228" x="532.567089" y="456.493094" style="fill: #334e68; stroke: #ffffff; stroke-width: 0.6"/>
     <use xlink:href="#m8003c19228" x="540.625875" y="451.544137" style="fill: #334e68; stroke: #ffffff; stroke-width: 0.6"/>
     <use xlink:href="#m8003c19228" x="548.953287" y="470.171677" style="fill: #334e68; stroke: #ffffff; stroke-width: 0.6"/>
     <use xlink:href="#m8003c19228" x="557.280698" y="471.904428" style="fill: #334e68; stroke: #ffffff; stroke-width: 0.6"/>
     <use xlink:href="#m8003c19228" x="564.802232" y="464.107045" style="fill: #334e68; stroke: #ffffff; stroke-width: 0.6"/>
     <use xlink:href="#m8003c19228" x="573.129643" y="450.894813" style="fill: #334e68; stroke: #ffffff; stroke-width: 0.6"/>
     <use xlink:href="#m8003c19228" x="581.188429" y="376.60308" style="fill: #334e68; stroke: #ffffff; stroke-width: 0.6"/>
     <use xlink:href="#m8003c19228" x="589.51584" y="255.960237" style="fill: #334e68; stroke: #ffffff; stroke-width: 0.6"/>
     <use xlink:href="#m8003c19228" x="597.574626" y="312.27467" style="fill: #334e68; stroke: #ffffff; stroke-width: 0.6"/>
     <use xlink:href="#m8003c19228" x="605.902038" y="388.732343" style="fill: #334e68; stroke: #ffffff; stroke-width: 0.6"/>
     <use xlink:href="#m8003c19228" x="614.229449" y="421.438033" style="fill: #334e68; stroke: #ffffff; stroke-width: 0.6"/>
     <use xlink:href="#m8003c19228" x="622.288235" y="433.783889" style="fill: #334e68; stroke: #ffffff; stroke-width: 0.6"/>
     <use xlink:href="#m8003c19228" x="630.615647" y="439.198738" style="fill: #334e68; stroke: #ffffff; stroke-width: 0.6"/>
     <use xlink:href="#m8003c19228" x="638.674432" y="457.82582" style="fill: #334e68; stroke: #ffffff; stroke-width: 0.6"/>
     <use xlink:href="#m8003c19228" x="647.001844" y="467.339251" style="fill: #334e68; stroke: #ffffff; stroke-width: 0.6"/>
     <use xlink:href="#m8003c19228" x="655.329256" y="472.476781" style="fill: #334e68; stroke: #ffffff; stroke-width: 0.6"/>
     <use xlink:href="#m8003c19228" x="662.850789" y="462.62985" style="fill: #334e68; stroke: #ffffff; stroke-width: 0.6"/>
     <use xlink:href="#m8003c19228" x="671.1782" y="448.287581" style="fill: #334e68; stroke: #ffffff; stroke-width: 0.6"/>
     <use xlink:href="#m8003c19228" x="679.236986" y="423.028062" style="fill: #334e68; stroke: #ffffff; stroke-width: 0.6"/>
     <use xlink:href="#m8003c19228" x="687.564398" y="365.444923" style="fill: #334e68; stroke: #ffffff; stroke-width: 0.6"/>
     <use xlink:href="#m8003c19228" x="695.623183" y="393.273206" style="fill: #334e68; stroke: #ffffff; stroke-width: 0.6"/>
     <use xlink:href="#m8003c19228" x="703.950595" y="409.970176" style="fill: #334e68; stroke: #ffffff; stroke-width: 0.6"/>
     <use xlink:href="#m8003c19228" x="712.278006" y="446.361007" style="fill: #334e68; stroke: #ffffff; stroke-width: 0.6"/>
     <use xlink:href="#m8003c19228" x="720.336792" y="453.211046" style="fill: #334e68; stroke: #ffffff; stroke-width: 0.6"/>
     <use xlink:href="#m8003c19228" x="728.664204" y="457.492321" style="fill: #334e68; stroke: #ffffff; stroke-width: 0.6"/>
     <use xlink:href="#m8003c19228" x="736.722989" y="473.333036" style="fill: #334e68; stroke: #ffffff; stroke-width: 0.6"/>
     <use xlink:href="#m8003c19228" x="745.050401" y="471.696726" style="fill: #334e68; stroke: #ffffff; stroke-width: 0.6"/>
     <use xlink:href="#m8003c19228" x="753.377813" y="469.994548" style="fill: #334e68; stroke: #ffffff; stroke-width: 0.6"/>
     <use xlink:href="#m8003c19228" x="761.167972" y="463.824155" style="fill: #334e68; stroke: #ffffff; stroke-width: 0.6"/>
     <use xlink:href="#m8003c19228" x="769.495384" y="431.695555" style="fill: #334e68; stroke: #ffffff; stroke-width: 0.6"/>
     <use xlink:href="#m8003c19228" x="777.554169" y="375.73647" style="fill: #334e68; stroke: #ffffff; stroke-width: 0.6"/>
     <use xlink:href="#m8003c19228" x="785.881581" y="350.842124" style="fill: #334e68; stroke: #ffffff; stroke-width: 0.6"/>
     <use xlink:href="#m8003c19228" x="793.940366" y="361.267961" style="fill: #334e68; stroke: #ffffff; stroke-width: 0.6"/>
     <use xlink:href="#m8003c19228" x="802.267778" y="404.03517" style="fill: #334e68; stroke: #ffffff; stroke-width: 0.6"/>
     <use xlink:href="#m8003c19228" x="810.59519" y="449.993963" style="fill: #334e68; stroke: #ffffff; stroke-width: 0.6"/>
     <use xlink:href="#m8003c19228" x="818.653975" y="442.334164" style="fill: #334e68; stroke: #ffffff; stroke-width: 0.6"/>
     <use xlink:href="#m8003c19228" x="826.981387" y="451.057824" style="fill: #334e68; stroke: #ffffff; stroke-width: 0.6"/>
     <use xlink:href="#m8003c19228" x="835.040172" y="464.462472" style="fill: #334e68; stroke: #ffffff; stroke-width: 0.6"/>
     <use xlink:href="#m8003c19228" x="843.367584" y="460.632572" style="fill: #334e68; stroke: #ffffff; stroke-width: 0.6"/>
     <use xlink:href="#m8003c19228" x="851.694996" y="470.998635" style="fill: #334e68; stroke: #ffffff; stroke-width: 0.6"/>
     <use xlink:href="#m8003c19228" x="859.216529" y="466.371074" style="fill: #334e68; stroke: #ffffff; stroke-width: 0.6"/>
     <use xlink:href="#m8003c19228" x="867.543941" y="444.916022" style="fill: #334e68; stroke: #ffffff; stroke-width: 0.6"/>
     <use xlink:href="#m8003c19228" x="875.602726" y="372.978492" style="fill: #334e68; stroke: #ffffff; stroke-width: 0.6"/>
     <use xlink:href="#m8003c19228" x="883.930138" y="323.547733" style="fill: #334e68; stroke: #ffffff; stroke-width: 0.6"/>
     <use xlink:href="#m8003c19228" x="891.988923" y="256.868794" style="fill: #334e68; stroke: #ffffff; stroke-width: 0.6"/>
     <use xlink:href="#m8003c19228" x="900.316335" y="335.537321" style="fill: #334e68; stroke: #ffffff; stroke-width: 0.6"/>
     <use xlink:href="#m8003c19228" x="908.643747" y="373.609523" style="fill: #334e68; stroke: #ffffff; stroke-width: 0.6"/>
     <use xlink:href="#m8003c19228" x="916.702532" y="386.230142" style="fill: #334e68; stroke: #ffffff; stroke-width: 0.6"/>
     <use xlink:href="#m8003c19228" x="925.029944" y="419.254096" style="fill: #334e68; stroke: #ffffff; stroke-width: 0.6"/>
     <use xlink:href="#m8003c19228" x="933.08873" y="447.860833" style="fill: #334e68; stroke: #ffffff; stroke-width: 0.6"/>
    </g>
   </g>
   <g id="line2d_27">
    <path d="M 949.743553 466.269708 
L 957.265086 450.96103 
L 965.592498 428.836956 
L 973.651283 374.425137 
L 981.978695 342.653047 
L 990.037481 299.403542 
L 998.364892 345.60896 
L 1006.692304 367.566925 
L 1014.751089 379.442855 
" clip-path="url(#pb5a89f3c2a)" style="fill: none; stroke: #0b6e4f; stroke-width: 2.9; stroke-linecap: square"/>
   </g>
   <g id="legend_1">
    <g id="line2d_28">
     <path d="M 67.441875 440.314347 
L 77.441875 440.314347 
L 87.441875 440.314347 
" style="fill: none; stroke: #1f2933; stroke-width: 2.4; stroke-linecap: square"/>
    </g>
    <g id="text_24">
     <!-- Observed prevalence -->
     <g style="fill: #173024" transform="translate(95.441875 443.814347) scale(0.1 -0.1)">
      <use xlink:href="#DejaVuSans-4f"/>
      <use xlink:href="#DejaVuSans-62" transform="translate(78.710938 0)"/>
      <use xlink:href="#DejaVuSans-73" transform="translate(142.1875 0)"/>
      <use xlink:href="#DejaVuSans-65" transform="translate(194.287109 0)"/>
      <use xlink:href="#DejaVuSans-72" transform="translate(255.810547 0)"/>
      <use xlink:href="#DejaVuSans-76" transform="translate(296.923828 0)"/>
      <use xlink:href="#DejaVuSans-65" transform="translate(356.103516 0)"/>
      <use xlink:href="#DejaVuSans-64" transform="translate(417.626953 0)"/>
      <use xlink:href="#DejaVuSans-20" transform="translate(481.103516 0)"/>
      <use xlink:href="#DejaVuSans-70" transform="translate(512.890625 0)"/>
      <use xlink:href="#DejaVuSans-72" transform="translate(576.367188 0)"/>
      <use xlink:href="#DejaVuSans-65" transform="translate(615.230469 0)"/>
      <use xlink:href="#DejaVuSans-76" transform="translate(676.753906 0)"/>
      <use xlink:href="#DejaVuSans-61" transform="translate(735.933594 0)"/>
      <use xlink:href="#DejaVuSans-6c" transform="translate(797.212891 0)"/>
      <use xlink:href="#DejaVuSans-65" transform="translate(824.996094 0)"/>
      <use xlink:href="#DejaVuSans-6e" transform="translate(886.519531 0)"/>
      <use xlink:href="#DejaVuSans-63" transform="translate(949.898438 0)"/>
      <use xlink:href="#DejaVuSans-65" transform="translate(1004.878906 0)"/>
     </g>
    </g>
    <g id="line2d_29">
     <path d="M 67.441875 454.992472 
L 77.441875 454.992472 
L 87.441875 454.992472 
" style="fill: none; stroke: #0b6e4f; stroke-width: 2.9; stroke-linecap: square"/>
    </g>
    <g id="text_25">
     <!-- V2 residual forecast -->
     <g style="fill: #173024" transform="translate(95.441875 458.492472) scale(0.1 -0.1)">
      <use xlink:href="#DejaVuSans-56"/>
      <use xlink:href="#DejaVuSans-32" transform="translate(68.408203 0)"/>
      <use xlink:href="#DejaVuSans-20" transform="translate(132.03125 0)"/>
      <use xlink:href="#DejaVuSans-72" transform="translate(163.818359 0)"/>
      <use xlink:href="#DejaVuSans-65" transform="translate(202.681641 0)"/>
      <use xlink:href="#DejaVuSans-73" transform="translate(264.205078 0)"/>
      <use xlink:href="#DejaVuSans-69" transform="translate(316.304688 0)"/>
      <use xlink:href="#DejaVuSans-64" transform="translate(344.087891 0)"/>
      <use xlink:href="#DejaVuSans-75" transform="translate(407.564453 0)"/>
      <use xlink:href="#DejaVuSans-61" transform="translate(470.943359 0)"/>
      <use xlink:href="#DejaVuSans-6c" transform="translate(532.222656 0)"/>
      <use xlink:href="#DejaVuSans-20" transform="translate(560.005859 0)"/>
      <use xlink:href="#DejaVuSans-66" transform="translate(591.792969 0)"/>
      <use xlink:href="#DejaVuSans-6f" transform="translate(626.998047 0)"/>
      <use xlink:href="#DejaVuSans-72" transform="translate(688.179688 0)"/>
      <use xlink:href="#DejaVuSans-65" transform="translate(727.042969 0)"/>
      <use xlink:href="#DejaVuSans-63" transform="translate(788.566406 0)"/>
      <use xlink:href="#DejaVuSans-61" transform="translate(843.546875 0)"/>
      <use xlink:href="#DejaVuSans-73" transform="translate(904.826172 0)"/>
      <use xlink:href="#DejaVuSans-74" transform="translate(956.925781 0)"/>
     </g>
    </g>
    <g id="patch_7">
     <path d="M 67.441875 473.170597 
L 87.441875 473.170597 
L 87.441875 466.170597 
L 67.441875 466.170597 
z
" style="fill: #dff3e3; stroke: #a7d7af; stroke-linejoin: miter"/>
    </g>
    <g id="text_26">
     <!-- Forecast zone -->
     <g style="fill: #173024" transform="translate(95.441875 473.170597) scale(0.1 -0.1)">
      <defs>
       <path id="DejaVuSans-46" d="M 628 4666 
L 3309 4666 
L 3309 4134 
L 1259 4134 
L 1259 2759 
L 3109 2759 
L 3109 2228 
L 1259 2228 
L 1259 0 
L 628 0 
L 628 4666 
z
" transform="scale(0.015625)"/>
       <path id="DejaVuSans-7a" d="M 353 3500 
L 3084 3500 
L 3084 2975 
L 922 459 
L 3084 459 
L 3084 0 
L 275 0 
L 275 525 
L 2438 3041 
L 353 3041 
L 353 3500 
z
" transform="scale(0.015625)"/>
      </defs>
      <use xlink:href="#DejaVuSans-46"/>
      <use xlink:href="#DejaVuSans-6f" transform="translate(53.894531 0)"/>
      <use xlink:href="#DejaVuSans-72" transform="translate(115.076172 0)"/>
      <use xlink:href="#DejaVuSans-65" transform="translate(153.939453 0)"/>
      <use xlink:href="#DejaVuSans-63" transform="translate(215.462891 0)"/>
      <use xlink:href="#DejaVuSans-61" transform="translate(270.443359 0)"/>
      <use xlink:href="#DejaVuSans-73" transform="translate(331.722656 0)"/>
      <use xlink:href="#DejaVuSans-74" transform="translate(383.822266 0)"/>
      <use xlink:href="#DejaVuSans-20" transform="translate(423.03125 0)"/>
      <use xlink:href="#DejaVuSans-7a" transform="translate(454.818359 0)"/>
      <use xlink:href="#DejaVuSans-6f" transform="translate(507.308594 0)"/>
      <use xlink:href="#DejaVuSans-6e" transform="translate(568.490234 0)"/>
      <use xlink:href="#DejaVuSans-65" transform="translate(631.869141 0)"/>
     </g>
    </g>
   </g>
   <g id="PathCollection_2">
    <defs>
     <path id="m80e3e54559" d="M 0 2.915476 
C 0.773193 2.915476 1.514823 2.608283 2.061553 2.061553 
C 2.608283 1.514823 2.915476 0.773193 2.915476 0 
C 2.915476 -0.773193 2.608283 -1.514823 2.061553 -2.061553 
C 1.514823 -2.608283 0.773193 -2.915476 0 -2.915476 
C -0.773193 -2.915476 -1.514823 -2.608283 -2.061553 -2.061553 
C -2.608283 -1.514823 -2.915476 -0.773193 -2.915476 0 
C -2.915476 0.773193 -2.608283 1.514823 -2.061553 2.061553 
C -1.514823 2.608283 -0.773193 2.915476 0 2.915476 
z
" style="stroke: #ffffff; stroke-width: 0.7"/>
    </defs>
    <g clip-path="url(#pb5a89f3c2a)">
     <use xlink:href="#m80e3e54559" x="949.743553" y="466.269708" style="fill: #0b6e4f; stroke: #ffffff; stroke-width: 0.7"/>
     <use xlink:href="#m80e3e54559" x="957.265086" y="450.96103" style="fill: #0b6e4f; stroke: #ffffff; stroke-width: 0.7"/>
     <use xlink:href="#m80e3e54559" x="965.592498" y="428.836956" style="fill: #0b6e4f; stroke: #ffffff; stroke-width: 0.7"/>
     <use xlink:href="#m80e3e54559" x="973.651283" y="374.425137" style="fill: #0b6e4f; stroke: #ffffff; stroke-width: 0.7"/>
     <use xlink:href="#m80e3e54559" x="981.978695" y="342.653047" style="fill: #0b6e4f; stroke: #ffffff; stroke-width: 0.7"/>
     <use xlink:href="#m80e3e54559" x="990.037481" y="299.403542" style="fill: #0b6e4f; stroke: #ffffff; stroke-width: 0.7"/>
     <use xlink:href="#m80e3e54559" x="998.364892" y="345.60896" style="fill: #0b6e4f; stroke: #ffffff; stroke-width: 0.7"/>
     <use xlink:href="#m80e3e54559" x="1006.692304" y="367.566925" style="fill: #0b6e4f; stroke: #ffffff; stroke-width: 0.7"/>
     <use xlink:href="#m80e3e54559" x="1014.751089" y="379.442855" style="fill: #0b6e4f; stroke: #ffffff; stroke-width: 0.7"/>
    </g>
   </g>
  </g>
 </g>
 <defs>
  <clipPath id="pb5a89f3c2a">
   <rect x="58.441875" y="26.042285" width="964.368" height="458.208"/>
  </clipPath>
 </defs>
</svg>
