<?xml version="1.0" encoding="utf-8" standalone="no"?>
<!DOCTYPE svg PUBLIC "-//W3C//DTD SVG 1.1//EN"
  "http://www.w3.org/Graphics/SVG/1.1/DTD/svg11.dtd">
<svg xmlns:xlink="http://www.w3.org/1999/xlink" width="1052.39952pt" height="620.399175pt" viewBox="0 0 1052.39952 620.399175" xmlns="http://www.w3.org/2000/svg" version="1.1">
 <metadata>
  <rdf:RDF xmlns:dc="http://purl.org/dc/elements/1.1/" xmlns:cc="http://creativecommons.org/ns#" xmlns:rdf="http://www.w3.org/1999/02/22-rdf-syntax-ns#">
   <cc:Work>
    <dc:type rdf:resource="http://purl.org/dc/dcmitype/StillImage"/>
    <dc:date>2026-04-14T09:21:15.704729</dc:date>
    <dc:format>image/svg+xml</dc:format>
    <dc:creator>
     <cc:Agent>
      <dc:title>Matplotlib v3.10.8, https://matplotlib.org/</dc:title>
     </cc:Agent>
    </dc:creator>
   </cc:Work>
  </rdf:RDF>
 </metadata>
 <defs>
  <style type="text/css">*{stroke-linejoin: round; stroke-linecap: butt}</style>
 </defs>
 <g id="figure_1">
  <g id="patch_1">
   <path d="M 0 620.399175 
L 1052.39952 620.399175 
L 1052.39952 0 
L 0 0 
z
" style="fill: #f5faf6"/>
  </g>
  <g id="axes_1">
   <g id="patch_2">
    <path d="M 48.90125 580.9073 
L 1027.704207 580.9073 
L 1027.704207 27.937521 
L 48.90125 27.937521 
z
" style="fill: #fbfdfb"/>
   </g>
   <g id="patch_3">
    <path d="M 538.302729 580.9073 
L 1053.46218 580.9073 
L 1053.46218 27.937521 
L 538.302729 27.937521 
z
" clip-path="url(#p7faa6faabc)" style="fill: #dff3e3; stroke: #dff3e3; stroke-linejoin: miter"/>
   </g>
   <g id="line2d_1">
    <path d="M 538.302729 580.9073 
L 538.302729 27.937521 
" clip-path="url(#p7faa6faabc)" style="fill: none; stroke-dasharray: 6.66,2.88; stroke-dashoffset: 0; stroke: #a7d7af; stroke-width: 1.8"/>
   </g>
   <g id="matplotlib.axis_1">
    <g id="xtick_1">
     <g id="line2d_2">
      <defs>
       <path id="made0fc7a4e" d="M 0 0 
L 0 3.5 
" style="stroke: #5c7a68; stroke-width: 0.8"/>
      </defs>
      <g>
       <use xlink:href="#made0fc7a4e" x="126.175168" y="580.9073" style="fill: #5c7a68; stroke: #5c7a68; stroke-width: 0.8"/>
      </g>
     </g>
     <g id="text_1">
      <!-- 2017.5 -->
      <g style="fill: #5c7a68" transform="translate(108.679855 595.505737) scale(0.1 -0.1)">
       <defs>
        <path id="DejaVuSans-32" d="M 1228 531 
L 3431 531 
L 3431 0 
L 469 0 
L 469 531 
Q 828 903 1448 1529 
Q 2069 2156 2228 2338 
Q 2531 2678 2651 2914 
Q 2772 3150 2772 3378 
Q 2772 3750 2511 3984 
Q 2250 4219 1831 4219 
Q 1534 4219 1204 4116 
Q 875 4013 500 3803 
L 500 4441 
Q 881 4594 1212 4672 
Q 1544 4750 1819 4750 
Q 2544 4750 2975 4387 
Q 3406 4025 3406 3419 
Q 3406 3131 3298 2873 
Q 3191 2616 2906 2266 
Q 2828 2175 2409 1742 
Q 1991 1309 1228 531 
z
" transform="scale(0.015625)"/>
        <path id="DejaVuSans-30" d="M 2034 4250 
Q 1547 4250 1301 3770 
Q 1056 3291 1056 2328 
Q 1056 1369 1301 889 
Q 1547 409 2034 409 
Q 2525 409 2770 889 
Q 3016 1369 3016 2328 
Q 3016 3291 2770 3770 
Q 2525 4250 2034 4250 
z
M 2034 4750 
Q 2819 4750 3233 4129 
Q 3647 3509 3647 2328 
Q 3647 1150 3233 529 
Q 2819 -91 2034 -91 
Q 1250 -91 836 529 
Q 422 1150 422 2328 
Q 422 3509 836 4129 
Q 1250 4750 2034 4750 
z
" transform="scale(0.015625)"/>
        <path id="DejaVuSans-31" d="M 794 531 
L 1825 531 
L 1825 4091 
L 703 3866 
L 703 4441 
L 1819 4666 
L 2450 4666 
L 2450 531 
L 3481 531 
L 3481 0 
L 794 0 
L 794 531 
z
" transform="scale(0.015625)"/>
        <path id="DejaVuSans-37" d="M 525 4666 
L 3525 4666 
L 3525 4397 
L 1831 0 
L 1172 0 
L 2766 4134 
L 525 4134 
L 525 4666 
z
" transform="scale(0.015625)"/>
        <path id="DejaVuSans-2e" d="M 684 794 
L 1344 794 
L 1344 0 
L 684 0 
L 684 794 
z
" transform="scale(0.015625)"/>
        <path id="DejaVuSans-35" d="M 691 4666 
L 3169 4666 
L 3169 4134 
L 1269 4134 
L 1269 2991 
Q 1406 3038 1543 3061 
Q 1681 3084 1819 3084 
Q 2600 3084 3056 2656 
Q 3513 2228 3513 1497 
Q 3513 744 3044 326 
Q 2575 -91 1722 -91 
Q 1428 -91 1123 -41 
Q 819 9 494 109 
L 494 744 
Q 775 591 1075 516 
Q 1375 441 1709 441 
Q 2250 441 2565 725 
Q 2881 1009 2881 1497 
Q 2881 1984 2565 2268 
Q 2250 2553 1709 2553 
Q 1456 2553 1204 2497 
Q 953 2441 691 2322 
L 691 4666 
z
" transform="scale(0.015625)"/>
       </defs>
       <use xlink:href="#DejaVuSans-32"/>
       <use xlink:href="#DejaVuSans-30" transform="translate(63.623047 0)"/>
       <use xlink:href="#DejaVuSans-31" transform="translate(127.246094 0)"/>
       <use xlink:href="#DejaVuSans-37" transform="translate(190.869141 0)"/>
       <use xlink:href="#DejaVuSans-2e" transform="translate(254.492188 0)"/>
       <use xlink:href="#DejaVuSans-35" transform="translate(286.279297 0)"/>
      </g>
     </g>
    </g>
    <g id="xtick_2">
     <g id="line2d_3">
      <g>
       <use xlink:href="#made0fc7a4e" x="254.965031" y="580.9073" style="fill: #5c7a68; stroke: #5c7a68; stroke-width: 0.8"/>
      </g>
     </g>
     <g id="text_2">
      <!-- 2020.0 -->
      <g style="fill: #5c7a68" transform="translate(237.469718 595.505737) scale(0.1 -0.1)">
       <use xlink:href="#DejaVuSans-32"/>
       <use xlink:href="#DejaVuSans-30" transform="translate(63.623047 0)"/>
       <use xlink:href="#DejaVuSans-32" transform="translate(127.246094 0)"/>
       <use xlink:href="#DejaVuSans-30" transform="translate(190.869141 0)"/>
       <use xlink:href="#DejaVuSans-2e" transform="translate(254.492188 0)"/>
       <use xlink:href="#DejaVuSans-30" transform="translate(286.279297 0)"/>
      </g>
     </g>
    </g>
    <g id="xtick_3">
     <g id="line2d_4">
      <g>
       <use xlink:href="#made0fc7a4e" x="383.754893" y="580.9073" style="fill: #5c7a68; stroke: #5c7a68; stroke-width: 0.8"/>
      </g>
     </g>
     <g id="text_3">
      <!-- 2022.5 -->
      <g style="fill: #5c7a68" transform="translate(366.259581 595.505737) scale(0.1 -0.1)">
       <use xlink:href="#DejaVuSans-32"/>
       <use xlink:href="#DejaVuSans-30" transform="translate(63.623047 0)"/>
       <use xlink:href="#DejaVuSans-32" transform="translate(127.246094 0)"/>
       <use xlink:href="#DejaVuSans-32" transform="translate(190.869141 0)"/>
       <use xlink:href="#DejaVuSans-2e" transform="translate(254.492188 0)"/>
       <use xlink:href="#DejaVuSans-35" transform="translate(286.279297 0)"/>
      </g>
     </g>
    </g>
    <g id="xtick_4">
     <g id="line2d_5">
      <g>
       <use xlink:href="#made0fc7a4e" x="512.544756" y="580.9073" style="fill: #5c7a68; stroke: #5c7a68; stroke-width: 0.8"/>
      </g>
     </g>
     <g id="text_4">
      <!-- 2025.0 -->
      <g style="fill: #5c7a68" transform="translate(495.049444 595.505737) scale(0.1 -0.1)">
       <use xlink:href="#DejaVuSans-32"/>
       <use xlink:href="#DejaVuSans-30" transform="translate(63.623047 0)"/>
       <use xlink:href="#DejaVuSans-32" transform="translate(127.246094 0)"/>
       <use xlink:href="#DejaVuSans-35" transform="translate(190.869141 0)"/>
       <use xlink:href="#DejaVuSans-2e" transform="translate(254.492188 0)"/>
       <use xlink:href="#DejaVuSans-30" transform="translate(286.279297 0)"/>
      </g>
     </g>
    </g>
    <g id="xtick_5">
     <g id="line2d_6">
      <g>
       <use xlink:href="#made0fc7a4e" x="641.334619" y="580.9073" style="fill: #5c7a68; stroke: #5c7a68; stroke-width: 0.8"/>
      </g>
     </g>
     <g id="text_5">
      <!-- 2027.5 -->
      <g style="fill: #5c7a68" transform="translate(623.839307 595.505737) scale(0.1 -0.1)">
       <use xlink:href="#DejaVuSans-32"/>
       <use xlink:href="#DejaVuSans-30" transform="translate(63.623047 0)"/>
       <use xlink:href="#DejaVuSans-32" transform="translate(127.246094 0)"/>
       <use xlink:href="#DejaVuSans-37" transform="translate(190.869141 0)"/>
       <use xlink:href="#DejaVuSans-2e" transform="translate(254.492188 0)"/>
       <use xlink:href="#DejaVuSans-35" transform="translate(286.279297 0)"/>
      </g>
     </g>
    </g>
    <g id="xtick_6">
     <g id="line2d_7">
      <g>
       <use xlink:href="#made0fc7a4e" x="770.124482" y="580.9073" style="fill: #5c7a68; stroke: #5c7a68; stroke-width: 0.8"/>
      </g>
     </g>
     <g id="text_6">
      <!-- 2030.0 -->
      <g style="fill: #5c7a68" transform="translate(752.629169 595.505737) scale(0.1 -0.1)">
       <defs>
        <path id="DejaVuSans-33" d="M 2597 2516 
Q 3050 2419 3304 2112 
Q 3559 1806 3559 1356 
Q 3559 666 3084 287 
Q 2609 -91 1734 -91 
Q 1441 -91 1130 -33 
Q 819 25 488 141 
L 488 750 
Q 750 597 1062 519 
Q 1375 441 1716 441 
Q 2309 441 2620 675 
Q 2931 909 2931 1356 
Q 2931 1769 2642 2001 
Q 2353 2234 1838 2234 
L 1294 2234 
L 1294 2753 
L 1863 2753 
Q 2328 2753 2575 2939 
Q 2822 3125 2822 3475 
Q 2822 3834 2567 4026 
Q 2313 4219 1838 4219 
Q 1578 4219 1281 4162 
Q 984 4106 628 3988 
L 628 4550 
Q 988 4650 1302 4700 
Q 1616 4750 1894 4750 
Q 2613 4750 3031 4423 
Q 3450 4097 3450 3541 
Q 3450 3153 3228 2886 
Q 3006 2619 2597 2516 
z
" transform="scale(0.015625)"/>
       </defs>
       <use xlink:href="#DejaVuSans-32"/>
       <use xlink:href="#DejaVuSans-30" transform="translate(63.623047 0)"/>
       <use xlink:href="#DejaVuSans-33" transform="translate(127.246094 0)"/>
       <use xlink:href="#DejaVuSans-30" transform="translate(190.869141 0)"/>
       <use xlink:href="#DejaVuSans-2e" transform="translate(254.492188 0)"/>
       <use xlink:href="#DejaVuSans-30" transform="translate(286.279297 0)"/>
      </g>
     </g>
    </g>
    <g id="xtick_7">
     <g id="line2d_8">
      <g>
       <use xlink:href="#made0fc7a4e" x="898.914345" y="580.9073" style="fill: #5c7a68; stroke: #5c7a68; stroke-width: 0.8"/>
      </g>
     </g>
     <g id="text_7">
      <!-- 2032.5 -->
      <g style="fill: #5c7a68" transform="translate(881.419032 595.505737) scale(0.1 -0.1)">
       <use xlink:href="#DejaVuSans-32"/>
       <use xlink:href="#DejaVuSans-30" transform="translate(63.623047 0)"/>
       <use xlink:href="#DejaVuSans-33" transform="translate(127.246094 0)"/>
       <use xlink:href="#DejaVuSans-32" transform="translate(190.869141 0)"/>
       <use xlink:href="#DejaVuSans-2e" transform="translate(254.492188 0)"/>
       <use xlink:href="#DejaVuSans-35" transform="translate(286.279297 0)"/>
      </g>
     </g>
    </g>
    <g id="xtick_8">
     <g id="line2d_9">
      <g>
       <use xlink:href="#made0fc7a4e" x="1027.704207" y="580.9073" style="fill: #5c7a68; stroke: #5c7a68; stroke-width: 0.8"/>
      </g>
     </g>
     <g id="text_8">
      <!-- 2035.0 -->
      <g style="fill: #5c7a68" transform="translate(1010.208895 595.505737) scale(0.1 -0.1)">
       <use xlink:href="#DejaVuSans-32"/>
       <use xlink:href="#DejaVuSans-30" transform="translate(63.623047 0)"/>
       <use xlink:href="#DejaVuSans-33" transform="translate(127.246094 0)"/>
       <use xlink:href="#DejaVuSans-35" transform="translate(190.869141 0)"/>
       <use xlink:href="#DejaVuSans-2e" transform="translate(254.492188 0)"/>
       <use xlink:href="#DejaVuSans-30" transform="translate(286.279297 0)"/>
      </g>
     </g>
    </g>
    <g id="text_9">
     <!-- Year -->
     <g style="fill: #173024" transform="translate(525.597729 610.70355) scale(0.12 -0.12)">
      <defs>
       <path id="DejaVuSans-59" d="M -13 4666 
L 666 4666 
L 1959 2747 
L 3244 4666 
L 3922 4666 
L 2272 2222 
L 2272 0 
L 1638 0 
L 1638 2222 
L -13 4666 
z
" transform="scale(0.015625)"/>
       <path id="DejaVuSans-65" d="M 3597 1894 
L 3597 1613 
L 953 1613 
Q 991 1019 1311 708 
Q 1631 397 2203 397 
Q 2534 397 2845 478 
Q 3156 559 3463 722 
L 3463 178 
Q 3153 47 2828 -22 
Q 2503 -91 2169 -91 
Q 1331 -91 842 396 
Q 353 884 353 1716 
Q 353 2575 817 3079 
Q 1281 3584 2069 3584 
Q 2775 3584 3186 3129 
Q 3597 2675 3597 1894 
z
M 3022 2063 
Q 3016 2534 2758 2815 
Q 2500 3097 2075 3097 
Q 1594 3097 1305 2825 
Q 1016 2553 972 2059 
L 3022 2063 
z
" transform="scale(0.015625)"/>
       <path id="DejaVuSans-61" d="M 2194 1759 
Q 1497 1759 1228 1600 
Q 959 1441 959 1056 
Q 959 750 1161 570 
Q 1363 391 1709 391 
Q 2188 391 2477 730 
Q 2766 1069 2766 1631 
L 2766 1759 
L 2194 1759 
z
M 3341 1997 
L 3341 0 
L 2766 0 
L 2766 531 
Q 2569 213 2275 61 
Q 1981 -91 1556 -91 
Q 1019 -91 701 211 
Q 384 513 384 1019 
Q 384 1609 779 1909 
Q 1175 2209 1959 2209 
L 2766 2209 
L 2766 2266 
Q 2766 2663 2505 2880 
Q 2244 3097 1772 3097 
Q 1472 3097 1187 3025 
Q 903 2953 641 2809 
L 641 3341 
Q 956 3463 1253 3523 
Q 1550 3584 1831 3584 
Q 2591 3584 2966 3190 
Q 3341 2797 3341 1997 
z
" transform="scale(0.015625)"/>
       <path id="DejaVuSans-72" d="M 2631 2963 
Q 2534 3019 2420 3045 
Q 2306 3072 2169 3072 
Q 1681 3072 1420 2755 
Q 1159 2438 1159 1844 
L 1159 0 
L 581 0 
L 581 3500 
L 1159 3500 
L 1159 2956 
Q 1341 3275 1631 3429 
Q 1922 3584 2338 3584 
Q 2397 3584 2469 3576 
Q 2541 3569 2628 3553 
L 2631 2963 
z
" transform="scale(0.015625)"/>
      </defs>
      <use xlink:href="#DejaVuSans-59"/>
      <use xlink:href="#DejaVuSans-65" transform="translate(47.833984 0)"/>
      <use xlink:href="#DejaVuSans-61" transform="translate(109.357422 0)"/>
      <use xlink:href="#DejaVuSans-72" transform="translate(170.636719 0)"/>
     </g>
    </g>
   </g>
   <g id="matplotlib.axis_2">
    <g id="ytick_1">
     <g id="line2d_10">
      <path d="M 48.90125 565.891727 
L 1027.704207 565.891727 
" clip-path="url(#p7faa6faabc)" style="fill: none; stroke: #d7e8db; stroke-width: 0.8; stroke-linecap: square"/>
     </g>
     <g id="line2d_11">
      <defs>
       <path id="mc59ca5428d" d="M 0 0 
L -3.5 0 
" style="stroke: #5c7a68; stroke-width: 0.8"/>
      </defs>
      <g>
       <use xlink:href="#mc59ca5428d" x="48.90125" y="565.891727" style="fill: #5c7a68; stroke: #5c7a68; stroke-width: 0.8"/>
      </g>
     </g>
     <g id="text_10">
      <!-- 100 -->
      <g style="fill: #5c7a68" transform="translate(22.81375 569.690946) scale(0.1 -0.1)">
       <use xlink:href="#DejaVuSans-31"/>
       <use xlink:href="#DejaVuSans-30" transform="translate(63.623047 0)"/>
       <use xlink:href="#DejaVuSans-30" transform="translate(127.246094 0)"/>
      </g>
     </g>
    </g>
    <g id="ytick_2">
     <g id="line2d_12">
      <path d="M 48.90125 452.744934 
L 1027.704207 452.744934 
" clip-path="url(#p7faa6faabc)" style="fill: none; stroke: #d7e8db; stroke-width: 0.8; stroke-linecap: square"/>
     </g>
     <g id="line2d_13">
      <g>
       <use xlink:href="#mc59ca5428d" x="48.90125" y="452.744934" style="fill: #5c7a68; stroke: #5c7a68; stroke-width: 0.8"/>
      </g>
     </g>
     <g id="text_11">
      <!-- 150 -->
      <g style="fill: #5c7a68" transform="translate(22.81375 456.544153) scale(0.1 -0.1)">
       <use xlink:href="#DejaVuSans-31"/>
       <use xlink:href="#DejaVuSans-35" transform="translate(63.623047 0)"/>
       <use xlink:href="#DejaVuSans-30" transform="translate(127.246094 0)"/>
      </g>
     </g>
    </g>
    <g id="ytick_3">
     <g id="line2d_14">
      <path d="M 48.90125 339.59814 
L 1027.704207 339.59814 
" clip-path="url(#p7faa6faabc)" style="fill: none; stroke: #d7e8db; stroke-width: 0.8; stroke-linecap: square"/>
     </g>
     <g id="line2d_15">
      <g>
       <use xlink:href="#mc59ca5428d" x="48.90125" y="339.59814" style="fill: #5c7a68; stroke: #5c7a68; stroke-width: 0.8"/>
      </g>
     </g>
     <g id="text_12">
      <!-- 200 -->
      <g style="fill: #5c7a68" transform="translate(22.81375 343.397359) scale(0.1 -0.1)">
       <use xlink:href="#DejaVuSans-32"/>
       <use xlink:href="#DejaVuSans-30" transform="translate(63.623047 0)"/>
       <use xlink:href="#DejaVuSans-30" transform="translate(127.246094 0)"/>
      </g>
     </g>
    </g>
    <g id="ytick_4">
     <g id="line2d_16">
      <path d="M 48.90125 226.451347 
L 1027.704207 226.451347 
" clip-path="url(#p7faa6faabc)" style="fill: none; stroke: #d7e8db; stroke-width: 0.8; stroke-linecap: square"/>
     </g>
     <g id="line2d_17">
      <g>
       <use xlink:href="#mc59ca5428d" x="48.90125" y="226.451347" style="fill: #5c7a68; stroke: #5c7a68; stroke-width: 0.8"/>
      </g>
     </g>
     <g id="text_13">
      <!-- 250 -->
      <g style="fill: #5c7a68" transform="translate(22.81375 230.250566) scale(0.1 -0.1)">
       <use xlink:href="#DejaVuSans-32"/>
       <use xlink:href="#DejaVuSans-35" transform="translate(63.623047 0)"/>
       <use xlink:href="#DejaVuSans-30" transform="translate(127.246094 0)"/>
      </g>
     </g>
    </g>
    <g id="ytick_5">
     <g id="line2d_18">
      <path d="M 48.90125 113.304553 
L 1027.704207 113.304553 
" clip-path="url(#p7faa6faabc)" style="fill: none; stroke: #d7e8db; stroke-width: 0.8; stroke-linecap: square"/>
     </g>
     <g id="line2d_19">
      <g>
       <use xlink:href="#mc59ca5428d" x="48.90125" y="113.304553" style="fill: #5c7a68; stroke: #5c7a68; stroke-width: 0.8"/>
      </g>
     </g>
     <g id="text_14">
      <!-- 300 -->
      <g style="fill: #5c7a68" transform="translate(22.81375 117.103772) scale(0.1 -0.1)">
       <use xlink:href="#DejaVuSans-33"/>
       <use xlink:href="#DejaVuSans-30" transform="translate(63.623047 0)"/>
       <use xlink:href="#DejaVuSans-30" transform="translate(127.246094 0)"/>
      </g>
     </g>
    </g>
    <g id="text_15">
     <!-- Prevalence per 100k -->
     <g style="fill: #173024" transform="translate(16.318125 366.047098) rotate(-90) scale(0.12 -0.12)">
      <defs>
       <path id="DejaVuSans-50" d="M 1259 4147 
L 1259 2394 
L 2053 2394 
Q 2494 2394 2734 2622 
Q 2975 2850 2975 3272 
Q 2975 3691 2734 3919 
Q 2494 4147 2053 4147 
L 1259 4147 
z
M 628 4666 
L 2053 4666 
Q 2838 4666 3239 4311 
Q 3641 3956 3641 3272 
Q 3641 2581 3239 2228 
Q 2838 1875 2053 1875 
L 1259 1875 
L 1259 0 
L 628 0 
L 628 4666 
z
" transform="scale(0.015625)"/>
       <path id="DejaVuSans-76" d="M 191 3500 
L 800 3500 
L 1894 563 
L 2988 3500 
L 3597 3500 
L 2284 0 
L 1503 0 
L 191 3500 
z
" transform="scale(0.015625)"/>
       <path id="DejaVuSans-6c" d="M 603 4863 
L 1178 4863 
L 1178 0 
L 603 0 
L 603 4863 
z
" transform="scale(0.015625)"/>
       <path id="DejaVuSans-6e" d="M 3513 2113 
L 3513 0 
L 2938 0 
L 2938 2094 
Q 2938 2591 2744 2837 
Q 2550 3084 2163 3084 
Q 1697 3084 1428 2787 
Q 1159 2491 1159 1978 
L 1159 0 
L 581 0 
L 581 3500 
L 1159 3500 
L 1159 2956 
Q 1366 3272 1645 3428 
Q 1925 3584 2291 3584 
Q 2894 3584 3203 3211 
Q 3513 2838 3513 2113 
z
" transform="scale(0.015625)"/>
       <path id="DejaVuSans-63" d="M 3122 3366 
L 3122 2828 
Q 2878 2963 2633 3030 
Q 2388 3097 2138 3097 
Q 1578 3097 1268 2742 
Q 959 2388 959 1747 
Q 959 1106 1268 751 
Q 1578 397 2138 397 
Q 2388 397 2633 464 
Q 2878 531 3122 666 
L 3122 134 
Q 2881 22 2623 -34 
Q 2366 -91 2075 -91 
Q 1284 -91 818 406 
Q 353 903 353 1747 
Q 353 2603 823 3093 
Q 1294 3584 2113 3584 
Q 2378 3584 2631 3529 
Q 2884 3475 3122 3366 
z
" transform="scale(0.015625)"/>
       <path id="DejaVuSans-20" transform="scale(0.015625)"/>
       <path id="DejaVuSans-70" d="M 1159 525 
L 1159 -1331 
L 581 -1331 
L 581 3500 
L 1159 3500 
L 1159 2969 
Q 1341 3281 1617 3432 
Q 1894 3584 2278 3584 
Q 2916 3584 3314 3078 
Q 3713 2572 3713 1747 
Q 3713 922 3314 415 
Q 2916 -91 2278 -91 
Q 1894 -91 1617 61 
Q 1341 213 1159 525 
z
M 3116 1747 
Q 3116 2381 2855 2742 
Q 2594 3103 2138 3103 
Q 1681 3103 1420 2742 
Q 1159 2381 1159 1747 
Q 1159 1113 1420 752 
Q 1681 391 2138 391 
Q 2594 391 2855 752 
Q 3116 1113 3116 1747 
z
" transform="scale(0.015625)"/>
       <path id="DejaVuSans-6b" d="M 581 4863 
L 1159 4863 
L 1159 1991 
L 2875 3500 
L 3609 3500 
L 1753 1863 
L 3688 0 
L 2938 0 
L 1159 1709 
L 1159 0 
L 581 0 
L 581 4863 
z
" transform="scale(0.015625)"/>
      </defs>
      <use xlink:href="#DejaVuSans-50"/>
      <use xlink:href="#DejaVuSans-72" transform="translate(58.552734 0)"/>
      <use xlink:href="#DejaVuSans-65" transform="translate(97.416016 0)"/>
      <use xlink:href="#DejaVuSans-76" transform="translate(158.939453 0)"/>
      <use xlink:href="#DejaVuSans-61" transform="translate(218.119141 0)"/>
      <use xlink:href="#DejaVuSans-6c" transform="translate(279.398438 0)"/>
      <use xlink:href="#DejaVuSans-65" transform="translate(307.181641 0)"/>
      <use xlink:href="#DejaVuSans-6e" transform="translate(368.705078 0)"/>
      <use xlink:href="#DejaVuSans-63" transform="translate(432.083984 0)"/>
      <use xlink:href="#DejaVuSans-65" transform="translate(487.064453 0)"/>
      <use xlink:href="#DejaVuSans-20" transform="translate(548.587891 0)"/>
      <use xlink:href="#DejaVuSans-70" transform="translate(580.375 0)"/>
      <use xlink:href="#DejaVuSans-65" transform="translate(643.851562 0)"/>
      <use xlink:href="#DejaVuSans-72" transform="translate(705.375 0)"/>
      <use xlink:href="#DejaVuSans-20" transform="translate(746.488281 0)"/>
      <use xlink:href="#DejaVuSans-31" transform="translate(778.275391 0)"/>
      <use xlink:href="#DejaVuSans-30" transform="translate(841.898438 0)"/>
      <use xlink:href="#DejaVuSans-30" transform="translate(905.521484 0)"/>
      <use xlink:href="#DejaVuSans-6b" transform="translate(969.144531 0)"/>
     </g>
    </g>
   </g>
   <g id="FillBetweenPolyCollection_1">
    <defs>
     <path id="mf247422d21" d="M 564.060701 -262.014265 
L 564.060701 -259.830934 
L 615.576646 -252.20138 
L 667.092592 -233.920579 
L 718.608537 -221.232138 
L 770.124482 -244.772132 
L 821.640427 -250.279571 
L 873.156372 -252.663324 
L 924.672317 -236.198229 
L 976.188262 -257.808416 
L 1027.704207 -257.101766 
L 1027.704207 -258.263002 
L 1027.704207 -258.263002 
L 976.188262 -293.964009 
L 924.672317 -255.940958 
L 873.156372 -273.254936 
L 821.640427 -271.502314 
L 770.124482 -250.848175 
L 718.608537 -240.675313 
L 667.092592 -245.213278 
L 615.576646 -252.459409 
L 564.060701 -262.014265 
z
" style="stroke: #a7d7af; stroke-opacity: 0.32"/>
    </defs>
    <g clip-path="url(#p7faa6faabc)">
     <use xlink:href="#mf247422d21" x="0" y="620.399175" style="fill: #a7d7af; fill-opacity: 0.32; stroke: #a7d7af; stroke-opacity: 0.32"/>
    </g>
   </g>
   <g id="patch_4">
    <path d="M 48.90125 580.9073 
L 48.90125 27.937521 
" style="fill: none; stroke: #d7e8db; stroke-width: 0.8; stroke-linejoin: miter; stroke-linecap: square"/>
   </g>
   <g id="patch_5">
    <path d="M 48.90125 580.9073 
L 1027.704207 580.9073 
" style="fill: none; stroke: #d7e8db; stroke-width: 0.8; stroke-linejoin: miter; stroke-linecap: square"/>
   </g>
   <g id="text_16">
    <!-- Observed history transitions into climate-scenario prevalence projection -->
    <g style="fill: #5c7a68" transform="translate(48.90125 14.798437) scale(0.1 -0.1)">
     <defs>
      <path id="DejaVuSans-4f" d="M 2522 4238 
Q 1834 4238 1429 3725 
Q 1025 3213 1025 2328 
Q 1025 1447 1429 934 
Q 1834 422 2522 422 
Q 3209 422 3611 934 
Q 4013 1447 4013 2328 
Q 4013 3213 3611 3725 
Q 3209 4238 2522 4238 
z
M 2522 4750 
Q 3503 4750 4090 4092 
Q 4678 3434 4678 2328 
Q 4678 1225 4090 567 
Q 3503 -91 2522 -91 
Q 1538 -91 948 565 
Q 359 1222 359 2328 
Q 359 3434 948 4092 
Q 1538 4750 2522 4750 
z
" transform="scale(0.015625)"/>
      <path id="DejaVuSans-62" d="M 3116 1747 
Q 3116 2381 2855 2742 
Q 2594 3103 2138 3103 
Q 1681 3103 1420 2742 
Q 1159 2381 1159 1747 
Q 1159 1113 1420 752 
Q 1681 391 2138 391 
Q 2594 391 2855 752 
Q 3116 1113 3116 1747 
z
M 1159 2969 
Q 1341 3281 1617 3432 
Q 1894 3584 2278 3584 
Q 2916 3584 3314 3078 
Q 3713 2572 3713 1747 
Q 3713 922 3314 415 
Q 2916 -91 2278 -91 
Q 1894 -91 1617 61 
Q 1341 213 1159 525 
L 1159 0 
L 581 0 
L 581 4863 
L 1159 4863 
L 1159 2969 
z
" transform="scale(0.015625)"/>
      <path id="DejaVuSans-73" d="M 2834 3397 
L 2834 2853 
Q 2591 2978 2328 3040 
Q 2066 3103 1784 3103 
Q 1356 3103 1142 2972 
Q 928 2841 928 2578 
Q 928 2378 1081 2264 
Q 1234 2150 1697 2047 
L 1894 2003 
Q 2506 1872 2764 1633 
Q 3022 1394 3022 966 
Q 3022 478 2636 193 
Q 2250 -91 1575 -91 
Q 1294 -91 989 -36 
Q 684 19 347 128 
L 347 722 
Q 666 556 975 473 
Q 1284 391 1588 391 
Q 1994 391 2212 530 
Q 2431 669 2431 922 
Q 2431 1156 2273 1281 
Q 2116 1406 1581 1522 
L 1381 1569 
Q 847 1681 609 1914 
Q 372 2147 372 2553 
Q 372 3047 722 3315 
Q 1072 3584 1716 3584 
Q 2034 3584 2315 3537 
Q 2597 3491 2834 3397 
z
" transform="scale(0.015625)"/>
      <path id="DejaVuSans-64" d="M 2906 2969 
L 2906 4863 
L 3481 4863 
L 3481 0 
L 2906 0 
L 2906 525 
Q 2725 213 2448 61 
Q 2172 -91 1784 -91 
Q 1150 -91 751 415 
Q 353 922 353 1747 
Q 353 2572 751 3078 
Q 1150 3584 1784 3584 
Q 2172 3584 2448 3432 
Q 2725 3281 2906 2969 
z
M 947 1747 
Q 947 1113 1208 752 
Q 1469 391 1925 391 
Q 2381 391 2643 752 
Q 2906 1113 2906 1747 
Q 2906 2381 2643 2742 
Q 2381 3103 1925 3103 
Q 1469 3103 1208 2742 
Q 947 2381 947 1747 
z
" transform="scale(0.015625)"/>
      <path id="DejaVuSans-68" d="M 3513 2113 
L 3513 0 
L 2938 0 
L 2938 2094 
Q 2938 2591 2744 2837 
Q 2550 3084 2163 3084 
Q 1697 3084 1428 2787 
Q 1159 2491 1159 1978 
L 1159 0 
L 581 0 
L 581 4863 
L 1159 4863 
L 1159 2956 
Q 1366 3272 1645 3428 
Q 1925 3584 2291 3584 
Q 2894 3584 3203 3211 
Q 3513 2838 3513 2113 
z
" transform="scale(0.015625)"/>
      <path id="DejaVuSans-69" d="M 603 3500 
L 1178 3500 
L 1178 0 
L 603 0 
L 603 3500 
z
M 603 4863 
L 1178 4863 
L 1178 4134 
L 603 4134 
L 603 4863 
z
" transform="scale(0.015625)"/>
      <path id="DejaVuSans-74" d="M 1172 4494 
L 1172 3500 
L 2356 3500 
L 2356 3053 
L 1172 3053 
L 1172 1153 
Q 1172 725 1289 603 
Q 1406 481 1766 481 
L 2356 481 
L 2356 0 
L 1766 0 
Q 1100 0 847 248 
Q 594 497 594 1153 
L 594 3053 
L 172 3053 
L 172 3500 
L 594 3500 
L 594 4494 
L 1172 4494 
z
" transform="scale(0.015625)"/>
      <path id="DejaVuSans-6f" d="M 1959 3097 
Q 1497 3097 1228 2736 
Q 959 2375 959 1747 
Q 959 1119 1226 758 
Q 1494 397 1959 397 
Q 2419 397 2687 759 
Q 2956 1122 2956 1747 
Q 2956 2369 2687 2733 
Q 2419 3097 1959 3097 
z
M 1959 3584 
Q 2709 3584 3137 3096 
Q 3566 2609 3566 1747 
Q 3566 888 3137 398 
Q 2709 -91 1959 -91 
Q 1206 -91 779 398 
Q 353 888 353 1747 
Q 353 2609 779 3096 
Q 1206 3584 1959 3584 
z
" transform="scale(0.015625)"/>
      <path id="DejaVuSans-79" d="M 2059 -325 
Q 1816 -950 1584 -1140 
Q 1353 -1331 966 -1331 
L 506 -1331 
L 506 -850 
L 844 -850 
Q 1081 -850 1212 -737 
Q 1344 -625 1503 -206 
L 1606 56 
L 191 3500 
L 800 3500 
L 1894 763 
L 2988 3500 
L 3597 3500 
L 2059 -325 
z
" transform="scale(0.015625)"/>
      <path id="DejaVuSans-6d" d="M 3328 2828 
Q 3544 3216 3844 3400 
Q 4144 3584 4550 3584 
Q 5097 3584 5394 3201 
Q 5691 2819 5691 2113 
L 5691 0 
L 5113 0 
L 5113 2094 
Q 5113 2597 4934 2840 
Q 4756 3084 4391 3084 
Q 3944 3084 3684 2787 
Q 3425 2491 3425 1978 
L 3425 0 
L 2847 0 
L 2847 2094 
Q 2847 2600 2669 2842 
Q 2491 3084 2119 3084 
Q 1678 3084 1418 2786 
Q 1159 2488 1159 1978 
L 1159 0 
L 581 0 
L 581 3500 
L 1159 3500 
L 1159 2956 
Q 1356 3278 1631 3431 
Q 1906 3584 2284 3584 
Q 2666 3584 2933 3390 
Q 3200 3197 3328 2828 
z
" transform="scale(0.015625)"/>
      <path id="DejaVuSans-2d" d="M 313 2009 
L 1997 2009 
L 1997 1497 
L 313 1497 
L 313 2009 
z
" transform="scale(0.015625)"/>
      <path id="DejaVuSans-6a" d="M 603 3500 
L 1178 3500 
L 1178 -63 
Q 1178 -731 923 -1031 
Q 669 -1331 103 -1331 
L -116 -1331 
L -116 -844 
L 38 -844 
Q 366 -844 484 -692 
Q 603 -541 603 -63 
L 603 3500 
z
M 603 4863 
L 1178 4863 
L 1178 4134 
L 603 4134 
L 603 4863 
z
" transform="scale(0.015625)"/>
     </defs>
     <use xlink:href="#DejaVuSans-4f"/>
     <use xlink:href="#DejaVuSans-62" transform="translate(78.710938 0)"/>
     <use xlink:href="#DejaVuSans-73" transform="translate(142.1875 0)"/>
     <use xlink:href="#DejaVuSans-65" transform="translate(194.287109 0)"/>
     <use xlink:href="#DejaVuSans-72" transform="translate(255.810547 0)"/>
     <use xlink:href="#DejaVuSans-76" transform="translate(296.923828 0)"/>
     <use xlink:href="#DejaVuSans-65" transform="translate(356.103516 0)"/>
     <use xlink:href="#DejaVuSans-64" transform="translate(417.626953 0)"/>
     <use xlink:href="#DejaVuSans-20" transform="translate(481.103516 0)"/>
     <use xlink:href="#DejaVuSans-68" transform="translate(512.890625 0)"/>
     <use xlink:href="#DejaVuSans-69" transform="translate(576.269531 0)"/>
     <use xlink:href="#DejaVuSans-73" transform="translate(604.052734 0)"/>
     <use xlink:href="#DejaVuSans-74" transform="translate(656.152344 0)"/>
     <use xlink:href="#DejaVuSans-6f" transform="translate(695.361328 0)"/>
     <use xlink:href="#DejaVuSans-72" transform="translate(756.542969 0)"/>
     <use xlink:href="#DejaVuSans-79" transform="translate(797.65625 0)"/>
     <use xlink:href="#DejaVuSans-20" transform="translate(856.835938 0)"/>
     <use xlink:href="#DejaVuSans-74" transform="translate(888.623047 0)"/>
     <use xlink:href="#DejaVuSans-72" transform="translate(927.832031 0)"/>
     <use xlink:href="#DejaVuSans-61" transform="translate(968.945312 0)"/>
     <use xlink:href="#DejaVuSans-6e" transform="translate(1030.224609 0)"/>
     <use xlink:href="#DejaVuSans-73" transform="translate(1093.603516 0)"/>
     <use xlink:href="#DejaVuSans-69" transform="translate(1145.703125 0)"/>
     <use xlink:href="#DejaVuSans-74" transform="translate(1173.486328 0)"/>
     <use xlink:href="#DejaVuSans-69" transform="translate(1212.695312 0)"/>
     <use xlink:href="#DejaVuSans-6f" transform="translate(1240.478516 0)"/>
     <use xlink:href="#DejaVuSans-6e" transform="translate(1301.660156 0)"/>
     <use xlink:href="#DejaVuSans-73" transform="translate(1365.039062 0)"/>
     <use xlink:href="#DejaVuSans-20" transform="translate(1417.138672 0)"/>
     <use xlink:href="#DejaVuSans-69" transform="translate(1448.925781 0)"/>
     <use xlink:href="#DejaVuSans-6e" transform="translate(1476.708984 0)"/>
     <use xlink:href="#DejaVuSans-74" transform="translate(1540.087891 0)"/>
     <use xlink:href="#DejaVuSans-6f" transform="translate(1579.296875 0)"/>
     <use xlink:href="#DejaVuSans-20" transform="translate(1640.478516 0)"/>
     <use xlink:href="#DejaVuSans-63" transform="translate(1672.265625 0)"/>
     <use xlink:href="#DejaVuSans-6c" transform="translate(1727.246094 0)"/>
     <use xlink:href="#DejaVuSans-69" transform="translate(1755.029297 0)"/>
     <use xlink:href="#DejaVuSans-6d" transform="translate(1782.8125 0)"/>
     <use xlink:href="#DejaVuSans-61" transform="translate(1880.224609 0)"/>
     <use xlink:href="#DejaVuSans-74" transform="translate(1941.503906 0)"/>
     <use xlink:href="#DejaVuSans-65" transform="translate(1980.712891 0)"/>
     <use xlink:href="#DejaVuSans-2d" transform="translate(2042.236328 0)"/>
     <use xlink:href="#DejaVuSans-73" transform="translate(2078.320312 0)"/>
     <use xlink:href="#DejaVuSans-63" transform="translate(2130.419922 0)"/>
     <use xlink:href="#DejaVuSans-65" transform="translate(2185.400391 0)"/>
     <use xlink:href="#DejaVuSans-6e" transform="translate(2246.923828 0)"/>
     <use xlink:href="#DejaVuSans-61" transform="translate(2310.302734 0)"/>
     <use xlink:href="#DejaVuSans-72" transform="translate(2371.582031 0)"/>
     <use xlink:href="#DejaVuSans-69" transform="translate(2412.695312 0)"/>
     <use xlink:href="#DejaVuSans-6f" transform="translate(2440.478516 0)"/>
     <use xlink:href="#DejaVuSans-20" transform="translate(2501.660156 0)"/>
     <use xlink:href="#DejaVuSans-70" transform="translate(2533.447266 0)"/>
     <use xlink:href="#DejaVuSans-72" transform="translate(2596.923828 0)"/>
     <use xlink:href="#DejaVuSans-65" transform="translate(2635.787109 0)"/>
     <use xlink:href="#DejaVuSans-76" transform="translate(2697.310547 0)"/>
     <use xlink:href="#DejaVuSans-61" transform="translate(2756.490234 0)"/>
     <use xlink:href="#DejaVuSans-6c" transform="translate(2817.769531 0)"/>
     <use xlink:href="#DejaVuSans-65" transform="translate(2845.552734 0)"/>
     <use xlink:href="#DejaVuSans-6e" transform="translate(2907.076172 0)"/>
     <use xlink:href="#DejaVuSans-63" transform="translate(2970.455078 0)"/>
     <use xlink:href="#DejaVuSans-65" transform="translate(3025.435547 0)"/>
     <use xlink:href="#DejaVuSans-20" transform="translate(3086.958984 0)"/>
     <use xlink:href="#DejaVuSans-70" transform="translate(3118.746094 0)"/>
     <use xlink:href="#DejaVuSans-72" transform="translate(3182.222656 0)"/>
     <use xlink:href="#DejaVuSans-6f" transform="translate(3221.085938 0)"/>
     <use xlink:href="#DejaVuSans-6a" transform="translate(3282.267578 0)"/>
     <use xlink:href="#DejaVuSans-65" transform="translate(3310.050781 0)"/>
     <use xlink:href="#DejaVuSans-63" transform="translate(3371.574219 0)"/>
     <use xlink:href="#DejaVuSans-74" transform="translate(3426.554688 0)"/>
     <use xlink:href="#DejaVuSans-69" transform="translate(3465.763672 0)"/>
     <use xlink:href="#DejaVuSans-6f" transform="translate(3493.546875 0)"/>
     <use xlink:href="#DejaVuSans-6e" transform="translate(3554.728516 0)"/>
    </g>
   </g>
   <g id="text_17">
    <!-- Projected climate-effect window -->
    <g style="fill: #0b6e4f" transform="translate(566.636499 59.042071) scale(0.1 -0.1)">
     <defs>
      <path id="DejaVuSans-Bold-50" d="M 588 4666 
L 2584 4666 
Q 3475 4666 3951 4270 
Q 4428 3875 4428 3144 
Q 4428 2409 3951 2014 
Q 3475 1619 2584 1619 
L 1791 1619 
L 1791 0 
L 588 0 
L 588 4666 
z
M 1791 3794 
L 1791 2491 
L 2456 2491 
Q 2806 2491 2997 2661 
Q 3188 2831 3188 3144 
Q 3188 3456 2997 3625 
Q 2806 3794 2456 3794 
L 1791 3794 
z
" transform="scale(0.015625)"/>
      <path id="DejaVuSans-Bold-72" d="M 3138 2547 
Q 2991 2616 2845 2648 
Q 2700 2681 2553 2681 
Q 2122 2681 1889 2404 
Q 1656 2128 1656 1613 
L 1656 0 
L 538 0 
L 538 3500 
L 1656 3500 
L 1656 2925 
Q 1872 3269 2151 3426 
Q 2431 3584 2822 3584 
Q 2878 3584 2943 3579 
Q 3009 3575 3134 3559 
L 3138 2547 
z
" transform="scale(0.015625)"/>
      <path id="DejaVuSans-Bold-6f" d="M 2203 2784 
Q 1831 2784 1636 2517 
Q 1441 2250 1441 1747 
Q 1441 1244 1636 976 
Q 1831 709 2203 709 
Q 2569 709 2762 976 
Q 2956 1244 2956 1747 
Q 2956 2250 2762 2517 
Q 2569 2784 2203 2784 
z
M 2203 3584 
Q 3106 3584 3614 3096 
Q 4122 2609 4122 1747 
Q 4122 884 3614 396 
Q 3106 -91 2203 -91 
Q 1297 -91 786 396 
Q 275 884 275 1747 
Q 275 2609 786 3096 
Q 1297 3584 2203 3584 
z
" transform="scale(0.015625)"/>
      <path id="DejaVuSans-Bold-6a" d="M 538 3500 
L 1656 3500 
L 1656 63 
Q 1656 -641 1318 -1011 
Q 981 -1381 341 -1381 
L -213 -1381 
L -213 -647 
L -19 -647 
Q 300 -647 419 -503 
Q 538 -359 538 63 
L 538 3500 
z
M 538 4863 
L 1656 4863 
L 1656 3950 
L 538 3950 
L 538 4863 
z
" transform="scale(0.015625)"/>
      <path id="DejaVuSans-Bold-65" d="M 4031 1759 
L 4031 1441 
L 1416 1441 
Q 1456 1047 1700 850 
Q 1944 653 2381 653 
Q 2734 653 3104 758 
Q 3475 863 3866 1075 
L 3866 213 
Q 3469 63 3072 -14 
Q 2675 -91 2278 -91 
Q 1328 -91 801 392 
Q 275 875 275 1747 
Q 275 2603 792 3093 
Q 1309 3584 2216 3584 
Q 3041 3584 3536 3087 
Q 4031 2591 4031 1759 
z
M 2881 2131 
Q 2881 2450 2695 2645 
Q 2509 2841 2209 2841 
Q 1884 2841 1681 2658 
Q 1478 2475 1428 2131 
L 2881 2131 
z
" transform="scale(0.015625)"/>
      <path id="DejaVuSans-Bold-63" d="M 3366 3391 
L 3366 2478 
Q 3138 2634 2908 2709 
Q 2678 2784 2431 2784 
Q 1963 2784 1702 2511 
Q 1441 2238 1441 1747 
Q 1441 1256 1702 982 
Q 1963 709 2431 709 
Q 2694 709 2930 787 
Q 3166 866 3366 1019 
L 3366 103 
Q 3103 6 2833 -42 
Q 2563 -91 2291 -91 
Q 1344 -91 809 395 
Q 275 881 275 1747 
Q 275 2613 809 3098 
Q 1344 3584 2291 3584 
Q 2566 3584 2833 3536 
Q 3100 3488 3366 3391 
z
" transform="scale(0.015625)"/>
      <path id="DejaVuSans-Bold-74" d="M 1759 4494 
L 1759 3500 
L 2913 3500 
L 2913 2700 
L 1759 2700 
L 1759 1216 
Q 1759 972 1856 886 
Q 1953 800 2241 800 
L 2816 800 
L 2816 0 
L 1856 0 
Q 1194 0 917 276 
Q 641 553 641 1216 
L 641 2700 
L 84 2700 
L 84 3500 
L 641 3500 
L 641 4494 
L 1759 4494 
z
" transform="scale(0.015625)"/>
      <path id="DejaVuSans-Bold-64" d="M 2919 2988 
L 2919 4863 
L 4044 4863 
L 4044 0 
L 2919 0 
L 2919 506 
Q 2688 197 2409 53 
Q 2131 -91 1766 -91 
Q 1119 -91 703 423 
Q 288 938 288 1747 
Q 288 2556 703 3070 
Q 1119 3584 1766 3584 
Q 2128 3584 2408 3439 
Q 2688 3294 2919 2988 
z
M 2181 722 
Q 2541 722 2730 984 
Q 2919 1247 2919 1747 
Q 2919 2247 2730 2509 
Q 2541 2772 2181 2772 
Q 1825 2772 1636 2509 
Q 1447 2247 1447 1747 
Q 1447 1247 1636 984 
Q 1825 722 2181 722 
z
" transform="scale(0.015625)"/>
      <path id="DejaVuSans-Bold-20" transform="scale(0.015625)"/>
      <path id="DejaVuSans-Bold-6c" d="M 538 4863 
L 1656 4863 
L 1656 0 
L 538 0 
L 538 4863 
z
" transform="scale(0.015625)"/>
      <path id="DejaVuSans-Bold-69" d="M 538 3500 
L 1656 3500 
L 1656 0 
L 538 0 
L 538 3500 
z
M 538 4863 
L 1656 4863 
L 1656 3950 
L 538 3950 
L 538 4863 
z
" transform="scale(0.015625)"/>
      <path id="DejaVuSans-Bold-6d" d="M 3781 2919 
Q 3994 3244 4286 3414 
Q 4578 3584 4928 3584 
Q 5531 3584 5847 3212 
Q 6163 2841 6163 2131 
L 6163 0 
L 5038 0 
L 5038 1825 
Q 5041 1866 5042 1909 
Q 5044 1953 5044 2034 
Q 5044 2406 4934 2573 
Q 4825 2741 4581 2741 
Q 4263 2741 4089 2478 
Q 3916 2216 3909 1719 
L 3909 0 
L 2784 0 
L 2784 1825 
Q 2784 2406 2684 2573 
Q 2584 2741 2328 2741 
Q 2006 2741 1831 2477 
Q 1656 2213 1656 1722 
L 1656 0 
L 531 0 
L 531 3500 
L 1656 3500 
L 1656 2988 
Q 1863 3284 2130 3434 
Q 2397 3584 2719 3584 
Q 3081 3584 3359 3409 
Q 3638 3234 3781 2919 
z
" transform="scale(0.015625)"/>
      <path id="DejaVuSans-Bold-61" d="M 2106 1575 
Q 1756 1575 1579 1456 
Q 1403 1338 1403 1106 
Q 1403 894 1545 773 
Q 1688 653 1941 653 
Q 2256 653 2472 879 
Q 2688 1106 2688 1447 
L 2688 1575 
L 2106 1575 
z
M 3816 1997 
L 3816 0 
L 2688 0 
L 2688 519 
Q 2463 200 2181 54 
Q 1900 -91 1497 -91 
Q 953 -91 614 226 
Q 275 544 275 1050 
Q 275 1666 698 1953 
Q 1122 2241 2028 2241 
L 2688 2241 
L 2688 2328 
Q 2688 2594 2478 2717 
Q 2269 2841 1825 2841 
Q 1466 2841 1156 2769 
Q 847 2697 581 2553 
L 581 3406 
Q 941 3494 1303 3539 
Q 1666 3584 2028 3584 
Q 2975 3584 3395 3211 
Q 3816 2838 3816 1997 
z
" transform="scale(0.015625)"/>
      <path id="DejaVuSans-Bold-2d" d="M 347 2297 
L 2309 2297 
L 2309 1388 
L 347 1388 
L 347 2297 
z
" transform="scale(0.015625)"/>
      <path id="DejaVuSans-Bold-66" d="M 2841 4863 
L 2841 4128 
L 2222 4128 
Q 1984 4128 1890 4042 
Q 1797 3956 1797 3744 
L 1797 3500 
L 2753 3500 
L 2753 2700 
L 1797 2700 
L 1797 0 
L 678 0 
L 678 2700 
L 122 2700 
L 122 3500 
L 678 3500 
L 678 3744 
Q 678 4316 997 4589 
Q 1316 4863 1984 4863 
L 2841 4863 
z
" transform="scale(0.015625)"/>
      <path id="DejaVuSans-Bold-77" d="M 225 3500 
L 1313 3500 
L 1900 1088 
L 2491 3500 
L 3425 3500 
L 4013 1113 
L 4603 3500 
L 5691 3500 
L 4769 0 
L 3547 0 
L 2956 2406 
L 2369 0 
L 1147 0 
L 225 3500 
z
" transform="scale(0.015625)"/>
      <path id="DejaVuSans-Bold-6e" d="M 4056 2131 
L 4056 0 
L 2931 0 
L 2931 347 
L 2931 1631 
Q 2931 2084 2911 2256 
Q 2891 2428 2841 2509 
Q 2775 2619 2662 2680 
Q 2550 2741 2406 2741 
Q 2056 2741 1856 2470 
Q 1656 2200 1656 1722 
L 1656 0 
L 538 0 
L 538 3500 
L 1656 3500 
L 1656 2988 
Q 1909 3294 2193 3439 
Q 2478 3584 2822 3584 
Q 3428 3584 3742 3212 
Q 4056 2841 4056 2131 
z
" transform="scale(0.015625)"/>
     </defs>
     <use xlink:href="#DejaVuSans-Bold-50"/>
     <use xlink:href="#DejaVuSans-Bold-72" transform="translate(73.291016 0)"/>
     <use xlink:href="#DejaVuSans-Bold-6f" transform="translate(122.607422 0)"/>
     <use xlink:href="#DejaVuSans-Bold-6a" transform="translate(191.308594 0)"/>
     <use xlink:href="#DejaVuSans-Bold-65" transform="translate(225.585938 0)"/>
     <use xlink:href="#DejaVuSans-Bold-63" transform="translate(293.408203 0)"/>
     <use xlink:href="#DejaVuSans-Bold-74" transform="translate(352.685547 0)"/>
     <use xlink:href="#DejaVuSans-Bold-65" transform="translate(400.488281 0)"/>
     <use xlink:href="#DejaVuSans-Bold-64" transform="translate(468.310547 0)"/>
     <use xlink:href="#DejaVuSans-Bold-20" transform="translate(539.892578 0)"/>
     <use xlink:href="#DejaVuSans-Bold-63" transform="translate(574.707031 0)"/>
     <use xlink:href="#DejaVuSans-Bold-6c" transform="translate(633.984375 0)"/>
     <use xlink:href="#DejaVuSans-Bold-69" transform="translate(668.261719 0)"/>
     <use xlink:href="#DejaVuSans-Bold-6d" transform="translate(702.539062 0)"/>
     <use xlink:href="#DejaVuSans-Bold-61" transform="translate(806.738281 0)"/>
     <use xlink:href="#DejaVuSans-Bold-74" transform="translate(874.21875 0)"/>
     <use xlink:href="#DejaVuSans-Bold-65" transform="translate(922.021484 0)"/>
     <use xlink:href="#DejaVuSans-Bold-2d" transform="translate(989.84375 0)"/>
     <use xlink:href="#DejaVuSans-Bold-65" transform="translate(1031.347656 0)"/>
     <use xlink:href="#DejaVuSans-Bold-66" transform="translate(1099.169922 0)"/>
     <use xlink:href="#DejaVuSans-Bold-66" transform="translate(1142.675781 0)"/>
     <use xlink:href="#DejaVuSans-Bold-65" transform="translate(1186.181641 0)"/>
     <use xlink:href="#DejaVuSans-Bold-63" transform="translate(1254.003906 0)"/>
     <use xlink:href="#DejaVuSans-Bold-74" transform="translate(1313.28125 0)"/>
     <use xlink:href="#DejaVuSans-Bold-20" transform="translate(1361.083984 0)"/>
     <use xlink:href="#DejaVuSans-Bold-77" transform="translate(1395.898438 0)"/>
     <use xlink:href="#DejaVuSans-Bold-69" transform="translate(1488.28125 0)"/>
     <use xlink:href="#DejaVuSans-Bold-6e" transform="translate(1522.558594 0)"/>
     <use xlink:href="#DejaVuSans-Bold-64" transform="translate(1593.75 0)"/>
     <use xlink:href="#DejaVuSans-Bold-6f" transform="translate(1665.332031 0)"/>
     <use xlink:href="#DejaVuSans-Bold-77" transform="translate(1734.033203 0)"/>
    </g>
   </g>
   <g id="text_18">
    <g id="patch_6">
     <path d="M 909.993179 79.69315 
L 1013.022163 79.69315 
Q 1017.297163 79.69315 1017.297163 75.41815 
L 1017.297163 55.58601 
Q 1017.297163 51.31101 1013.022163 51.31101 
L 909.993179 51.31101 
Q 905.718179 51.31101 905.718179 55.58601 
L 905.718179 75.41815 
Q 905.718179 79.69315 909.993179 79.69315 
z
" style="fill: #ffffff; stroke: #d7e8db; stroke-linejoin: miter"/>
    </g>
    <!-- Holdout RMSE: 48.4 -->
    <g style="fill: #173024" transform="translate(918.614429 62.804525) scale(0.095 -0.095)">
     <defs>
      <path id="DejaVuSans-48" d="M 628 4666 
L 1259 4666 
L 1259 2753 
L 3553 2753 
L 3553 4666 
L 4184 4666 
L 4184 0 
L 3553 0 
L 3553 2222 
L 1259 2222 
L 1259 0 
L 628 0 
L 628 4666 
z
" transform="scale(0.015625)"/>
      <path id="DejaVuSans-75" d="M 544 1381 
L 544 3500 
L 1119 3500 
L 1119 1403 
Q 1119 906 1312 657 
Q 1506 409 1894 409 
Q 2359 409 2629 706 
Q 2900 1003 2900 1516 
L 2900 3500 
L 3475 3500 
L 3475 0 
L 2900 0 
L 2900 538 
Q 2691 219 2414 64 
Q 2138 -91 1772 -91 
Q 1169 -91 856 284 
Q 544 659 544 1381 
z
M 1991 3584 
L 1991 3584 
z
" transform="scale(0.015625)"/>
      <path id="DejaVuSans-52" d="M 2841 2188 
Q 3044 2119 3236 1894 
Q 3428 1669 3622 1275 
L 4263 0 
L 3584 0 
L 2988 1197 
Q 2756 1666 2539 1819 
Q 2322 1972 1947 1972 
L 1259 1972 
L 1259 0 
L 628 0 
L 628 4666 
L 2053 4666 
Q 2853 4666 3247 4331 
Q 3641 3997 3641 3322 
Q 3641 2881 3436 2590 
Q 3231 2300 2841 2188 
z
M 1259 4147 
L 1259 2491 
L 2053 2491 
Q 2509 2491 2742 2702 
Q 2975 2913 2975 3322 
Q 2975 3731 2742 3939 
Q 2509 4147 2053 4147 
L 1259 4147 
z
" transform="scale(0.015625)"/>
      <path id="DejaVuSans-4d" d="M 628 4666 
L 1569 4666 
L 2759 1491 
L 3956 4666 
L 4897 4666 
L 4897 0 
L 4281 0 
L 4281 4097 
L 3078 897 
L 2444 897 
L 1241 4097 
L 1241 0 
L 628 0 
L 628 4666 
z
" transform="scale(0.015625)"/>
      <path id="DejaVuSans-53" d="M 3425 4513 
L 3425 3897 
Q 3066 4069 2747 4153 
Q 2428 4238 2131 4238 
Q 1616 4238 1336 4038 
Q 1056 3838 1056 3469 
Q 1056 3159 1242 3001 
Q 1428 2844 1947 2747 
L 2328 2669 
Q 3034 2534 3370 2195 
Q 3706 1856 3706 1288 
Q 3706 609 3251 259 
Q 2797 -91 1919 -91 
Q 1588 -91 1214 -16 
Q 841 59 441 206 
L 441 856 
Q 825 641 1194 531 
Q 1563 422 1919 422 
Q 2459 422 2753 634 
Q 3047 847 3047 1241 
Q 3047 1584 2836 1778 
Q 2625 1972 2144 2069 
L 1759 2144 
Q 1053 2284 737 2584 
Q 422 2884 422 3419 
Q 422 4038 858 4394 
Q 1294 4750 2059 4750 
Q 2388 4750 2728 4690 
Q 3069 4631 3425 4513 
z
" transform="scale(0.015625)"/>
      <path id="DejaVuSans-45" d="M 628 4666 
L 3578 4666 
L 3578 4134 
L 1259 4134 
L 1259 2753 
L 3481 2753 
L 3481 2222 
L 1259 2222 
L 1259 531 
L 3634 531 
L 3634 0 
L 628 0 
L 628 4666 
z
" transform="scale(0.015625)"/>
      <path id="DejaVuSans-3a" d="M 750 794 
L 1409 794 
L 1409 0 
L 750 0 
L 750 794 
z
M 750 3309 
L 1409 3309 
L 1409 2516 
L 750 2516 
L 750 3309 
z
" transform="scale(0.015625)"/>
      <path id="DejaVuSans-34" d="M 2419 4116 
L 825 1625 
L 2419 1625 
L 2419 4116 
z
M 2253 4666 
L 3047 4666 
L 3047 1625 
L 3713 1625 
L 3713 1100 
L 3047 1100 
L 3047 0 
L 2419 0 
L 2419 1100 
L 313 1100 
L 313 1709 
L 2253 4666 
z
" transform="scale(0.015625)"/>
      <path id="DejaVuSans-38" d="M 2034 2216 
Q 1584 2216 1326 1975 
Q 1069 1734 1069 1313 
Q 1069 891 1326 650 
Q 1584 409 2034 409 
Q 2484 409 2743 651 
Q 3003 894 3003 1313 
Q 3003 1734 2745 1975 
Q 2488 2216 2034 2216 
z
M 1403 2484 
Q 997 2584 770 2862 
Q 544 3141 544 3541 
Q 544 4100 942 4425 
Q 1341 4750 2034 4750 
Q 2731 4750 3128 4425 
Q 3525 4100 3525 3541 
Q 3525 3141 3298 2862 
Q 3072 2584 2669 2484 
Q 3125 2378 3379 2068 
Q 3634 1759 3634 1313 
Q 3634 634 3220 271 
Q 2806 -91 2034 -91 
Q 1263 -91 848 271 
Q 434 634 434 1313 
Q 434 1759 690 2068 
Q 947 2378 1403 2484 
z
M 1172 3481 
Q 1172 3119 1398 2916 
Q 1625 2713 2034 2713 
Q 2441 2713 2670 2916 
Q 2900 3119 2900 3481 
Q 2900 3844 2670 4047 
Q 2441 4250 2034 4250 
Q 1625 4250 1398 4047 
Q 1172 3844 1172 3481 
z
" transform="scale(0.015625)"/>
     </defs>
     <use xlink:href="#DejaVuSans-48"/>
     <use xlink:href="#DejaVuSans-6f" transform="translate(75.195312 0)"/>
     <use xlink:href="#DejaVuSans-6c" transform="translate(136.376953 0)"/>
     <use xlink:href="#DejaVuSans-64" transform="translate(164.160156 0)"/>
     <use xlink:href="#DejaVuSans-6f" transform="translate(227.636719 0)"/>
     <use xlink:href="#DejaVuSans-75" transform="translate(288.818359 0)"/>
     <use xlink:href="#DejaVuSans-74" transform="translate(352.197266 0)"/>
     <use xlink:href="#DejaVuSans-20" transform="translate(391.40625 0)"/>
     <use xlink:href="#DejaVuSans-52" transform="translate(423.193359 0)"/>
     <use xlink:href="#DejaVuSans-4d" transform="translate(492.675781 0)"/>
     <use xlink:href="#DejaVuSans-53" transform="translate(578.955078 0)"/>
     <use xlink:href="#DejaVuSans-45" transform="translate(642.431641 0)"/>
     <use xlink:href="#DejaVuSans-3a" transform="translate(705.615234 0)"/>
     <use xlink:href="#DejaVuSans-20" transform="translate(739.306641 0)"/>
     <use xlink:href="#DejaVuSans-34" transform="translate(771.09375 0)"/>
     <use xlink:href="#DejaVuSans-38" transform="translate(834.716797 0)"/>
     <use xlink:href="#DejaVuSans-2e" transform="translate(898.339844 0)"/>
     <use xlink:href="#DejaVuSans-34" transform="translate(930.126953 0)"/>
    </g>
    <!-- Holdout MAPE: 35.1% -->
    <g style="fill: #173024" transform="translate(909.993179 73.442447) scale(0.095 -0.095)">
     <defs>
      <path id="DejaVuSans-41" d="M 2188 4044 
L 1331 1722 
L 3047 1722 
L 2188 4044 
z
M 1831 4666 
L 2547 4666 
L 4325 0 
L 3669 0 
L 3244 1197 
L 1141 1197 
L 716 0 
L 50 0 
L 1831 4666 
z
" transform="scale(0.015625)"/>
      <path id="DejaVuSans-25" d="M 4653 2053 
Q 4381 2053 4226 1822 
Q 4072 1591 4072 1178 
Q 4072 772 4226 539 
Q 4381 306 4653 306 
Q 4919 306 5073 539 
Q 5228 772 5228 1178 
Q 5228 1588 5073 1820 
Q 4919 2053 4653 2053 
z
M 4653 2450 
Q 5147 2450 5437 2106 
Q 5728 1763 5728 1178 
Q 5728 594 5436 251 
Q 5144 -91 4653 -91 
Q 4153 -91 3862 251 
Q 3572 594 3572 1178 
Q 3572 1766 3864 2108 
Q 4156 2450 4653 2450 
z
M 1428 4353 
Q 1159 4353 1004 4120 
Q 850 3888 850 3481 
Q 850 3069 1003 2837 
Q 1156 2606 1428 2606 
Q 1700 2606 1854 2837 
Q 2009 3069 2009 3481 
Q 2009 3884 1853 4118 
Q 1697 4353 1428 4353 
z
M 4250 4750 
L 4750 4750 
L 1831 -91 
L 1331 -91 
L 4250 4750 
z
M 1428 4750 
Q 1922 4750 2215 4408 
Q 2509 4066 2509 3481 
Q 2509 2891 2217 2550 
Q 1925 2209 1428 2209 
Q 931 2209 642 2551 
Q 353 2894 353 3481 
Q 353 4063 643 4406 
Q 934 4750 1428 4750 
z
" transform="scale(0.015625)"/>
     </defs>
     <use xlink:href="#DejaVuSans-48"/>
     <use xlink:href="#DejaVuSans-6f" transform="translate(75.195312 0)"/>
     <use xlink:href="#DejaVuSans-6c" transform="translate(136.376953 0)"/>
     <use xlink:href="#DejaVuSans-64" transform="translate(164.160156 0)"/>
     <use xlink:href="#DejaVuSans-6f" transform="translate(227.636719 0)"/>
     <use xlink:href="#DejaVuSans-75" transform="translate(288.818359 0)"/>
     <use xlink:href="#DejaVuSans-74" transform="translate(352.197266 0)"/>
     <use xlink:href="#DejaVuSans-20" transform="translate(391.40625 0)"/>
     <use xlink:href="#DejaVuSans-4d" transform="translate(423.193359 0)"/>
     <use xlink:href="#DejaVuSans-41" transform="translate(509.472656 0)"/>
     <use xlink:href="#DejaVuSans-50" transform="translate(577.880859 0)"/>
     <use xlink:href="#DejaVuSans-45" transform="translate(638.183594 0)"/>
     <use xlink:href="#DejaVuSans-3a" transform="translate(701.367188 0)"/>
     <use xlink:href="#DejaVuSans-20" transform="translate(735.058594 0)"/>
     <use xlink:href="#DejaVuSans-33" transform="translate(766.845703 0)"/>
     <use xlink:href="#DejaVuSans-35" transform="translate(830.46875 0)"/>
     <use xlink:href="#DejaVuSans-2e" transform="translate(894.091797 0)"/>
     <use xlink:href="#DejaVuSans-31" transform="translate(925.878906 0)"/>
     <use xlink:href="#DejaVuSans-25" transform="translate(989.501953 0)"/>
    </g>
   </g>
   <g id="text_19">
    <!-- KME Prevalence -->
    <g style="fill: #173024" transform="translate(48.90125 21.937521) scale(0.16 -0.16)">
     <defs>
      <path id="DejaVuSans-Bold-4b" d="M 588 4666 
L 1791 4666 
L 1791 2963 
L 3525 4666 
L 4922 4666 
L 2675 2456 
L 5153 0 
L 3647 0 
L 1791 1838 
L 1791 0 
L 588 0 
L 588 4666 
z
" transform="scale(0.015625)"/>
      <path id="DejaVuSans-Bold-4d" d="M 588 4666 
L 2119 4666 
L 3181 2169 
L 4250 4666 
L 5778 4666 
L 5778 0 
L 4641 0 
L 4641 3413 
L 3566 897 
L 2803 897 
L 1728 3413 
L 1728 0 
L 588 0 
L 588 4666 
z
" transform="scale(0.015625)"/>
      <path id="DejaVuSans-Bold-45" d="M 588 4666 
L 3834 4666 
L 3834 3756 
L 1791 3756 
L 1791 2888 
L 3713 2888 
L 3713 1978 
L 1791 1978 
L 1791 909 
L 3903 909 
L 3903 0 
L 588 0 
L 588 4666 
z
" transform="scale(0.015625)"/>
      <path id="DejaVuSans-Bold-76" d="M 97 3500 
L 1216 3500 
L 2088 1081 
L 2956 3500 
L 4078 3500 
L 2700 0 
L 1472 0 
L 97 3500 
z
" transform="scale(0.015625)"/>
     </defs>
     <use xlink:href="#DejaVuSans-Bold-4b"/>
     <use xlink:href="#DejaVuSans-Bold-4d" transform="translate(77.490234 0)"/>
     <use xlink:href="#DejaVuSans-Bold-45" transform="translate(177.001953 0)"/>
     <use xlink:href="#DejaVuSans-Bold-20" transform="translate(245.3125 0)"/>
     <use xlink:href="#DejaVuSans-Bold-50" transform="translate(280.126953 0)"/>
     <use xlink:href="#DejaVuSans-Bold-72" transform="translate(353.417969 0)"/>
     <use xlink:href="#DejaVuSans-Bold-65" transform="translate(402.734375 0)"/>
     <use xlink:href="#DejaVuSans-Bold-76" transform="translate(470.556641 0)"/>
     <use xlink:href="#DejaVuSans-Bold-61" transform="translate(535.742188 0)"/>
     <use xlink:href="#DejaVuSans-Bold-6c" transform="translate(603.222656 0)"/>
     <use xlink:href="#DejaVuSans-Bold-65" transform="translate(637.5 0)"/>
     <use xlink:href="#DejaVuSans-Bold-6e" transform="translate(705.322266 0)"/>
     <use xlink:href="#DejaVuSans-Bold-63" transform="translate(776.513672 0)"/>
     <use xlink:href="#DejaVuSans-Bold-65" transform="translate(835.791016 0)"/>
    </g>
   </g>
   <g id="line2d_20">
    <path d="M 48.90125 484.891171 
L 100.417195 410.479951 
L 151.93314 221.000191 
L 203.449085 383.234376 
L 254.965031 109.7916 
L 306.480976 564.536484 
L 357.996921 326.486814 
L 409.512866 562.056218 
L 461.028811 461.782168 
L 512.544756 504.762921 
" clip-path="url(#p7faa6faabc)" style="fill: none; stroke: #1f2933; stroke-width: 2.8; stroke-linecap: square"/>
   </g>
   <g id="PathCollection_1">
    <defs>
     <path id="m77a4fe8ed3" d="M 0 2.645751 
C 0.701661 2.645751 1.374679 2.366978 1.870829 1.870829 
C 2.366978 1.374679 2.645751 0.701661 2.645751 0 
C 2.645751 -0.701661 2.366978 -1.374679 1.870829 -1.870829 
C 1.374679 -2.366978 0.701661 -2.645751 0 -2.645751 
C -0.701661 -2.645751 -1.374679 -2.366978 -1.870829 -1.870829 
C -2.366978 -1.374679 -2.645751 -0.701661 -2.645751 0 
C -2.645751 0.701661 -2.366978 1.374679 -1.870829 1.870829 
C -1.374679 2.366978 -0.701661 2.645751 0 2.645751 
z
" style="stroke: #ffffff; stroke-width: 0.7"/>
    </defs>
    <g clip-path="url(#p7faa6faabc)">
     <use xlink:href="#m77a4fe8ed3" x="48.90125" y="484.891171" style="fill: #334e68; stroke: #ffffff; stroke-width: 0.7"/>
     <use xlink:href="#m77a4fe8ed3" x="100.417195" y="410.479951" style="fill: #334e68; stroke: #ffffff; stroke-width: 0.7"/>
     <use xlink:href="#m77a4fe8ed3" x="151.93314" y="221.000191" style="fill: #334e68; stroke: #ffffff; stroke-width: 0.7"/>
     <use xlink:href="#m77a4fe8ed3" x="203.449085" y="383.234376" style="fill: #334e68; stroke: #ffffff; stroke-width: 0.7"/>
     <use xlink:href="#m77a4fe8ed3" x="254.965031" y="109.7916" style="fill: #334e68; stroke: #ffffff; stroke-width: 0.7"/>
     <use xlink:href="#m77a4fe8ed3" x="306.480976" y="564.536484" style="fill: #334e68; stroke: #ffffff; stroke-width: 0.7"/>
     <use xlink:href="#m77a4fe8ed3" x="357.996921" y="326.486814" style="fill: #334e68; stroke: #ffffff; stroke-width: 0.7"/>
     <use xlink:href="#m77a4fe8ed3" x="409.512866" y="562.056218" style="fill: #334e68; stroke: #ffffff; stroke-width: 0.7"/>
     <use xlink:href="#m77a4fe8ed3" x="461.028811" y="461.782168" style="fill: #334e68; stroke: #ffffff; stroke-width: 0.7"/>
     <use xlink:href="#m77a4fe8ed3" x="512.544756" y="504.762921" style="fill: #334e68; stroke: #ffffff; stroke-width: 0.7"/>
    </g>
   </g>
   <g id="legend_1">
    <g id="line2d_21">
     <path d="M 57.90125 551.649487 
L 67.90125 551.649487 
L 77.90125 551.649487 
" style="fill: none; stroke: #1f2933; stroke-width: 2.8; stroke-linecap: square"/>
    </g>
    <g id="text_20">
     <!-- Observed prevalence -->
     <g style="fill: #173024" transform="translate(85.90125 555.149487) scale(0.1 -0.1)">
      <use xlink:href="#DejaVuSans-4f"/>
      <use xlink:href="#DejaVuSans-62" transform="translate(78.710938 0)"/>
      <use xlink:href="#DejaVuSans-73" transform="translate(142.1875 0)"/>
      <use xlink:href="#DejaVuSans-65" transform="translate(194.287109 0)"/>
      <use xlink:href="#DejaVuSans-72" transform="translate(255.810547 0)"/>
      <use xlink:href="#DejaVuSans-76" transform="translate(296.923828 0)"/>
      <use xlink:href="#DejaVuSans-65" transform="translate(356.103516 0)"/>
      <use xlink:href="#DejaVuSans-64" transform="translate(417.626953 0)"/>
      <use xlink:href="#DejaVuSans-20" transform="translate(481.103516 0)"/>
      <use xlink:href="#DejaVuSans-70" transform="translate(512.890625 0)"/>
      <use xlink:href="#DejaVuSans-72" transform="translate(576.367188 0)"/>
      <use xlink:href="#DejaVuSans-65" transform="translate(615.230469 0)"/>
      <use xlink:href="#DejaVuSans-76" transform="translate(676.753906 0)"/>
      <use xlink:href="#DejaVuSans-61" transform="translate(735.933594 0)"/>
      <use xlink:href="#DejaVuSans-6c" transform="translate(797.212891 0)"/>
      <use xlink:href="#DejaVuSans-65" transform="translate(824.996094 0)"/>
      <use xlink:href="#DejaVuSans-6e" transform="translate(886.519531 0)"/>
      <use xlink:href="#DejaVuSans-63" transform="translate(949.898438 0)"/>
      <use xlink:href="#DejaVuSans-65" transform="translate(1004.878906 0)"/>
     </g>
    </g>
    <g id="line2d_22">
     <path d="M 57.90125 566.327612 
L 67.90125 566.327612 
L 77.90125 566.327612 
" style="fill: none; stroke: #5bae6a; stroke-width: 2.8; stroke-linecap: square"/>
    </g>
    <g id="text_21">
     <!-- Medium-emissions scenario -->
     <g style="fill: #173024" transform="translate(85.90125 569.827612) scale(0.1 -0.1)">
      <use xlink:href="#DejaVuSans-4d"/>
      <use xlink:href="#DejaVuSans-65" transform="translate(86.279297 0)"/>
      <use xlink:href="#DejaVuSans-64" transform="translate(147.802734 0)"/>
      <use xlink:href="#DejaVuSans-69" transform="translate(211.279297 0)"/>
      <use xlink:href="#DejaVuSans-75" transform="translate(239.0625 0)"/>
      <use xlink:href="#DejaVuSans-6d" transform="translate(302.441406 0)"/>
      <use xlink:href="#DejaVuSans-2d" transform="translate(399.853516 0)"/>
      <use xlink:href="#DejaVuSans-65" transform="translate(435.9375 0)"/>
      <use xlink:href="#DejaVuSans-6d" transform="translate(497.460938 0)"/>
      <use xlink:href="#DejaVuSans-69" transform="translate(594.873047 0)"/>
      <use xlink:href="#DejaVuSans-73" transform="translate(622.65625 0)"/>
      <use xlink:href="#DejaVuSans-73" transform="translate(674.755859 0)"/>
      <use xlink:href="#DejaVuSans-69" transform="translate(726.855469 0)"/>
      <use xlink:href="#DejaVuSans-6f" transform="translate(754.638672 0)"/>
      <use xlink:href="#DejaVuSans-6e" transform="translate(815.820312 0)"/>
      <use xlink:href="#DejaVuSans-73" transform="translate(879.199219 0)"/>
      <use xlink:href="#DejaVuSans-20" transform="translate(931.298828 0)"/>
      <use xlink:href="#DejaVuSans-73" transform="translate(963.085938 0)"/>
      <use xlink:href="#DejaVuSans-63" transform="translate(1015.185547 0)"/>
      <use xlink:href="#DejaVuSans-65" transform="translate(1070.166016 0)"/>
      <use xlink:href="#DejaVuSans-6e" transform="translate(1131.689453 0)"/>
      <use xlink:href="#DejaVuSans-61" transform="translate(1195.068359 0)"/>
      <use xlink:href="#DejaVuSans-72" transform="translate(1256.347656 0)"/>
      <use xlink:href="#DejaVuSans-69" transform="translate(1297.460938 0)"/>
      <use xlink:href="#DejaVuSans-6f" transform="translate(1325.244141 0)"/>
     </g>
    </g>
    <g id="line2d_23">
     <path d="M 244.541875 551.649487 
L 254.541875 551.649487 
L 264.541875 551.649487 
" style="fill: none; stroke: #0b6e4f; stroke-width: 2.8; stroke-linecap: square"/>
    </g>
    <g id="text_22">
     <!-- High-emissions scenario -->
     <g style="fill: #173024" transform="translate(272.541875 555.149487) scale(0.1 -0.1)">
      <defs>
       <path id="DejaVuSans-67" d="M 2906 1791 
Q 2906 2416 2648 2759 
Q 2391 3103 1925 3103 
Q 1463 3103 1205 2759 
Q 947 2416 947 1791 
Q 947 1169 1205 825 
Q 1463 481 1925 481 
Q 2391 481 2648 825 
Q 2906 1169 2906 1791 
z
M 3481 434 
Q 3481 -459 3084 -895 
Q 2688 -1331 1869 -1331 
Q 1566 -1331 1297 -1286 
Q 1028 -1241 775 -1147 
L 775 -588 
Q 1028 -725 1275 -790 
Q 1522 -856 1778 -856 
Q 2344 -856 2625 -561 
Q 2906 -266 2906 331 
L 2906 616 
Q 2728 306 2450 153 
Q 2172 0 1784 0 
Q 1141 0 747 490 
Q 353 981 353 1791 
Q 353 2603 747 3093 
Q 1141 3584 1784 3584 
Q 2172 3584 2450 3431 
Q 2728 3278 2906 2969 
L 2906 3500 
L 3481 3500 
L 3481 434 
z
" transform="scale(0.015625)"/>
      </defs>
      <use xlink:href="#DejaVuSans-48"/>
      <use xlink:href="#DejaVuSans-69" transform="translate(75.195312 0)"/>
      <use xlink:href="#DejaVuSans-67" transform="translate(102.978516 0)"/>
      <use xlink:href="#DejaVuSans-68" transform="translate(166.455078 0)"/>
      <use xlink:href="#DejaVuSans-2d" transform="translate(229.833984 0)"/>
      <use xlink:href="#DejaVuSans-65" transform="translate(265.917969 0)"/>
      <use xlink:href="#DejaVuSans-6d" transform="translate(327.441406 0)"/>
      <use xlink:href="#DejaVuSans-69" transform="translate(424.853516 0)"/>
      <use xlink:href="#DejaVuSans-73" transform="translate(452.636719 0)"/>
      <use xlink:href="#DejaVuSans-73" transform="translate(504.736328 0)"/>
      <use xlink:href="#DejaVuSans-69" transform="translate(556.835938 0)"/>
      <use xlink:href="#DejaVuSans-6f" transform="translate(584.619141 0)"/>
      <use xlink:href="#DejaVuSans-6e" transform="translate(645.800781 0)"/>
      <use xlink:href="#DejaVuSans-73" transform="translate(709.179688 0)"/>
      <use xlink:href="#DejaVuSans-20" transform="translate(761.279297 0)"/>
      <use xlink:href="#DejaVuSans-73" transform="translate(793.066406 0)"/>
      <use xlink:href="#DejaVuSans-63" transform="translate(845.166016 0)"/>
      <use xlink:href="#DejaVuSans-65" transform="translate(900.146484 0)"/>
      <use xlink:href="#DejaVuSans-6e" transform="translate(961.669922 0)"/>
      <use xlink:href="#DejaVuSans-61" transform="translate(1025.048828 0)"/>
      <use xlink:href="#DejaVuSans-72" transform="translate(1086.328125 0)"/>
      <use xlink:href="#DejaVuSans-69" transform="translate(1127.441406 0)"/>
      <use xlink:href="#DejaVuSans-6f" transform="translate(1155.224609 0)"/>
     </g>
    </g>
    <g id="patch_7">
     <path d="M 244.541875 569.827612 
L 264.541875 569.827612 
L 264.541875 562.827612 
L 244.541875 562.827612 
z
" style="fill: #dff3e3; stroke: #a7d7af; stroke-linejoin: miter"/>
    </g>
    <g id="text_23">
     <!-- Projection zone -->
     <g style="fill: #173024" transform="translate(272.541875 569.827612) scale(0.1 -0.1)">
      <defs>
       <path id="DejaVuSans-7a" d="M 353 3500 
L 3084 3500 
L 3084 2975 
L 922 459 
L 3084 459 
L 3084 0 
L 275 0 
L 275 525 
L 2438 3041 
L 353 3041 
L 353 3500 
z
" transform="scale(0.015625)"/>
      </defs>
      <use xlink:href="#DejaVuSans-50"/>
      <use xlink:href="#DejaVuSans-72" transform="translate(58.552734 0)"/>
      <use xlink:href="#DejaVuSans-6f" transform="translate(97.416016 0)"/>
      <use xlink:href="#DejaVuSans-6a" transform="translate(158.597656 0)"/>
      <use xlink:href="#DejaVuSans-65" transform="translate(186.380859 0)"/>
      <use xlink:href="#DejaVuSans-63" transform="translate(247.904297 0)"/>
      <use xlink:href="#DejaVuSans-74" transform="translate(302.884766 0)"/>
      <use xlink:href="#DejaVuSans-69" transform="translate(342.09375 0)"/>
      <use xlink:href="#DejaVuSans-6f" transform="translate(369.876953 0)"/>
      <use xlink:href="#DejaVuSans-6e" transform="translate(431.058594 0)"/>
      <use xlink:href="#DejaVuSans-20" transform="translate(494.4375 0)"/>
      <use xlink:href="#DejaVuSans-7a" transform="translate(526.224609 0)"/>
      <use xlink:href="#DejaVuSans-6f" transform="translate(578.714844 0)"/>
      <use xlink:href="#DejaVuSans-6e" transform="translate(639.896484 0)"/>
      <use xlink:href="#DejaVuSans-65" transform="translate(703.275391 0)"/>
     </g>
    </g>
   </g>
   <g id="line2d_24">
    <path d="M 564.060701 358.38491 
L 615.576646 368.197795 
L 667.092592 375.185897 
L 718.608537 399.167036 
L 770.124482 375.627043 
L 821.640427 348.896861 
L 873.156372 367.735851 
L 924.672317 384.200946 
L 976.188262 362.590759 
L 1027.704207 362.136173 
" clip-path="url(#p7faa6faabc)" style="fill: none; stroke: #5bae6a; stroke-width: 2.8; stroke-linecap: square"/>
   </g>
   <g id="line2d_25">
    <path d="M 564.060701 360.568241 
L 615.576646 367.939765 
L 667.092592 386.478596 
L 718.608537 379.723862 
L 770.124482 369.551 
L 821.640427 370.119604 
L 873.156372 347.144239 
L 924.672317 364.458217 
L 976.188262 326.435166 
L 1027.704207 363.297409 
" clip-path="url(#p7faa6faabc)" style="fill: none; stroke: #0b6e4f; stroke-width: 2.8; stroke-linecap: square"/>
   </g>
  </g>
 </g>
 <defs>
  <clipPath id="p7faa6faabc">
   <rect x="48.90125" y="27.937521" width="978.802957" height="552.969779"/>
  </clipPath>
 </defs>
</svg>
